<svg xmlns="http://www.w3.org/2000/svg" width="388" height="261" fill="none" xmlns:v="https://vecta.io/nano"><path d="M8.862 173.06l1.4.434v-2.758l-1.4.434-1.526.476-1.568.448v.056l1.568.434 1.526.476zm5.138 2.8l-9.184-3.108v-1.316L14 168.328v1.246l-2.8.868v3.346l2.8.882v1.19zm0-10.095l-6.804 2.45v-1.19l3.864-1.288 1.008-.308.994-.322v-.056l-.994-.308-1.008-.308-3.864-1.288v-1.134L14 164.421v1.344zm.168-7.769c0 .607-.14 1.158-.42 1.652-.289.495-.7.887-1.232 1.176s-1.167.434-1.904.434c-.747 0-1.386-.144-1.918-.434-.532-.298-.943-.681-1.232-1.148s-.434-.956-.434-1.47c0-.868.289-1.535.868-2.002.579-.476 1.353-.714 2.324-.714l.364.014a1.41 1.41 0 0 1 .294.028v4.592c.719-.046 1.293-.27 1.722-.672.429-.41.644-.942.644-1.596a2.74 2.74 0 0 0-.14-.896 4.22 4.22 0 0 0-.392-.798l.756-.406c.187.29.35.621.49.994.14.364.21.78.21 1.246zm-4.116 2.142v-3.64c-.691 0-1.213.15-1.568.448-.364.29-.546.7-.546 1.232 0 .476.187.906.56 1.288.364.374.882.598 1.554.672zM14 153.809H7.196v-.952l1.232-.098v-.042c-.429-.233-.77-.518-1.022-.854s-.378-.695-.378-1.078a1.81 1.81 0 0 1 .14-.728l1.008.224c-.037.112-.065.215-.084.308s-.028.21-.028.35c0 .289.117.593.35.91.233.308.639.579 1.218.812H14v1.148zm.168-6.08c0 .57-.168 1.046-.504 1.428-.345.374-.821.56-1.428.56-.747 0-1.316-.331-1.708-.994-.401-.672-.681-1.731-.84-3.178-.289 0-.565.042-.826.126-.261.075-.471.215-.63.42-.168.196-.252.481-.252.854 0 .392.075.761.224 1.106s.317.654.504.924l-.798.448c-.205-.317-.401-.704-.588-1.162a3.86 3.86 0 0 1-.294-1.512c0-.83.257-1.432.77-1.806.504-.373 1.181-.56 2.03-.56H14v.952l-.812.098v.042c.261.318.49.668.686 1.05.196.374.294.775.294 1.204zm-.924-.336c0-.326-.079-.634-.238-.924s-.383-.597-.672-.924h-1.89c.14 1.13.35 1.923.63 2.38.28.448.639.672 1.078.672.383 0 .663-.116.84-.35.168-.233.252-.518.252-.854zm3.892-7.446c0 .83-.159 1.507-.476 2.03s-.77.784-1.358.784c-.289 0-.569-.089-.84-.266-.261-.178-.495-.42-.7-.728h-.056c-.103.168-.247.312-.434.434-.187.112-.411.168-.672.168a1.24 1.24 0 0 1-.756-.238c-.215-.159-.383-.327-.504-.504h-.056c-.187.224-.439.429-.756.616-.317.177-.677.266-1.078.266-.495 0-.924-.117-1.288-.35s-.644-.546-.84-.938a2.81 2.81 0 0 1-.294-1.274c0-.187.019-.364.056-.532a2.24 2.24 0 0 1 .112-.434v-2.366h.882v1.4c.149-.159.35-.29.602-.392a1.88 1.88 0 0 1 .798-.168c.485 0 .905.112 1.26.336a2.31 2.31 0 0 1 .826.896c.187.373.28.793.28 1.26 0 .364-.079.704-.238 1.022.103.121.219.224.35.308.121.084.275.126.462.126a.66.66 0 0 0 .532-.252c.14-.178.21-.495.21-.952v-1.316c0-.794.131-1.386.392-1.778.252-.402.663-.602 1.232-.602.42 0 .807.14 1.162.42s.639.676.854 1.19c.224.513.336 1.124.336 1.834zm-6.062 0c0-.392-.145-.728-.434-1.008-.299-.29-.695-.434-1.19-.434s-.882.14-1.162.42a1.39 1.39 0 0 0-.42 1.022 1.39 1.39 0 0 0 .42 1.022c.28.28.667.42 1.162.42s.891-.14 1.19-.42c.289-.29.434-.63.434-1.022zm5.264-.168c0-.654-.145-1.176-.434-1.568-.28-.392-.597-.588-.952-.588-.317 0-.537.121-.658.364-.121.233-.182.569-.182 1.008v1.176c0 .13-.009.275-.028.434a3.83 3.83 0 0 1-.084.448c.177.242.364.42.56.532s.392.168.588.168c.364 0 .653-.173.868-.518.215-.355.322-.84.322-1.456zm-2.17-7.158c0 .607-.14 1.158-.42 1.652-.289.495-.7.887-1.232 1.176s-1.167.434-1.904.434c-.747 0-1.386-.144-1.918-.434-.532-.298-.943-.681-1.232-1.148s-.434-.956-.434-1.47c0-.868.289-1.535.868-2.002.579-.476 1.353-.714 2.324-.714l.364.014a1.41 1.41 0 0 1 .294.028v4.592c.719-.046 1.293-.27 1.722-.672.429-.41.644-.942.644-1.596a2.74 2.74 0 0 0-.14-.896 4.22 4.22 0 0 0-.392-.798l.756-.406c.187.29.35.621.49.994.14.364.21.78.21 1.246zm-4.116 2.142v-3.64c-.691 0-1.213.15-1.568.448-.364.29-.546.7-.546 1.232 0 .476.187.906.56 1.288.364.374.882.598 1.554.672zm4.116-12.716c0 .766-.187 1.452-.56 2.058-.383.598-.929 1.074-1.638 1.428-.709.346-1.563.518-2.562.518-.989 0-1.839-.177-2.548-.532s-1.255-.84-1.638-1.456a3.87 3.87 0 0 1-.574-2.086c0-.56.117-1.054.35-1.484.224-.429.485-.774.784-1.036l.756.63c-.261.243-.471.518-.63.826a2.26 2.26 0 0 0-.238 1.05c0 .579.154 1.088.462 1.526.299.43.723.766 1.274 1.008.551.234 1.209.35 1.974.35s1.433-.116 2.002-.35c.56-.233.994-.56 1.302-.98.308-.429.462-.933.462-1.512 0-.438-.093-.83-.28-1.176s-.439-.662-.756-.952l.728-.644c.42.364.747.775.98 1.232s.35.985.35 1.582zM14 115.863H5.796v2.772h-.98v-6.72h.98v2.772H14v1.176zm.168-8.732c0 .766-.187 1.452-.56 2.058-.383.598-.929 1.074-1.638 1.428-.709.346-1.563.518-2.562.518-.989 0-1.839-.177-2.548-.532s-1.255-.84-1.638-1.456a3.87 3.87 0 0 1-.574-2.086c0-.56.117-1.054.35-1.484.224-.429.485-.774.784-1.036l.756.63c-.261.243-.471.518-.63.826a2.26 2.26 0 0 0-.238 1.05c0 .579.154 1.088.462 1.526.299.43.723.766 1.274 1.008.551.234 1.209.35 1.974.35s1.433-.116 2.002-.35c.56-.233.994-.56 1.302-.98.308-.429.462-.933.462-1.512 0-.438-.093-.83-.28-1.176s-.439-.662-.756-.952l.728-.644c.42.364.747.775.98 1.232s.35.985.35 1.582z" fill="#61738e"/><path d="M26.354 20.914a.5.5 0 0 0-.707 0l-3.182 3.182a.5.5 0 0 0 .707.707L26 21.975l2.829 2.828a.5.5 0 0 0 .707-.707l-3.182-3.182zm-.854.354V258.5h1V21.268h-1z" fill="#d6dee5"/><path fill="url(#A)" d="M54 184.384h113v64H54z"/><path d="M68.179 226.552c-.793 0-1.493-.192-2.1-.574-.607-.392-1.083-.943-1.428-1.652-.336-.719-.504-1.573-.504-2.562s.168-1.834.504-2.534c.345-.7.821-1.237 1.428-1.61s1.307-.56 2.1-.56c.803 0 1.507.186 2.114.56s1.078.91 1.414 1.61c.345.7.518 1.544.518 2.534s-.173 1.843-.518 2.562c-.336.709-.807 1.26-1.414 1.652-.607.382-1.311.574-2.114.574zm0-1.414c.719 0 1.293-.304 1.722-.91.429-.616.644-1.438.644-2.464s-.215-1.83-.644-2.408c-.429-.588-1.003-.882-1.722-.882s-1.293.294-1.722.882c-.429.578-.644 1.381-.644 2.408s.215 1.848.644 2.464c.429.606 1.003.91 1.722.91zm8.16 1.414c-.793 0-1.358-.229-1.694-.686-.327-.467-.49-1.069-.49-1.806v-3.276h-.98v-1.204l1.064-.07.196-1.876h1.344v1.876h1.75v1.274h-1.75v3.276c0 .802.322 1.204.966 1.204a1.8 1.8 0 0 0 .378-.042l.336-.112.28 1.19c-.187.065-.401.121-.644.168-.233.056-.485.084-.756.084zm2.637-.168V216.5h1.61v2.548l-.056 1.33c.289-.271.611-.509.966-.714.355-.215.765-.322 1.232-.322.737 0 1.274.238 1.61.714s.504 1.148.504 2.016v4.312h-1.61v-4.102c0-.57-.084-.971-.252-1.204s-.443-.35-.826-.35c-.299 0-.565.074-.798.224-.224.14-.481.35-.77.63v4.802h-1.61zm10.747.168c-.635 0-1.209-.14-1.722-.42a3.16 3.16 0 0 1-1.218-1.232c-.299-.542-.448-1.19-.448-1.946 0-.747.149-1.391.448-1.932a3.32 3.32 0 0 1 1.19-1.246 2.93 2.93 0 0 1 1.526-.434c.625 0 1.148.14 1.568.42.42.27.737.653.952 1.148.215.485.322 1.05.322 1.694 0 .336-.023.597-.07.784h-4.368c.075.606.294 1.078.658 1.414s.821.504 1.372.504a2.6 2.6 0 0 0 .826-.126c.261-.094.518-.22.77-.378l.546 1.008c-.327.214-.691.392-1.092.532a3.8 3.8 0 0 1-1.26.21zm-1.834-4.256h3.052c0-.532-.117-.948-.35-1.246-.233-.308-.583-.462-1.05-.462-.401 0-.761.149-1.078.448-.308.289-.499.709-.574 1.26zm5.99 4.088v-6.874h1.33l.112 1.218h.056c.243-.448.537-.789.882-1.022.345-.243.7-.364 1.064-.364.327 0 .588.046.784.14l-.28 1.4a2.69 2.69 0 0 0-.336-.084c-.103-.019-.229-.028-.378-.028-.271 0-.555.107-.854.322-.299.205-.555.569-.77 1.092v4.2h-1.61zm8.166 0v-9.156h2.926c.635 0 1.195.07 1.68.21.495.14.882.378 1.162.714.289.326.434.77.434 1.33 0 .429-.112.835-.336 1.218-.224.373-.537.63-.938.77v.056c.504.112.919.35 1.246.714.336.354.504.84.504 1.456 0 .606-.154 1.11-.462 1.512-.299.401-.714.7-1.246.896-.532.186-1.134.28-1.806.28h-3.164zm1.624-5.376h1.162c.635 0 1.097-.117 1.386-.35s.434-.546.434-.938c0-.448-.149-.766-.448-.952s-.747-.28-1.344-.28h-1.19v2.52zm0 4.116h1.372c.672 0 1.19-.122 1.554-.364.364-.252.546-.635.546-1.148 0-.486-.177-.836-.532-1.05-.355-.224-.877-.336-1.568-.336h-1.372v2.898zm6.589 1.26v-6.874h1.33l.112 1.218h.056c.243-.448.537-.789.882-1.022.346-.243.7-.364 1.064-.364.327 0 .588.046.784.14l-.28 1.4c-.121-.038-.233-.066-.336-.084s-.228-.028-.378-.028c-.27 0-.555.107-.854.322-.298.205-.555.569-.77 1.092v4.2h-1.61zm6.52.168c-.597 0-1.087-.187-1.47-.56-.373-.374-.56-.859-.56-1.456 0-.738.322-1.307.966-1.708.644-.411 1.671-.691 3.08-.84-.009-.364-.107-.677-.294-.938-.177-.271-.499-.406-.966-.406a2.65 2.65 0 0 0-.994.196c-.317.13-.63.289-.938.476l-.588-1.078c.383-.243.812-.453 1.288-.63.485-.178.999-.266 1.54-.266.859 0 1.498.256 1.918.77.429.504.644 1.236.644 2.198v4.074h-1.33l-.112-.756h-.056c-.308.261-.639.48-.994.658-.345.177-.723.266-1.134.266zm.518-1.26a1.48 1.48 0 0 0 .756-.196c.233-.14.481-.327.742-.56v-1.54c-.933.121-1.582.303-1.946.546-.364.233-.546.522-.546.868 0 .308.093.532.28.672s.425.21.714.21zm5.035 1.092v-6.874h1.33l.112.924h.056a5.3 5.3 0 0 1 1.008-.77c.364-.215.779-.322 1.246-.322.737 0 1.274.238 1.61.714s.504 1.148.504 2.016v4.312h-1.61v-4.102c0-.57-.084-.971-.252-1.204s-.444-.35-.826-.35a1.44 1.44 0 0 0-.798.224c-.224.14-.481.35-.77.63v4.802h-1.61zm10.704.168c-.626 0-1.19-.14-1.694-.42-.495-.29-.892-.7-1.19-1.232-.29-.542-.434-1.19-.434-1.946 0-.766.158-1.414.476-1.946.317-.542.737-.952 1.26-1.232a3.51 3.51 0 0 1 1.708-.434c.438 0 .821.074 1.148.224s.616.331.868.546l-.784 1.05c-.178-.159-.36-.28-.546-.364a1.32 1.32 0 0 0-.602-.14c-.551 0-1.004.21-1.358.63-.346.42-.518.975-.518 1.666 0 .681.168 1.232.504 1.652a1.64 1.64 0 0 0 1.33.63 1.73 1.73 0 0 0 .756-.168c.242-.122.462-.262.658-.42l.658 1.064a3.25 3.25 0 0 1-1.064.63c-.392.14-.784.21-1.176.21zm3.596-.168V216.5h1.61v2.548l-.056 1.33c.29-.271.612-.509.966-.714.355-.215.766-.322 1.232-.322.738 0 1.274.238 1.61.714s.504 1.148.504 2.016v4.312h-1.61v-4.102c0-.57-.084-.971-.252-1.204s-.443-.35-.826-.35c-.298 0-.564.074-.798.224-.224.14-.48.35-.77.63v4.802h-1.61zm10.747.168c-.635 0-1.209-.14-1.722-.42-.513-.29-.919-.7-1.218-1.232-.299-.542-.448-1.19-.448-1.946 0-.747.149-1.391.448-1.932.308-.542.705-.957 1.19-1.246a2.93 2.93 0 0 1 1.526-.434c.625 0 1.148.14 1.568.42.42.27.737.653.952 1.148.215.485.322 1.05.322 1.694 0 .336-.023.597-.07.784h-4.368c.075.606.294 1.078.658 1.414s.821.504 1.372.504c.299 0 .574-.042.826-.126.261-.094.518-.22.77-.378l.546 1.008c-.327.214-.691.392-1.092.532s-.821.21-1.26.21zm-1.834-4.256h3.052c0-.532-.117-.948-.35-1.246-.233-.308-.583-.462-1.05-.462a1.53 1.53 0 0 0-1.078.448c-.308.289-.499.709-.574 1.26zm7.908 4.256a3.92 3.92 0 0 1-1.4-.266c-.467-.187-.868-.416-1.204-.686l.756-1.036c.308.233.616.42.924.56a2.34 2.34 0 0 0 .98.21c.373 0 .648-.08.826-.238a.76.76 0 0 0 .266-.588c0-.196-.075-.355-.224-.476-.14-.131-.322-.243-.546-.336l-.7-.294a7.63 7.63 0 0 1-.896-.406c-.29-.168-.528-.378-.714-.63-.187-.262-.28-.584-.28-.966 0-.607.224-1.102.672-1.484s1.054-.574 1.82-.574a3.21 3.21 0 0 1 1.302.252c.382.168.714.359.994.574l-.742.98c-.243-.178-.49-.318-.742-.42a1.82 1.82 0 0 0-.77-.168c-.346 0-.602.074-.77.224a.66.66 0 0 0-.252.532c0 .27.14.476.42.616s.606.275.98.406a5.89 5.89 0 0 1 .924.42 2.2 2.2 0 0 1 .742.63c.205.261.308.606.308 1.036 0 .588-.229 1.092-.686 1.512-.458.41-1.12.616-1.988.616z" fill="#1a2c47"/><path d="M80.018 243.52c-.496-.816-.884-1.668-1.164-2.556s-.42-1.86-.42-2.916.14-2.028.42-2.916.668-1.74 1.164-2.556l.864.384a9.29 9.29 0 0 0-.996 2.46c-.216.872-.324 1.748-.324 2.628s.108 1.756.324 2.628a9.29 9.29 0 0 0 .996 2.46l-.864.384zm4.779-1.992c-.544 0-1.036-.12-1.476-.36-.44-.248-.788-.6-1.044-1.056-.256-.464-.384-1.02-.384-1.668 0-.64.128-1.192.384-1.656.264-.464.604-.82 1.02-1.068s.852-.372 1.308-.372c.536 0 .984.12 1.344.36.36.232.632.56.816.984.184.416.276.9.276 1.452 0 .288-.02.512-.06.672h-3.744c.064.52.252.924.564 1.212s.704.432 1.176.432c.256 0 .492-.036.708-.108a3.36 3.36 0 0 0 .66-.324l.468.864c-.28.184-.592.336-.936.456s-.704.18-1.08.18zm-1.572-3.648h2.616c0-.456-.1-.812-.3-1.068-.2-.264-.5-.396-.9-.396-.344 0-.652.128-.924.384-.264.248-.428.608-.492 1.08zm6.454 3.504l-2.052-5.892h1.404l.936 3.06.24.876.252.9h.048l.252-.9.252-.876.936-3.06h1.332l-2.004 5.892h-1.596zm7.071.144c-.544 0-1.036-.12-1.476-.36-.44-.248-.788-.6-1.044-1.056-.256-.464-.384-1.02-.384-1.668 0-.64.128-1.192.384-1.656.264-.464.604-.82 1.02-1.068s.852-.372 1.308-.372c.536 0 .984.12 1.344.36.36.232.632.56.816.984.184.416.276.9.276 1.452 0 .288-.02.512-.06.672H95.19c.064.52.252.924.564 1.212s.704.432 1.176.432c.256 0 .492-.036.708-.108a3.36 3.36 0 0 0 .66-.324l.468.864c-.28.184-.592.336-.936.456s-.704.18-1.08.18zm-1.572-3.648h2.616c0-.456-.1-.812-.3-1.068-.2-.264-.5-.396-.9-.396-.344 0-.652.128-.924.384-.264.248-.428.608-.492 1.08zm5.135 3.504v-5.892h1.14l.096.792h.048a4.58 4.58 0 0 1 .864-.66c.312-.184.668-.276 1.068-.276.632 0 1.092.204 1.38.612s.432.984.432 1.728v3.696h-1.38v-3.516c0-.488-.072-.832-.216-1.032s-.38-.3-.708-.3a1.24 1.24 0 0 0-.684.192c-.192.12-.412.3-.66.54v4.116h-1.38zm9.117 0v-5.892h1.38v5.892h-1.38zm.696-6.924c-.248 0-.448-.072-.6-.216s-.228-.336-.228-.576a.74.74 0 0 1 .228-.564c.152-.144.352-.216.6-.216s.448.072.6.216a.74.74 0 0 1 .228.564c0 .24-.076.432-.228.576s-.352.216-.6.216zm2.444 6.924v-5.892h1.14l.096.792h.048a4.58 4.58 0 0 1 .864-.66c.312-.184.668-.276 1.068-.276.632 0 1.092.204 1.38.612s.432.984.432 1.728v3.696h-1.38v-3.516c0-.488-.072-.832-.216-1.032s-.38-.3-.708-.3a1.24 1.24 0 0 0-.684.192c-.192.12-.412.3-.66.54v4.116h-1.38zm9.238 0v-7.848h1.392v7.848h-1.392zm3.386 0v-7.848h1.392v7.848h-1.392zm4.971 0v-6.672h-2.268v-1.176h5.928v1.176h-2.268v6.672h-1.392zm5.788.144c-.4 0-.8-.076-1.2-.228a4 4 0 0 1-1.032-.588l.648-.888c.264.2.528.36.792.48s.544.18.84.18c.32 0 .556-.068.708-.204a.65.65 0 0 0 .228-.504.5.5 0 0 0-.192-.408c-.12-.112-.276-.208-.468-.288l-.6-.252a6.51 6.51 0 0 1-.768-.348 2 2 0 0 1-.612-.54c-.16-.224-.24-.5-.24-.828 0-.52.192-.944.576-1.272s.904-.492 1.56-.492a2.75 2.75 0 0 1 1.116.216 4.11 4.11 0 0 1 .852.492l-.636.84c-.208-.152-.42-.272-.636-.36-.208-.096-.428-.144-.66-.144-.296 0-.516.064-.66.192-.144.12-.216.272-.216.456 0 .232.12.408.36.528s.52.236.84.348c.272.096.536.216.792.36.256.136.468.316.636.54.176.224.264.52.264.888 0 .504-.196.936-.588 1.296-.392.352-.96.528-1.704.528zm4.028 1.992l-.864-.384a9.29 9.29 0 0 0 .996-2.46c.216-.872.324-1.748.324-2.628s-.108-1.756-.324-2.628a9.29 9.29 0 0 0-.996-2.46l.864-.384c.496.816.884 1.668 1.164 2.556s.42 1.86.42 2.916-.14 2.028-.42 2.916-.668 1.74-1.164 2.556z" fill="#61738e"/><path fill="url(#B)" d="M216 69.384h138v188H216z"/><path d="M258.22 223.552c-.765 0-1.46-.182-2.086-.546s-1.124-.896-1.498-1.596c-.364-.71-.546-1.568-.546-2.576 0-.999.187-1.853.56-2.562.383-.719.892-1.265 1.526-1.638.635-.383 1.335-.574 2.1-.574.579 0 1.092.116 1.54.35s.817.504 1.106.812l-.868 1.05c-.233-.243-.494-.434-.784-.574-.28-.15-.597-.224-.952-.224-.494 0-.938.135-1.33.406-.382.261-.686.639-.91 1.134-.214.494-.322 1.087-.322 1.778 0 1.045.229 1.866.686 2.464.458.588 1.069.882 1.834.882.411 0 .775-.084 1.092-.252.318-.178.607-.406.868-.686l.868 1.022a3.99 3.99 0 0 1-1.288.994c-.476.224-1.008.336-1.596.336zm7.087 0c-.57 0-1.102-.14-1.596-.42-.495-.29-.896-.7-1.204-1.232-.308-.542-.462-1.19-.462-1.946 0-.766.154-1.414.462-1.946.308-.542.709-.952 1.204-1.232a3.1 3.1 0 0 1 1.596-.434 3.13 3.13 0 0 1 1.61.434c.494.28.896.69 1.204 1.232.308.532.462 1.18.462 1.946 0 .756-.154 1.404-.462 1.946-.308.532-.71.942-1.204 1.232-.495.28-1.032.42-1.61.42zm0-1.316a1.37 1.37 0 0 0 1.19-.63c.289-.42.434-.971.434-1.652 0-.691-.145-1.246-.434-1.666a1.37 1.37 0 0 0-1.19-.63c-.504 0-.901.21-1.19.63-.28.42-.42.975-.42 1.666 0 .681.14 1.232.42 1.652.289.42.686.63 1.19.63zm4.869 1.148v-6.874h1.33l.112.938h.056a4.92 4.92 0 0 1 .938-.784c.346-.215.733-.322 1.162-.322.504 0 .906.112 1.204.336.308.214.542.513.7.896.327-.355.668-.649 1.022-.882.364-.234.761-.35 1.19-.35.728 0 1.265.238 1.61.714s.518 1.148.518 2.016v4.312h-1.624v-4.102c0-.57-.088-.971-.266-1.204-.168-.234-.429-.35-.784-.35-.429 0-.91.284-1.442.854v4.802h-1.61v-4.102c0-.57-.088-.971-.266-1.204-.168-.234-.434-.35-.798-.35-.429 0-.91.284-1.442.854v4.802h-1.61zm11.799 2.716v-9.59h1.33l.112.728h.056a4.87 4.87 0 0 1 .966-.63c.364-.178.733-.266 1.106-.266.859 0 1.521.317 1.988.952.476.634.714 1.484.714 2.548 0 .784-.14 1.456-.42 2.016-.28.55-.644.97-1.092 1.26-.439.289-.915.434-1.428.434a2.23 2.23 0 0 1-.896-.196c-.299-.14-.588-.327-.868-.56l.042 1.148v2.156h-1.61zm2.996-3.878c.457 0 .84-.201 1.148-.602s.462-.99.462-1.764c0-.691-.117-1.228-.35-1.61s-.611-.574-1.134-.574c-.485 0-.989.256-1.512.77v3.206c.252.205.495.354.728.448.233.084.453.126.658.126zm6.95 1.33c-.737 0-1.274-.238-1.61-.714s-.504-1.148-.504-2.016v-4.312h1.61v4.102c0 .569.084.97.252 1.204s.439.35.812.35c.299 0 .56-.075.784-.224.234-.15.481-.392.742-.728v-4.704h1.61v6.874h-1.316l-.126-1.008h-.042c-.298.354-.625.639-.98.854s-.765.322-1.232.322zm8.158 0c-.794 0-1.358-.229-1.694-.686-.327-.467-.49-1.069-.49-1.806v-3.276h-.98v-1.204l1.064-.07.196-1.876h1.344v1.876h1.75v1.274h-1.75v3.276c0 .802.322 1.204.966 1.204a1.81 1.81 0 0 0 .378-.042l.336-.112.28 1.19a4.71 4.71 0 0 1-.644.168c-.234.056-.486.084-.756.084zm5.358 0c-.635 0-1.209-.14-1.722-.42a3.15 3.15 0 0 1-1.218-1.232c-.299-.542-.448-1.19-.448-1.946 0-.747.149-1.391.448-1.932.308-.542.704-.957 1.19-1.246a2.93 2.93 0 0 1 1.526-.434c.625 0 1.148.14 1.568.42.42.27.737.653.952 1.148.214.485.322 1.05.322 1.694 0 .336-.024.597-.07.784h-4.368c.074.606.294 1.078.658 1.414s.821.504 1.372.504a2.6 2.6 0 0 0 .826-.126c.261-.094.518-.22.77-.378l.546 1.008c-.327.214-.691.392-1.092.532s-.822.21-1.26.21zm-1.834-4.256h3.052c0-.532-.117-.948-.35-1.246-.234-.308-.584-.462-1.05-.462-.402 0-.761.149-1.078.448-.308.289-.5.709-.574 1.26zm5.989 4.088v-6.874h1.33l.112 1.218h.056c.243-.448.537-.789.882-1.022.346-.243.7-.364 1.064-.364.327 0 .588.046.784.14l-.28 1.4c-.121-.038-.233-.066-.336-.084s-.228-.028-.378-.028c-.27 0-.555.107-.854.322-.298.205-.555.569-.77 1.092v4.2h-1.61zm-43.711 18.168c-.616 0-1.213-.117-1.792-.35a4.7 4.7 0 0 1-1.512-.994l.952-1.106a4.23 4.23 0 0 0 1.12.756 3.09 3.09 0 0 0 1.26.28c.523 0 .919-.108 1.19-.322s.406-.5.406-.854c0-.383-.135-.658-.406-.826-.261-.168-.597-.341-1.008-.518l-1.26-.546a4.98 4.98 0 0 1-.882-.504c-.28-.206-.513-.467-.7-.784-.177-.318-.266-.7-.266-1.148 0-.486.131-.92.392-1.302.271-.392.635-.7 1.092-.924.467-.234.999-.35 1.596-.35.532 0 1.045.107 1.54.322.495.205.919.485 1.274.84l-.826 1.036c-.289-.243-.597-.434-.924-.574-.317-.14-.672-.21-1.064-.21-.429 0-.779.098-1.05.294-.261.186-.392.448-.392.784 0 .233.065.429.196.588.14.149.322.28.546.392l.714.308 1.246.518c.541.233.985.541 1.33.924.345.373.518.891.518 1.554 0 .494-.131.947-.392 1.358s-.639.742-1.134.994c-.485.242-1.073.364-1.764.364zm7.685 0c-.626 0-1.19-.14-1.694-.42-.495-.29-.892-.7-1.19-1.232-.29-.542-.434-1.19-.434-1.946 0-.766.158-1.414.476-1.946.317-.542.737-.952 1.26-1.232a3.51 3.51 0 0 1 1.708-.434c.438 0 .821.074 1.148.224s.616.331.868.546l-.784 1.05c-.178-.159-.36-.28-.546-.364a1.32 1.32 0 0 0-.602-.14c-.551 0-1.004.21-1.358.63-.346.42-.518.975-.518 1.666 0 .681.168 1.232.504 1.652a1.64 1.64 0 0 0 1.33.63 1.73 1.73 0 0 0 .756-.168c.242-.122.462-.262.658-.42l.658 1.064a3.25 3.25 0 0 1-1.064.63c-.392.14-.784.21-1.176.21zm3.597-.168v-6.874h1.61v6.874h-1.61zm.812-8.078c-.29 0-.523-.084-.7-.252s-.266-.392-.266-.672c0-.271.088-.49.266-.658s.41-.252.7-.252.522.084.7.252.266.387.266.658c0 .28-.089.504-.266.672s-.411.252-.7.252zm5.792 8.246c-.635 0-1.209-.14-1.722-.42a3.15 3.15 0 0 1-1.218-1.232c-.299-.542-.448-1.19-.448-1.946 0-.747.149-1.391.448-1.932.308-.542.704-.957 1.19-1.246a2.93 2.93 0 0 1 1.526-.434c.625 0 1.148.14 1.568.42.42.27.737.653.952 1.148.214.485.322 1.05.322 1.694 0 .336-.024.597-.07.784h-4.368c.074.606.294 1.078.658 1.414s.821.504 1.372.504a2.6 2.6 0 0 0 .826-.126c.261-.094.518-.22.77-.378l.546 1.008c-.327.214-.691.392-1.092.532s-.822.21-1.26.21zm-1.834-4.256h3.052c0-.532-.117-.948-.35-1.246-.234-.308-.584-.462-1.05-.462-.402 0-.761.149-1.078.448-.308.289-.5.709-.574 1.26zm5.989 4.088v-6.874h1.33l.112.924h.056a5.3 5.3 0 0 1 1.008-.77c.364-.215.78-.322 1.246-.322.738 0 1.274.238 1.61.714s.504 1.148.504 2.016v4.312h-1.61v-4.102c0-.57-.084-.971-.252-1.204s-.443-.35-.826-.35c-.298 0-.564.074-.798.224-.224.14-.48.35-.77.63v4.802h-1.61zm10.704.168c-.625 0-1.19-.14-1.694-.42-.494-.29-.891-.7-1.19-1.232-.289-.542-.434-1.19-.434-1.946 0-.766.159-1.414.476-1.946.318-.542.738-.952 1.26-1.232.532-.29 1.102-.434 1.708-.434.439 0 .822.074 1.148.224s.616.331.868.546l-.784 1.05c-.177-.159-.359-.28-.546-.364-.186-.094-.387-.14-.602-.14a1.7 1.7 0 0 0-1.358.63c-.345.42-.518.975-.518 1.666 0 .681.168 1.232.504 1.652.346.42.789.63 1.33.63a1.72 1.72 0 0 0 .756-.168 3.66 3.66 0 0 0 .658-.42l.658 1.064a3.24 3.24 0 0 1-1.064.63c-.392.14-.784.21-1.176.21zm6.195 0a3.54 3.54 0 0 1-1.722-.42c-.513-.29-.919-.7-1.218-1.232-.298-.542-.448-1.19-.448-1.946 0-.747.15-1.391.448-1.932.308-.542.705-.957 1.19-1.246s.994-.434 1.526-.434c.626 0 1.148.14 1.568.42.42.27.738.653.952 1.148.215.485.322 1.05.322 1.694 0 .336-.023.597-.07.784h-4.368c.075.606.294 1.078.658 1.414s.822.504 1.372.504c.299 0 .574-.042.826-.126.262-.094.518-.22.77-.378l.546 1.008c-.326.214-.69.392-1.092.532s-.821.21-1.26.21zm-1.834-4.256h3.052c0-.532-.116-.948-.35-1.246-.233-.308-.583-.462-1.05-.462-.401 0-.76.149-1.078.448-.308.289-.499.709-.574 1.26z" fill="#1a2c47"/><path d="M254.114 101.624c2.58 0 4.8-1.64 4.8-4.48 0-2.68-1.88-3.92-4.08-3.92-.42 0-.76.04-1.2.2l.16-1.84h4.56v-2.88h-7.52l-.32 6.52 1.48.96c.76-.48 1.08-.6 1.76-.6 1 0 1.72.56 1.72 1.64 0 1.12-.68 1.64-1.88 1.64-.92 0-1.8-.52-2.56-1.2l-1.52 2.16c1.04 1.04 2.52 1.8 4.6 1.8zm6.041-.24h3.56l.56-1.4.68-1.72h.08l.88 1.72.8 1.4h3.68l-3-4.8 2.84-5.2h-3.56l-.48 1.4-.6 1.72h-.08l-.8-1.72-.72-1.4h-3.68l2.84 4.8-3 5.2zm15.685 0h3.44v-6.56c.52-.52 1-.76 1.4-.76.68 0 1 .32 1 1.6v5.72h3.44v-6.56c.52-.52 1-.76 1.4-.76.68 0 1 .32 1 1.6v5.72h3.44v-6.16c0-2.48-.96-4.08-3.16-4.08-1.36 0-2.26.76-3.08 1.6-.54-1.04-1.4-1.6-2.76-1.6s-2.2.68-3 1.46h-.08l-.24-1.22h-2.8v10zm21.803.24c2.56 0 4.96-1.92 4.96-5.24s-2.4-5.24-4.96-5.24-4.96 1.92-4.96 5.24 2.4 5.24 4.96 5.24zm0-2.76c-1.04 0-1.44-.96-1.44-2.48s.4-2.48 1.44-2.48 1.44.96 1.44 2.48-.4 2.48-1.44 2.48zm6.751 2.52h3.44v-5.56c.48-1.24 1.36-1.68 2.08-1.68.44 0 .68.04 1.04.12l.64-2.92c-.28-.12-.62-.2-1.24-.2-.98 0-2.1.6-2.84 1.96h-.08l-.24-1.72h-2.8v10zm12.804.24a6.74 6.74 0 0 0 3.64-1.16l-1.08-2.04c-.72.4-1.4.6-2.08.6-1.12 0-2-.4-2.32-1.6h5.7c.06-.24.14-.84.14-1.44 0-2.68-1.4-4.84-4.36-4.84-2.44 0-4.8 2-4.8 5.24 0 3.32 2.24 5.24 5.16 5.24zm-1.88-6.44c.2-1 .84-1.44 1.6-1.44 1.04 0 1.36.68 1.36 1.44h-2.96z" fill="#235382"/><path d="M64.976 159.672c3 0 5.64-1.944 5.64-5.352 0-3.216-2.232-4.704-4.872-4.704-.576 0-1.056.072-1.608.312l.216-2.664h5.568v-3.12h-8.76l-.408 7.752 1.632 1.056c.912-.576 1.344-.768 2.208-.768 1.344 0 2.304.792 2.304 2.232 0 1.488-.96 2.256-2.472 2.256-1.248 0-2.304-.648-3.216-1.488l-1.68 2.328c1.224 1.224 2.952 2.16 5.448 2.16zm13.402-.288h9.816v-3.12h-6.072V143.76h-3.744v15.624zm15.275.288c1.344 0 2.424-.6 3.408-1.488h.096l.264 1.2h3.024v-6.768c0-3.744-1.728-5.448-4.8-5.448-1.872 0-3.576.6-5.136 1.56l1.296 2.4c1.2-.672 2.16-1.008 3.12-1.008 1.224 0 1.728.576 1.824 1.56-4.704.48-6.648 1.848-6.648 4.368 0 1.992 1.368 3.624 3.552 3.624zm1.272-2.88c-.816 0-1.272-.336-1.272-1.032 0-.84.72-1.488 3.096-1.8v1.896c-.576.576-1.08.936-1.824.936zm8.431 2.592h3.672v-2.952l1.368-1.584 2.592 4.536h4.032l-4.44-6.96 4.152-4.968h-4.08l-3.552 4.512h-.072v-9.36h-3.672v16.776zm13.289 0h3.696v-7.992c.744-.672 1.248-1.08 2.088-1.08.96 0 1.392.504 1.392 2.16v6.912h3.72v-7.392c0-2.976-1.104-4.824-3.696-4.824-1.632 0-2.784.816-3.672 1.608l.168-2.136v-4.032h-3.696v16.776zm17.381.288c3.24 0 4.968-1.704 4.968-3.888 0-1.968-1.44-3.048-3.264-3.624-1.512-.48-2.184-.768-2.184-1.392 0-.528.408-.864 1.272-.864.816 0 1.704.24 2.568.864l1.584-2.088c-1.032-.864-2.52-1.512-4.272-1.512-2.784 0-4.608 1.512-4.608 3.768 0 1.848 1.44 2.928 3.144 3.552 1.272.48 2.28.792 2.28 1.512 0 .576-.409.936-1.416.936-.936 0-2.016-.288-3.12-1.152l-1.56 2.088c1.2 1.176 3.024 1.8 4.608 1.8zM60.26 179.384h1.176v-3.64h1.498c2.016 0 3.402-.896 3.402-2.842 0-2.016-1.4-2.702-3.458-2.702H60.26v9.184zm1.176-4.592v-3.64h1.302c1.61 0 2.422.434 2.422 1.75 0 1.302-.77 1.89-2.366 1.89h-1.358zm8.867 4.592h5.432v-.994h-4.256v-3.332h3.472v-.994h-3.472v-2.87h4.116v-.994h-5.292v9.184zm9.483 0h1.176v-3.878h1.652l2.212 3.878h1.33l-2.338-4.004c1.246-.322 2.058-1.162 2.058-2.59 0-1.918-1.344-2.59-3.22-2.59h-2.87v9.184zm1.176-4.83v-3.402h1.526c1.428 0 2.212.434 2.212 1.638 0 1.176-.784 1.764-2.212 1.764h-1.526zm15.407-.294l.896-3.094h.056l.924 3.094.434 1.386h-2.744l.434-1.386zm-2.814 5.124h1.19l.882-2.786h3.346l.868 2.786h1.246l-3.094-9.184h-1.344l-3.094 9.184zm10.934 0h1.106v-4.83c0-.952-.084-1.946-.154-2.87h.056l.994 1.974 3.276 5.726h1.26V170.2h-1.106v4.788c0 .952.084 1.96.154 2.912h-.056l-.994-1.974-3.276-5.726h-1.26v9.184zm11.15 0h1.106v-4.83c0-.952-.084-1.946-.154-2.87h.056l.994 1.974 3.276 5.726h1.26V170.2h-1.106v4.788c0 .952.084 1.96.154 2.912h-.056l-.994-1.974-3.276-5.726h-1.26v9.184zm14.413.168c1.876 0 3.304-1.022 3.304-3.962v-5.39h-1.134v5.418c0 2.198-.952 2.898-2.17 2.898-1.204 0-2.128-.7-2.128-2.898V170.2h-1.176v5.39c0 2.94 1.428 3.962 3.304 3.962zm7.875-.168h1.078v-5.068c0-.812-.098-1.946-.168-2.744h.056l.728 2.142 1.708 4.746h.854l1.722-4.746.714-2.142h.056l-.168 2.744v5.068h1.106V170.2h-1.47l-1.736 4.914-.602 1.918h-.056l-.616-1.918-1.736-4.914h-1.47v9.184z" fill="#91a1b7"/><path d="M386.854 257.737a.5.5 0 0 0-.001-.707l-3.187-3.177a.5.5 0 1 0-.706.708l2.833 2.824-2.824 2.833a.5.5 0 0 0 .709.706l3.176-3.187zm-.355-.853L26 257.5l.002 1 360.5-.616-.002-1z" fill="#d6dee5"/><rect x="167" y=".384" width="55.077" height="55.077" rx="27.539" fill="#f2f8ff"/><path d="M190.188 12.748c6.763 8.766 2.496 15.289-1.932 18.601l6.924-1.019 3.381-2.803 1.45-3.567.483-3.567-1.45-3.058-2.173-2.548-2.657-1.784c-.161-.085.418-.255-4.026-.255z" fill="#b8dfff"/><g stroke="#0245b9" stroke-width="2.154" stroke-linecap="round" stroke-linejoin="round"><path d="M184.83 19.601h22.028m-22.028-6.853h22.028"/><path d="M191.038 12.748c2.378 0 4.659.947 6.341 2.634s2.626 3.974 2.626 6.358-.945 4.672-2.626 6.358-3.963 2.634-6.341 2.634h-6.208l15.175 13.834"/></g><path d="M232.888 27.384h10.824v-3.12h-3.264c-.696 0-1.752.096-2.544.168 2.568-2.496 5.064-4.968 5.064-7.704 0-2.928-2.088-4.872-5.112-4.872-2.16 0-3.576.84-5.064 2.52l1.92 1.92c.744-.792 1.584-1.512 2.64-1.512 1.272 0 2.064.744 2.064 2.184 0 2.112-2.784 4.824-6.528 8.136v2.28zm12.773 0h10.824v-3.12h-3.264c-.696 0-1.752.096-2.544.168 2.568-2.496 5.064-4.968 5.064-7.704 0-2.928-2.088-4.872-5.112-4.872-2.16 0-3.576.84-5.064 2.52l1.92 1.92c.744-.792 1.584-1.512 2.64-1.512 1.272 0 2.064.744 2.064 2.184 0 2.112-2.784 4.824-6.528 8.136v2.28zm18.491 0h9.816v-3.12h-6.072V11.76h-3.744v15.624zm15.275.288c1.344 0 2.424-.6 3.408-1.488h.096l.264 1.2h3.024v-6.768c0-3.744-1.728-5.448-4.8-5.448-1.872 0-3.576.6-5.136 1.56l1.296 2.4c1.2-.672 2.16-1.008 3.12-1.008 1.224 0 1.728.576 1.824 1.56-4.704.48-6.648 1.848-6.648 4.368 0 1.992 1.368 3.624 3.552 3.624zm1.272-2.88c-.816 0-1.272-.336-1.272-1.032 0-.84.72-1.488 3.096-1.8v1.896c-.576.576-1.08.936-1.824.936zm8.43 2.592h3.672v-2.952l1.368-1.584 2.592 4.536h4.032l-4.44-6.96 4.152-4.968h-4.08l-3.552 4.512h-.072v-9.36h-3.672v16.776zm13.289 0h3.696v-7.992c.744-.672 1.248-1.08 2.088-1.08.96 0 1.392.504 1.392 2.16v6.912h3.72v-7.392c0-2.976-1.104-4.824-3.696-4.824-1.632 0-2.784.816-3.672 1.608l.168-2.136v-4.032h-3.696v16.776zm17.381.288c3.24 0 4.968-1.704 4.968-3.888 0-1.968-1.44-3.048-3.264-3.624-1.512-.48-2.184-.768-2.184-1.392 0-.528.408-.864 1.272-.864.816 0 1.704.24 2.568.864l1.584-2.088c-1.032-.864-2.52-1.512-4.272-1.512-2.784 0-4.608 1.512-4.608 3.768 0 1.848 1.44 2.928 3.144 3.552 1.272.48 2.28.792 2.28 1.512 0 .576-.408.936-1.416.936-.936 0-2.016-.288-3.12-1.152l-1.56 2.088c1.2 1.176 3.024 1.8 4.608 1.8zM233.26 47.384h1.176v-3.64h1.498c2.016 0 3.402-.896 3.402-2.842 0-2.016-1.4-2.702-3.458-2.702h-2.618v9.184zm1.176-4.592v-3.64h1.302c1.61 0 2.422.434 2.422 1.75 0 1.302-.77 1.89-2.366 1.89h-1.358zm8.867 4.592h5.432v-.994h-4.256v-3.332h3.472v-.994h-3.472v-2.87h4.116V38.2h-5.292v9.184zm9.483 0h1.176v-3.878h1.652l2.212 3.878h1.33l-2.338-4.004c1.246-.322 2.058-1.162 2.058-2.59 0-1.918-1.344-2.59-3.22-2.59h-2.87v9.184zm1.176-4.83v-3.402h1.526c1.428 0 2.212.434 2.212 1.638 0 1.176-.784 1.764-2.212 1.764h-1.526zm15.407-.294c.322-1.022.616-2.03.896-3.094h.056a66.51 66.51 0 0 0 .924 3.094l.434 1.386h-2.744l.434-1.386zm-2.814 5.124h1.19l.882-2.786h3.346l.868 2.786h1.246l-3.094-9.184h-1.344l-3.094 9.184zm10.934 0h1.106v-4.83c0-.952-.084-1.946-.154-2.87h.056c.308.672.644 1.358.994 1.974l3.276 5.726h1.26V38.2h-1.106v4.788c0 .952.084 1.96.154 2.912h-.056c-.322-.672-.644-1.358-.994-1.974l-3.276-5.726h-1.26v9.184zm11.15 0h1.106v-4.83c0-.952-.084-1.946-.154-2.87h.056c.308.672.644 1.358.994 1.974l3.276 5.726h1.26V38.2h-1.106v4.788c0 .952.084 1.96.154 2.912h-.056c-.322-.672-.644-1.358-.994-1.974l-3.276-5.726h-1.26v9.184zm14.413.168c1.876 0 3.304-1.022 3.304-3.962V38.2h-1.134v5.418c0 2.198-.952 2.898-2.17 2.898-1.204 0-2.128-.7-2.128-2.898V38.2h-1.176v5.39c0 2.94 1.428 3.962 3.304 3.962zm7.875-.168h1.078v-5.068c0-.812-.098-1.946-.168-2.744h.056l.728 2.142 1.708 4.746h.854l1.722-4.746.714-2.142h.056c-.07.798-.168 1.932-.168 2.744v5.068h1.106V38.2h-1.47l-1.736 4.914c-.224.644-.392 1.232-.602 1.918h-.056c-.196-.686-.392-1.274-.616-1.918l-1.736-4.914h-1.47v9.184z" fill="#1a2c47"/><defs><linearGradient id="A" x1="116.785" y1="163.05" x2="116.785" y2="248.384" gradientUnits="userSpaceOnUse"><stop stop-color="#d6dee5"/><stop offset="1" stop-color="#eaeff4" stop-opacity="0"/></linearGradient><linearGradient id="B" x1="292.676" y1="6.717" x2="292.676" y2="257.384" gradientUnits="userSpaceOnUse"><stop stop-color="#73b9ff"/><stop offset="1" stop-color="#73b9ff" stop-opacity="0"/></linearGradient></defs></svg>
