<svg xmlns="http://www.w3.org/2000/svg" width="487" height="262" fill="none" xmlns:v="https://vecta.io/nano"><path d="M342 55.766h105" stroke="#d6dee5"/><path d="M97.662 257.766v-.938l2.142-2.142c.607-.635 1.073-1.209 1.4-1.722.327-.523.49-1.008.49-1.456 0-.467-.126-.84-.378-1.12s-.616-.42-1.092-.42a1.66 1.66 0 0 0-.952.294 4.57 4.57 0 0 0-.784.7l-.896-.896c.411-.439.835-.775 1.274-1.008.439-.243.961-.364 1.568-.364.859 0 1.54.247 2.044.742.513.494.77 1.157.77 1.988 0 .522-.149 1.059-.448 1.61-.289.541-.681 1.096-1.176 1.666l-1.61 1.792.756-.056.728-.042h2.184v1.372h-6.02zm10.23.168c-.924 0-1.662-.402-2.212-1.204-.542-.803-.812-1.956-.812-3.458s.27-2.642.812-3.416c.55-.775 1.288-1.162 2.212-1.162s1.656.387 2.198 1.162c.55.774.826 1.913.826 3.416s-.276 2.655-.826 3.458c-.542.802-1.274 1.204-2.198 1.204zm0-1.26c.289 0 .546-.108.77-.322.224-.224.396-.584.518-1.078.13-.495.196-1.162.196-2.002s-.066-1.503-.196-1.988c-.122-.486-.294-.826-.518-1.022-.224-.206-.481-.308-.77-.308-.28 0-.532.102-.756.308-.224.196-.402.536-.532 1.022s-.196 1.148-.196 1.988.065 1.507.196 2.002.308.854.532 1.078c.224.214.476.322.756.322zm4.125 1.092v-.938l2.142-2.142c.607-.635 1.074-1.209 1.4-1.722.327-.523.49-1.008.49-1.456 0-.467-.126-.84-.378-1.12s-.616-.42-1.092-.42c-.345 0-.662.098-.952.294-.28.196-.541.429-.784.7l-.896-.896c.411-.439.836-.775 1.274-1.008.439-.243.962-.364 1.568-.364.859 0 1.54.247 2.044.742.514.494.77 1.157.77 1.988 0 .522-.149 1.059-.448 1.61-.289.541-.681 1.096-1.176 1.666l-1.61 1.792.756-.056.728-.042h2.184v1.372h-6.02zm10.23.168c-.924 0-1.661-.402-2.212-1.204-.541-.803-.812-1.956-.812-3.458s.271-2.642.812-3.416c.551-.775 1.288-1.162 2.212-1.162s1.657.387 2.198 1.162c.551.774.826 1.913.826 3.416s-.275 2.655-.826 3.458c-.541.802-1.274 1.204-2.198 1.204zm0-1.26c.289 0 .546-.108.77-.322.224-.224.397-.584.518-1.078.131-.495.196-1.162.196-2.002s-.065-1.503-.196-1.988c-.121-.486-.294-.826-.518-1.022-.224-.206-.481-.308-.77-.308-.28 0-.532.102-.756.308-.224.196-.401.536-.532 1.022s-.196 1.148-.196 1.988.065 1.507.196 2.002.308.854.532 1.078c.224.214.476.322.756.322zm6.534 1.26a3.92 3.92 0 0 1-1.4-.266c-.467-.187-.868-.416-1.204-.686l.756-1.036c.308.233.616.42.924.56a2.34 2.34 0 0 0 .98.21c.373 0 .648-.08.826-.238a.76.76 0 0 0 .266-.588c0-.196-.075-.355-.224-.476-.14-.131-.322-.243-.546-.336l-.7-.294a7.63 7.63 0 0 1-.896-.406c-.29-.168-.528-.378-.714-.63-.187-.262-.28-.584-.28-.966 0-.607.224-1.102.672-1.484s1.054-.574 1.82-.574a3.21 3.21 0 0 1 1.302.252c.382.168.714.359.994.574l-.742.98c-.243-.178-.49-.318-.742-.42a1.82 1.82 0 0 0-.77-.168c-.346 0-.602.074-.77.224a.66.66 0 0 0-.252.532c0 .27.14.476.42.616s.606.275.98.406a5.89 5.89 0 0 1 .924.42 2.2 2.2 0 0 1 .742.63c.205.261.308.606.308 1.036 0 .588-.229 1.092-.686 1.512-.458.41-1.12.616-1.988.616zM14 190.417H4.816v-1.204l5.768-3.318 1.904-.994v-.056l-1.442.098-1.484.042H4.816v-1.106H14v1.204l-5.782 3.332-1.89.994v.056l1.414-.098 1.456-.056H14v1.106zm.168-10.941c0 .719-.224 1.246-.672 1.582-.457.336-1.12.504-1.988.504H7.196V180.4h4.158c.635 0 1.097-.098 1.386-.294.289-.205.434-.532.434-.98 0-.354-.089-.667-.266-.938-.187-.28-.481-.578-.882-.896h-4.83v-1.148H14v.952l-1.064.098v.042a4.5 4.5 0 0 1 .896 1.008 2.26 2.26 0 0 1 .336 1.232zM14 173.849H7.196v-.952l.98-.098v-.042a4.45 4.45 0 0 1-.812-.98 2.09 2.09 0 0 1-.336-1.134c0-.523.117-.929.35-1.218.224-.299.541-.518.952-.658-.383-.355-.695-.714-.938-1.078s-.364-.751-.364-1.162c0-.7.229-1.218.686-1.554.448-.345 1.106-.518 1.974-.518H14v1.148H9.842c-.635 0-1.097.103-1.386.308s-.434.523-.434.952c0 .504.35 1.073 1.05 1.708H14v1.148H9.842c-.635 0-1.097.103-1.386.308s-.434.527-.434.966c0 .504.35 1.073 1.05 1.708H14v1.148zm.168-14.617c0 .317-.075.648-.224.994a3.9 3.9 0 0 1-.644.952v.042l.7.098v.924H4.032v-1.148h2.716l1.232.028a4.52 4.52 0 0 1-.672-1.008c-.187-.374-.28-.747-.28-1.12 0-.887.313-1.559.938-2.016s1.465-.686 2.52-.686c.775 0 1.437.14 1.988.42.551.27.971.63 1.26 1.078.289.438.434.919.434 1.442zm-.966.196c0-.56-.238-1.022-.714-1.386-.485-.374-1.148-.56-1.988-.56-.747 0-1.349.14-1.806.42-.467.27-.7.728-.7 1.372 0 .289.079.583.238.882s.387.611.686.938h3.57c.261-.299.448-.593.56-.882.103-.299.154-.56.154-.784zm.966-7.683c0 .607-.14 1.158-.42 1.652a3.11 3.11 0 0 1-1.232 1.176c-.532.289-1.167.434-1.904.434-.747 0-1.386-.144-1.918-.434-.532-.298-.943-.681-1.232-1.148a2.75 2.75 0 0 1-.434-1.47c0-.868.289-1.535.868-2.002.579-.476 1.353-.714 2.324-.714l.364.014a1.41 1.41 0 0 1 .294.028v4.592c.719-.046 1.293-.27 1.722-.672.429-.41.644-.942.644-1.596a2.74 2.74 0 0 0-.14-.896 4.22 4.22 0 0 0-.392-.798l.756-.406a5.2 5.2 0 0 1 .49.994c.14.364.21.78.21 1.246zm-4.116 2.142v-3.64c-.691 0-1.213.15-1.568.448-.364.29-.546.7-.546 1.232 0 .476.187.906.56 1.288.364.374.882.598 1.554.672zM14 147.558H7.196v-.952l1.232-.098v-.042c-.429-.233-.77-.518-1.022-.854s-.378-.695-.378-1.078c0-.271.047-.513.14-.728l1.008.224a2.74 2.74 0 0 0-.084.308 1.8 1.8 0 0 0-.028.35c0 .289.117.593.35.91.233.308.639.579 1.218.812H14v1.148zm.168-10.302c0 .55-.14 1.068-.42 1.554-.28.476-.686.863-1.218 1.162-.532.289-1.171.434-1.918.434-.765 0-1.414-.145-1.946-.434-.532-.299-.938-.686-1.218-1.162-.28-.486-.42-1.004-.42-1.554a3.01 3.01 0 0 1 .42-1.554c.28-.476.686-.859 1.218-1.148.532-.299 1.181-.448 1.946-.448.747 0 1.386.149 1.918.448.532.289.938.672 1.218 1.148a3.01 3.01 0 0 1 .42 1.554zm-.952 0c0-.588-.238-1.06-.714-1.414-.485-.364-1.115-.546-1.89-.546-.784 0-1.419.182-1.904.546-.485.354-.728.826-.728 1.414a1.69 1.69 0 0 0 .728 1.414c.485.364 1.12.546 1.904.546.775 0 1.405-.182 1.89-.546a1.7 1.7 0 0 0 .714-1.414zm.784-5.138H8.134v.924h-.868l-.07-.924H6.118c-.691 0-1.237-.159-1.638-.476-.411-.327-.616-.831-.616-1.512a2.65 2.65 0 0 1 .07-.616 2.42 2.42 0 0 1 .154-.518l.882.252a1.88 1.88 0 0 0-.168.77c0 .635.439.952 1.316.952h1.078v-1.442h.938v1.442H14v1.148zm0-6.695H7.196v-.952l.98-.098v-.042c-.327-.326-.597-.672-.812-1.036-.224-.364-.336-.779-.336-1.246 0-.718.229-1.241.686-1.568.448-.336 1.106-.504 1.974-.504H14v1.148H9.842c-.635 0-1.097.103-1.386.308s-.434.532-.434.98c0 .346.089.658.266.938.177.271.439.579.784.924H14v1.148zm.168-10.414c0 .607-.14 1.157-.42 1.652a3.11 3.11 0 0 1-1.232 1.176c-.532.289-1.167.434-1.904.434-.747 0-1.386-.145-1.918-.434-.532-.299-.943-.681-1.232-1.148s-.434-.957-.434-1.47c0-.868.289-1.535.868-2.002.579-.476 1.353-.714 2.324-.714l.364.014c.112 0 .21.009.294.028v4.592c.719-.047 1.293-.271 1.722-.672.429-.411.644-.943.644-1.596 0-.327-.047-.625-.14-.896a4.22 4.22 0 0 0-.392-.798l.756-.406a5.17 5.17 0 0 1 .49.994c.14.364.21.779.21 1.246zm-4.116 2.142v-3.64c-.691 0-1.213.149-1.568.448-.364.289-.546.7-.546 1.232 0 .476.187.905.56 1.288.364.373.882.597 1.554.672zM14 109.675l-6.804 1.89v-1.176l3.934-1.008.952-.21.938-.196v-.056l-.938-.224-.952-.238-3.934-1.05v-1.12l3.934-1.064.952-.238.938-.238v-.056l-.938-.21-.952-.21-3.934-.994v-1.092l6.804 1.82v1.4l-3.654.98-.966.238-.994.224v.056l1.008.224.966.252 3.64.952v1.344zm.168-14.433a4.39 4.39 0 0 1-.364 1.792 4.72 4.72 0 0 1-.994 1.428l-.812-.7c.345-.327.625-.709.84-1.148.205-.448.308-.91.308-1.386 0-.607-.135-1.078-.406-1.414-.28-.336-.644-.504-1.092-.504-.317 0-.569.07-.756.21-.187.131-.345.313-.476.546-.131.224-.261.481-.392.77l-.574 1.316a5 5 0 0 1-.476.868c-.196.28-.448.518-.756.714-.308.187-.686.28-1.134.28a2.19 2.19 0 0 1-1.246-.364c-.373-.252-.663-.597-.868-1.036-.215-.439-.322-.933-.322-1.484s.107-1.059.322-1.526a3.73 3.73 0 0 1 .812-1.19l.756.63a3.13 3.13 0 0 0-.63.938c-.159.336-.238.719-.238 1.148 0 .513.121.929.364 1.246.243.308.569.462.98.462.289 0 .532-.075.728-.224a1.93 1.93 0 0 0 .462-.588l.336-.714.56-1.302a4.26 4.26 0 0 1 .546-.952 2.26 2.26 0 0 1 .77-.686c.299-.168.677-.252 1.134-.252a2.45 2.45 0 0 1 1.33.378c.392.252.705.611.938 1.078s.35 1.022.35 1.666zM14 90.311H4.816v-2.296c0-1.419.397-2.497 1.19-3.234.784-.737 1.904-1.106 3.36-1.106 1.465 0 2.604.369 3.416 1.106.812.728 1.218 1.787 1.218 3.178v2.352zm-.952-1.162v-1.05c0-1.073-.322-1.876-.966-2.408-.653-.541-1.559-.812-2.716-.812s-2.044.271-2.66.812c-.625.532-.938 1.335-.938 2.408v1.05h7.28zM14 81.698H4.816v-5.292h.98v4.13H8.68V77.05h.994v3.486h3.332v-4.27H14v5.432zm.168-11.893c0 1.148-.49 1.993-1.47 2.534l-.588-.84c.364-.205.63-.439.798-.7a1.66 1.66 0 0 0 .238-.882c0-.495-.149-.863-.448-1.106-.308-.243-.812-.364-1.512-.364h-6.37v-1.176h6.482a3.82 3.82 0 0 1 1.442.266c.439.168.789.439 1.05.812.252.373.378.859.378 1.456zm0-7.553a3.06 3.06 0 0 1-.42 1.554c-.28.476-.686.863-1.218 1.162-.532.289-1.171.434-1.918.434-.765 0-1.414-.145-1.946-.434-.532-.299-.938-.686-1.218-1.162a3.06 3.06 0 0 1-.42-1.554 3.01 3.01 0 0 1 .42-1.554c.28-.476.686-.859 1.218-1.148.532-.299 1.181-.448 1.946-.448.747 0 1.386.149 1.918.448.532.289.938.672 1.218 1.148a3.01 3.01 0 0 1 .42 1.554zm-.952 0c0-.588-.238-1.059-.714-1.414-.485-.364-1.115-.546-1.89-.546-.784 0-1.419.182-1.904.546-.485.355-.728.826-.728 1.414 0 .579.243 1.05.728 1.414s1.12.546 1.904.546c.775 0 1.405-.182 1.89-.546.476-.364.714-.835.714-1.414zm.952-7.952c0 .317-.075.649-.224.994a3.9 3.9 0 0 1-.644.952v.042l.7.098v.924H4.032v-1.148h2.716l1.232.028a4.52 4.52 0 0 1-.672-1.008 2.48 2.48 0 0 1-.28-1.12c0-.887.313-1.559.938-2.016s1.465-.686 2.52-.686c.775 0 1.437.14 1.988.42.551.271.971.63 1.26 1.078a2.57 2.57 0 0 1 .434 1.442zm-.966.196c0-.56-.238-1.022-.714-1.386-.485-.373-1.148-.56-1.988-.56-.747 0-1.349.14-1.806.42-.467.271-.7.728-.7 1.372a1.87 1.87 0 0 0 .238.882c.159.299.387.611.686.938h3.57c.261-.299.448-.593.56-.882.103-.299.154-.56.154-.784zm.966-6.702a3.67 3.67 0 0 1-.266 1.386c-.187.439-.411.821-.672 1.148l-.77-.574a5.56 5.56 0 0 0 .588-.924c.149-.317.224-.677.224-1.078 0-.448-.103-.784-.308-1.008-.215-.224-.467-.336-.756-.336a.8.8 0 0 0-.588.238 1.7 1.7 0 0 0-.392.588l-.308.728-.406.938a2.32 2.32 0 0 1-.602.756c-.252.196-.569.294-.952.294-.551 0-1.008-.205-1.372-.616-.373-.42-.56-.999-.56-1.736 0-.42.075-.812.224-1.176s.331-.677.546-.938l.728.56a3.66 3.66 0 0 0-.434.728 2.01 2.01 0 0 0-.168.826c0 .429.098.747.294.952a.94.94 0 0 0 .686.294.72.72 0 0 0 .532-.21 2.04 2.04 0 0 0 .35-.546l.294-.714a9.75 9.75 0 0 1 .42-.966c.149-.317.355-.579.616-.784.252-.215.593-.322 1.022-.322a1.84 1.84 0 0 1 1.008.294c.308.187.555.467.742.84.187.364.28.817.28 1.358zm247.509 209.972v-.938l2.142-2.142c.606-.635 1.073-1.209 1.4-1.722.326-.523.49-1.008.49-1.456 0-.467-.126-.84-.378-1.12s-.616-.42-1.092-.42a1.66 1.66 0 0 0-.952.294c-.28.196-.542.429-.784.7l-.896-.896c.41-.439.835-.775 1.274-1.008.438-.243.961-.364 1.568-.364.858 0 1.54.247 2.044.742.513.494.77 1.157.77 1.988 0 .522-.15 1.059-.448 1.61-.29.541-.682 1.096-1.176 1.666l-1.61 1.792.756-.056.728-.042h2.184v1.372h-6.02zm10.229.168c-.924 0-1.661-.402-2.212-1.204-.541-.803-.812-1.956-.812-3.458s.271-2.642.812-3.416c.551-.775 1.288-1.162 2.212-1.162s1.657.387 2.198 1.162c.551.774.826 1.913.826 3.416s-.275 2.655-.826 3.458c-.541.802-1.274 1.204-2.198 1.204zm0-1.26c.29 0 .546-.108.77-.322.224-.224.397-.584.518-1.078.131-.495.196-1.162.196-2.002s-.065-1.503-.196-1.988c-.121-.486-.294-.826-.518-1.022-.224-.206-.48-.308-.77-.308-.28 0-.532.102-.756.308-.224.196-.401.536-.532 1.022s-.196 1.148-.196 1.988.066 1.507.196 2.002.308.854.532 1.078c.224.214.476.322.756.322zm4.126 1.092v-.938l2.142-2.142c.607-.635 1.073-1.209 1.4-1.722.327-.523.49-1.008.49-1.456 0-.467-.126-.84-.378-1.12s-.616-.42-1.092-.42a1.66 1.66 0 0 0-.952.294c-.28.196-.541.429-.784.7l-.896-.896c.411-.439.835-.775 1.274-1.008.439-.243.961-.364 1.568-.364.859 0 1.54.247 2.044.742.513.494.77 1.157.77 1.988 0 .522-.149 1.059-.448 1.61-.289.541-.681 1.096-1.176 1.666l-1.61 1.792.756-.056.728-.042h2.184v1.372h-6.02zm8.494-3.542h2.338v-2.016l.028-.924.042-.924h-.056l-.35.686-.378.7-1.624 2.478zm2.338 3.542v-2.296h-3.934v-1.092l3.528-5.516h1.918v5.362h1.12v1.246h-1.12v2.296h-1.512zm135.813 0v-.938l2.142-2.142c.606-.635 1.073-1.209 1.4-1.722.326-.523.49-1.008.49-1.456 0-.467-.126-.84-.378-1.12s-.616-.42-1.092-.42a1.66 1.66 0 0 0-.952.294c-.28.196-.542.429-.784.7l-.896-.896c.41-.439.835-.775 1.274-1.008.438-.243.961-.364 1.568-.364.858 0 1.54.247 2.044.742.513.494.77 1.157.77 1.988 0 .522-.15 1.059-.448 1.61-.29.541-.682 1.096-1.176 1.666l-1.61 1.792.756-.056.728-.042h2.184v1.372h-6.02zm10.229.168c-.924 0-1.661-.402-2.212-1.204-.541-.803-.812-1.956-.812-3.458s.271-2.642.812-3.416c.551-.775 1.288-1.162 2.212-1.162s1.657.387 2.198 1.162c.551.774.826 1.913.826 3.416s-.275 2.655-.826 3.458c-.541.802-1.274 1.204-2.198 1.204zm0-1.26c.29 0 .546-.108.77-.322.224-.224.397-.584.518-1.078.131-.495.196-1.162.196-2.002s-.065-1.503-.196-1.988c-.121-.486-.294-.826-.518-1.022-.224-.206-.48-.308-.77-.308-.28 0-.532.102-.756.308-.224.196-.401.536-.532 1.022s-.196 1.148-.196 1.988.066 1.507.196 2.002.308.854.532 1.078c.224.214.476.322.756.322zm4.126 1.092v-.938l2.142-2.142c.607-.635 1.073-1.209 1.4-1.722.327-.523.49-1.008.49-1.456 0-.467-.126-.84-.378-1.12s-.616-.42-1.092-.42a1.66 1.66 0 0 0-.952.294c-.28.196-.541.429-.784.7l-.896-.896c.411-.439.835-.775 1.274-1.008.439-.243.961-.364 1.568-.364.859 0 1.54.247 2.044.742.513.494.77 1.157.77 1.988 0 .522-.149 1.059-.448 1.61-.289.541-.681 1.096-1.176 1.666l-1.61 1.792.756-.056.728-.042h2.184v1.372h-6.02zm10.02.168c-.719 0-1.326-.122-1.82-.364-.486-.252-.892-.542-1.218-.868l.742-1.036c.27.252.574.476.91.672.336.186.728.28 1.176.28.494 0 .905-.15 1.232-.448s.49-.719.49-1.26c0-.532-.15-.943-.448-1.232s-.696-.434-1.19-.434c-.29 0-.532.042-.728.126-.196.074-.43.2-.7.378l-.77-.49.266-4.396h4.76v1.358h-3.36l-.182 2.156c.186-.094.368-.164.546-.21.186-.056.396-.084.63-.084.513 0 .98.098 1.4.294a2.31 2.31 0 0 1 1.008.91c.261.41.392.938.392 1.582s-.15 1.194-.448 1.652a2.9 2.9 0 0 1-1.148 1.05c-.476.242-.99.364-1.54.364z" fill="#61738e"/><path d="M448 56.766c-78 76.5-163 127.5-418 180h418v-180z" fill="url(#A)"/><path d="M28.5 234.266c273.762-47.67 374-127.5 418.5-179" stroke="#008cff" stroke-width="3" stroke-linecap="round"/><g fill="#61738e"><circle cx="114" cy="194.766" r="2"/><path d="M273.086 143.766a2 2 0 1 1-4 0 2 2 0 1 1 4 0zm-169.059 43.242c-1.027 0-1.894-.174-2.6-.52-.694-.36-1.267-.787-1.72-1.28l1.1-1.48c.386.386.826.72 1.32 1 .493.266 1.06.4 1.7.4.693 0 1.253-.167 1.68-.5.44-.347.66-.82.66-1.42 0-.44-.114-.82-.34-1.14-.214-.334-.594-.587-1.14-.76-.534-.174-1.287-.26-2.26-.26v-1.68c1.253 0 2.12-.194 2.6-.58s.72-.874.72-1.46c0-.534-.167-.947-.5-1.24-.334-.307-.794-.46-1.38-.46-.494 0-.947.113-1.36.34a5.37 5.37 0 0 0-1.2.86l-1.18-1.42c.546-.48 1.126-.867 1.74-1.16.626-.294 1.32-.44 2.08-.44 1.226 0 2.22.293 2.98.88.76.573 1.14 1.4 1.14 2.48 0 .706-.2 1.306-.6 1.8-.387.48-.927.853-1.62 1.12v.08c.746.2 1.373.566 1.88 1.1s.76 1.22.76 2.06c0 .773-.207 1.433-.62 1.98-.4.546-.94.966-1.62 1.26-.667.293-1.407.44-2.22.44zm10.573 0c-1.32 0-2.373-.574-3.16-1.72-.773-1.147-1.16-2.794-1.16-4.94s.387-3.774 1.16-4.88c.787-1.107 1.84-1.66 3.16-1.66s2.367.553 3.14 1.66c.787 1.106 1.18 2.733 1.18 4.88s-.393 3.793-1.18 4.94c-.773 1.146-1.82 1.72-3.14 1.72zm0-1.8c.414 0 .78-.154 1.1-.46.32-.32.567-.834.74-1.54.187-.707.28-1.66.28-2.86s-.093-2.147-.28-2.84c-.173-.694-.42-1.18-.74-1.46-.32-.294-.686-.44-1.1-.44-.4 0-.76.146-1.08.44-.32.28-.573.766-.76 1.46s-.28 1.64-.28 2.84.094 2.153.28 2.86.44 1.22.76 1.54c.32.306.68.46 1.08.46zm6.794 1.56v-13.08h2.32v11.12h5.44v1.96h-7.76zm137.562-53.714c-1.232 0-2.272-.208-3.12-.624-.832-.432-1.528-.928-2.088-1.488l1.272-1.776c.464.432.984.816 1.56 1.152.576.32 1.248.48 2.016.48.848 0 1.552-.256 2.112-.768s.84-1.232.84-2.16c0-.912-.256-1.616-.768-2.112s-1.192-.744-2.04-.744c-.496 0-.912.072-1.248.216-.336.128-.736.344-1.2.648l-1.32-.84.456-7.536h8.16v2.328h-5.76l-.312 3.696a4.87 4.87 0 0 1 .936-.36c.32-.096.68-.144 1.08-.144.88 0 1.68.168 2.4.504s1.296.856 1.728 1.56c.448.704.672 1.608.672 2.712s-.256 2.048-.768 2.832c-.496.784-1.152 1.384-1.968 1.8a5.73 5.73 0 0 1-2.64.624zm12.665 0c-1.584 0-2.848-.688-3.792-2.064-.928-1.376-1.392-3.352-1.392-5.928s.464-4.528 1.392-5.856c.944-1.328 2.208-1.992 3.792-1.992s2.84.664 3.768 1.992c.944 1.328 1.416 3.28 1.416 5.856s-.472 4.552-1.416 5.928c-.928 1.376-2.184 2.064-3.768 2.064zm0-2.16c.496 0 .936-.184 1.32-.552.384-.384.68-1 .888-1.848.224-.848.336-1.992.336-3.432s-.112-2.576-.336-3.408c-.208-.832-.504-1.416-.888-1.752-.384-.352-.824-.528-1.32-.528-.48 0-.912.176-1.296.528-.384.336-.688.92-.912 1.752s-.336 1.968-.336 3.408.112 2.584.336 3.432.528 1.464.912 1.848c.384.368.816.552 1.296.552zm8.152 1.872V117.07h2.784v13.344h6.528v2.352h-9.312z"/></g><path d="M449.5 55.266a2 2 0 1 1-4 0 2 2 0 1 1 4 0z" fill="#0080ff"/><path d="M454 55.266a6.5 6.5 0 1 1-13 0 6.5 6.5 0 1 1 13 0z" fill="url(#B)"/><path d="M192.029 38.303c0 1.195.277 2.101.832 2.72.576.619 1.376.928 2.4.928.597 0 1.216-.181 1.856-.544.661-.384 1.259-.992 1.792-1.824-.192-1.792-.629-3.093-1.312-3.904s-1.525-1.216-2.528-1.216c-.832 0-1.547.331-2.144.992s-.896 1.611-.896 2.848zm2.368 14.464c-1.216 0-2.272-.224-3.168-.672s-1.653-.992-2.272-1.632l1.984-2.24c.384.448.864.821 1.44 1.12a4.29 4.29 0 0 0 1.824.416 4.12 4.12 0 0 0 2.336-.704c.704-.469 1.28-1.248 1.728-2.336.448-1.109.693-2.603.736-4.48a6.84 6.84 0 0 1-2.112 1.728c-.811.427-1.589.64-2.336.64-1.749 0-3.179-.512-4.288-1.536-1.088-1.045-1.632-2.635-1.632-4.768 0-1.365.288-2.539.864-3.52.597-1.003 1.376-1.771 2.336-2.304a6.39 6.39 0 0 1 3.2-.832 6.67 6.67 0 0 1 3.648 1.056c1.131.704 2.027 1.792 2.688 3.264.683 1.451 1.024 3.317 1.024 5.6 0 2.624-.373 4.768-1.12 6.432-.747 1.643-1.728 2.848-2.944 3.616s-2.528 1.152-3.936 1.152zm17.654 0c-2.112 0-3.797-.917-5.056-2.752-1.237-1.835-1.856-4.469-1.856-7.904s.619-6.037 1.856-7.808c1.259-1.771 2.944-2.656 5.056-2.656s3.787.885 5.024 2.656c1.259 1.771 1.888 4.373 1.888 7.808s-.629 6.069-1.888 7.904c-1.237 1.835-2.912 2.752-5.024 2.752zm0-2.88c.662 0 1.248-.245 1.76-.736.512-.512.907-1.333 1.184-2.464.299-1.131.448-2.656.448-4.576s-.149-3.435-.448-4.544c-.277-1.109-.672-1.888-1.184-2.336-.512-.469-1.098-.704-1.76-.704-.64 0-1.216.235-1.728.704-.512.448-.917 1.227-1.216 2.336s-.448 2.624-.448 4.544.15 3.445.448 4.576.704 1.952 1.216 2.464c.512.491 1.088.736 1.728.736zm10.871 2.496V31.455h3.712v17.792h8.704v3.136h-12.416zm20.222-3.168v-6.048h-5.728v-2.688h5.728v-6.048h2.784v6.048h5.728v2.688h-5.728v6.048h-2.784zm23.005 3.552c-1.451 0-2.688-.299-3.712-.896s-1.867-1.483-2.528-2.656l2.56-1.888c.426.768.917 1.333 1.472 1.696a3.36 3.36 0 0 0 1.792.512c.981 0 1.717-.299 2.208-.896s.736-1.643.736-3.136V31.455h3.712v14.368c0 1.259-.214 2.421-.64 3.488a5.6 5.6 0 0 1-2.016 2.528c-.918.619-2.112.928-3.584.928zm19.588 0c-1.813 0-3.413-.437-4.8-1.312-1.387-.896-2.475-2.155-3.264-3.776-.768-1.643-1.152-3.595-1.152-5.856s.384-4.192 1.152-5.792c.789-1.6 1.877-2.827 3.264-3.68s2.987-1.28 4.8-1.28c1.835 0 3.445.427 4.832 1.28s2.464 2.08 3.232 3.68c.789 1.6 1.184 3.531 1.184 5.792s-.395 4.213-1.184 5.856c-.768 1.621-1.845 2.88-3.232 3.776-1.387.875-2.997 1.312-4.832 1.312zm0-3.232c1.643 0 2.955-.693 3.936-2.08.981-1.408 1.472-3.285 1.472-5.632s-.491-4.181-1.472-5.504c-.981-1.344-2.293-2.016-3.936-2.016s-2.955.672-3.936 2.016c-.981 1.323-1.472 3.157-1.472 5.504s.491 4.224 1.472 5.632c.981 1.387 2.293 2.08 3.936 2.08zm13.435 2.848V31.455h6.688c1.45 0 2.73.16 3.84.48 1.13.32 2.016.864 2.656 1.632.661.747.992 1.76.992 3.04 0 .981-.256 1.909-.768 2.784-.512.853-1.227 1.44-2.144 1.76v.128c1.152.256 2.101.8 2.848 1.632.768.811 1.152 1.92 1.152 3.328 0 1.387-.352 2.539-1.056 3.456-.683.917-1.632 1.6-2.848 2.048-1.216.427-2.592.64-4.128.64h-7.232zm3.712-12.288h2.656c1.45 0 2.506-.267 3.168-.8s.992-1.248.992-2.144c0-1.024-.342-1.749-1.024-2.176s-1.707-.64-3.072-.64h-2.72v5.76zm0 9.408h3.136c1.536 0 2.72-.277 3.552-.832.832-.576 1.248-1.451 1.248-2.624 0-1.109-.406-1.909-1.216-2.4-.811-.512-2.006-.768-3.584-.768h-3.136v6.624zm20.993 3.264c-1.408 0-2.773-.267-4.096-.8a10.7 10.7 0 0 1-3.456-2.272l2.176-2.528c.747.704 1.6 1.28 2.56 1.728.96.427 1.92.64 2.88.64 1.195 0 2.102-.245 2.72-.736s.928-1.141.928-1.952c0-.875-.309-1.504-.928-1.888-.597-.384-1.365-.779-2.304-1.184l-2.88-1.248c-.682-.299-1.354-.683-2.016-1.152a5.9 5.9 0 0 1-1.6-1.792c-.405-.725-.608-1.6-.608-2.624 0-1.109.299-2.101.896-2.976.619-.896 1.451-1.6 2.496-2.112 1.067-.533 2.283-.8 3.648-.8a8.75 8.75 0 0 1 3.52.736c1.131.469 2.102 1.109 2.912 1.92l-1.888 2.368c-.661-.555-1.365-.992-2.112-1.312-.725-.32-1.536-.48-2.432-.48-.981 0-1.781.224-2.4.672-.597.427-.896 1.024-.896 1.792 0 .533.15.981.448 1.344.32.341.736.64 1.248.896l1.632.704 2.848 1.184c1.238.533 2.251 1.237 3.04 2.112.79.853 1.184 2.037 1.184 3.552a5.66 5.66 0 0 1-.896 3.104c-.597.939-1.461 1.696-2.592 2.272-1.109.555-2.453.832-4.032.832zM189.712 72.766h1.008v-7.02h2.388v-.852h-5.772v.852h2.376v7.02zm4.706 0h.996v-4.224c.576-.588.996-.888 1.584-.888.768 0 1.104.456 1.104 1.548v3.564h.996V69.07c0-1.488-.552-2.28-1.788-2.28-.804 0-1.392.432-1.932.96l.036-1.2v-2.328h-.996v8.544zm8.879.144c.804 0 1.428-.24 1.932-.6l-.348-.636a2.57 2.57 0 0 1-1.464.432c-1.104 0-1.836-.792-1.92-1.992h3.924a3.07 3.07 0 0 0 .048-.588c0-1.68-.852-2.736-2.34-2.736-1.332 0-2.616 1.164-2.616 3.06 0 1.932 1.224 3.06 2.784 3.06zm-1.8-3.564c.12-1.116.84-1.764 1.656-1.764.888 0 1.428.612 1.428 1.764h-3.084zm5.401 3.42h.996v-3.744c.396-.984.984-1.332 1.476-1.332a1.7 1.7 0 0 1 .528.072l.216-.852c-.18-.084-.36-.12-.624-.12-.648 0-1.248.468-1.656 1.2h-.036l-.084-1.056h-.816v5.832zm6.407.144c.804 0 1.428-.24 1.932-.6l-.348-.636a2.57 2.57 0 0 1-1.464.432c-1.104 0-1.836-.792-1.92-1.992h3.924a3.07 3.07 0 0 0 .048-.588c0-1.68-.852-2.736-2.34-2.736-1.332 0-2.616 1.164-2.616 3.06 0 1.932 1.224 3.06 2.784 3.06zm-1.8-3.564c.12-1.116.84-1.764 1.656-1.764.888 0 1.428.612 1.428 1.764h-3.084zm8.739 3.42h1.2l.78-3.132c.156-.528.264-1.044.372-1.728h.048l.384 1.728.792 3.132h1.26l1.572-5.832h-.948l-.852 3.384-.348 1.656h-.048l-.384-1.656-.888-3.384h-1.068l-.876 3.384-.36 1.656h-.048c-.096-.624-.216-1.128-.348-1.656l-.852-3.384h-1.02l1.632 5.832zm7.678 0h.996v-5.832h-.996v5.832zm.504-7.032c.384 0 .66-.252.66-.648 0-.384-.276-.648-.66-.648s-.66.264-.66.648c0 .396.276.648.66.648zm3.504 7.176c.252 0 .432-.036.576-.108l-.132-.744c-.096.024-.144.024-.204.024-.156 0-.288-.108-.288-.42v-7.44h-.996v7.368c0 .84.3 1.32 1.044 1.32zm3.059 0c.252 0 .432-.036.576-.108l-.132-.744c-.096.024-.144.024-.204.024-.156 0-.288-.108-.288-.42v-7.44h-.996v7.368c0 .84.3 1.32 1.044 1.32zm4.849-5.484c0-1.008.576-1.668 1.32-1.668.972 0 1.56.792 1.68 2.28-.48.708-1.092 1.008-1.596 1.008-.936 0-1.404-.624-1.404-1.62zm1.044 5.484c1.536 0 2.928-1.188 2.928-4.26 0-2.46-1.14-3.684-2.652-3.684-1.224 0-2.256.996-2.256 2.46 0 1.572.852 2.364 2.172 2.364.624 0 1.308-.36 1.788-.96-.048 2.424-.936 3.252-2.016 3.252-.48 0-.948-.24-1.26-.6l-.552.624c.42.456 1.032.804 1.848.804zm6.493 0c1.524 0 2.448-1.428 2.448-3.996s-.924-3.948-2.448-3.948c-1.536 0-2.46 1.38-2.46 3.948s.924 3.996 2.46 3.996zm0-.804c-.888 0-1.488-.948-1.488-3.192s.6-3.144 1.488-3.144 1.488.9 1.488 3.144-.6 3.192-1.488 3.192zm6.459.66h4.44v-.852h-3.432v-7.02h-1.008v7.872zm7.084.144c.732 0 1.368-.372 1.92-.84h.036l.096.696h.816v-3.588c0-1.44-.612-2.388-2.028-2.388-.936 0-1.752.396-2.292.756l.384.672c.456-.3 1.068-.6 1.74-.6.948 0 1.188.708 1.2 1.44-2.496.276-3.576.9-3.576 2.196 0 1.056.732 1.656 1.704 1.656zm.276-.816c-.564 0-1.008-.252-1.008-.9 0-.756.636-1.2 2.604-1.428v1.584c-.564.492-1.032.744-1.596.744zm4.427.672h.984V71.23l1.08-1.26 1.704 2.796h1.08l-2.196-3.48 1.944-2.352h-1.116l-2.46 3.048h-.036v-5.76h-.984v8.544zm5.941 0h.996v-4.224c.576-.588.996-.888 1.584-.888.768 0 1.104.456 1.104 1.548v3.564h.996V69.07c0-1.488-.552-2.28-1.788-2.28-.804 0-1.392.432-1.932.96l.036-1.2v-2.328h-.996v8.544zm10.43.144c1.584 0 2.232-1.104 2.232-2.496v-5.52h-1.008v5.436c0 1.212-.42 1.692-1.284 1.692-.576 0-1.02-.252-1.356-.84l-.672.456c.432.852 1.14 1.272 2.088 1.272zm6.533 0c1.428 0 2.712-1.116 2.712-3.048 0-1.956-1.284-3.072-2.712-3.072s-2.7 1.116-2.7 3.072c0 1.932 1.272 3.048 2.7 3.048zm0-.828c-.996 0-1.668-.888-1.668-2.22 0-1.344.672-2.244 1.668-2.244 1.008 0 1.68.9 1.68 2.244 0 1.332-.672 2.22-1.68 2.22zm6.816.828c1.332 0 2.532-1.164 2.532-3.156 0-1.8-.816-2.964-2.316-2.964-.648 0-1.296.348-1.836.804l.036-1.044v-2.328h-.996v8.544h.792l.096-.6h.036c.516.468 1.116.744 1.656.744zm-.168-.84c-.384 0-.912-.156-1.416-.6v-3.048c.552-.528 1.056-.792 1.548-.792 1.092 0 1.536.852 1.536 2.136 0 1.44-.708 2.304-1.668 2.304zm5.757.84c1.38 0 2.136-.792 2.136-1.74 0-1.056-.876-1.452-1.788-1.776-.732-.252-1.236-.468-1.236-.996 0-.432.324-.84 1.068-.84.516 0 .936.168 1.344.468l.456-.576a2.8 2.8 0 0 0-1.812-.66c-1.272 0-2.016.72-2.016 1.656 0 .96.84 1.38 1.716 1.692.66.24 1.308.492 1.308 1.092 0 .504-.372.9-1.14.9-.72 0-1.248-.216-1.752-.636l-.456.576c.54.528 1.32.84 2.172.84zm8.486 0c1.332 0 2.532-1.164 2.532-3.156 0-1.8-.816-2.964-2.316-2.964-.648 0-1.296.348-1.836.804l.036-1.044v-2.328h-.996v8.544h.792l.096-.6h.036c.516.468 1.116.744 1.656.744zm-.168-.84c-.384 0-.912-.156-1.416-.6v-3.048c.552-.528 1.056-.792 1.548-.792 1.092 0 1.536.852 1.536 2.136 0 1.44-.708 2.304-1.668 2.304zm4.293 3.204c1.164 0 1.776-.876 2.184-2.028l2.196-6.312h-.972l-1.044 3.216-.48 1.644h-.048l-.576-1.644-1.176-3.216h-1.032l2.34 5.844-.132.432c-.24.72-.66 1.236-1.308 1.236a1.36 1.36 0 0 1-.432-.072l-.216.78c.192.072.42.12.696.12zm9.744-2.364c.396 0 .792-.108 1.104-.252l-.204-.708a1.58 1.58 0 0 1-.672.144c-.66 0-.9-.408-.9-1.116v-3.24h1.584v-.804h-1.584v-1.872h-.828l-.12 1.872-.912.06v.744h.864v3.216c0 1.164.42 1.956 1.668 1.956zm2.23-.144h.996v-4.224c.576-.588.996-.888 1.584-.888.768 0 1.104.456 1.104 1.548v3.564h.996V69.07c0-1.488-.552-2.28-1.788-2.28-.804 0-1.392.432-1.932.96l.036-1.2v-2.328h-.996v8.544zm8.88.144c.804 0 1.428-.24 1.932-.6l-.348-.636a2.57 2.57 0 0 1-1.464.432c-1.104 0-1.836-.792-1.92-1.992h3.924a3.07 3.07 0 0 0 .048-.588c0-1.68-.852-2.736-2.34-2.736-1.332 0-2.616 1.164-2.616 3.06 0 1.932 1.224 3.06 2.784 3.06zm-1.8-3.564c.12-1.116.84-1.764 1.656-1.764.888 0 1.428.612 1.428 1.764h-3.084zM189.82 89.91c.396 0 .792-.108 1.104-.252l-.204-.708a1.58 1.58 0 0 1-.672.144c-.66 0-.9-.408-.9-1.116v-3.24h1.584v-.804h-1.584v-1.872h-.828l-.12 1.872-.912.06v.744h.864v3.216c0 1.164.42 1.956 1.668 1.956zm2.23-.144h.996v-5.832h-.996v5.832zm.504-7.032c.384 0 .66-.252.66-.648 0-.384-.276-.648-.66-.648s-.66.264-.66.648c0 .396.276.648.66.648zm2.461 7.032h.996v-4.224c.54-.6 1.02-.888 1.452-.888.744 0 1.08.456 1.08 1.548v3.564h.996v-4.224c.54-.6 1.008-.888 1.464-.888.732 0 1.08.456 1.08 1.548v3.564h.996V86.07c0-1.488-.576-2.28-1.776-2.28-.708 0-1.32.456-1.92 1.104-.24-.684-.72-1.104-1.62-1.104-.696 0-1.296.432-1.812.984h-.036l-.084-.84h-.816v5.832zm12.301.144c.804 0 1.428-.24 1.932-.6l-.348-.636a2.57 2.57 0 0 1-1.464.432c-1.104 0-1.836-.792-1.92-1.992h3.924a3.07 3.07 0 0 0 .048-.588c0-1.68-.852-2.736-2.34-2.736-1.332 0-2.616 1.164-2.616 3.06 0 1.932 1.224 3.06 2.784 3.06zm-1.8-3.564c.12-1.116.84-1.764 1.656-1.764.888 0 1.428.612 1.428 1.764h-3.084zm7.912 5.928c1.164 0 1.776-.876 2.184-2.028l2.196-6.312h-.972l-1.044 3.216-.48 1.644h-.048l-.576-1.644-1.176-3.216h-1.032l2.34 5.844-.132.432c-.24.72-.66 1.236-1.308 1.236a1.36 1.36 0 0 1-.432-.072l-.216.78c.192.072.42.12.696.12zm7.726-2.364c1.428 0 2.712-1.116 2.712-3.048 0-1.956-1.284-3.072-2.712-3.072s-2.7 1.116-2.7 3.072c0 1.932 1.272 3.048 2.7 3.048zm0-.828c-.996 0-1.668-.888-1.668-2.22 0-1.344.672-2.244 1.668-2.244 1.008 0 1.68.9 1.68 2.244 0 1.332-.672 2.22-1.68 2.22zm5.94.828c.804 0 1.38-.42 1.92-1.056h.036l.084.912h.816v-5.832h-.996v4.128c-.54.684-.96.984-1.548.984-.768 0-1.104-.468-1.104-1.548v-3.564h-.996v3.696c0 1.488.552 2.28 1.788 2.28zm9.194 2.544c1.812 0 2.952-.936 2.952-2.028 0-.96-.684-1.392-2.04-1.392h-1.128c-.78 0-1.02-.264-1.02-.624 0-.324.156-.516.372-.696.264.132.576.204.864.204 1.188 0 2.136-.78 2.136-2.028 0-.492-.192-.924-.468-1.188h1.188v-.768h-2.028a2.33 2.33 0 0 0-.828-.144c-1.188 0-2.196.804-2.196 2.076 0 .696.372 1.26.756 1.572v.048c-.3.204-.636.588-.636 1.08 0 .456.228.768.516.948v.048c-.528.36-.852.828-.852 1.32 0 1.008.984 1.572 2.412 1.572zm0-5.208c-.672 0-1.236-.528-1.236-1.38s.552-1.356 1.236-1.356 1.236.516 1.236 1.356c0 .852-.564 1.38-1.236 1.38zm.144 4.512c-1.056 0-1.692-.384-1.692-1.008 0-.336.18-.684.6-.984a2.84 2.84 0 0 0 .756.096h.996c.768 0 1.176.18 1.176.72 0 .6-.732 1.176-1.836 1.176zm3.947-1.992h.996v-3.744c.396-.984.984-1.332 1.476-1.332a1.7 1.7 0 0 1 .528.072l.216-.852c-.18-.084-.36-.12-.624-.12-.648 0-1.248.468-1.656 1.2h-.036l-.084-1.056h-.816v5.832zm5.222.144c.732 0 1.368-.372 1.92-.84h.036l.096.696h.816v-3.588c0-1.44-.612-2.388-2.028-2.388-.936 0-1.752.396-2.292.756l.384.672c.456-.3 1.068-.6 1.74-.6.948 0 1.188.708 1.2 1.44-2.496.276-3.576.9-3.576 2.196 0 1.056.732 1.656 1.704 1.656zm.276-.816c-.564 0-1.008-.252-1.008-.9 0-.756.636-1.2 2.604-1.428v1.584c-.564.492-1.032.744-1.596.744zm6.419.816c.684 0 1.308-.384 1.764-.828h.036l.084.684h.816v-8.544H254v2.244l.048.996c-.516-.42-.96-.672-1.632-.672-1.332 0-2.532 1.176-2.532 3.072 0 1.944.948 3.048 2.412 3.048zm.216-.84c-1.02 0-1.596-.828-1.596-2.22 0-1.332.744-2.22 1.668-2.22.48 0 .924.156 1.416.6v3.048c-.48.528-.948.792-1.488.792zm6.153.84c.804 0 1.38-.42 1.92-1.056h.036l.084.912h.816v-5.832h-.996v4.128c-.54.684-.96.984-1.548.984-.768 0-1.104-.468-1.104-1.548v-3.564h-.996v3.696c0 1.488.552 2.28 1.788 2.28zm6.167 0c.732 0 1.368-.372 1.92-.84h.036l.096.696h.816v-3.588c0-1.44-.612-2.388-2.028-2.388-.936 0-1.752.396-2.292.756l.384.672c.456-.3 1.068-.6 1.74-.6.948 0 1.188.708 1.2 1.44-2.496.276-3.576.9-3.576 2.196 0 1.056.732 1.656 1.704 1.656zm.276-.816c-.564 0-1.008-.252-1.008-.9 0-.756.636-1.2 2.604-1.428v1.584c-.564.492-1.032.744-1.596.744zm6.099.816c.396 0 .792-.108 1.104-.252l-.204-.708a1.58 1.58 0 0 1-.672.144c-.66 0-.9-.408-.9-1.116v-3.24h1.584v-.804h-1.584v-1.872h-.828l-.12 1.872-.912.06v.744h.864v3.216c0 1.164.42 1.956 1.668 1.956zm4.418 0c.804 0 1.428-.24 1.932-.6l-.348-.636a2.57 2.57 0 0 1-1.464.432c-1.104 0-1.836-.792-1.92-1.992h3.924a3.07 3.07 0 0 0 .048-.588c0-1.68-.852-2.736-2.34-2.736-1.332 0-2.616 1.164-2.616 3.06 0 1.932 1.224 3.06 2.784 3.06zm-1.8-3.564c.12-1.116.84-1.764 1.656-1.764.888 0 1.428.612 1.428 1.764h-3.084z" fill="#1a2c47"/><rect x="118" y="33.383" width="56" height="56" rx="28" fill="#f2f8ff"/><g clip-path="url(#C)"><path d="M162.07 61.38v14.685.489h-31.818V61.869c1.958 0 9.448 3.916 15.909 3.916s13.462-2.692 15.909-4.406z" fill="#b8dfff"/><g stroke="#0245b9" stroke-width="2.154" stroke-linejoin="round"><path d="M160.809 51.961h-29.615c-.744 0-1.346.603-1.346 1.346v21.539c0 .743.602 1.346 1.346 1.346h29.615c.744 0 1.346-.603 1.346-1.346V53.307c0-.743-.602-1.346-1.346-1.346z"/><g stroke-linecap="round"><path d="M152.731 51.959v-2.692c0-.714-.284-1.399-.788-1.904a2.69 2.69 0 0 0-1.904-.789h-8.077c-.714 0-1.399.284-1.904.789a2.69 2.69 0 0 0-.788 1.904v2.692m22.885 9.139a32.2 32.2 0 0 1-16.153 4.325 32.02 32.02 0 0 1-16.154-4.324"/><path d="M143.98 60.039h4.039"/></g></g></g><g fill="#d6dee5"><path d="M486.354 236.119a.5.5 0 0 0 0-.707l-3.182-3.182a.5.5 0 1 0-.708.707l2.829 2.829-2.829 2.828a.5.5 0 1 0 .708.707l3.182-3.182zm-.354-.853H28v1h458v-1z"/><path d="M28.354.412a.5.5 0 0 0-.707 0l-3.182 3.182a.5.5 0 0 0 .707.707L28 1.473l2.828 2.828a.5.5 0 0 0 .707-.707L28.354.412zM27.5.766v235h1v-235h-1z"/></g><defs><linearGradient id="A" x1="262.25" y1="-3.234" x2="262.25" y2="236.766" gradientUnits="userSpaceOnUse"><stop stop-color="#73b9ff"/><stop offset="1" stop-color="#73b9ff" stop-opacity="0"/></linearGradient><radialGradient id="B" cx="0" cy="0" r="1" gradientUnits="userSpaceOnUse" gradientTransform="translate(447.5 55.2656) rotate(90) scale(9.56348)"><stop stop-color="#0080ff" stop-opacity="0"/><stop offset="1" stop-color="#0080ff"/></radialGradient><clipPath id="C"><path fill="#fff" transform="translate(124.461 39.844)" d="M0 0h43.077v43.077H0z"/></clipPath></defs></svg>