<svg xmlns="http://www.w3.org/2000/svg" xmlns:xlink="http://www.w3.org/1999/xlink" width="496" zoomAndPan="magnify" viewBox="0 0 372 187.499995" height="250" preserveAspectRatio="xMidYMid meet" version="1.0"><defs><g/><clipPath id="0a10c57e3f"><path d="M 0.496094 23.371094 L 141.3125 23.371094 L 141.3125 163.628906 L 0.496094 163.628906 Z M 0.496094 23.371094 " clip-rule="nonzero"/></clipPath></defs><g clip-path="url(#0a10c57e3f)"><path fill="#370909" d="M 0.496094 23.371094 L 141.300781 23.371094 L 141.300781 163.628906 L 0.496094 163.628906 Z M 0.496094 23.371094 " fill-opacity="1" fill-rule="nonzero"/></g><g fill="#ffffff" fill-opacity="1"><g transform="translate(15.213746, 97.642015)"><g><path d="M 25.875 0 L 23.03125 -8.21875 L 10.765625 -8.21875 L 7.90625 0 L 1.171875 0 L 12.90625 -32.1875 L 20.859375 -32.1875 L 32.546875 0 Z M 16.875 -27.234375 L 16.75 -26.71875 C 16.59375 -26.175781 16.40625 -25.550781 16.1875 -24.84375 C 15.976562 -24.144531 14.671875 -20.296875 12.265625 -13.296875 L 21.515625 -13.296875 L 18.34375 -22.546875 L 17.359375 -25.65625 Z M 16.875 -27.234375 "/></g></g></g><g fill="#ffffff" fill-opacity="1"><g transform="translate(48.99767, 97.642015)"><g><path d="M 3.265625 -29.171875 L 3.265625 -33.890625 L 9.6875 -33.890625 L 9.6875 -29.171875 Z M 3.265625 0 L 3.265625 -24.71875 L 9.6875 -24.71875 L 9.6875 0 Z M 3.265625 0 "/></g></g></g><g fill="#ffffff" fill-opacity="1"><g transform="translate(61.995002, 97.642015)"><g><path d="M 29.859375 0 L 29.859375 -19.5 C 29.859375 -19.945312 29.859375 -20.390625 29.859375 -20.828125 C 29.867188 -21.273438 29.941406 -23.171875 30.078125 -26.515625 C 29.003906 -22.421875 28.207031 -19.566406 27.6875 -17.953125 L 21.890625 0 L 17.09375 0 L 11.28125 -17.953125 L 8.84375 -26.515625 C 9.019531 -22.984375 9.109375 -20.644531 9.109375 -19.5 L 9.109375 0 L 3.125 0 L 3.125 -32.1875 L 12.15625 -32.1875 L 17.90625 -14.1875 L 18.40625 -12.453125 L 19.5 -8.125 L 20.953125 -13.296875 L 26.859375 -32.1875 L 35.84375 -32.1875 L 35.84375 0 Z M 29.859375 0 "/></g></g></g><g fill="#ffffff" fill-opacity="1"><g transform="translate(100.964153, 97.642015)"><g><path d="M 3.125 0 L 3.125 -32.1875 L 9.875 -32.1875 L 9.875 -5.203125 L 27.140625 -5.203125 L 27.140625 0 Z M 3.125 0 "/></g></g></g><g fill="#ffffff" fill-opacity="1"><g transform="translate(15.213746, 115.937981)"><g><path d="M 7.703125 -2.046875 C 9.429688 -2.046875 10.628906 -2.914062 11.296875 -4.65625 L 13.78125 -3.71875 C 13.25 -2.394531 12.460938 -1.410156 11.421875 -0.765625 C 10.390625 -0.128906 9.148438 0.1875 7.703125 0.1875 C 5.503906 0.1875 3.804688 -0.429688 2.609375 -1.671875 C 1.410156 -2.910156 0.8125 -4.648438 0.8125 -6.890625 C 0.8125 -9.128906 1.390625 -10.847656 2.546875 -12.046875 C 3.703125 -13.253906 5.378906 -13.859375 7.578125 -13.859375 C 9.179688 -13.859375 10.484375 -13.535156 11.484375 -12.890625 C 12.492188 -12.242188 13.203125 -11.300781 13.609375 -10.0625 L 11.09375 -9.375 C 10.882812 -10.050781 10.46875 -10.59375 9.84375 -11 C 9.21875 -11.40625 8.484375 -11.609375 7.640625 -11.609375 C 6.347656 -11.609375 5.363281 -11.207031 4.6875 -10.40625 C 4.019531 -9.601562 3.6875 -8.429688 3.6875 -6.890625 C 3.6875 -5.316406 4.03125 -4.113281 4.71875 -3.28125 C 5.40625 -2.457031 6.398438 -2.046875 7.703125 -2.046875 Z M 7.703125 -2.046875 "/></g></g></g><g fill="#ffffff" fill-opacity="1"><g transform="translate(29.539214, 115.937981)"><g><path d="M 3.8125 0.1875 C 2.789062 0.1875 1.992188 -0.0859375 1.421875 -0.640625 C 0.859375 -1.191406 0.578125 -1.96875 0.578125 -2.96875 C 0.578125 -4.050781 0.929688 -4.875 1.640625 -5.4375 C 2.347656 -6.007812 3.375 -6.300781 4.71875 -6.3125 L 6.96875 -6.359375 L 6.96875 -6.890625 C 6.96875 -7.578125 6.847656 -8.085938 6.609375 -8.421875 C 6.378906 -8.753906 5.992188 -8.921875 5.453125 -8.921875 C 4.941406 -8.921875 4.566406 -8.800781 4.328125 -8.5625 C 4.097656 -8.332031 3.953125 -7.957031 3.890625 -7.4375 L 1.0625 -7.5625 C 1.226562 -8.582031 1.691406 -9.351562 2.453125 -9.875 C 3.210938 -10.40625 4.25 -10.671875 5.5625 -10.671875 C 6.882812 -10.671875 7.90625 -10.34375 8.625 -9.6875 C 9.34375 -9.039062 9.703125 -8.117188 9.703125 -6.921875 L 9.703125 -3.09375 C 9.703125 -2.507812 9.765625 -2.101562 9.890625 -1.875 C 10.023438 -1.65625 10.25 -1.546875 10.5625 -1.546875 C 10.769531 -1.546875 10.96875 -1.566406 11.15625 -1.609375 L 11.15625 -0.140625 C 11 -0.0976562 10.851562 -0.0625 10.71875 -0.03125 C 10.59375 0 10.460938 0.0234375 10.328125 0.046875 C 10.203125 0.0664062 10.066406 0.0820312 9.921875 0.09375 C 9.773438 0.101562 9.609375 0.109375 9.421875 0.109375 C 8.734375 0.109375 8.222656 -0.0546875 7.890625 -0.390625 C 7.566406 -0.722656 7.375 -1.21875 7.3125 -1.875 L 7.25 -1.875 C 6.488281 -0.5 5.34375 0.1875 3.8125 0.1875 Z M 6.96875 -4.859375 L 5.578125 -4.828125 C 4.941406 -4.804688 4.492188 -4.738281 4.234375 -4.625 C 3.972656 -4.507812 3.769531 -4.335938 3.625 -4.109375 C 3.488281 -3.878906 3.421875 -3.566406 3.421875 -3.171875 C 3.421875 -2.679688 3.535156 -2.3125 3.765625 -2.0625 C 3.992188 -1.820312 4.300781 -1.703125 4.6875 -1.703125 C 5.101562 -1.703125 5.488281 -1.816406 5.84375 -2.046875 C 6.195312 -2.285156 6.472656 -2.609375 6.671875 -3.015625 C 6.867188 -3.429688 6.96875 -3.867188 6.96875 -4.328125 Z M 6.96875 -4.859375 "/></g></g></g><g fill="#ffffff" fill-opacity="1"><g transform="translate(40.571473, 115.937981)"><g><path d="M 7.5625 0 L 7.5625 -5.875 C 7.5625 -7.71875 7.03125 -8.640625 5.96875 -8.640625 C 5.414062 -8.640625 4.96875 -8.359375 4.625 -7.796875 C 4.28125 -7.234375 4.109375 -6.507812 4.109375 -5.625 L 4.109375 0 L 1.390625 0 L 1.390625 -8.140625 C 1.390625 -8.703125 1.378906 -9.160156 1.359375 -9.515625 C 1.347656 -9.878906 1.332031 -10.203125 1.3125 -10.484375 L 3.90625 -10.484375 C 3.925781 -10.359375 3.953125 -10.03125 3.984375 -9.5 C 4.015625 -8.96875 4.03125 -8.601562 4.03125 -8.40625 L 4.0625 -8.40625 C 4.40625 -9.207031 4.828125 -9.785156 5.328125 -10.140625 C 5.828125 -10.503906 6.425781 -10.6875 7.125 -10.6875 C 8.726562 -10.6875 9.695312 -9.925781 10.03125 -8.40625 L 10.09375 -8.40625 C 10.445312 -9.21875 10.875 -9.800781 11.375 -10.15625 C 11.875 -10.507812 12.507812 -10.6875 13.28125 -10.6875 C 14.300781 -10.6875 15.078125 -10.335938 15.609375 -9.640625 C 16.140625 -8.953125 16.40625 -7.957031 16.40625 -6.65625 L 16.40625 0 L 13.703125 0 L 13.703125 -5.875 C 13.703125 -7.71875 13.175781 -8.640625 12.125 -8.640625 C 11.59375 -8.640625 11.15625 -8.382812 10.8125 -7.875 C 10.476562 -7.363281 10.296875 -6.65625 10.265625 -5.75 L 10.265625 0 Z M 7.5625 0 "/></g></g></g><g fill="#ffffff" fill-opacity="1"><g transform="translate(58.209521, 115.937981)"><g><path d="M 11.3125 -5.296875 C 11.3125 -3.546875 10.957031 -2.191406 10.25 -1.234375 C 9.550781 -0.285156 8.5625 0.1875 7.28125 0.1875 C 6.550781 0.1875 5.910156 0.03125 5.359375 -0.28125 C 4.816406 -0.601562 4.398438 -1.066406 4.109375 -1.671875 L 4.046875 -1.671875 C 4.085938 -1.472656 4.109375 -0.882812 4.109375 0.09375 L 4.109375 4.125 L 1.390625 4.125 L 1.390625 -8.078125 C 1.390625 -9.054688 1.363281 -9.859375 1.3125 -10.484375 L 3.953125 -10.484375 C 3.984375 -10.367188 4.007812 -10.140625 4.03125 -9.796875 C 4.050781 -9.453125 4.0625 -9.113281 4.0625 -8.78125 L 4.109375 -8.78125 C 4.722656 -10.0625 5.835938 -10.703125 7.453125 -10.703125 C 8.679688 -10.703125 9.628906 -10.234375 10.296875 -9.296875 C 10.972656 -8.359375 11.3125 -7.023438 11.3125 -5.296875 Z M 8.46875 -5.296875 C 8.46875 -7.640625 7.75 -8.8125 6.3125 -8.8125 C 5.582031 -8.8125 5.023438 -8.492188 4.640625 -7.859375 C 4.253906 -7.234375 4.0625 -6.351562 4.0625 -5.21875 C 4.0625 -4.082031 4.253906 -3.207031 4.640625 -2.59375 C 5.023438 -1.976562 5.570312 -1.671875 6.28125 -1.671875 C 7.738281 -1.671875 8.46875 -2.878906 8.46875 -5.296875 Z M 8.46875 -5.296875 "/></g></g></g><g fill="#ffffff" fill-opacity="1"><g transform="translate(70.326602, 115.937981)"><g><path d="M 3.953125 -10.484375 L 3.953125 -4.609375 C 3.953125 -2.765625 4.570312 -1.84375 5.8125 -1.84375 C 6.46875 -1.84375 7 -2.125 7.40625 -2.6875 C 7.8125 -3.25 8.015625 -3.972656 8.015625 -4.859375 L 8.015625 -10.484375 L 10.734375 -10.484375 L 10.734375 -2.34375 C 10.734375 -1.445312 10.757812 -0.664062 10.8125 0 L 8.21875 0 C 8.132812 -0.925781 8.09375 -1.617188 8.09375 -2.078125 L 8.046875 -2.078125 C 7.691406 -1.285156 7.234375 -0.707031 6.671875 -0.34375 C 6.109375 0.0078125 5.445312 0.1875 4.6875 0.1875 C 3.570312 0.1875 2.71875 -0.148438 2.125 -0.828125 C 1.53125 -1.503906 1.234375 -2.503906 1.234375 -3.828125 L 1.234375 -10.484375 Z M 3.953125 -10.484375 "/></g></g></g><g fill="#ffffff" fill-opacity="1"><g transform="translate(82.443683, 115.937981)"><g><path d="M 10.21875 -3.0625 C 10.21875 -2.050781 9.800781 -1.253906 8.96875 -0.671875 C 8.144531 -0.0976562 7 0.1875 5.53125 0.1875 C 4.09375 0.1875 2.988281 -0.0351562 2.21875 -0.484375 C 1.457031 -0.941406 0.953125 -1.648438 0.703125 -2.609375 L 3.09375 -2.96875 C 3.226562 -2.476562 3.460938 -2.128906 3.796875 -1.921875 C 4.128906 -1.710938 4.707031 -1.609375 5.53125 -1.609375 C 6.289062 -1.609375 6.84375 -1.703125 7.1875 -1.890625 C 7.539062 -2.085938 7.71875 -2.394531 7.71875 -2.8125 C 7.71875 -3.144531 7.578125 -3.410156 7.296875 -3.609375 C 7.015625 -3.804688 6.539062 -3.972656 5.875 -4.109375 C 4.332031 -4.410156 3.289062 -4.691406 2.75 -4.953125 C 2.21875 -5.210938 1.8125 -5.550781 1.53125 -5.96875 C 1.25 -6.382812 1.109375 -6.898438 1.109375 -7.515625 C 1.109375 -8.515625 1.492188 -9.289062 2.265625 -9.84375 C 3.046875 -10.40625 4.140625 -10.6875 5.546875 -10.6875 C 6.796875 -10.6875 7.800781 -10.441406 8.5625 -9.953125 C 9.320312 -9.472656 9.796875 -8.773438 9.984375 -7.859375 L 7.5625 -7.609375 C 7.488281 -8.035156 7.300781 -8.351562 7 -8.5625 C 6.695312 -8.769531 6.210938 -8.875 5.546875 -8.875 C 4.898438 -8.875 4.414062 -8.789062 4.09375 -8.625 C 3.769531 -8.457031 3.609375 -8.179688 3.609375 -7.796875 C 3.609375 -7.492188 3.734375 -7.253906 3.984375 -7.078125 C 4.234375 -6.898438 4.648438 -6.753906 5.234375 -6.640625 C 6.054688 -6.472656 6.785156 -6.300781 7.421875 -6.125 C 8.054688 -5.945312 8.566406 -5.734375 8.953125 -5.484375 C 9.335938 -5.234375 9.644531 -4.914062 9.875 -4.53125 C 10.101562 -4.15625 10.21875 -3.664062 10.21875 -3.0625 Z M 10.21875 -3.0625 "/></g></g></g><g fill="#ffffff" fill-opacity="1"><g transform="translate(16.865315, 123.587572)"><g><path d="M 2.28125 0 L 2.28125 -1.3125 L 0.9375 -1.3125 L 0.9375 0 L 0.296875 0 L 0.296875 -3.0625 L 0.9375 -3.0625 L 0.9375 -1.84375 L 2.28125 -1.84375 L 2.28125 -3.0625 L 2.921875 -3.0625 L 2.921875 0 Z M 2.28125 0 "/></g></g><g transform="translate(20.076246, 123.587572)"><g><path d="M 0.890625 -2.359375 L 0.890625 -1.03125 C 0.890625 -0.613281 1.023438 -0.40625 1.296875 -0.40625 C 1.453125 -0.40625 1.570312 -0.46875 1.65625 -0.59375 C 1.75 -0.726562 1.796875 -0.894531 1.796875 -1.09375 L 1.796875 -2.359375 L 2.40625 -2.359375 L 2.40625 -0.53125 C 2.40625 -0.320312 2.410156 -0.144531 2.421875 0 L 1.84375 0 C 1.820312 -0.207031 1.8125 -0.363281 1.8125 -0.46875 C 1.726562 -0.289062 1.625 -0.160156 1.5 -0.078125 C 1.375 0.00390625 1.222656 0.046875 1.046875 0.046875 C 0.796875 0.046875 0.601562 -0.03125 0.46875 -0.1875 C 0.34375 -0.34375 0.28125 -0.566406 0.28125 -0.859375 L 0.28125 -2.359375 Z M 0.890625 -2.359375 "/></g></g><g transform="translate(22.792186, 123.587572)"><g><path d="M 1.703125 0 L 1.703125 -1.3125 C 1.703125 -1.726562 1.582031 -1.9375 1.34375 -1.9375 C 1.21875 -1.9375 1.113281 -1.875 1.03125 -1.75 C 0.957031 -1.625 0.921875 -1.460938 0.921875 -1.265625 L 0.921875 0 L 0.3125 0 L 0.3125 -1.828125 C 0.3125 -1.953125 0.304688 -2.050781 0.296875 -2.125 C 0.296875 -2.207031 0.296875 -2.285156 0.296875 -2.359375 L 0.875 -2.359375 C 0.875 -2.328125 0.878906 -2.25 0.890625 -2.125 C 0.898438 -2.007812 0.90625 -1.929688 0.90625 -1.890625 C 0.988281 -2.066406 1.082031 -2.191406 1.1875 -2.265625 C 1.300781 -2.347656 1.4375 -2.390625 1.59375 -2.390625 C 1.957031 -2.390625 2.175781 -2.222656 2.25 -1.890625 L 2.265625 -1.890625 C 2.347656 -2.066406 2.441406 -2.191406 2.546875 -2.265625 C 2.660156 -2.347656 2.804688 -2.390625 2.984375 -2.390625 C 3.210938 -2.390625 3.382812 -2.3125 3.5 -2.15625 C 3.625 -2.007812 3.6875 -1.789062 3.6875 -1.5 L 3.6875 0 L 3.078125 0 L 3.078125 -1.3125 C 3.078125 -1.726562 2.957031 -1.9375 2.71875 -1.9375 C 2.601562 -1.9375 2.503906 -1.878906 2.421875 -1.765625 C 2.347656 -1.648438 2.304688 -1.492188 2.296875 -1.296875 L 2.296875 0 Z M 1.703125 0 "/></g></g><g transform="translate(26.745604, 123.587572)"><g><path d="M 0.859375 0.046875 C 0.628906 0.046875 0.445312 -0.015625 0.3125 -0.140625 C 0.1875 -0.265625 0.125 -0.441406 0.125 -0.671875 C 0.125 -0.910156 0.203125 -1.09375 0.359375 -1.21875 C 0.523438 -1.34375 0.757812 -1.410156 1.0625 -1.421875 L 1.5625 -1.421875 L 1.5625 -1.546875 C 1.5625 -1.703125 1.535156 -1.816406 1.484375 -1.890625 C 1.429688 -1.960938 1.34375 -2 1.21875 -2 C 1.101562 -2 1.019531 -1.972656 0.96875 -1.921875 C 0.914062 -1.867188 0.882812 -1.785156 0.875 -1.671875 L 0.234375 -1.703125 C 0.273438 -1.929688 0.378906 -2.101562 0.546875 -2.21875 C 0.722656 -2.332031 0.957031 -2.390625 1.25 -2.390625 C 1.539062 -2.390625 1.765625 -2.316406 1.921875 -2.171875 C 2.085938 -2.023438 2.171875 -1.816406 2.171875 -1.546875 L 2.171875 -0.703125 C 2.171875 -0.566406 2.1875 -0.472656 2.21875 -0.421875 C 2.25 -0.367188 2.300781 -0.34375 2.375 -0.34375 C 2.414062 -0.34375 2.457031 -0.347656 2.5 -0.359375 L 2.5 -0.03125 C 2.46875 -0.0195312 2.4375 -0.0078125 2.40625 0 C 2.375 0 2.34375 0 2.3125 0 C 2.289062 0.0078125 2.257812 0.015625 2.21875 0.015625 C 2.1875 0.0234375 2.148438 0.03125 2.109375 0.03125 C 1.960938 0.03125 1.847656 -0.00390625 1.765625 -0.078125 C 1.691406 -0.160156 1.648438 -0.273438 1.640625 -0.421875 L 1.625 -0.421875 C 1.457031 -0.109375 1.203125 0.046875 0.859375 0.046875 Z M 1.5625 -1.09375 L 1.25 -1.078125 C 1.113281 -1.078125 1.015625 -1.0625 0.953125 -1.03125 C 0.890625 -1.007812 0.84375 -0.972656 0.8125 -0.921875 C 0.78125 -0.867188 0.765625 -0.800781 0.765625 -0.71875 C 0.765625 -0.601562 0.789062 -0.515625 0.84375 -0.453125 C 0.894531 -0.398438 0.960938 -0.375 1.046875 -0.375 C 1.140625 -0.375 1.226562 -0.398438 1.3125 -0.453125 C 1.394531 -0.515625 1.457031 -0.585938 1.5 -0.671875 C 1.539062 -0.765625 1.5625 -0.863281 1.5625 -0.96875 Z M 1.5625 -1.09375 "/></g></g><g transform="translate(29.21839, 123.587572)"><g><path d="M 1.828125 0 L 1.828125 -1.3125 C 1.828125 -1.726562 1.691406 -1.9375 1.421875 -1.9375 C 1.265625 -1.9375 1.140625 -1.875 1.046875 -1.75 C 0.960938 -1.625 0.921875 -1.460938 0.921875 -1.265625 L 0.921875 0 L 0.3125 0 L 0.3125 -1.828125 C 0.3125 -1.953125 0.304688 -2.050781 0.296875 -2.125 C 0.296875 -2.207031 0.296875 -2.285156 0.296875 -2.359375 L 0.875 -2.359375 C 0.875 -2.328125 0.878906 -2.25 0.890625 -2.125 C 0.898438 -2.007812 0.90625 -1.929688 0.90625 -1.890625 C 0.988281 -2.066406 1.09375 -2.191406 1.21875 -2.265625 C 1.34375 -2.347656 1.492188 -2.390625 1.671875 -2.390625 C 1.921875 -2.390625 2.109375 -2.3125 2.234375 -2.15625 C 2.367188 -2.007812 2.4375 -1.789062 2.4375 -1.5 L 2.4375 0 Z M 1.828125 0 "/></g></g><g transform="translate(31.93433, 123.587572)"><g/></g><g transform="translate(33.169638, 123.587572)"><g><path d="M 0.296875 0 L 0.296875 -3.0625 L 0.9375 -3.0625 L 0.9375 0 Z M 0.296875 0 "/></g></g><g transform="translate(34.404945, 123.587572)"><g><path d="M 1.828125 0 L 1.828125 -1.3125 C 1.828125 -1.726562 1.691406 -1.9375 1.421875 -1.9375 C 1.265625 -1.9375 1.140625 -1.875 1.046875 -1.75 C 0.960938 -1.625 0.921875 -1.460938 0.921875 -1.265625 L 0.921875 0 L 0.3125 0 L 0.3125 -1.828125 C 0.3125 -1.953125 0.304688 -2.050781 0.296875 -2.125 C 0.296875 -2.207031 0.296875 -2.285156 0.296875 -2.359375 L 0.875 -2.359375 C 0.875 -2.328125 0.878906 -2.25 0.890625 -2.125 C 0.898438 -2.007812 0.90625 -1.929688 0.90625 -1.890625 C 0.988281 -2.066406 1.09375 -2.191406 1.21875 -2.265625 C 1.34375 -2.347656 1.492188 -2.390625 1.671875 -2.390625 C 1.921875 -2.390625 2.109375 -2.3125 2.234375 -2.15625 C 2.367188 -2.007812 2.4375 -1.789062 2.4375 -1.5 L 2.4375 0 Z M 1.828125 0 "/></g></g><g transform="translate(37.120885, 123.587572)"><g><path d="M 0.90625 0.046875 C 0.726562 0.046875 0.59375 0 0.5 -0.09375 C 0.40625 -0.195312 0.359375 -0.347656 0.359375 -0.546875 L 0.359375 -1.9375 L 0.046875 -1.9375 L 0.046875 -2.359375 L 0.375 -2.359375 L 0.578125 -2.90625 L 0.953125 -2.90625 L 0.953125 -2.359375 L 1.40625 -2.359375 L 1.40625 -1.9375 L 0.953125 -1.9375 L 0.953125 -0.71875 C 0.953125 -0.601562 0.972656 -0.515625 1.015625 -0.453125 C 1.066406 -0.398438 1.132812 -0.375 1.21875 -0.375 C 1.269531 -0.375 1.335938 -0.382812 1.421875 -0.40625 L 1.421875 -0.03125 C 1.273438 0.0195312 1.101562 0.046875 0.90625 0.046875 Z M 0.90625 0.046875 "/></g></g><g transform="translate(38.601517, 123.587572)"><g><path d="M 1.28125 0.046875 C 0.925781 0.046875 0.648438 -0.0546875 0.453125 -0.265625 C 0.265625 -0.472656 0.171875 -0.78125 0.171875 -1.1875 C 0.171875 -1.570312 0.265625 -1.867188 0.453125 -2.078125 C 0.648438 -2.285156 0.925781 -2.390625 1.28125 -2.390625 C 1.625 -2.390625 1.882812 -2.273438 2.0625 -2.046875 C 2.238281 -1.828125 2.328125 -1.503906 2.328125 -1.078125 L 2.328125 -1.0625 L 0.8125 -1.0625 C 0.8125 -0.832031 0.851562 -0.65625 0.9375 -0.53125 C 1.019531 -0.414062 1.140625 -0.359375 1.296875 -0.359375 C 1.515625 -0.359375 1.65625 -0.453125 1.71875 -0.640625 L 2.296875 -0.59375 C 2.128906 -0.164062 1.789062 0.046875 1.28125 0.046875 Z M 1.28125 -2.015625 C 1.132812 -2.015625 1.019531 -1.960938 0.9375 -1.859375 C 0.863281 -1.765625 0.820312 -1.625 0.8125 -1.4375 L 1.734375 -1.4375 C 1.722656 -1.625 1.675781 -1.765625 1.59375 -1.859375 C 1.507812 -1.960938 1.40625 -2.015625 1.28125 -2.015625 Z M 1.28125 -2.015625 "/></g></g><g transform="translate(41.074303, 123.587572)"><g><path d="M 0.3125 0 L 0.3125 -3.234375 L 0.921875 -3.234375 L 0.921875 0 Z M 0.3125 0 "/></g></g><g transform="translate(42.309611, 123.587572)"><g><path d="M 0.3125 0 L 0.3125 -3.234375 L 0.921875 -3.234375 L 0.921875 0 Z M 0.3125 0 "/></g></g><g transform="translate(43.544918, 123.587572)"><g><path d="M 0.3125 -2.78125 L 0.3125 -3.234375 L 0.921875 -3.234375 L 0.921875 -2.78125 Z M 0.3125 0 L 0.3125 -2.359375 L 0.921875 -2.359375 L 0.921875 0 Z M 0.3125 0 "/></g></g><g transform="translate(44.780226, 123.587572)"><g><path d="M 1.296875 0.9375 C 1.003906 0.9375 0.769531 0.878906 0.59375 0.765625 C 0.425781 0.660156 0.320312 0.507812 0.28125 0.3125 L 0.890625 0.234375 C 0.910156 0.328125 0.957031 0.398438 1.03125 0.453125 C 1.101562 0.515625 1.195312 0.546875 1.3125 0.546875 C 1.476562 0.546875 1.597656 0.492188 1.671875 0.390625 C 1.753906 0.285156 1.796875 0.128906 1.796875 -0.078125 L 1.796875 -0.203125 L 1.8125 -0.4375 L 1.796875 -0.4375 C 1.660156 -0.144531 1.410156 0 1.046875 0 C 0.773438 0 0.5625 -0.101562 0.40625 -0.3125 C 0.257812 -0.519531 0.1875 -0.816406 0.1875 -1.203125 C 0.1875 -1.578125 0.257812 -1.867188 0.40625 -2.078125 C 0.5625 -2.285156 0.789062 -2.390625 1.09375 -2.390625 C 1.4375 -2.390625 1.671875 -2.25 1.796875 -1.96875 L 1.8125 -1.96875 C 1.8125 -2.019531 1.8125 -2.085938 1.8125 -2.171875 C 1.820312 -2.265625 1.832031 -2.328125 1.84375 -2.359375 L 2.421875 -2.359375 C 2.410156 -2.203125 2.40625 -2.019531 2.40625 -1.8125 L 2.40625 -0.078125 C 2.40625 0.265625 2.3125 0.519531 2.125 0.6875 C 1.9375 0.851562 1.660156 0.9375 1.296875 0.9375 Z M 1.8125 -1.203125 C 1.8125 -1.453125 1.765625 -1.644531 1.671875 -1.78125 C 1.585938 -1.914062 1.46875 -1.984375 1.3125 -1.984375 C 0.976562 -1.984375 0.8125 -1.722656 0.8125 -1.203125 C 0.8125 -0.679688 0.972656 -0.421875 1.296875 -0.421875 C 1.460938 -0.421875 1.585938 -0.488281 1.671875 -0.625 C 1.765625 -0.757812 1.8125 -0.953125 1.8125 -1.203125 Z M 1.8125 -1.203125 "/></g></g><g transform="translate(47.496166, 123.587572)"><g><path d="M 1.28125 0.046875 C 0.925781 0.046875 0.648438 -0.0546875 0.453125 -0.265625 C 0.265625 -0.472656 0.171875 -0.78125 0.171875 -1.1875 C 0.171875 -1.570312 0.265625 -1.867188 0.453125 -2.078125 C 0.648438 -2.285156 0.925781 -2.390625 1.28125 -2.390625 C 1.625 -2.390625 1.882812 -2.273438 2.0625 -2.046875 C 2.238281 -1.828125 2.328125 -1.503906 2.328125 -1.078125 L 2.328125 -1.0625 L 0.8125 -1.0625 C 0.8125 -0.832031 0.851562 -0.65625 0.9375 -0.53125 C 1.019531 -0.414062 1.140625 -0.359375 1.296875 -0.359375 C 1.515625 -0.359375 1.65625 -0.453125 1.71875 -0.640625 L 2.296875 -0.59375 C 2.128906 -0.164062 1.789062 0.046875 1.28125 0.046875 Z M 1.28125 -2.015625 C 1.132812 -2.015625 1.019531 -1.960938 0.9375 -1.859375 C 0.863281 -1.765625 0.820312 -1.625 0.8125 -1.4375 L 1.734375 -1.4375 C 1.722656 -1.625 1.675781 -1.765625 1.59375 -1.859375 C 1.507812 -1.960938 1.40625 -2.015625 1.28125 -2.015625 Z M 1.28125 -2.015625 "/></g></g><g transform="translate(49.968952, 123.587572)"><g><path d="M 1.828125 0 L 1.828125 -1.3125 C 1.828125 -1.726562 1.691406 -1.9375 1.421875 -1.9375 C 1.265625 -1.9375 1.140625 -1.875 1.046875 -1.75 C 0.960938 -1.625 0.921875 -1.460938 0.921875 -1.265625 L 0.921875 0 L 0.3125 0 L 0.3125 -1.828125 C 0.3125 -1.953125 0.304688 -2.050781 0.296875 -2.125 C 0.296875 -2.207031 0.296875 -2.285156 0.296875 -2.359375 L 0.875 -2.359375 C 0.875 -2.328125 0.878906 -2.25 0.890625 -2.125 C 0.898438 -2.007812 0.90625 -1.929688 0.90625 -1.890625 C 0.988281 -2.066406 1.09375 -2.191406 1.21875 -2.265625 C 1.34375 -2.347656 1.492188 -2.390625 1.671875 -2.390625 C 1.921875 -2.390625 2.109375 -2.3125 2.234375 -2.15625 C 2.367188 -2.007812 2.4375 -1.789062 2.4375 -1.5 L 2.4375 0 Z M 1.828125 0 "/></g></g><g transform="translate(52.684892, 123.587572)"><g><path d="M 1.296875 0.046875 C 0.929688 0.046875 0.648438 -0.0546875 0.453125 -0.265625 C 0.265625 -0.484375 0.171875 -0.78125 0.171875 -1.15625 C 0.171875 -1.550781 0.269531 -1.851562 0.46875 -2.0625 C 0.664062 -2.28125 0.941406 -2.390625 1.296875 -2.390625 C 1.578125 -2.390625 1.804688 -2.320312 1.984375 -2.1875 C 2.171875 -2.050781 2.285156 -1.859375 2.328125 -1.609375 L 1.71875 -1.578125 C 1.695312 -1.703125 1.648438 -1.796875 1.578125 -1.859375 C 1.515625 -1.929688 1.414062 -1.96875 1.28125 -1.96875 C 0.96875 -1.96875 0.8125 -1.707031 0.8125 -1.1875 C 0.8125 -0.644531 0.972656 -0.375 1.296875 -0.375 C 1.410156 -0.375 1.503906 -0.410156 1.578125 -0.484375 C 1.660156 -0.554688 1.710938 -0.664062 1.734375 -0.8125 L 2.34375 -0.78125 C 2.320312 -0.625 2.265625 -0.476562 2.171875 -0.34375 C 2.078125 -0.21875 1.953125 -0.117188 1.796875 -0.046875 C 1.648438 0.015625 1.484375 0.046875 1.296875 0.046875 Z M 1.296875 0.046875 "/></g></g><g transform="translate(55.157678, 123.587572)"><g><path d="M 1.28125 0.046875 C 0.925781 0.046875 0.648438 -0.0546875 0.453125 -0.265625 C 0.265625 -0.472656 0.171875 -0.78125 0.171875 -1.1875 C 0.171875 -1.570312 0.265625 -1.867188 0.453125 -2.078125 C 0.648438 -2.285156 0.925781 -2.390625 1.28125 -2.390625 C 1.625 -2.390625 1.882812 -2.273438 2.0625 -2.046875 C 2.238281 -1.828125 2.328125 -1.503906 2.328125 -1.078125 L 2.328125 -1.0625 L 0.8125 -1.0625 C 0.8125 -0.832031 0.851562 -0.65625 0.9375 -0.53125 C 1.019531 -0.414062 1.140625 -0.359375 1.296875 -0.359375 C 1.515625 -0.359375 1.65625 -0.453125 1.71875 -0.640625 L 2.296875 -0.59375 C 2.128906 -0.164062 1.789062 0.046875 1.28125 0.046875 Z M 1.28125 -2.015625 C 1.132812 -2.015625 1.019531 -1.960938 0.9375 -1.859375 C 0.863281 -1.765625 0.820312 -1.625 0.8125 -1.4375 L 1.734375 -1.4375 C 1.722656 -1.625 1.675781 -1.765625 1.59375 -1.859375 C 1.507812 -1.960938 1.40625 -2.015625 1.28125 -2.015625 Z M 1.28125 -2.015625 "/></g></g></g><g fill="#ffffff" fill-opacity="1"><g transform="translate(16.865315, 128.033811)"><g><path d="M 2.84375 0 L 2.84375 -1.859375 C 2.84375 -1.898438 2.84375 -1.941406 2.84375 -1.984375 C 2.84375 -2.023438 2.847656 -2.207031 2.859375 -2.53125 C 2.753906 -2.132812 2.679688 -1.859375 2.640625 -1.703125 L 2.078125 0 L 1.625 0 L 1.078125 -1.703125 L 0.84375 -2.53125 C 0.863281 -2.1875 0.875 -1.960938 0.875 -1.859375 L 0.875 0 L 0.296875 0 L 0.296875 -3.0625 L 1.15625 -3.0625 L 1.703125 -1.34375 L 1.75 -1.1875 L 1.859375 -0.78125 L 2 -1.265625 L 2.5625 -3.0625 L 3.40625 -3.0625 L 3.40625 0 Z M 2.84375 0 "/></g></g><g transform="translate(20.569066, 128.033811)"><g><path d="M 1.28125 0.046875 C 0.925781 0.046875 0.648438 -0.0546875 0.453125 -0.265625 C 0.265625 -0.472656 0.171875 -0.78125 0.171875 -1.1875 C 0.171875 -1.570312 0.265625 -1.867188 0.453125 -2.078125 C 0.648438 -2.285156 0.925781 -2.390625 1.28125 -2.390625 C 1.625 -2.390625 1.882812 -2.273438 2.0625 -2.046875 C 2.238281 -1.828125 2.328125 -1.503906 2.328125 -1.078125 L 2.328125 -1.0625 L 0.8125 -1.0625 C 0.8125 -0.832031 0.851562 -0.65625 0.9375 -0.53125 C 1.019531 -0.414062 1.140625 -0.359375 1.296875 -0.359375 C 1.515625 -0.359375 1.65625 -0.453125 1.71875 -0.640625 L 2.296875 -0.59375 C 2.128906 -0.164062 1.789062 0.046875 1.28125 0.046875 Z M 1.28125 -2.015625 C 1.132812 -2.015625 1.019531 -1.960938 0.9375 -1.859375 C 0.863281 -1.765625 0.820312 -1.625 0.8125 -1.4375 L 1.734375 -1.4375 C 1.722656 -1.625 1.675781 -1.765625 1.59375 -1.859375 C 1.507812 -1.960938 1.40625 -2.015625 1.28125 -2.015625 Z M 1.28125 -2.015625 "/></g></g><g transform="translate(23.041852, 128.033811)"><g><path d="M 1.28125 0.046875 C 0.925781 0.046875 0.648438 -0.0546875 0.453125 -0.265625 C 0.265625 -0.472656 0.171875 -0.78125 0.171875 -1.1875 C 0.171875 -1.570312 0.265625 -1.867188 0.453125 -2.078125 C 0.648438 -2.285156 0.925781 -2.390625 1.28125 -2.390625 C 1.625 -2.390625 1.882812 -2.273438 2.0625 -2.046875 C 2.238281 -1.828125 2.328125 -1.503906 2.328125 -1.078125 L 2.328125 -1.0625 L 0.8125 -1.0625 C 0.8125 -0.832031 0.851562 -0.65625 0.9375 -0.53125 C 1.019531 -0.414062 1.140625 -0.359375 1.296875 -0.359375 C 1.515625 -0.359375 1.65625 -0.453125 1.71875 -0.640625 L 2.296875 -0.59375 C 2.128906 -0.164062 1.789062 0.046875 1.28125 0.046875 Z M 1.28125 -2.015625 C 1.132812 -2.015625 1.019531 -1.960938 0.9375 -1.859375 C 0.863281 -1.765625 0.820312 -1.625 0.8125 -1.4375 L 1.734375 -1.4375 C 1.722656 -1.625 1.675781 -1.765625 1.59375 -1.859375 C 1.507812 -1.960938 1.40625 -2.015625 1.28125 -2.015625 Z M 1.28125 -2.015625 "/></g></g><g transform="translate(25.514639, 128.033811)"><g><path d="M 0.90625 0.046875 C 0.726562 0.046875 0.59375 0 0.5 -0.09375 C 0.40625 -0.195312 0.359375 -0.347656 0.359375 -0.546875 L 0.359375 -1.9375 L 0.046875 -1.9375 L 0.046875 -2.359375 L 0.375 -2.359375 L 0.578125 -2.90625 L 0.953125 -2.90625 L 0.953125 -2.359375 L 1.40625 -2.359375 L 1.40625 -1.9375 L 0.953125 -1.9375 L 0.953125 -0.71875 C 0.953125 -0.601562 0.972656 -0.515625 1.015625 -0.453125 C 1.066406 -0.398438 1.132812 -0.375 1.21875 -0.375 C 1.269531 -0.375 1.335938 -0.382812 1.421875 -0.40625 L 1.421875 -0.03125 C 1.273438 0.0195312 1.101562 0.046875 0.90625 0.046875 Z M 0.90625 0.046875 "/></g></g><g transform="translate(26.995271, 128.033811)"><g><path d="M 2.296875 -0.6875 C 2.296875 -0.457031 2.203125 -0.273438 2.015625 -0.140625 C 1.828125 -0.015625 1.566406 0.046875 1.234375 0.046875 C 0.910156 0.046875 0.660156 -0.00390625 0.484375 -0.109375 C 0.316406 -0.210938 0.207031 -0.375 0.15625 -0.59375 L 0.6875 -0.671875 C 0.71875 -0.554688 0.769531 -0.472656 0.84375 -0.421875 C 0.925781 -0.378906 1.054688 -0.359375 1.234375 -0.359375 C 1.410156 -0.359375 1.535156 -0.378906 1.609375 -0.421875 C 1.691406 -0.460938 1.734375 -0.53125 1.734375 -0.625 C 1.734375 -0.707031 1.703125 -0.769531 1.640625 -0.8125 C 1.578125 -0.851562 1.46875 -0.890625 1.3125 -0.921875 C 0.96875 -0.992188 0.734375 -1.054688 0.609375 -1.109375 C 0.492188 -1.171875 0.40625 -1.25 0.34375 -1.34375 C 0.28125 -1.4375 0.25 -1.550781 0.25 -1.6875 C 0.25 -1.90625 0.332031 -2.078125 0.5 -2.203125 C 0.675781 -2.328125 0.925781 -2.390625 1.25 -2.390625 C 1.53125 -2.390625 1.753906 -2.335938 1.921875 -2.234375 C 2.085938 -2.128906 2.191406 -1.972656 2.234375 -1.765625 L 1.703125 -1.703125 C 1.679688 -1.796875 1.632812 -1.863281 1.5625 -1.90625 C 1.5 -1.957031 1.394531 -1.984375 1.25 -1.984375 C 1.101562 -1.984375 0.992188 -1.960938 0.921875 -1.921875 C 0.847656 -1.890625 0.8125 -1.832031 0.8125 -1.75 C 0.8125 -1.675781 0.835938 -1.617188 0.890625 -1.578125 C 0.953125 -1.546875 1.046875 -1.515625 1.171875 -1.484375 C 1.359375 -1.453125 1.519531 -1.414062 1.65625 -1.375 C 1.800781 -1.332031 1.914062 -1.28125 2 -1.21875 C 2.09375 -1.164062 2.164062 -1.097656 2.21875 -1.015625 C 2.269531 -0.929688 2.296875 -0.820312 2.296875 -0.6875 Z M 2.296875 -0.6875 "/></g></g><g transform="translate(29.468057, 128.033811)"><g/></g><g transform="translate(30.703364, 128.033811)"><g><path d="M 2.46875 0 L 2.1875 -0.78125 L 1.03125 -0.78125 L 0.75 0 L 0.109375 0 L 1.234375 -3.0625 L 1.984375 -3.0625 L 3.09375 0 Z M 1.609375 -2.59375 L 1.59375 -2.546875 C 1.582031 -2.492188 1.566406 -2.429688 1.546875 -2.359375 C 1.523438 -2.296875 1.398438 -1.929688 1.171875 -1.265625 L 2.046875 -1.265625 L 1.75 -2.140625 L 1.65625 -2.4375 Z M 1.609375 -2.59375 "/></g></g><g transform="translate(33.914296, 128.033811)"><g><path d="M 0.3125 0 L 0.3125 -1.796875 C 0.3125 -1.929688 0.304688 -2.039062 0.296875 -2.125 C 0.296875 -2.207031 0.296875 -2.285156 0.296875 -2.359375 L 0.875 -2.359375 C 0.875 -2.328125 0.878906 -2.242188 0.890625 -2.109375 C 0.898438 -1.984375 0.90625 -1.894531 0.90625 -1.84375 C 0.96875 -2.007812 1.019531 -2.125 1.0625 -2.1875 C 1.113281 -2.257812 1.171875 -2.3125 1.234375 -2.34375 C 1.296875 -2.375 1.375 -2.390625 1.46875 -2.390625 C 1.550781 -2.390625 1.617188 -2.378906 1.671875 -2.359375 L 1.671875 -1.859375 C 1.566406 -1.878906 1.476562 -1.890625 1.40625 -1.890625 C 1.25 -1.890625 1.128906 -1.828125 1.046875 -1.703125 C 0.960938 -1.578125 0.921875 -1.394531 0.921875 -1.15625 L 0.921875 0 Z M 0.3125 0 "/></g></g><g transform="translate(35.644595, 128.033811)"><g><path d="M 0.90625 0.046875 C 0.726562 0.046875 0.59375 0 0.5 -0.09375 C 0.40625 -0.195312 0.359375 -0.347656 0.359375 -0.546875 L 0.359375 -1.9375 L 0.046875 -1.9375 L 0.046875 -2.359375 L 0.375 -2.359375 L 0.578125 -2.90625 L 0.953125 -2.90625 L 0.953125 -2.359375 L 1.40625 -2.359375 L 1.40625 -1.9375 L 0.953125 -1.9375 L 0.953125 -0.71875 C 0.953125 -0.601562 0.972656 -0.515625 1.015625 -0.453125 C 1.066406 -0.398438 1.132812 -0.375 1.21875 -0.375 C 1.269531 -0.375 1.335938 -0.382812 1.421875 -0.40625 L 1.421875 -0.03125 C 1.273438 0.0195312 1.101562 0.046875 0.90625 0.046875 Z M 0.90625 0.046875 "/></g></g><g transform="translate(37.125227, 128.033811)"><g><path d="M 0.3125 -2.78125 L 0.3125 -3.234375 L 0.921875 -3.234375 L 0.921875 -2.78125 Z M 0.3125 0 L 0.3125 -2.359375 L 0.921875 -2.359375 L 0.921875 0 Z M 0.3125 0 "/></g></g><g transform="translate(38.360534, 128.033811)"><g><path d="M 1.03125 -1.9375 L 1.03125 0 L 0.421875 0 L 0.421875 -1.9375 L 0.078125 -1.9375 L 0.078125 -2.359375 L 0.421875 -2.359375 L 0.421875 -2.59375 C 0.421875 -2.8125 0.476562 -2.972656 0.59375 -3.078125 C 0.707031 -3.179688 0.878906 -3.234375 1.109375 -3.234375 C 1.222656 -3.234375 1.347656 -3.21875 1.484375 -3.1875 L 1.484375 -2.796875 C 1.429688 -2.804688 1.375 -2.8125 1.3125 -2.8125 C 1.207031 -2.8125 1.132812 -2.789062 1.09375 -2.75 C 1.050781 -2.707031 1.03125 -2.632812 1.03125 -2.53125 L 1.03125 -2.359375 L 1.484375 -2.359375 L 1.484375 -1.9375 Z M 1.03125 -1.9375 "/></g></g><g transform="translate(39.841167, 128.033811)"><g><path d="M 0.3125 -2.78125 L 0.3125 -3.234375 L 0.921875 -3.234375 L 0.921875 -2.78125 Z M 0.3125 0 L 0.3125 -2.359375 L 0.921875 -2.359375 L 0.921875 0 Z M 0.3125 0 "/></g></g><g transform="translate(41.076474, 128.033811)"><g><path d="M 1.296875 0.046875 C 0.929688 0.046875 0.648438 -0.0546875 0.453125 -0.265625 C 0.265625 -0.484375 0.171875 -0.78125 0.171875 -1.15625 C 0.171875 -1.550781 0.269531 -1.851562 0.46875 -2.0625 C 0.664062 -2.28125 0.941406 -2.390625 1.296875 -2.390625 C 1.578125 -2.390625 1.804688 -2.320312 1.984375 -2.1875 C 2.171875 -2.050781 2.285156 -1.859375 2.328125 -1.609375 L 1.71875 -1.578125 C 1.695312 -1.703125 1.648438 -1.796875 1.578125 -1.859375 C 1.515625 -1.929688 1.414062 -1.96875 1.28125 -1.96875 C 0.96875 -1.96875 0.8125 -1.707031 0.8125 -1.1875 C 0.8125 -0.644531 0.972656 -0.375 1.296875 -0.375 C 1.410156 -0.375 1.503906 -0.410156 1.578125 -0.484375 C 1.660156 -0.554688 1.710938 -0.664062 1.734375 -0.8125 L 2.34375 -0.78125 C 2.320312 -0.625 2.265625 -0.476562 2.171875 -0.34375 C 2.078125 -0.21875 1.953125 -0.117188 1.796875 -0.046875 C 1.648438 0.015625 1.484375 0.046875 1.296875 0.046875 Z M 1.296875 0.046875 "/></g></g><g transform="translate(43.54926, 128.033811)"><g><path d="M 0.3125 -2.78125 L 0.3125 -3.234375 L 0.921875 -3.234375 L 0.921875 -2.78125 Z M 0.3125 0 L 0.3125 -2.359375 L 0.921875 -2.359375 L 0.921875 0 Z M 0.3125 0 "/></g></g><g transform="translate(44.784568, 128.033811)"><g><path d="M 0.859375 0.046875 C 0.628906 0.046875 0.445312 -0.015625 0.3125 -0.140625 C 0.1875 -0.265625 0.125 -0.441406 0.125 -0.671875 C 0.125 -0.910156 0.203125 -1.09375 0.359375 -1.21875 C 0.523438 -1.34375 0.757812 -1.410156 1.0625 -1.421875 L 1.5625 -1.421875 L 1.5625 -1.546875 C 1.5625 -1.703125 1.535156 -1.816406 1.484375 -1.890625 C 1.429688 -1.960938 1.34375 -2 1.21875 -2 C 1.101562 -2 1.019531 -1.972656 0.96875 -1.921875 C 0.914062 -1.867188 0.882812 -1.785156 0.875 -1.671875 L 0.234375 -1.703125 C 0.273438 -1.929688 0.378906 -2.101562 0.546875 -2.21875 C 0.722656 -2.332031 0.957031 -2.390625 1.25 -2.390625 C 1.539062 -2.390625 1.765625 -2.316406 1.921875 -2.171875 C 2.085938 -2.023438 2.171875 -1.816406 2.171875 -1.546875 L 2.171875 -0.703125 C 2.171875 -0.566406 2.1875 -0.472656 2.21875 -0.421875 C 2.25 -0.367188 2.300781 -0.34375 2.375 -0.34375 C 2.414062 -0.34375 2.457031 -0.347656 2.5 -0.359375 L 2.5 -0.03125 C 2.46875 -0.0195312 2.4375 -0.0078125 2.40625 0 C 2.375 0 2.34375 0 2.3125 0 C 2.289062 0.0078125 2.257812 0.015625 2.21875 0.015625 C 2.1875 0.0234375 2.148438 0.03125 2.109375 0.03125 C 1.960938 0.03125 1.847656 -0.00390625 1.765625 -0.078125 C 1.691406 -0.160156 1.648438 -0.273438 1.640625 -0.421875 L 1.625 -0.421875 C 1.457031 -0.109375 1.203125 0.046875 0.859375 0.046875 Z M 1.5625 -1.09375 L 1.25 -1.078125 C 1.113281 -1.078125 1.015625 -1.0625 0.953125 -1.03125 C 0.890625 -1.007812 0.84375 -0.972656 0.8125 -0.921875 C 0.78125 -0.867188 0.765625 -0.800781 0.765625 -0.71875 C 0.765625 -0.601562 0.789062 -0.515625 0.84375 -0.453125 C 0.894531 -0.398438 0.960938 -0.375 1.046875 -0.375 C 1.140625 -0.375 1.226562 -0.398438 1.3125 -0.453125 C 1.394531 -0.515625 1.457031 -0.585938 1.5 -0.671875 C 1.539062 -0.765625 1.5625 -0.863281 1.5625 -0.96875 Z M 1.5625 -1.09375 "/></g></g><g transform="translate(47.257354, 128.033811)"><g><path d="M 0.3125 0 L 0.3125 -3.234375 L 0.921875 -3.234375 L 0.921875 0 Z M 0.3125 0 "/></g></g></g><g fill="#ffffff" fill-opacity="1"><g transform="translate(16.865315, 132.48005)"><g><path d="M 0.296875 0 L 0.296875 -3.0625 L 0.9375 -3.0625 L 0.9375 -0.5 L 2.578125 -0.5 L 2.578125 0 Z M 0.296875 0 "/></g></g><g transform="translate(19.581254, 132.48005)"><g><path d="M 1.28125 0.046875 C 0.925781 0.046875 0.648438 -0.0546875 0.453125 -0.265625 C 0.265625 -0.472656 0.171875 -0.78125 0.171875 -1.1875 C 0.171875 -1.570312 0.265625 -1.867188 0.453125 -2.078125 C 0.648438 -2.285156 0.925781 -2.390625 1.28125 -2.390625 C 1.625 -2.390625 1.882812 -2.273438 2.0625 -2.046875 C 2.238281 -1.828125 2.328125 -1.503906 2.328125 -1.078125 L 2.328125 -1.0625 L 0.8125 -1.0625 C 0.8125 -0.832031 0.851562 -0.65625 0.9375 -0.53125 C 1.019531 -0.414062 1.140625 -0.359375 1.296875 -0.359375 C 1.515625 -0.359375 1.65625 -0.453125 1.71875 -0.640625 L 2.296875 -0.59375 C 2.128906 -0.164062 1.789062 0.046875 1.28125 0.046875 Z M 1.28125 -2.015625 C 1.132812 -2.015625 1.019531 -1.960938 0.9375 -1.859375 C 0.863281 -1.765625 0.820312 -1.625 0.8125 -1.4375 L 1.734375 -1.4375 C 1.722656 -1.625 1.675781 -1.765625 1.59375 -1.859375 C 1.507812 -1.960938 1.40625 -2.015625 1.28125 -2.015625 Z M 1.28125 -2.015625 "/></g></g><g transform="translate(22.054041, 132.48005)"><g><path d="M 0.859375 0.046875 C 0.628906 0.046875 0.445312 -0.015625 0.3125 -0.140625 C 0.1875 -0.265625 0.125 -0.441406 0.125 -0.671875 C 0.125 -0.910156 0.203125 -1.09375 0.359375 -1.21875 C 0.523438 -1.34375 0.757812 -1.410156 1.0625 -1.421875 L 1.5625 -1.421875 L 1.5625 -1.546875 C 1.5625 -1.703125 1.535156 -1.816406 1.484375 -1.890625 C 1.429688 -1.960938 1.34375 -2 1.21875 -2 C 1.101562 -2 1.019531 -1.972656 0.96875 -1.921875 C 0.914062 -1.867188 0.882812 -1.785156 0.875 -1.671875 L 0.234375 -1.703125 C 0.273438 -1.929688 0.378906 -2.101562 0.546875 -2.21875 C 0.722656 -2.332031 0.957031 -2.390625 1.25 -2.390625 C 1.539062 -2.390625 1.765625 -2.316406 1.921875 -2.171875 C 2.085938 -2.023438 2.171875 -1.816406 2.171875 -1.546875 L 2.171875 -0.703125 C 2.171875 -0.566406 2.1875 -0.472656 2.21875 -0.421875 C 2.25 -0.367188 2.300781 -0.34375 2.375 -0.34375 C 2.414062 -0.34375 2.457031 -0.347656 2.5 -0.359375 L 2.5 -0.03125 C 2.46875 -0.0195312 2.4375 -0.0078125 2.40625 0 C 2.375 0 2.34375 0 2.3125 0 C 2.289062 0.0078125 2.257812 0.015625 2.21875 0.015625 C 2.1875 0.0234375 2.148438 0.03125 2.109375 0.03125 C 1.960938 0.03125 1.847656 -0.00390625 1.765625 -0.078125 C 1.691406 -0.160156 1.648438 -0.273438 1.640625 -0.421875 L 1.625 -0.421875 C 1.457031 -0.109375 1.203125 0.046875 0.859375 0.046875 Z M 1.5625 -1.09375 L 1.25 -1.078125 C 1.113281 -1.078125 1.015625 -1.0625 0.953125 -1.03125 C 0.890625 -1.007812 0.84375 -0.972656 0.8125 -0.921875 C 0.78125 -0.867188 0.765625 -0.800781 0.765625 -0.71875 C 0.765625 -0.601562 0.789062 -0.515625 0.84375 -0.453125 C 0.894531 -0.398438 0.960938 -0.375 1.046875 -0.375 C 1.140625 -0.375 1.226562 -0.398438 1.3125 -0.453125 C 1.394531 -0.515625 1.457031 -0.585938 1.5 -0.671875 C 1.539062 -0.765625 1.5625 -0.863281 1.5625 -0.96875 Z M 1.5625 -1.09375 "/></g></g><g transform="translate(24.526827, 132.48005)"><g><path d="M 0.3125 0 L 0.3125 -1.796875 C 0.3125 -1.929688 0.304688 -2.039062 0.296875 -2.125 C 0.296875 -2.207031 0.296875 -2.285156 0.296875 -2.359375 L 0.875 -2.359375 C 0.875 -2.328125 0.878906 -2.242188 0.890625 -2.109375 C 0.898438 -1.984375 0.90625 -1.894531 0.90625 -1.84375 C 0.96875 -2.007812 1.019531 -2.125 1.0625 -2.1875 C 1.113281 -2.257812 1.171875 -2.3125 1.234375 -2.34375 C 1.296875 -2.375 1.375 -2.390625 1.46875 -2.390625 C 1.550781 -2.390625 1.617188 -2.378906 1.671875 -2.359375 L 1.671875 -1.859375 C 1.566406 -1.878906 1.476562 -1.890625 1.40625 -1.890625 C 1.25 -1.890625 1.128906 -1.828125 1.046875 -1.703125 C 0.960938 -1.578125 0.921875 -1.394531 0.921875 -1.15625 L 0.921875 0 Z M 0.3125 0 "/></g></g><g transform="translate(26.257126, 132.48005)"><g><path d="M 1.828125 0 L 1.828125 -1.3125 C 1.828125 -1.726562 1.691406 -1.9375 1.421875 -1.9375 C 1.265625 -1.9375 1.140625 -1.875 1.046875 -1.75 C 0.960938 -1.625 0.921875 -1.460938 0.921875 -1.265625 L 0.921875 0 L 0.3125 0 L 0.3125 -1.828125 C 0.3125 -1.953125 0.304688 -2.050781 0.296875 -2.125 C 0.296875 -2.207031 0.296875 -2.285156 0.296875 -2.359375 L 0.875 -2.359375 C 0.875 -2.328125 0.878906 -2.25 0.890625 -2.125 C 0.898438 -2.007812 0.90625 -1.929688 0.90625 -1.890625 C 0.988281 -2.066406 1.09375 -2.191406 1.21875 -2.265625 C 1.34375 -2.347656 1.492188 -2.390625 1.671875 -2.390625 C 1.921875 -2.390625 2.109375 -2.3125 2.234375 -2.15625 C 2.367188 -2.007812 2.4375 -1.789062 2.4375 -1.5 L 2.4375 0 Z M 1.828125 0 "/></g></g><g transform="translate(28.973065, 132.48005)"><g><path d="M 0.3125 -2.78125 L 0.3125 -3.234375 L 0.921875 -3.234375 L 0.921875 -2.78125 Z M 0.3125 0 L 0.3125 -2.359375 L 0.921875 -2.359375 L 0.921875 0 Z M 0.3125 0 "/></g></g><g transform="translate(30.208373, 132.48005)"><g><path d="M 1.828125 0 L 1.828125 -1.3125 C 1.828125 -1.726562 1.691406 -1.9375 1.421875 -1.9375 C 1.265625 -1.9375 1.140625 -1.875 1.046875 -1.75 C 0.960938 -1.625 0.921875 -1.460938 0.921875 -1.265625 L 0.921875 0 L 0.3125 0 L 0.3125 -1.828125 C 0.3125 -1.953125 0.304688 -2.050781 0.296875 -2.125 C 0.296875 -2.207031 0.296875 -2.285156 0.296875 -2.359375 L 0.875 -2.359375 C 0.875 -2.328125 0.878906 -2.25 0.890625 -2.125 C 0.898438 -2.007812 0.90625 -1.929688 0.90625 -1.890625 C 0.988281 -2.066406 1.09375 -2.191406 1.21875 -2.265625 C 1.34375 -2.347656 1.492188 -2.390625 1.671875 -2.390625 C 1.921875 -2.390625 2.109375 -2.3125 2.234375 -2.15625 C 2.367188 -2.007812 2.4375 -1.789062 2.4375 -1.5 L 2.4375 0 Z M 1.828125 0 "/></g></g><g transform="translate(32.924313, 132.48005)"><g><path d="M 1.296875 0.9375 C 1.003906 0.9375 0.769531 0.878906 0.59375 0.765625 C 0.425781 0.660156 0.320312 0.507812 0.28125 0.3125 L 0.890625 0.234375 C 0.910156 0.328125 0.957031 0.398438 1.03125 0.453125 C 1.101562 0.515625 1.195312 0.546875 1.3125 0.546875 C 1.476562 0.546875 1.597656 0.492188 1.671875 0.390625 C 1.753906 0.285156 1.796875 0.128906 1.796875 -0.078125 L 1.796875 -0.203125 L 1.8125 -0.4375 L 1.796875 -0.4375 C 1.660156 -0.144531 1.410156 0 1.046875 0 C 0.773438 0 0.5625 -0.101562 0.40625 -0.3125 C 0.257812 -0.519531 0.1875 -0.816406 0.1875 -1.203125 C 0.1875 -1.578125 0.257812 -1.867188 0.40625 -2.078125 C 0.5625 -2.285156 0.789062 -2.390625 1.09375 -2.390625 C 1.4375 -2.390625 1.671875 -2.25 1.796875 -1.96875 L 1.8125 -1.96875 C 1.8125 -2.019531 1.8125 -2.085938 1.8125 -2.171875 C 1.820312 -2.265625 1.832031 -2.328125 1.84375 -2.359375 L 2.421875 -2.359375 C 2.410156 -2.203125 2.40625 -2.019531 2.40625 -1.8125 L 2.40625 -0.078125 C 2.40625 0.265625 2.3125 0.519531 2.125 0.6875 C 1.9375 0.851562 1.660156 0.9375 1.296875 0.9375 Z M 1.8125 -1.203125 C 1.8125 -1.453125 1.765625 -1.644531 1.671875 -1.78125 C 1.585938 -1.914062 1.46875 -1.984375 1.3125 -1.984375 C 0.976562 -1.984375 0.8125 -1.722656 0.8125 -1.203125 C 0.8125 -0.679688 0.972656 -0.421875 1.296875 -0.421875 C 1.460938 -0.421875 1.585938 -0.488281 1.671875 -0.625 C 1.765625 -0.757812 1.8125 -0.953125 1.8125 -1.203125 Z M 1.8125 -1.203125 "/></g></g><g transform="translate(35.640253, 132.48005)"><g/></g><g transform="translate(36.87556, 132.48005)"><g><path d="M 0.3125 -2.78125 L 0.3125 -3.234375 L 0.921875 -3.234375 L 0.921875 -2.78125 Z M 0.3125 0 L 0.3125 -2.359375 L 0.921875 -2.359375 L 0.921875 0 Z M 0.3125 0 "/></g></g><g transform="translate(38.110868, 132.48005)"><g><path d="M 1.828125 0 L 1.828125 -1.3125 C 1.828125 -1.726562 1.691406 -1.9375 1.421875 -1.9375 C 1.265625 -1.9375 1.140625 -1.875 1.046875 -1.75 C 0.960938 -1.625 0.921875 -1.460938 0.921875 -1.265625 L 0.921875 0 L 0.3125 0 L 0.3125 -1.828125 C 0.3125 -1.953125 0.304688 -2.050781 0.296875 -2.125 C 0.296875 -2.207031 0.296875 -2.285156 0.296875 -2.359375 L 0.875 -2.359375 C 0.875 -2.328125 0.878906 -2.25 0.890625 -2.125 C 0.898438 -2.007812 0.90625 -1.929688 0.90625 -1.890625 C 0.988281 -2.066406 1.09375 -2.191406 1.21875 -2.265625 C 1.34375 -2.347656 1.492188 -2.390625 1.671875 -2.390625 C 1.921875 -2.390625 2.109375 -2.3125 2.234375 -2.15625 C 2.367188 -2.007812 2.4375 -1.789062 2.4375 -1.5 L 2.4375 0 Z M 1.828125 0 "/></g></g><g transform="translate(40.826807, 132.48005)"><g><path d="M 0.90625 0.046875 C 0.726562 0.046875 0.59375 0 0.5 -0.09375 C 0.40625 -0.195312 0.359375 -0.347656 0.359375 -0.546875 L 0.359375 -1.9375 L 0.046875 -1.9375 L 0.046875 -2.359375 L 0.375 -2.359375 L 0.578125 -2.90625 L 0.953125 -2.90625 L 0.953125 -2.359375 L 1.40625 -2.359375 L 1.40625 -1.9375 L 0.953125 -1.9375 L 0.953125 -0.71875 C 0.953125 -0.601562 0.972656 -0.515625 1.015625 -0.453125 C 1.066406 -0.398438 1.132812 -0.375 1.21875 -0.375 C 1.269531 -0.375 1.335938 -0.382812 1.421875 -0.40625 L 1.421875 -0.03125 C 1.273438 0.0195312 1.101562 0.046875 0.90625 0.046875 Z M 0.90625 0.046875 "/></g></g><g transform="translate(42.30744, 132.48005)"><g><path d="M 1.28125 0.046875 C 0.925781 0.046875 0.648438 -0.0546875 0.453125 -0.265625 C 0.265625 -0.472656 0.171875 -0.78125 0.171875 -1.1875 C 0.171875 -1.570312 0.265625 -1.867188 0.453125 -2.078125 C 0.648438 -2.285156 0.925781 -2.390625 1.28125 -2.390625 C 1.625 -2.390625 1.882812 -2.273438 2.0625 -2.046875 C 2.238281 -1.828125 2.328125 -1.503906 2.328125 -1.078125 L 2.328125 -1.0625 L 0.8125 -1.0625 C 0.8125 -0.832031 0.851562 -0.65625 0.9375 -0.53125 C 1.019531 -0.414062 1.140625 -0.359375 1.296875 -0.359375 C 1.515625 -0.359375 1.65625 -0.453125 1.71875 -0.640625 L 2.296875 -0.59375 C 2.128906 -0.164062 1.789062 0.046875 1.28125 0.046875 Z M 1.28125 -2.015625 C 1.132812 -2.015625 1.019531 -1.960938 0.9375 -1.859375 C 0.863281 -1.765625 0.820312 -1.625 0.8125 -1.4375 L 1.734375 -1.4375 C 1.722656 -1.625 1.675781 -1.765625 1.59375 -1.859375 C 1.507812 -1.960938 1.40625 -2.015625 1.28125 -2.015625 Z M 1.28125 -2.015625 "/></g></g><g transform="translate(44.780226, 132.48005)"><g><path d="M 0.3125 0 L 0.3125 -3.234375 L 0.921875 -3.234375 L 0.921875 0 Z M 0.3125 0 "/></g></g><g transform="translate(46.015533, 132.48005)"><g><path d="M 0.3125 0 L 0.3125 -3.234375 L 0.921875 -3.234375 L 0.921875 0 Z M 0.3125 0 "/></g></g><g transform="translate(47.250841, 132.48005)"><g><path d="M 0.3125 -2.78125 L 0.3125 -3.234375 L 0.921875 -3.234375 L 0.921875 -2.78125 Z M 0.3125 0 L 0.3125 -2.359375 L 0.921875 -2.359375 L 0.921875 0 Z M 0.3125 0 "/></g></g><g transform="translate(48.486148, 132.48005)"><g><path d="M 1.296875 0.9375 C 1.003906 0.9375 0.769531 0.878906 0.59375 0.765625 C 0.425781 0.660156 0.320312 0.507812 0.28125 0.3125 L 0.890625 0.234375 C 0.910156 0.328125 0.957031 0.398438 1.03125 0.453125 C 1.101562 0.515625 1.195312 0.546875 1.3125 0.546875 C 1.476562 0.546875 1.597656 0.492188 1.671875 0.390625 C 1.753906 0.285156 1.796875 0.128906 1.796875 -0.078125 L 1.796875 -0.203125 L 1.8125 -0.4375 L 1.796875 -0.4375 C 1.660156 -0.144531 1.410156 0 1.046875 0 C 0.773438 0 0.5625 -0.101562 0.40625 -0.3125 C 0.257812 -0.519531 0.1875 -0.816406 0.1875 -1.203125 C 0.1875 -1.578125 0.257812 -1.867188 0.40625 -2.078125 C 0.5625 -2.285156 0.789062 -2.390625 1.09375 -2.390625 C 1.4375 -2.390625 1.671875 -2.25 1.796875 -1.96875 L 1.8125 -1.96875 C 1.8125 -2.019531 1.8125 -2.085938 1.8125 -2.171875 C 1.820312 -2.265625 1.832031 -2.328125 1.84375 -2.359375 L 2.421875 -2.359375 C 2.410156 -2.203125 2.40625 -2.019531 2.40625 -1.8125 L 2.40625 -0.078125 C 2.40625 0.265625 2.3125 0.519531 2.125 0.6875 C 1.9375 0.851562 1.660156 0.9375 1.296875 0.9375 Z M 1.8125 -1.203125 C 1.8125 -1.453125 1.765625 -1.644531 1.671875 -1.78125 C 1.585938 -1.914062 1.46875 -1.984375 1.3125 -1.984375 C 0.976562 -1.984375 0.8125 -1.722656 0.8125 -1.203125 C 0.8125 -0.679688 0.972656 -0.421875 1.296875 -0.421875 C 1.460938 -0.421875 1.585938 -0.488281 1.671875 -0.625 C 1.765625 -0.757812 1.8125 -0.953125 1.8125 -1.203125 Z M 1.8125 -1.203125 "/></g></g><g transform="translate(51.202088, 132.48005)"><g><path d="M 1.28125 0.046875 C 0.925781 0.046875 0.648438 -0.0546875 0.453125 -0.265625 C 0.265625 -0.472656 0.171875 -0.78125 0.171875 -1.1875 C 0.171875 -1.570312 0.265625 -1.867188 0.453125 -2.078125 C 0.648438 -2.285156 0.925781 -2.390625 1.28125 -2.390625 C 1.625 -2.390625 1.882812 -2.273438 2.0625 -2.046875 C 2.238281 -1.828125 2.328125 -1.503906 2.328125 -1.078125 L 2.328125 -1.0625 L 0.8125 -1.0625 C 0.8125 -0.832031 0.851562 -0.65625 0.9375 -0.53125 C 1.019531 -0.414062 1.140625 -0.359375 1.296875 -0.359375 C 1.515625 -0.359375 1.65625 -0.453125 1.71875 -0.640625 L 2.296875 -0.59375 C 2.128906 -0.164062 1.789062 0.046875 1.28125 0.046875 Z M 1.28125 -2.015625 C 1.132812 -2.015625 1.019531 -1.960938 0.9375 -1.859375 C 0.863281 -1.765625 0.820312 -1.625 0.8125 -1.4375 L 1.734375 -1.4375 C 1.722656 -1.625 1.675781 -1.765625 1.59375 -1.859375 C 1.507812 -1.960938 1.40625 -2.015625 1.28125 -2.015625 Z M 1.28125 -2.015625 "/></g></g><g transform="translate(53.674874, 132.48005)"><g><path d="M 1.828125 0 L 1.828125 -1.3125 C 1.828125 -1.726562 1.691406 -1.9375 1.421875 -1.9375 C 1.265625 -1.9375 1.140625 -1.875 1.046875 -1.75 C 0.960938 -1.625 0.921875 -1.460938 0.921875 -1.265625 L 0.921875 0 L 0.3125 0 L 0.3125 -1.828125 C 0.3125 -1.953125 0.304688 -2.050781 0.296875 -2.125 C 0.296875 -2.207031 0.296875 -2.285156 0.296875 -2.359375 L 0.875 -2.359375 C 0.875 -2.328125 0.878906 -2.25 0.890625 -2.125 C 0.898438 -2.007812 0.90625 -1.929688 0.90625 -1.890625 C 0.988281 -2.066406 1.09375 -2.191406 1.21875 -2.265625 C 1.34375 -2.347656 1.492188 -2.390625 1.671875 -2.390625 C 1.921875 -2.390625 2.109375 -2.3125 2.234375 -2.15625 C 2.367188 -2.007812 2.4375 -1.789062 2.4375 -1.5 L 2.4375 0 Z M 1.828125 0 "/></g></g><g transform="translate(56.390814, 132.48005)"><g><path d="M 1.296875 0.046875 C 0.929688 0.046875 0.648438 -0.0546875 0.453125 -0.265625 C 0.265625 -0.484375 0.171875 -0.78125 0.171875 -1.15625 C 0.171875 -1.550781 0.269531 -1.851562 0.46875 -2.0625 C 0.664062 -2.28125 0.941406 -2.390625 1.296875 -2.390625 C 1.578125 -2.390625 1.804688 -2.320312 1.984375 -2.1875 C 2.171875 -2.050781 2.285156 -1.859375 2.328125 -1.609375 L 1.71875 -1.578125 C 1.695312 -1.703125 1.648438 -1.796875 1.578125 -1.859375 C 1.515625 -1.929688 1.414062 -1.96875 1.28125 -1.96875 C 0.96875 -1.96875 0.8125 -1.707031 0.8125 -1.1875 C 0.8125 -0.644531 0.972656 -0.375 1.296875 -0.375 C 1.410156 -0.375 1.503906 -0.410156 1.578125 -0.484375 C 1.660156 -0.554688 1.710938 -0.664062 1.734375 -0.8125 L 2.34375 -0.78125 C 2.320312 -0.625 2.265625 -0.476562 2.171875 -0.34375 C 2.078125 -0.21875 1.953125 -0.117188 1.796875 -0.046875 C 1.648438 0.015625 1.484375 0.046875 1.296875 0.046875 Z M 1.296875 0.046875 "/></g></g><g transform="translate(58.8636, 132.48005)"><g><path d="M 1.28125 0.046875 C 0.925781 0.046875 0.648438 -0.0546875 0.453125 -0.265625 C 0.265625 -0.472656 0.171875 -0.78125 0.171875 -1.1875 C 0.171875 -1.570312 0.265625 -1.867188 0.453125 -2.078125 C 0.648438 -2.285156 0.925781 -2.390625 1.28125 -2.390625 C 1.625 -2.390625 1.882812 -2.273438 2.0625 -2.046875 C 2.238281 -1.828125 2.328125 -1.503906 2.328125 -1.078125 L 2.328125 -1.0625 L 0.8125 -1.0625 C 0.8125 -0.832031 0.851562 -0.65625 0.9375 -0.53125 C 1.019531 -0.414062 1.140625 -0.359375 1.296875 -0.359375 C 1.515625 -0.359375 1.65625 -0.453125 1.71875 -0.640625 L 2.296875 -0.59375 C 2.128906 -0.164062 1.789062 0.046875 1.28125 0.046875 Z M 1.28125 -2.015625 C 1.132812 -2.015625 1.019531 -1.960938 0.9375 -1.859375 C 0.863281 -1.765625 0.820312 -1.625 0.8125 -1.4375 L 1.734375 -1.4375 C 1.722656 -1.625 1.675781 -1.765625 1.59375 -1.859375 C 1.507812 -1.960938 1.40625 -2.015625 1.28125 -2.015625 Z M 1.28125 -2.015625 "/></g></g></g><g fill="#000000" fill-opacity="1"><g transform="translate(147.383724, 84.346028)"><g><path d="M 8.1875 -17.109375 C 10.71875 -17.109375 12.941406 -16.476562 14.859375 -15.21875 L 13.234375 -11.859375 C 12.347656 -12.378906 11.394531 -12.800781 10.375 -13.125 C 9.363281 -13.457031 8.515625 -13.625 7.828125 -13.625 C 6.585938 -13.625 5.96875 -13.210938 5.96875 -12.390625 C 5.96875 -11.859375 6.269531 -11.429688 6.875 -11.109375 C 7.488281 -10.785156 8.234375 -10.503906 9.109375 -10.265625 C 9.992188 -10.035156 10.875 -9.753906 11.75 -9.421875 C 12.625 -9.097656 13.367188 -8.566406 13.984375 -7.828125 C 14.597656 -7.085938 14.90625 -6.15625 14.90625 -5.03125 C 14.90625 -3.394531 14.269531 -2.125 13 -1.21875 C 11.726562 -0.3125 10.109375 0.140625 8.140625 0.140625 C 6.742188 0.140625 5.359375 -0.0976562 3.984375 -0.578125 C 2.617188 -1.054688 1.425781 -1.71875 0.40625 -2.5625 L 2.078125 -5.875 C 2.929688 -5.132812 3.9375 -4.523438 5.09375 -4.046875 C 6.257812 -3.566406 7.289062 -3.328125 8.1875 -3.328125 C 8.882812 -3.328125 9.425781 -3.453125 9.8125 -3.703125 C 10.195312 -3.953125 10.390625 -4.320312 10.390625 -4.8125 C 10.390625 -5.269531 10.164062 -5.65625 9.71875 -5.96875 C 9.28125 -6.289062 8.726562 -6.523438 8.0625 -6.671875 C 7.40625 -6.828125 6.691406 -7.035156 5.921875 -7.296875 C 5.148438 -7.554688 4.429688 -7.835938 3.765625 -8.140625 C 3.109375 -8.441406 2.554688 -8.925781 2.109375 -9.59375 C 1.671875 -10.269531 1.453125 -11.070312 1.453125 -12 C 1.453125 -13.550781 2.066406 -14.789062 3.296875 -15.71875 C 4.523438 -16.644531 6.15625 -17.109375 8.1875 -17.109375 Z M 8.1875 -17.109375 "/></g></g></g><g fill="#000000" fill-opacity="1"><g transform="translate(162.936402, 84.346028)"><g><path d="M 7.34375 -13.171875 C 8.632812 -13.171875 9.78125 -12.914062 10.78125 -12.40625 C 11.789062 -11.894531 12.578125 -11.175781 13.140625 -10.25 L 10.140625 -8.4375 C 9.492188 -9.332031 8.617188 -9.78125 7.515625 -9.78125 C 6.710938 -9.78125 6.054688 -9.476562 5.546875 -8.875 C 5.035156 -8.269531 4.78125 -7.476562 4.78125 -6.5 C 4.78125 -5.5 5.03125 -4.695312 5.53125 -4.09375 C 6.03125 -3.488281 6.691406 -3.1875 7.515625 -3.1875 C 8.734375 -3.1875 9.617188 -3.675781 10.171875 -4.65625 L 13.21875 -2.875 C 12.6875 -1.90625 11.90625 -1.160156 10.875 -0.640625 C 9.851562 -0.117188 8.660156 0.140625 7.296875 0.140625 C 5.285156 0.140625 3.660156 -0.460938 2.421875 -1.671875 C 1.191406 -2.890625 0.578125 -4.488281 0.578125 -6.46875 C 0.578125 -8.46875 1.203125 -10.082031 2.453125 -11.3125 C 3.703125 -12.550781 5.332031 -13.171875 7.34375 -13.171875 Z M 7.34375 -13.171875 "/></g></g></g><g fill="#000000" fill-opacity="1"><g transform="translate(176.508784, 84.346028)"><g><path d="M 10.34375 -13.21875 C 11.769531 -13.21875 12.914062 -12.757812 13.78125 -11.84375 C 14.65625 -10.9375 15.09375 -9.726562 15.09375 -8.21875 L 15.09375 0 L 10.921875 0 L 10.921875 -7.046875 C 10.921875 -7.804688 10.710938 -8.40625 10.296875 -8.84375 C 9.890625 -9.289062 9.332031 -9.515625 8.625 -9.515625 C 7.820312 -9.515625 7.175781 -9.222656 6.6875 -8.640625 C 6.207031 -8.066406 5.96875 -7.328125 5.96875 -6.421875 L 5.96875 0 L 1.78125 0 L 1.78125 -17.921875 L 5.96875 -17.921875 L 5.96875 -10.875 C 6.882812 -12.40625 8.34375 -13.1875 10.34375 -13.21875 Z M 10.34375 -13.21875 "/></g></g></g><g fill="#000000" fill-opacity="1"><g transform="translate(192.882575, 84.346028)"><g><path d="M 7.703125 -13.171875 C 9.828125 -13.171875 11.539062 -12.5625 12.84375 -11.34375 C 14.15625 -10.125 14.8125 -8.515625 14.8125 -6.515625 C 14.8125 -4.523438 14.15625 -2.914062 12.84375 -1.6875 C 11.539062 -0.46875 9.828125 0.140625 7.703125 0.140625 C 5.566406 0.140625 3.84375 -0.46875 2.53125 -1.6875 C 1.226562 -2.914062 0.578125 -4.523438 0.578125 -6.515625 C 0.578125 -8.515625 1.226562 -10.125 2.53125 -11.34375 C 3.84375 -12.5625 5.566406 -13.171875 7.703125 -13.171875 Z M 7.703125 -9.859375 C 6.835938 -9.859375 6.132812 -9.539062 5.59375 -8.90625 C 5.050781 -8.28125 4.78125 -7.46875 4.78125 -6.46875 C 4.78125 -5.457031 5.050781 -4.640625 5.59375 -4.015625 C 6.132812 -3.398438 6.835938 -3.09375 7.703125 -3.09375 C 8.554688 -3.09375 9.253906 -3.398438 9.796875 -4.015625 C 10.335938 -4.640625 10.609375 -5.457031 10.609375 -6.46875 C 10.609375 -7.46875 10.335938 -8.28125 9.796875 -8.90625 C 9.253906 -9.539062 8.554688 -9.859375 7.703125 -9.859375 Z M 7.703125 -9.859375 "/></g></g></g><g fill="#000000" fill-opacity="1"><g transform="translate(208.266206, 84.346028)"><g><path d="M 7.703125 -13.171875 C 9.828125 -13.171875 11.539062 -12.5625 12.84375 -11.34375 C 14.15625 -10.125 14.8125 -8.515625 14.8125 -6.515625 C 14.8125 -4.523438 14.15625 -2.914062 12.84375 -1.6875 C 11.539062 -0.46875 9.828125 0.140625 7.703125 0.140625 C 5.566406 0.140625 3.84375 -0.46875 2.53125 -1.6875 C 1.226562 -2.914062 0.578125 -4.523438 0.578125 -6.515625 C 0.578125 -8.515625 1.226562 -10.125 2.53125 -11.34375 C 3.84375 -12.5625 5.566406 -13.171875 7.703125 -13.171875 Z M 7.703125 -9.859375 C 6.835938 -9.859375 6.132812 -9.539062 5.59375 -8.90625 C 5.050781 -8.28125 4.78125 -7.46875 4.78125 -6.46875 C 4.78125 -5.457031 5.050781 -4.640625 5.59375 -4.015625 C 6.132812 -3.398438 6.835938 -3.09375 7.703125 -3.09375 C 8.554688 -3.09375 9.253906 -3.398438 9.796875 -4.015625 C 10.335938 -4.640625 10.609375 -5.457031 10.609375 -6.46875 C 10.609375 -7.46875 10.335938 -8.28125 9.796875 -8.90625 C 9.253906 -9.539062 8.554688 -9.859375 7.703125 -9.859375 Z M 7.703125 -9.859375 "/></g></g></g><g fill="#000000" fill-opacity="1"><g transform="translate(223.649838, 84.346028)"><g><path d="M 5.96875 0 L 1.78125 0 L 1.78125 -17.921875 L 5.96875 -17.921875 Z M 5.96875 0 "/></g></g></g><g fill="#000000" fill-opacity="1"><g transform="translate(231.402023, 84.346028)"><g/></g></g><g fill="#000000" fill-opacity="1"><g transform="translate(237.004864, 84.346028)"><g><path d="M 7.703125 -13.171875 C 9.828125 -13.171875 11.539062 -12.5625 12.84375 -11.34375 C 14.15625 -10.125 14.8125 -8.515625 14.8125 -6.515625 C 14.8125 -4.523438 14.15625 -2.914062 12.84375 -1.6875 C 11.539062 -0.46875 9.828125 0.140625 7.703125 0.140625 C 5.566406 0.140625 3.84375 -0.46875 2.53125 -1.6875 C 1.226562 -2.914062 0.578125 -4.523438 0.578125 -6.515625 C 0.578125 -8.515625 1.226562 -10.125 2.53125 -11.34375 C 3.84375 -12.5625 5.566406 -13.171875 7.703125 -13.171875 Z M 7.703125 -9.859375 C 6.835938 -9.859375 6.132812 -9.539062 5.59375 -8.90625 C 5.050781 -8.28125 4.78125 -7.46875 4.78125 -6.46875 C 4.78125 -5.457031 5.050781 -4.640625 5.59375 -4.015625 C 6.132812 -3.398438 6.835938 -3.09375 7.703125 -3.09375 C 8.554688 -3.09375 9.253906 -3.398438 9.796875 -4.015625 C 10.335938 -4.640625 10.609375 -5.457031 10.609375 -6.46875 C 10.609375 -7.46875 10.335938 -8.28125 9.796875 -8.90625 C 9.253906 -9.539062 8.554688 -9.859375 7.703125 -9.859375 Z M 7.703125 -9.859375 "/></g></g></g><g fill="#000000" fill-opacity="1"><g transform="translate(252.388496, 84.346028)"><g><path d="M 8.0625 -14.8125 C 7.632812 -14.820312 7.28125 -14.703125 7 -14.453125 C 6.71875 -14.203125 6.578125 -13.84375 6.578125 -13.375 L 6.578125 -12.4375 L 9.515625 -12.4375 L 9.515625 -9.6875 L 6.578125 -9.6875 L 6.578125 0 L 2.4375 0 L 2.4375 -9.6875 L 0.671875 -9.6875 L 0.671875 -12.4375 L 2.4375 -12.4375 L 2.4375 -13.640625 C 2.4375 -15.046875 2.898438 -16.144531 3.828125 -16.9375 C 4.765625 -17.726562 5.960938 -18.125 7.421875 -18.125 C 8.804688 -18.125 10.019531 -17.816406 11.0625 -17.203125 L 9.59375 -14.28125 C 9.101562 -14.632812 8.59375 -14.8125 8.0625 -14.8125 Z M 8.0625 -14.8125 "/></g></g></g><g fill="#000000" fill-opacity="1"><g transform="translate(147.383724, 117.913024)"><g><path d="M 20.265625 0 L 16.46875 0 L 16.453125 -10.984375 L 12.390625 -1.6875 L 9.59375 -1.6875 L 5.53125 -10.984375 L 5.53125 0 L 1.6875 0 L 1.6875 -16.9375 L 6.40625 -16.9375 L 10.984375 -6.859375 L 15.578125 -16.9375 L 20.265625 -16.9375 Z M 20.265625 0 "/></g></g></g><g fill="#000000" fill-opacity="1"><g transform="translate(169.360334, 117.913024)"><g><path d="M 7.515625 -13.21875 C 9.296875 -13.21875 10.679688 -12.800781 11.671875 -11.96875 C 12.671875 -11.132812 13.175781 -9.976562 13.1875 -8.5 L 13.1875 0 L 9.109375 0 L 9.109375 -1.5 C 8.253906 -0.375 6.925781 0.1875 5.125 0.1875 C 3.75 0.1875 2.660156 -0.1875 1.859375 -0.9375 C 1.054688 -1.695312 0.65625 -2.679688 0.65625 -3.890625 C 0.65625 -5.128906 1.082031 -6.085938 1.9375 -6.765625 C 2.800781 -7.453125 4.039062 -7.804688 5.65625 -7.828125 L 9.078125 -7.828125 L 9.078125 -8.015625 C 9.078125 -8.660156 8.863281 -9.164062 8.4375 -9.53125 C 8.007812 -9.894531 7.378906 -10.078125 6.546875 -10.078125 C 5.367188 -10.078125 4.070312 -9.710938 2.65625 -8.984375 L 1.46875 -11.734375 C 3.582031 -12.722656 5.597656 -13.21875 7.515625 -13.21875 Z M 6.40625 -2.640625 C 7.0625 -2.640625 7.640625 -2.800781 8.140625 -3.125 C 8.640625 -3.457031 8.953125 -3.890625 9.078125 -4.421875 L 9.078125 -5.578125 L 6.453125 -5.578125 C 5.191406 -5.578125 4.5625 -5.109375 4.5625 -4.171875 C 4.5625 -3.691406 4.722656 -3.316406 5.046875 -3.046875 C 5.367188 -2.773438 5.820312 -2.640625 6.40625 -2.640625 Z M 6.40625 -2.640625 "/></g></g></g><g fill="#000000" fill-opacity="1"><g transform="translate(183.850423, 117.913024)"><g><path d="M 7.34375 -13.171875 C 8.632812 -13.171875 9.78125 -12.914062 10.78125 -12.40625 C 11.789062 -11.894531 12.578125 -11.175781 13.140625 -10.25 L 10.140625 -8.4375 C 9.492188 -9.332031 8.617188 -9.78125 7.515625 -9.78125 C 6.710938 -9.78125 6.054688 -9.476562 5.546875 -8.875 C 5.035156 -8.269531 4.78125 -7.476562 4.78125 -6.5 C 4.78125 -5.5 5.03125 -4.695312 5.53125 -4.09375 C 6.03125 -3.488281 6.691406 -3.1875 7.515625 -3.1875 C 8.734375 -3.1875 9.617188 -3.675781 10.171875 -4.65625 L 13.21875 -2.875 C 12.6875 -1.90625 11.90625 -1.160156 10.875 -0.640625 C 9.851562 -0.117188 8.660156 0.140625 7.296875 0.140625 C 5.285156 0.140625 3.660156 -0.460938 2.421875 -1.671875 C 1.191406 -2.890625 0.578125 -4.488281 0.578125 -6.46875 C 0.578125 -8.46875 1.203125 -10.082031 2.453125 -11.3125 C 3.703125 -12.550781 5.332031 -13.171875 7.34375 -13.171875 Z M 7.34375 -13.171875 "/></g></g></g><g fill="#000000" fill-opacity="1"><g transform="translate(197.422805, 117.913024)"><g><path d="M 10.34375 -13.21875 C 11.769531 -13.21875 12.914062 -12.757812 13.78125 -11.84375 C 14.65625 -10.9375 15.09375 -9.726562 15.09375 -8.21875 L 15.09375 0 L 10.921875 0 L 10.921875 -7.046875 C 10.921875 -7.804688 10.710938 -8.40625 10.296875 -8.84375 C 9.890625 -9.289062 9.332031 -9.515625 8.625 -9.515625 C 7.820312 -9.515625 7.175781 -9.222656 6.6875 -8.640625 C 6.207031 -8.066406 5.96875 -7.328125 5.96875 -6.421875 L 5.96875 0 L 1.78125 0 L 1.78125 -17.921875 L 5.96875 -17.921875 L 5.96875 -10.875 C 6.882812 -12.40625 8.34375 -13.1875 10.34375 -13.21875 Z M 10.34375 -13.21875 "/></g></g></g><g fill="#000000" fill-opacity="1"><g transform="translate(213.796597, 117.913024)"><g><path d="M 2.171875 -18.34375 C 2.585938 -18.757812 3.117188 -18.96875 3.765625 -18.96875 C 4.410156 -18.96875 4.9375 -18.757812 5.34375 -18.34375 C 5.757812 -17.9375 5.96875 -17.410156 5.96875 -16.765625 C 5.96875 -16.117188 5.757812 -15.585938 5.34375 -15.171875 C 4.9375 -14.753906 4.410156 -14.546875 3.765625 -14.546875 C 3.117188 -14.546875 2.585938 -14.753906 2.171875 -15.171875 C 1.765625 -15.585938 1.5625 -16.117188 1.5625 -16.765625 C 1.5625 -17.410156 1.765625 -17.9375 2.171875 -18.34375 Z M 5.828125 0 L 1.671875 0 L 1.671875 -13.015625 L 5.828125 -13.015625 Z M 5.828125 0 "/></g></g></g><g fill="#000000" fill-opacity="1"><g transform="translate(221.307283, 117.913024)"><g><path d="M 10.1875 -13.21875 C 11.625 -13.21875 12.773438 -12.757812 13.640625 -11.84375 C 14.515625 -10.9375 14.953125 -9.726562 14.953125 -8.21875 L 14.953125 0 L 10.796875 0 L 10.796875 -7.046875 C 10.796875 -7.804688 10.585938 -8.40625 10.171875 -8.84375 C 9.765625 -9.289062 9.207031 -9.515625 8.5 -9.515625 C 7.757812 -9.515625 7.148438 -9.269531 6.671875 -8.78125 C 6.203125 -8.300781 5.925781 -7.671875 5.84375 -6.890625 L 5.84375 0 L 1.671875 0 L 1.671875 -13.015625 L 5.84375 -13.015625 L 5.84375 -10.890625 C 6.757812 -12.410156 8.207031 -13.1875 10.1875 -13.21875 Z M 10.1875 -13.21875 "/></g></g></g><g fill="#000000" fill-opacity="1"><g transform="translate(237.560313, 117.913024)"><g><path d="M 7.375 -13.171875 C 9.625 -13.171875 11.316406 -12.476562 12.453125 -11.09375 C 13.585938 -9.707031 14.082031 -7.804688 13.9375 -5.390625 L 4.78125 -5.390625 C 4.988281 -4.617188 5.359375 -4.019531 5.890625 -3.59375 C 6.421875 -3.175781 7.070312 -2.96875 7.84375 -2.96875 C 9.039062 -2.96875 10.082031 -3.410156 10.96875 -4.296875 L 13.171875 -2.15625 C 11.765625 -0.625 9.867188 0.140625 7.484375 0.140625 C 5.378906 0.140625 3.703125 -0.460938 2.453125 -1.671875 C 1.203125 -2.878906 0.578125 -4.476562 0.578125 -6.46875 C 0.578125 -8.488281 1.203125 -10.109375 2.453125 -11.328125 C 3.703125 -12.554688 5.34375 -13.171875 7.375 -13.171875 Z M 4.703125 -7.640625 L 9.921875 -7.640625 C 9.921875 -8.421875 9.691406 -9.050781 9.234375 -9.53125 C 8.773438 -10.019531 8.171875 -10.265625 7.421875 -10.265625 C 6.710938 -10.265625 6.113281 -10.023438 5.625 -9.546875 C 5.144531 -9.078125 4.835938 -8.441406 4.703125 -7.640625 Z M 4.703125 -7.640625 "/></g></g></g><g fill="#000000" fill-opacity="1"><g transform="translate(252.098689, 117.913024)"><g/></g></g><g fill="#000000" fill-opacity="1"><g transform="translate(257.701531, 117.913024)"><g><path d="M 5.984375 -3.59375 L 13.171875 -3.59375 L 13.171875 0 L 1.6875 0 L 1.6875 -16.90625 L 5.984375 -16.90625 Z M 5.984375 -3.59375 "/></g></g></g><g fill="#000000" fill-opacity="1"><g transform="translate(271.225604, 117.913024)"><g><path d="M 7.375 -13.171875 C 9.625 -13.171875 11.316406 -12.476562 12.453125 -11.09375 C 13.585938 -9.707031 14.082031 -7.804688 13.9375 -5.390625 L 4.78125 -5.390625 C 4.988281 -4.617188 5.359375 -4.019531 5.890625 -3.59375 C 6.421875 -3.175781 7.070312 -2.96875 7.84375 -2.96875 C 9.039062 -2.96875 10.082031 -3.410156 10.96875 -4.296875 L 13.171875 -2.15625 C 11.765625 -0.625 9.867188 0.140625 7.484375 0.140625 C 5.378906 0.140625 3.703125 -0.460938 2.453125 -1.671875 C 1.203125 -2.878906 0.578125 -4.476562 0.578125 -6.46875 C 0.578125 -8.488281 1.203125 -10.109375 2.453125 -11.328125 C 3.703125 -12.554688 5.34375 -13.171875 7.375 -13.171875 Z M 4.703125 -7.640625 L 9.921875 -7.640625 C 9.921875 -8.421875 9.691406 -9.050781 9.234375 -9.53125 C 8.773438 -10.019531 8.171875 -10.265625 7.421875 -10.265625 C 6.710938 -10.265625 6.113281 -10.023438 5.625 -9.546875 C 5.144531 -9.078125 4.835938 -8.441406 4.703125 -7.640625 Z M 4.703125 -7.640625 "/></g></g></g><g fill="#000000" fill-opacity="1"><g transform="translate(285.763979, 117.913024)"><g><path d="M 7.515625 -13.21875 C 9.296875 -13.21875 10.679688 -12.800781 11.671875 -11.96875 C 12.671875 -11.132812 13.175781 -9.976562 13.1875 -8.5 L 13.1875 0 L 9.109375 0 L 9.109375 -1.5 C 8.253906 -0.375 6.925781 0.1875 5.125 0.1875 C 3.75 0.1875 2.660156 -0.1875 1.859375 -0.9375 C 1.054688 -1.695312 0.65625 -2.679688 0.65625 -3.890625 C 0.65625 -5.128906 1.082031 -6.085938 1.9375 -6.765625 C 2.800781 -7.453125 4.039062 -7.804688 5.65625 -7.828125 L 9.078125 -7.828125 L 9.078125 -8.015625 C 9.078125 -8.660156 8.863281 -9.164062 8.4375 -9.53125 C 8.007812 -9.894531 7.378906 -10.078125 6.546875 -10.078125 C 5.367188 -10.078125 4.070312 -9.710938 2.65625 -8.984375 L 1.46875 -11.734375 C 3.582031 -12.722656 5.597656 -13.21875 7.515625 -13.21875 Z M 6.40625 -2.640625 C 7.0625 -2.640625 7.640625 -2.800781 8.140625 -3.125 C 8.640625 -3.457031 8.953125 -3.890625 9.078125 -4.421875 L 9.078125 -5.578125 L 6.453125 -5.578125 C 5.191406 -5.578125 4.5625 -5.109375 4.5625 -4.171875 C 4.5625 -3.691406 4.722656 -3.316406 5.046875 -3.046875 C 5.367188 -2.773438 5.820312 -2.640625 6.40625 -2.640625 Z M 6.40625 -2.640625 "/></g></g></g><g fill="#000000" fill-opacity="1"><g transform="translate(300.254069, 117.913024)"><g><path d="M 5.84375 -13.015625 L 5.84375 -10.828125 C 6.757812 -12.390625 8.171875 -13.1875 10.078125 -13.21875 L 10.078125 -9.4375 C 8.878906 -9.550781 7.898438 -9.351562 7.140625 -8.84375 C 6.390625 -8.34375 5.957031 -7.625 5.84375 -6.6875 L 5.84375 0 L 1.671875 0 L 1.671875 -13.015625 Z M 5.84375 -13.015625 "/></g></g></g><g fill="#000000" fill-opacity="1"><g transform="translate(310.566164, 117.913024)"><g><path d="M 10.1875 -13.21875 C 11.625 -13.21875 12.773438 -12.757812 13.640625 -11.84375 C 14.515625 -10.9375 14.953125 -9.726562 14.953125 -8.21875 L 14.953125 0 L 10.796875 0 L 10.796875 -7.046875 C 10.796875 -7.804688 10.585938 -8.40625 10.171875 -8.84375 C 9.765625 -9.289062 9.207031 -9.515625 8.5 -9.515625 C 7.757812 -9.515625 7.148438 -9.269531 6.671875 -8.78125 C 6.203125 -8.300781 5.925781 -7.671875 5.84375 -6.890625 L 5.84375 0 L 1.671875 0 L 1.671875 -13.015625 L 5.84375 -13.015625 L 5.84375 -10.890625 C 6.757812 -12.410156 8.207031 -13.1875 10.1875 -13.21875 Z M 10.1875 -13.21875 "/></g></g></g><g fill="#000000" fill-opacity="1"><g transform="translate(326.819195, 117.913024)"><g><path d="M 2.171875 -18.34375 C 2.585938 -18.757812 3.117188 -18.96875 3.765625 -18.96875 C 4.410156 -18.96875 4.9375 -18.757812 5.34375 -18.34375 C 5.757812 -17.9375 5.96875 -17.410156 5.96875 -16.765625 C 5.96875 -16.117188 5.757812 -15.585938 5.34375 -15.171875 C 4.9375 -14.753906 4.410156 -14.546875 3.765625 -14.546875 C 3.117188 -14.546875 2.585938 -14.753906 2.171875 -15.171875 C 1.765625 -15.585938 1.5625 -16.117188 1.5625 -16.765625 C 1.5625 -17.410156 1.765625 -17.9375 2.171875 -18.34375 Z M 5.828125 0 L 1.671875 0 L 1.671875 -13.015625 L 5.828125 -13.015625 Z M 5.828125 0 "/></g></g></g><g fill="#000000" fill-opacity="1"><g transform="translate(334.329881, 117.913024)"><g><path d="M 10.1875 -13.21875 C 11.625 -13.21875 12.773438 -12.757812 13.640625 -11.84375 C 14.515625 -10.9375 14.953125 -9.726562 14.953125 -8.21875 L 14.953125 0 L 10.796875 0 L 10.796875 -7.046875 C 10.796875 -7.804688 10.585938 -8.40625 10.171875 -8.84375 C 9.765625 -9.289062 9.207031 -9.515625 8.5 -9.515625 C 7.757812 -9.515625 7.148438 -9.269531 6.671875 -8.78125 C 6.203125 -8.300781 5.925781 -7.671875 5.84375 -6.890625 L 5.84375 0 L 1.671875 0 L 1.671875 -13.015625 L 5.84375 -13.015625 L 5.84375 -10.890625 C 6.757812 -12.410156 8.207031 -13.1875 10.1875 -13.21875 Z M 10.1875 -13.21875 "/></g></g></g><g fill="#000000" fill-opacity="1"><g transform="translate(350.582911, 117.913024)"><g><path d="M 14.109375 -13.015625 L 14.109375 -1.1875 C 14.109375 0.644531 13.457031 2.109375 12.15625 3.203125 C 10.863281 4.304688 9.160156 4.859375 7.046875 4.859375 C 4.890625 4.859375 2.957031 4.285156 1.25 3.140625 L 2.703125 0.3125 C 3.960938 1.1875 5.304688 1.625 6.734375 1.625 C 7.734375 1.625 8.519531 1.378906 9.09375 0.890625 C 9.664062 0.410156 9.953125 -0.238281 9.953125 -1.0625 L 9.953125 -2.4375 C 9.066406 -1.28125 7.816406 -0.703125 6.203125 -0.703125 C 4.546875 -0.703125 3.195312 -1.28125 2.15625 -2.4375 C 1.125 -3.59375 0.609375 -5.113281 0.609375 -7 C 0.609375 -8.84375 1.113281 -10.332031 2.125 -11.46875 C 3.132812 -12.601562 4.460938 -13.171875 6.109375 -13.171875 C 7.765625 -13.179688 9.046875 -12.597656 9.953125 -11.421875 L 9.953125 -13.015625 Z M 7.25 -3.71875 C 8.050781 -3.71875 8.703125 -4.007812 9.203125 -4.59375 C 9.703125 -5.1875 9.953125 -5.953125 9.953125 -6.890625 C 9.953125 -7.835938 9.703125 -8.601562 9.203125 -9.1875 C 8.703125 -9.78125 8.050781 -10.078125 7.25 -10.078125 C 6.425781 -10.078125 5.757812 -9.78125 5.25 -9.1875 C 4.75 -8.601562 4.5 -7.835938 4.5 -6.890625 C 4.5 -5.953125 4.75 -5.1875 5.25 -4.59375 C 5.757812 -4.007812 6.425781 -3.71875 7.25 -3.71875 Z M 7.25 -3.71875 "/></g></g></g></svg>