<svg xmlns="http://www.w3.org/2000/svg" xmlns:xlink="http://www.w3.org/1999/xlink" width="496" zoomAndPan="magnify" viewBox="0 0 372 262.499992" height="350" preserveAspectRatio="xMidYMid meet" version="1.0"><defs><g/><clipPath id="aa69e6359d"><path d="M 0.355469 60.75 L 141.414062 60.75 L 141.414062 201.25 L 0.355469 201.25 Z M 0.355469 60.75 " clip-rule="nonzero"/></clipPath></defs><g clip-path="url(#aa69e6359d)"><path fill="#370909" d="M 0.355469 60.75 L 141.402344 60.75 L 141.402344 201.25 L 0.355469 201.25 Z M 0.355469 60.75 " fill-opacity="1" fill-rule="nonzero"/></g><g fill="#ffffff" fill-opacity="1"><g transform="translate(15.098182, 135.148996)"><g><path d="M 25.9375 0 L 23.078125 -8.234375 L 10.78125 -8.234375 L 7.921875 0 L 1.171875 0 L 12.9375 -32.25 L 20.890625 -32.25 L 32.609375 0 Z M 16.921875 -27.28125 L 16.78125 -26.78125 C 16.625 -26.226562 16.4375 -25.597656 16.21875 -24.890625 C 16.007812 -24.191406 14.703125 -20.335938 12.296875 -13.328125 L 21.5625 -13.328125 L 18.375 -22.59375 L 17.390625 -25.703125 Z M 16.921875 -27.28125 "/></g></g></g><g fill="#ffffff" fill-opacity="1"><g transform="translate(48.940639, 135.148996)"><g><path d="M 3.265625 -29.234375 L 3.265625 -33.96875 L 9.703125 -33.96875 L 9.703125 -29.234375 Z M 3.265625 0 L 3.265625 -24.765625 L 9.703125 -24.765625 L 9.703125 0 Z M 3.265625 0 "/></g></g></g><g fill="#ffffff" fill-opacity="1"><g transform="translate(61.960489, 135.148996)"><g><path d="M 29.921875 0 L 29.921875 -19.546875 C 29.921875 -19.984375 29.921875 -20.421875 29.921875 -20.859375 C 29.929688 -21.304688 30.003906 -23.210938 30.140625 -26.578125 C 29.054688 -22.472656 28.253906 -19.609375 27.734375 -17.984375 L 21.921875 0 L 17.125 0 L 11.3125 -17.984375 L 8.859375 -26.578125 C 9.035156 -23.035156 9.125 -20.691406 9.125 -19.546875 L 9.125 0 L 3.140625 0 L 3.140625 -32.25 L 12.171875 -32.25 L 17.9375 -14.21875 L 18.453125 -12.46875 L 19.546875 -8.140625 L 20.984375 -13.328125 L 26.921875 -32.25 L 35.90625 -32.25 L 35.90625 0 Z M 29.921875 0 "/></g></g></g><g fill="#ffffff" fill-opacity="1"><g transform="translate(100.997157, 135.148996)"><g><path d="M 3.140625 0 L 3.140625 -32.25 L 9.890625 -32.25 L 9.890625 -5.21875 L 27.1875 -5.21875 L 27.1875 0 Z M 3.140625 0 "/></g></g></g><g fill="#ffffff" fill-opacity="1"><g transform="translate(15.098182, 153.476644)"><g><path d="M 7.71875 -2.0625 C 9.445312 -2.0625 10.644531 -2.925781 11.3125 -4.65625 L 13.8125 -3.71875 C 13.269531 -2.394531 12.476562 -1.410156 11.4375 -0.765625 C 10.40625 -0.128906 9.164062 0.1875 7.71875 0.1875 C 5.519531 0.1875 3.816406 -0.429688 2.609375 -1.671875 C 1.410156 -2.921875 0.8125 -4.664062 0.8125 -6.90625 C 0.8125 -9.144531 1.390625 -10.863281 2.546875 -12.0625 C 3.710938 -13.269531 5.394531 -13.875 7.59375 -13.875 C 9.195312 -13.875 10.503906 -13.550781 11.515625 -12.90625 C 12.523438 -12.269531 13.234375 -11.328125 13.640625 -10.078125 L 11.109375 -9.390625 C 10.898438 -10.066406 10.484375 -10.609375 9.859375 -11.015625 C 9.234375 -11.421875 8.492188 -11.625 7.640625 -11.625 C 6.347656 -11.625 5.367188 -11.222656 4.703125 -10.421875 C 4.035156 -9.617188 3.703125 -8.445312 3.703125 -6.90625 C 3.703125 -5.332031 4.046875 -4.128906 4.734375 -3.296875 C 5.421875 -2.472656 6.414062 -2.0625 7.71875 -2.0625 Z M 7.71875 -2.0625 "/></g></g></g><g fill="#ffffff" fill-opacity="1"><g transform="translate(29.44847, 153.476644)"><g><path d="M 3.8125 0.1875 C 2.800781 0.1875 2.007812 -0.0859375 1.4375 -0.640625 C 0.863281 -1.191406 0.578125 -1.96875 0.578125 -2.96875 C 0.578125 -4.050781 0.929688 -4.878906 1.640625 -5.453125 C 2.347656 -6.023438 3.375 -6.316406 4.71875 -6.328125 L 6.984375 -6.359375 L 6.984375 -6.90625 C 6.984375 -7.582031 6.863281 -8.085938 6.625 -8.421875 C 6.382812 -8.753906 5.992188 -8.921875 5.453125 -8.921875 C 4.953125 -8.921875 4.582031 -8.804688 4.34375 -8.578125 C 4.101562 -8.347656 3.957031 -7.96875 3.90625 -7.4375 L 1.0625 -7.578125 C 1.226562 -8.597656 1.691406 -9.367188 2.453125 -9.890625 C 3.210938 -10.421875 4.253906 -10.6875 5.578125 -10.6875 C 6.898438 -10.6875 7.921875 -10.359375 8.640625 -9.703125 C 9.359375 -9.054688 9.71875 -8.128906 9.71875 -6.921875 L 9.71875 -3.109375 C 9.71875 -2.515625 9.78125 -2.101562 9.90625 -1.875 C 10.039062 -1.65625 10.265625 -1.546875 10.578125 -1.546875 C 10.785156 -1.546875 10.988281 -1.566406 11.1875 -1.609375 L 11.1875 -0.140625 C 11.019531 -0.0976562 10.867188 -0.0625 10.734375 -0.03125 C 10.609375 0 10.476562 0.0234375 10.34375 0.046875 C 10.21875 0.0664062 10.082031 0.0820312 9.9375 0.09375 C 9.789062 0.101562 9.625 0.109375 9.4375 0.109375 C 8.75 0.109375 8.238281 -0.0546875 7.90625 -0.390625 C 7.582031 -0.722656 7.390625 -1.21875 7.328125 -1.875 L 7.265625 -1.875 C 6.503906 -0.5 5.351562 0.1875 3.8125 0.1875 Z M 6.984375 -4.859375 L 5.59375 -4.84375 C 4.957031 -4.8125 4.503906 -4.738281 4.234375 -4.625 C 3.972656 -4.519531 3.769531 -4.347656 3.625 -4.109375 C 3.488281 -3.878906 3.421875 -3.570312 3.421875 -3.1875 C 3.421875 -2.6875 3.535156 -2.3125 3.765625 -2.0625 C 3.992188 -1.820312 4.300781 -1.703125 4.6875 -1.703125 C 5.113281 -1.703125 5.503906 -1.816406 5.859375 -2.046875 C 6.210938 -2.285156 6.488281 -2.609375 6.6875 -3.015625 C 6.882812 -3.429688 6.984375 -3.867188 6.984375 -4.328125 Z M 6.984375 -4.859375 "/></g></g></g><g fill="#ffffff" fill-opacity="1"><g transform="translate(40.499843, 153.476644)"><g><path d="M 7.5625 0 L 7.5625 -5.890625 C 7.5625 -7.734375 7.035156 -8.65625 5.984375 -8.65625 C 5.429688 -8.65625 4.976562 -8.375 4.625 -7.8125 C 4.28125 -7.25 4.109375 -6.519531 4.109375 -5.625 L 4.109375 0 L 1.390625 0 L 1.390625 -8.15625 C 1.390625 -8.71875 1.378906 -9.175781 1.359375 -9.53125 C 1.347656 -9.894531 1.332031 -10.21875 1.3125 -10.5 L 3.90625 -10.5 C 3.925781 -10.375 3.953125 -10.046875 3.984375 -9.515625 C 4.015625 -8.984375 4.03125 -8.613281 4.03125 -8.40625 L 4.078125 -8.40625 C 4.410156 -9.21875 4.828125 -9.800781 5.328125 -10.15625 C 5.828125 -10.519531 6.429688 -10.703125 7.140625 -10.703125 C 8.742188 -10.703125 9.710938 -9.9375 10.046875 -8.40625 L 10.109375 -8.40625 C 10.460938 -9.226562 10.890625 -9.816406 11.390625 -10.171875 C 11.890625 -10.523438 12.523438 -10.703125 13.296875 -10.703125 C 14.316406 -10.703125 15.09375 -10.351562 15.625 -9.65625 C 16.164062 -8.96875 16.4375 -7.972656 16.4375 -6.671875 L 16.4375 0 L 13.734375 0 L 13.734375 -5.890625 C 13.734375 -7.734375 13.203125 -8.65625 12.140625 -8.65625 C 11.609375 -8.65625 11.171875 -8.394531 10.828125 -7.875 C 10.492188 -7.363281 10.3125 -6.65625 10.28125 -5.75 L 10.28125 0 Z M 7.5625 0 "/></g></g></g><g fill="#ffffff" fill-opacity="1"><g transform="translate(58.168451, 153.476644)"><g><path d="M 11.328125 -5.296875 C 11.328125 -3.546875 10.972656 -2.191406 10.265625 -1.234375 C 9.566406 -0.285156 8.578125 0.1875 7.296875 0.1875 C 6.554688 0.1875 5.910156 0.03125 5.359375 -0.28125 C 4.816406 -0.601562 4.398438 -1.066406 4.109375 -1.671875 L 4.0625 -1.671875 C 4.09375 -1.472656 4.109375 -0.882812 4.109375 0.09375 L 4.109375 4.125 L 1.390625 4.125 L 1.390625 -8.078125 C 1.390625 -9.066406 1.363281 -9.875 1.3125 -10.5 L 3.953125 -10.5 C 3.992188 -10.382812 4.023438 -10.15625 4.046875 -9.8125 C 4.066406 -9.46875 4.078125 -9.128906 4.078125 -8.796875 L 4.109375 -8.796875 C 4.722656 -10.078125 5.84375 -10.71875 7.46875 -10.71875 C 8.695312 -10.71875 9.644531 -10.25 10.3125 -9.3125 C 10.988281 -8.375 11.328125 -7.035156 11.328125 -5.296875 Z M 8.484375 -5.296875 C 8.484375 -7.648438 7.757812 -8.828125 6.3125 -8.828125 C 5.59375 -8.828125 5.039062 -8.507812 4.65625 -7.875 C 4.269531 -7.238281 4.078125 -6.351562 4.078125 -5.21875 C 4.078125 -4.082031 4.269531 -3.207031 4.65625 -2.59375 C 5.039062 -1.976562 5.585938 -1.671875 6.296875 -1.671875 C 7.753906 -1.671875 8.484375 -2.878906 8.484375 -5.296875 Z M 8.484375 -5.296875 "/></g></g></g><g fill="#ffffff" fill-opacity="1"><g transform="translate(70.306526, 153.476644)"><g><path d="M 3.953125 -10.5 L 3.953125 -4.609375 C 3.953125 -2.765625 4.578125 -1.84375 5.828125 -1.84375 C 6.484375 -1.84375 7.015625 -2.125 7.421875 -2.6875 C 7.828125 -3.257812 8.03125 -3.988281 8.03125 -4.875 L 8.03125 -10.5 L 10.75 -10.5 L 10.75 -2.34375 C 10.75 -1.457031 10.773438 -0.675781 10.828125 0 L 8.234375 0 C 8.148438 -0.925781 8.109375 -1.625 8.109375 -2.09375 L 8.0625 -2.09375 C 7.695312 -1.289062 7.234375 -0.707031 6.671875 -0.34375 C 6.117188 0.0078125 5.457031 0.1875 4.6875 0.1875 C 3.570312 0.1875 2.71875 -0.148438 2.125 -0.828125 C 1.53125 -1.515625 1.234375 -2.515625 1.234375 -3.828125 L 1.234375 -10.5 Z M 3.953125 -10.5 "/></g></g></g><g fill="#ffffff" fill-opacity="1"><g transform="translate(82.444601, 153.476644)"><g><path d="M 10.234375 -3.0625 C 10.234375 -2.050781 9.816406 -1.253906 8.984375 -0.671875 C 8.160156 -0.0976562 7.015625 0.1875 5.546875 0.1875 C 4.097656 0.1875 2.988281 -0.0351562 2.21875 -0.484375 C 1.457031 -0.941406 0.953125 -1.65625 0.703125 -2.625 L 3.09375 -2.984375 C 3.226562 -2.484375 3.460938 -2.128906 3.796875 -1.921875 C 4.128906 -1.710938 4.710938 -1.609375 5.546875 -1.609375 C 6.304688 -1.609375 6.859375 -1.703125 7.203125 -1.890625 C 7.554688 -2.085938 7.734375 -2.394531 7.734375 -2.8125 C 7.734375 -3.144531 7.59375 -3.410156 7.3125 -3.609375 C 7.03125 -3.804688 6.550781 -3.972656 5.875 -4.109375 C 4.34375 -4.421875 3.304688 -4.707031 2.765625 -4.96875 C 2.222656 -5.226562 1.8125 -5.566406 1.53125 -5.984375 C 1.25 -6.398438 1.109375 -6.910156 1.109375 -7.515625 C 1.109375 -8.523438 1.492188 -9.304688 2.265625 -9.859375 C 3.046875 -10.421875 4.144531 -10.703125 5.5625 -10.703125 C 6.8125 -10.703125 7.816406 -10.457031 8.578125 -9.96875 C 9.335938 -9.488281 9.8125 -8.789062 10 -7.875 L 7.578125 -7.625 C 7.503906 -8.050781 7.3125 -8.367188 7 -8.578125 C 6.695312 -8.785156 6.21875 -8.890625 5.5625 -8.890625 C 4.914062 -8.890625 4.429688 -8.804688 4.109375 -8.640625 C 3.785156 -8.472656 3.625 -8.195312 3.625 -7.8125 C 3.625 -7.507812 3.742188 -7.269531 3.984375 -7.09375 C 4.234375 -6.914062 4.65625 -6.765625 5.25 -6.640625 C 6.070312 -6.472656 6.800781 -6.300781 7.4375 -6.125 C 8.070312 -5.945312 8.582031 -5.734375 8.96875 -5.484375 C 9.351562 -5.242188 9.660156 -4.929688 9.890625 -4.546875 C 10.117188 -4.160156 10.234375 -3.664062 10.234375 -3.0625 Z M 10.234375 -3.0625 "/></g></g></g><g fill="#ffffff" fill-opacity="1"><g transform="translate(16.75261, 161.139514)"><g><path d="M 2.28125 0 L 2.28125 -1.3125 L 0.9375 -1.3125 L 0.9375 0 L 0.296875 0 L 0.296875 -3.0625 L 0.9375 -3.0625 L 0.9375 -1.84375 L 2.28125 -1.84375 L 2.28125 -3.0625 L 2.921875 -3.0625 L 2.921875 0 Z M 2.28125 0 "/></g></g><g transform="translate(19.969104, 161.139514)"><g><path d="M 0.890625 -2.359375 L 0.890625 -1.03125 C 0.890625 -0.613281 1.023438 -0.40625 1.296875 -0.40625 C 1.453125 -0.40625 1.570312 -0.46875 1.65625 -0.59375 C 1.75 -0.726562 1.796875 -0.894531 1.796875 -1.09375 L 1.796875 -2.359375 L 2.40625 -2.359375 L 2.40625 -0.53125 C 2.40625 -0.320312 2.410156 -0.144531 2.421875 0 L 1.84375 0 C 1.820312 -0.207031 1.8125 -0.363281 1.8125 -0.46875 C 1.726562 -0.289062 1.625 -0.160156 1.5 -0.078125 C 1.375 0.00390625 1.222656 0.046875 1.046875 0.046875 C 0.796875 0.046875 0.601562 -0.03125 0.46875 -0.1875 C 0.34375 -0.34375 0.28125 -0.566406 0.28125 -0.859375 L 0.28125 -2.359375 Z M 0.890625 -2.359375 "/></g></g><g transform="translate(22.68975, 161.139514)"><g><path d="M 1.703125 0 L 1.703125 -1.3125 C 1.703125 -1.726562 1.582031 -1.9375 1.34375 -1.9375 C 1.21875 -1.9375 1.113281 -1.875 1.03125 -1.75 C 0.957031 -1.625 0.921875 -1.460938 0.921875 -1.265625 L 0.921875 0 L 0.3125 0 L 0.3125 -1.828125 C 0.3125 -1.953125 0.304688 -2.050781 0.296875 -2.125 C 0.296875 -2.207031 0.296875 -2.285156 0.296875 -2.359375 L 0.875 -2.359375 C 0.875 -2.328125 0.878906 -2.25 0.890625 -2.125 C 0.898438 -2.007812 0.90625 -1.929688 0.90625 -1.890625 C 0.988281 -2.066406 1.082031 -2.191406 1.1875 -2.265625 C 1.300781 -2.347656 1.4375 -2.390625 1.59375 -2.390625 C 1.957031 -2.390625 2.175781 -2.222656 2.25 -1.890625 L 2.265625 -1.890625 C 2.347656 -2.066406 2.441406 -2.191406 2.546875 -2.265625 C 2.660156 -2.347656 2.804688 -2.390625 2.984375 -2.390625 C 3.210938 -2.390625 3.382812 -2.3125 3.5 -2.15625 C 3.625 -2.007812 3.6875 -1.789062 3.6875 -1.5 L 3.6875 0 L 3.078125 0 L 3.078125 -1.3125 C 3.078125 -1.726562 2.957031 -1.9375 2.71875 -1.9375 C 2.601562 -1.9375 2.503906 -1.878906 2.421875 -1.765625 C 2.347656 -1.648438 2.304688 -1.492188 2.296875 -1.296875 L 2.296875 0 Z M 1.703125 0 "/></g></g><g transform="translate(26.650018, 161.139514)"><g><path d="M 0.859375 0.046875 C 0.628906 0.046875 0.445312 -0.015625 0.3125 -0.140625 C 0.1875 -0.265625 0.125 -0.441406 0.125 -0.671875 C 0.125 -0.910156 0.203125 -1.09375 0.359375 -1.21875 C 0.523438 -1.34375 0.757812 -1.410156 1.0625 -1.421875 L 1.5625 -1.421875 L 1.5625 -1.546875 C 1.5625 -1.703125 1.535156 -1.816406 1.484375 -1.890625 C 1.429688 -1.960938 1.34375 -2 1.21875 -2 C 1.101562 -2 1.019531 -1.972656 0.96875 -1.921875 C 0.914062 -1.867188 0.882812 -1.785156 0.875 -1.671875 L 0.234375 -1.703125 C 0.273438 -1.929688 0.378906 -2.101562 0.546875 -2.21875 C 0.722656 -2.332031 0.957031 -2.390625 1.25 -2.390625 C 1.539062 -2.390625 1.765625 -2.316406 1.921875 -2.171875 C 2.085938 -2.023438 2.171875 -1.816406 2.171875 -1.546875 L 2.171875 -0.703125 C 2.171875 -0.566406 2.1875 -0.472656 2.21875 -0.421875 C 2.25 -0.367188 2.300781 -0.34375 2.375 -0.34375 C 2.414062 -0.34375 2.457031 -0.347656 2.5 -0.359375 L 2.5 -0.03125 C 2.46875 -0.0195312 2.4375 -0.0078125 2.40625 0 C 2.375 0 2.34375 0 2.3125 0 C 2.289062 0.0078125 2.257812 0.015625 2.21875 0.015625 C 2.1875 0.0234375 2.148438 0.03125 2.109375 0.03125 C 1.960938 0.03125 1.847656 -0.00390625 1.765625 -0.078125 C 1.691406 -0.160156 1.648438 -0.273438 1.640625 -0.421875 L 1.625 -0.421875 C 1.457031 -0.109375 1.203125 0.046875 0.859375 0.046875 Z M 1.5625 -1.09375 L 1.25 -1.078125 C 1.113281 -1.078125 1.015625 -1.0625 0.953125 -1.03125 C 0.890625 -1.007812 0.84375 -0.972656 0.8125 -0.921875 C 0.78125 -0.867188 0.765625 -0.800781 0.765625 -0.71875 C 0.765625 -0.601562 0.789062 -0.515625 0.84375 -0.453125 C 0.894531 -0.398438 0.960938 -0.375 1.046875 -0.375 C 1.140625 -0.375 1.226562 -0.398438 1.3125 -0.453125 C 1.394531 -0.515625 1.457031 -0.585938 1.5 -0.671875 C 1.539062 -0.765625 1.5625 -0.863281 1.5625 -0.96875 Z M 1.5625 -1.09375 "/></g></g><g transform="translate(29.127088, 161.139514)"><g><path d="M 1.828125 0 L 1.828125 -1.3125 C 1.828125 -1.726562 1.691406 -1.9375 1.421875 -1.9375 C 1.265625 -1.9375 1.140625 -1.875 1.046875 -1.75 C 0.960938 -1.625 0.921875 -1.460938 0.921875 -1.265625 L 0.921875 0 L 0.3125 0 L 0.3125 -1.828125 C 0.3125 -1.953125 0.304688 -2.050781 0.296875 -2.125 C 0.296875 -2.207031 0.296875 -2.285156 0.296875 -2.359375 L 0.875 -2.359375 C 0.875 -2.328125 0.878906 -2.25 0.890625 -2.125 C 0.898438 -2.007812 0.90625 -1.929688 0.90625 -1.890625 C 0.988281 -2.066406 1.09375 -2.191406 1.21875 -2.265625 C 1.34375 -2.347656 1.492188 -2.390625 1.671875 -2.390625 C 1.921875 -2.390625 2.109375 -2.3125 2.234375 -2.15625 C 2.367188 -2.007812 2.4375 -1.789062 2.4375 -1.5 L 2.4375 0 Z M 1.828125 0 "/></g></g><g transform="translate(31.847734, 161.139514)"><g/></g><g transform="translate(33.085182, 161.139514)"><g><path d="M 0.296875 0 L 0.296875 -3.0625 L 0.9375 -3.0625 L 0.9375 0 Z M 0.296875 0 "/></g></g><g transform="translate(34.32263, 161.139514)"><g><path d="M 1.828125 0 L 1.828125 -1.3125 C 1.828125 -1.726562 1.691406 -1.9375 1.421875 -1.9375 C 1.265625 -1.9375 1.140625 -1.875 1.046875 -1.75 C 0.960938 -1.625 0.921875 -1.460938 0.921875 -1.265625 L 0.921875 0 L 0.3125 0 L 0.3125 -1.828125 C 0.3125 -1.953125 0.304688 -2.050781 0.296875 -2.125 C 0.296875 -2.207031 0.296875 -2.285156 0.296875 -2.359375 L 0.875 -2.359375 C 0.875 -2.328125 0.878906 -2.25 0.890625 -2.125 C 0.898438 -2.007812 0.90625 -1.929688 0.90625 -1.890625 C 0.988281 -2.066406 1.09375 -2.191406 1.21875 -2.265625 C 1.34375 -2.347656 1.492188 -2.390625 1.671875 -2.390625 C 1.921875 -2.390625 2.109375 -2.3125 2.234375 -2.15625 C 2.367188 -2.007812 2.4375 -1.789062 2.4375 -1.5 L 2.4375 0 Z M 1.828125 0 "/></g></g><g transform="translate(37.043275, 161.139514)"><g><path d="M 0.90625 0.046875 C 0.726562 0.046875 0.59375 0 0.5 -0.09375 C 0.40625 -0.195312 0.359375 -0.347656 0.359375 -0.546875 L 0.359375 -1.9375 L 0.046875 -1.9375 L 0.046875 -2.359375 L 0.375 -2.359375 L 0.578125 -2.90625 L 0.953125 -2.90625 L 0.953125 -2.359375 L 1.40625 -2.359375 L 1.40625 -1.9375 L 0.953125 -1.9375 L 0.953125 -0.71875 C 0.953125 -0.601562 0.972656 -0.515625 1.015625 -0.453125 C 1.066406 -0.398438 1.132812 -0.375 1.21875 -0.375 C 1.269531 -0.375 1.335938 -0.382812 1.421875 -0.40625 L 1.421875 -0.03125 C 1.273438 0.0195312 1.101562 0.046875 0.90625 0.046875 Z M 0.90625 0.046875 "/></g></g><g transform="translate(38.526473, 161.139514)"><g><path d="M 1.28125 0.046875 C 0.925781 0.046875 0.648438 -0.0546875 0.453125 -0.265625 C 0.265625 -0.472656 0.171875 -0.78125 0.171875 -1.1875 C 0.171875 -1.570312 0.265625 -1.867188 0.453125 -2.078125 C 0.648438 -2.285156 0.925781 -2.390625 1.28125 -2.390625 C 1.625 -2.390625 1.882812 -2.273438 2.0625 -2.046875 C 2.238281 -1.828125 2.328125 -1.503906 2.328125 -1.078125 L 2.328125 -1.0625 L 0.8125 -1.0625 C 0.8125 -0.832031 0.851562 -0.65625 0.9375 -0.53125 C 1.019531 -0.414062 1.140625 -0.359375 1.296875 -0.359375 C 1.515625 -0.359375 1.65625 -0.453125 1.71875 -0.640625 L 2.296875 -0.59375 C 2.128906 -0.164062 1.789062 0.046875 1.28125 0.046875 Z M 1.28125 -2.015625 C 1.132812 -2.015625 1.019531 -1.960938 0.9375 -1.859375 C 0.863281 -1.765625 0.820312 -1.625 0.8125 -1.4375 L 1.734375 -1.4375 C 1.722656 -1.625 1.675781 -1.765625 1.59375 -1.859375 C 1.507812 -1.960938 1.40625 -2.015625 1.28125 -2.015625 Z M 1.28125 -2.015625 "/></g></g><g transform="translate(41.003543, 161.139514)"><g><path d="M 0.3125 0 L 0.3125 -3.234375 L 0.921875 -3.234375 L 0.921875 0 Z M 0.3125 0 "/></g></g><g transform="translate(42.240991, 161.139514)"><g><path d="M 0.3125 0 L 0.3125 -3.234375 L 0.921875 -3.234375 L 0.921875 0 Z M 0.3125 0 "/></g></g><g transform="translate(43.478439, 161.139514)"><g><path d="M 0.3125 -2.78125 L 0.3125 -3.234375 L 0.921875 -3.234375 L 0.921875 -2.78125 Z M 0.3125 0 L 0.3125 -2.359375 L 0.921875 -2.359375 L 0.921875 0 Z M 0.3125 0 "/></g></g><g transform="translate(44.715887, 161.139514)"><g><path d="M 1.296875 0.9375 C 1.003906 0.9375 0.769531 0.878906 0.59375 0.765625 C 0.425781 0.660156 0.320312 0.507812 0.28125 0.3125 L 0.890625 0.234375 C 0.910156 0.328125 0.957031 0.398438 1.03125 0.453125 C 1.101562 0.515625 1.195312 0.546875 1.3125 0.546875 C 1.476562 0.546875 1.597656 0.492188 1.671875 0.390625 C 1.753906 0.285156 1.796875 0.128906 1.796875 -0.078125 L 1.796875 -0.203125 L 1.8125 -0.4375 L 1.796875 -0.4375 C 1.660156 -0.144531 1.410156 0 1.046875 0 C 0.773438 0 0.5625 -0.101562 0.40625 -0.3125 C 0.257812 -0.519531 0.1875 -0.816406 0.1875 -1.203125 C 0.1875 -1.578125 0.257812 -1.867188 0.40625 -2.078125 C 0.5625 -2.285156 0.789062 -2.390625 1.09375 -2.390625 C 1.4375 -2.390625 1.671875 -2.25 1.796875 -1.96875 L 1.8125 -1.96875 C 1.8125 -2.019531 1.8125 -2.085938 1.8125 -2.171875 C 1.820312 -2.265625 1.832031 -2.328125 1.84375 -2.359375 L 2.421875 -2.359375 C 2.410156 -2.203125 2.40625 -2.019531 2.40625 -1.8125 L 2.40625 -0.078125 C 2.40625 0.265625 2.3125 0.519531 2.125 0.6875 C 1.9375 0.851562 1.660156 0.9375 1.296875 0.9375 Z M 1.8125 -1.203125 C 1.8125 -1.453125 1.765625 -1.644531 1.671875 -1.78125 C 1.585938 -1.914062 1.46875 -1.984375 1.3125 -1.984375 C 0.976562 -1.984375 0.8125 -1.722656 0.8125 -1.203125 C 0.8125 -0.679688 0.972656 -0.421875 1.296875 -0.421875 C 1.460938 -0.421875 1.585938 -0.488281 1.671875 -0.625 C 1.765625 -0.757812 1.8125 -0.953125 1.8125 -1.203125 Z M 1.8125 -1.203125 "/></g></g><g transform="translate(47.436532, 161.139514)"><g><path d="M 1.28125 0.046875 C 0.925781 0.046875 0.648438 -0.0546875 0.453125 -0.265625 C 0.265625 -0.472656 0.171875 -0.78125 0.171875 -1.1875 C 0.171875 -1.570312 0.265625 -1.867188 0.453125 -2.078125 C 0.648438 -2.285156 0.925781 -2.390625 1.28125 -2.390625 C 1.625 -2.390625 1.882812 -2.273438 2.0625 -2.046875 C 2.238281 -1.828125 2.328125 -1.503906 2.328125 -1.078125 L 2.328125 -1.0625 L 0.8125 -1.0625 C 0.8125 -0.832031 0.851562 -0.65625 0.9375 -0.53125 C 1.019531 -0.414062 1.140625 -0.359375 1.296875 -0.359375 C 1.515625 -0.359375 1.65625 -0.453125 1.71875 -0.640625 L 2.296875 -0.59375 C 2.128906 -0.164062 1.789062 0.046875 1.28125 0.046875 Z M 1.28125 -2.015625 C 1.132812 -2.015625 1.019531 -1.960938 0.9375 -1.859375 C 0.863281 -1.765625 0.820312 -1.625 0.8125 -1.4375 L 1.734375 -1.4375 C 1.722656 -1.625 1.675781 -1.765625 1.59375 -1.859375 C 1.507812 -1.960938 1.40625 -2.015625 1.28125 -2.015625 Z M 1.28125 -2.015625 "/></g></g><g transform="translate(49.913603, 161.139514)"><g><path d="M 1.828125 0 L 1.828125 -1.3125 C 1.828125 -1.726562 1.691406 -1.9375 1.421875 -1.9375 C 1.265625 -1.9375 1.140625 -1.875 1.046875 -1.75 C 0.960938 -1.625 0.921875 -1.460938 0.921875 -1.265625 L 0.921875 0 L 0.3125 0 L 0.3125 -1.828125 C 0.3125 -1.953125 0.304688 -2.050781 0.296875 -2.125 C 0.296875 -2.207031 0.296875 -2.285156 0.296875 -2.359375 L 0.875 -2.359375 C 0.875 -2.328125 0.878906 -2.25 0.890625 -2.125 C 0.898438 -2.007812 0.90625 -1.929688 0.90625 -1.890625 C 0.988281 -2.066406 1.09375 -2.191406 1.21875 -2.265625 C 1.34375 -2.347656 1.492188 -2.390625 1.671875 -2.390625 C 1.921875 -2.390625 2.109375 -2.3125 2.234375 -2.15625 C 2.367188 -2.007812 2.4375 -1.789062 2.4375 -1.5 L 2.4375 0 Z M 1.828125 0 "/></g></g><g transform="translate(52.634248, 161.139514)"><g><path d="M 1.296875 0.046875 C 0.929688 0.046875 0.648438 -0.0546875 0.453125 -0.265625 C 0.265625 -0.484375 0.171875 -0.78125 0.171875 -1.15625 C 0.171875 -1.550781 0.269531 -1.851562 0.46875 -2.0625 C 0.664062 -2.28125 0.941406 -2.390625 1.296875 -2.390625 C 1.578125 -2.390625 1.804688 -2.320312 1.984375 -2.1875 C 2.171875 -2.050781 2.285156 -1.859375 2.328125 -1.609375 L 1.71875 -1.578125 C 1.695312 -1.703125 1.648438 -1.796875 1.578125 -1.859375 C 1.515625 -1.929688 1.414062 -1.96875 1.28125 -1.96875 C 0.96875 -1.96875 0.8125 -1.707031 0.8125 -1.1875 C 0.8125 -0.644531 0.972656 -0.375 1.296875 -0.375 C 1.410156 -0.375 1.503906 -0.410156 1.578125 -0.484375 C 1.660156 -0.554688 1.710938 -0.664062 1.734375 -0.8125 L 2.34375 -0.78125 C 2.320312 -0.625 2.265625 -0.476562 2.171875 -0.34375 C 2.078125 -0.21875 1.953125 -0.117188 1.796875 -0.046875 C 1.648438 0.015625 1.484375 0.046875 1.296875 0.046875 Z M 1.296875 0.046875 "/></g></g><g transform="translate(55.111319, 161.139514)"><g><path d="M 1.28125 0.046875 C 0.925781 0.046875 0.648438 -0.0546875 0.453125 -0.265625 C 0.265625 -0.472656 0.171875 -0.78125 0.171875 -1.1875 C 0.171875 -1.570312 0.265625 -1.867188 0.453125 -2.078125 C 0.648438 -2.285156 0.925781 -2.390625 1.28125 -2.390625 C 1.625 -2.390625 1.882812 -2.273438 2.0625 -2.046875 C 2.238281 -1.828125 2.328125 -1.503906 2.328125 -1.078125 L 2.328125 -1.0625 L 0.8125 -1.0625 C 0.8125 -0.832031 0.851562 -0.65625 0.9375 -0.53125 C 1.019531 -0.414062 1.140625 -0.359375 1.296875 -0.359375 C 1.515625 -0.359375 1.65625 -0.453125 1.71875 -0.640625 L 2.296875 -0.59375 C 2.128906 -0.164062 1.789062 0.046875 1.28125 0.046875 Z M 1.28125 -2.015625 C 1.132812 -2.015625 1.019531 -1.960938 0.9375 -1.859375 C 0.863281 -1.765625 0.820312 -1.625 0.8125 -1.4375 L 1.734375 -1.4375 C 1.722656 -1.625 1.675781 -1.765625 1.59375 -1.859375 C 1.507812 -1.960938 1.40625 -2.015625 1.28125 -2.015625 Z M 1.28125 -2.015625 "/></g></g></g><g fill="#ffffff" fill-opacity="1"><g transform="translate(16.75261, 165.593457)"><g><path d="M 2.84375 0 L 2.84375 -1.859375 C 2.84375 -1.898438 2.84375 -1.941406 2.84375 -1.984375 C 2.84375 -2.023438 2.847656 -2.207031 2.859375 -2.53125 C 2.753906 -2.132812 2.679688 -1.859375 2.640625 -1.703125 L 2.078125 0 L 1.625 0 L 1.078125 -1.703125 L 0.84375 -2.53125 C 0.863281 -2.1875 0.875 -1.960938 0.875 -1.859375 L 0.875 0 L 0.296875 0 L 0.296875 -3.0625 L 1.15625 -3.0625 L 1.703125 -1.34375 L 1.75 -1.1875 L 1.859375 -0.78125 L 2 -1.265625 L 2.5625 -3.0625 L 3.40625 -3.0625 L 3.40625 0 Z M 2.84375 0 "/></g></g><g transform="translate(20.462779, 165.593457)"><g><path d="M 1.28125 0.046875 C 0.925781 0.046875 0.648438 -0.0546875 0.453125 -0.265625 C 0.265625 -0.472656 0.171875 -0.78125 0.171875 -1.1875 C 0.171875 -1.570312 0.265625 -1.867188 0.453125 -2.078125 C 0.648438 -2.285156 0.925781 -2.390625 1.28125 -2.390625 C 1.625 -2.390625 1.882812 -2.273438 2.0625 -2.046875 C 2.238281 -1.828125 2.328125 -1.503906 2.328125 -1.078125 L 2.328125 -1.0625 L 0.8125 -1.0625 C 0.8125 -0.832031 0.851562 -0.65625 0.9375 -0.53125 C 1.019531 -0.414062 1.140625 -0.359375 1.296875 -0.359375 C 1.515625 -0.359375 1.65625 -0.453125 1.71875 -0.640625 L 2.296875 -0.59375 C 2.128906 -0.164062 1.789062 0.046875 1.28125 0.046875 Z M 1.28125 -2.015625 C 1.132812 -2.015625 1.019531 -1.960938 0.9375 -1.859375 C 0.863281 -1.765625 0.820312 -1.625 0.8125 -1.4375 L 1.734375 -1.4375 C 1.722656 -1.625 1.675781 -1.765625 1.59375 -1.859375 C 1.507812 -1.960938 1.40625 -2.015625 1.28125 -2.015625 Z M 1.28125 -2.015625 "/></g></g><g transform="translate(22.939849, 165.593457)"><g><path d="M 1.28125 0.046875 C 0.925781 0.046875 0.648438 -0.0546875 0.453125 -0.265625 C 0.265625 -0.472656 0.171875 -0.78125 0.171875 -1.1875 C 0.171875 -1.570312 0.265625 -1.867188 0.453125 -2.078125 C 0.648438 -2.285156 0.925781 -2.390625 1.28125 -2.390625 C 1.625 -2.390625 1.882812 -2.273438 2.0625 -2.046875 C 2.238281 -1.828125 2.328125 -1.503906 2.328125 -1.078125 L 2.328125 -1.0625 L 0.8125 -1.0625 C 0.8125 -0.832031 0.851562 -0.65625 0.9375 -0.53125 C 1.019531 -0.414062 1.140625 -0.359375 1.296875 -0.359375 C 1.515625 -0.359375 1.65625 -0.453125 1.71875 -0.640625 L 2.296875 -0.59375 C 2.128906 -0.164062 1.789062 0.046875 1.28125 0.046875 Z M 1.28125 -2.015625 C 1.132812 -2.015625 1.019531 -1.960938 0.9375 -1.859375 C 0.863281 -1.765625 0.820312 -1.625 0.8125 -1.4375 L 1.734375 -1.4375 C 1.722656 -1.625 1.675781 -1.765625 1.59375 -1.859375 C 1.507812 -1.960938 1.40625 -2.015625 1.28125 -2.015625 Z M 1.28125 -2.015625 "/></g></g><g transform="translate(25.41692, 165.593457)"><g><path d="M 0.90625 0.046875 C 0.726562 0.046875 0.59375 0 0.5 -0.09375 C 0.40625 -0.195312 0.359375 -0.347656 0.359375 -0.546875 L 0.359375 -1.9375 L 0.046875 -1.9375 L 0.046875 -2.359375 L 0.375 -2.359375 L 0.578125 -2.90625 L 0.953125 -2.90625 L 0.953125 -2.359375 L 1.40625 -2.359375 L 1.40625 -1.9375 L 0.953125 -1.9375 L 0.953125 -0.71875 C 0.953125 -0.601562 0.972656 -0.515625 1.015625 -0.453125 C 1.066406 -0.398438 1.132812 -0.375 1.21875 -0.375 C 1.269531 -0.375 1.335938 -0.382812 1.421875 -0.40625 L 1.421875 -0.03125 C 1.273438 0.0195312 1.101562 0.046875 0.90625 0.046875 Z M 0.90625 0.046875 "/></g></g><g transform="translate(26.900117, 165.593457)"><g><path d="M 2.296875 -0.6875 C 2.296875 -0.457031 2.203125 -0.273438 2.015625 -0.140625 C 1.828125 -0.015625 1.566406 0.046875 1.234375 0.046875 C 0.910156 0.046875 0.660156 -0.00390625 0.484375 -0.109375 C 0.316406 -0.210938 0.207031 -0.375 0.15625 -0.59375 L 0.6875 -0.671875 C 0.71875 -0.554688 0.769531 -0.472656 0.84375 -0.421875 C 0.925781 -0.378906 1.054688 -0.359375 1.234375 -0.359375 C 1.410156 -0.359375 1.535156 -0.378906 1.609375 -0.421875 C 1.691406 -0.460938 1.734375 -0.53125 1.734375 -0.625 C 1.734375 -0.707031 1.703125 -0.769531 1.640625 -0.8125 C 1.578125 -0.851562 1.46875 -0.890625 1.3125 -0.921875 C 0.96875 -0.992188 0.734375 -1.054688 0.609375 -1.109375 C 0.492188 -1.171875 0.40625 -1.25 0.34375 -1.34375 C 0.28125 -1.4375 0.25 -1.550781 0.25 -1.6875 C 0.25 -1.90625 0.332031 -2.078125 0.5 -2.203125 C 0.675781 -2.328125 0.925781 -2.390625 1.25 -2.390625 C 1.53125 -2.390625 1.753906 -2.335938 1.921875 -2.234375 C 2.085938 -2.128906 2.191406 -1.972656 2.234375 -1.765625 L 1.703125 -1.703125 C 1.679688 -1.796875 1.632812 -1.863281 1.5625 -1.90625 C 1.5 -1.957031 1.394531 -1.984375 1.25 -1.984375 C 1.101562 -1.984375 0.992188 -1.960938 0.921875 -1.921875 C 0.847656 -1.890625 0.8125 -1.832031 0.8125 -1.75 C 0.8125 -1.675781 0.835938 -1.617188 0.890625 -1.578125 C 0.953125 -1.546875 1.046875 -1.515625 1.171875 -1.484375 C 1.359375 -1.453125 1.519531 -1.414062 1.65625 -1.375 C 1.800781 -1.332031 1.914062 -1.28125 2 -1.21875 C 2.09375 -1.164062 2.164062 -1.097656 2.21875 -1.015625 C 2.269531 -0.929688 2.296875 -0.820312 2.296875 -0.6875 Z M 2.296875 -0.6875 "/></g></g><g transform="translate(29.377188, 165.593457)"><g/></g><g transform="translate(30.614636, 165.593457)"><g><path d="M 2.46875 0 L 2.1875 -0.78125 L 1.03125 -0.78125 L 0.75 0 L 0.109375 0 L 1.234375 -3.0625 L 1.984375 -3.0625 L 3.09375 0 Z M 1.609375 -2.59375 L 1.59375 -2.546875 C 1.582031 -2.492188 1.566406 -2.429688 1.546875 -2.359375 C 1.523438 -2.296875 1.398438 -1.929688 1.171875 -1.265625 L 2.046875 -1.265625 L 1.75 -2.140625 L 1.65625 -2.4375 Z M 1.609375 -2.59375 "/></g></g><g transform="translate(33.83113, 165.593457)"><g><path d="M 0.3125 0 L 0.3125 -1.796875 C 0.3125 -1.929688 0.304688 -2.039062 0.296875 -2.125 C 0.296875 -2.207031 0.296875 -2.285156 0.296875 -2.359375 L 0.875 -2.359375 C 0.875 -2.328125 0.878906 -2.242188 0.890625 -2.109375 C 0.898438 -1.984375 0.90625 -1.894531 0.90625 -1.84375 C 0.96875 -2.007812 1.019531 -2.125 1.0625 -2.1875 C 1.113281 -2.257812 1.171875 -2.3125 1.234375 -2.34375 C 1.296875 -2.375 1.375 -2.390625 1.46875 -2.390625 C 1.550781 -2.390625 1.617188 -2.378906 1.671875 -2.359375 L 1.671875 -1.859375 C 1.566406 -1.878906 1.476562 -1.890625 1.40625 -1.890625 C 1.25 -1.890625 1.128906 -1.828125 1.046875 -1.703125 C 0.960938 -1.578125 0.921875 -1.394531 0.921875 -1.15625 L 0.921875 0 Z M 0.3125 0 "/></g></g><g transform="translate(35.564427, 165.593457)"><g><path d="M 0.90625 0.046875 C 0.726562 0.046875 0.59375 0 0.5 -0.09375 C 0.40625 -0.195312 0.359375 -0.347656 0.359375 -0.546875 L 0.359375 -1.9375 L 0.046875 -1.9375 L 0.046875 -2.359375 L 0.375 -2.359375 L 0.578125 -2.90625 L 0.953125 -2.90625 L 0.953125 -2.359375 L 1.40625 -2.359375 L 1.40625 -1.9375 L 0.953125 -1.9375 L 0.953125 -0.71875 C 0.953125 -0.601562 0.972656 -0.515625 1.015625 -0.453125 C 1.066406 -0.398438 1.132812 -0.375 1.21875 -0.375 C 1.269531 -0.375 1.335938 -0.382812 1.421875 -0.40625 L 1.421875 -0.03125 C 1.273438 0.0195312 1.101562 0.046875 0.90625 0.046875 Z M 0.90625 0.046875 "/></g></g><g transform="translate(37.047625, 165.593457)"><g><path d="M 0.3125 -2.78125 L 0.3125 -3.234375 L 0.921875 -3.234375 L 0.921875 -2.78125 Z M 0.3125 0 L 0.3125 -2.359375 L 0.921875 -2.359375 L 0.921875 0 Z M 0.3125 0 "/></g></g><g transform="translate(38.285073, 165.593457)"><g><path d="M 1.03125 -1.9375 L 1.03125 0 L 0.421875 0 L 0.421875 -1.9375 L 0.078125 -1.9375 L 0.078125 -2.359375 L 0.421875 -2.359375 L 0.421875 -2.59375 C 0.421875 -2.8125 0.476562 -2.972656 0.59375 -3.078125 C 0.707031 -3.179688 0.878906 -3.234375 1.109375 -3.234375 C 1.222656 -3.234375 1.347656 -3.21875 1.484375 -3.1875 L 1.484375 -2.796875 C 1.429688 -2.804688 1.375 -2.8125 1.3125 -2.8125 C 1.207031 -2.8125 1.132812 -2.789062 1.09375 -2.75 C 1.050781 -2.707031 1.03125 -2.632812 1.03125 -2.53125 L 1.03125 -2.359375 L 1.484375 -2.359375 L 1.484375 -1.9375 Z M 1.03125 -1.9375 "/></g></g><g transform="translate(39.76827, 165.593457)"><g><path d="M 0.3125 -2.78125 L 0.3125 -3.234375 L 0.921875 -3.234375 L 0.921875 -2.78125 Z M 0.3125 0 L 0.3125 -2.359375 L 0.921875 -2.359375 L 0.921875 0 Z M 0.3125 0 "/></g></g><g transform="translate(41.005718, 165.593457)"><g><path d="M 1.296875 0.046875 C 0.929688 0.046875 0.648438 -0.0546875 0.453125 -0.265625 C 0.265625 -0.484375 0.171875 -0.78125 0.171875 -1.15625 C 0.171875 -1.550781 0.269531 -1.851562 0.46875 -2.0625 C 0.664062 -2.28125 0.941406 -2.390625 1.296875 -2.390625 C 1.578125 -2.390625 1.804688 -2.320312 1.984375 -2.1875 C 2.171875 -2.050781 2.285156 -1.859375 2.328125 -1.609375 L 1.71875 -1.578125 C 1.695312 -1.703125 1.648438 -1.796875 1.578125 -1.859375 C 1.515625 -1.929688 1.414062 -1.96875 1.28125 -1.96875 C 0.96875 -1.96875 0.8125 -1.707031 0.8125 -1.1875 C 0.8125 -0.644531 0.972656 -0.375 1.296875 -0.375 C 1.410156 -0.375 1.503906 -0.410156 1.578125 -0.484375 C 1.660156 -0.554688 1.710938 -0.664062 1.734375 -0.8125 L 2.34375 -0.78125 C 2.320312 -0.625 2.265625 -0.476562 2.171875 -0.34375 C 2.078125 -0.21875 1.953125 -0.117188 1.796875 -0.046875 C 1.648438 0.015625 1.484375 0.046875 1.296875 0.046875 Z M 1.296875 0.046875 "/></g></g><g transform="translate(43.482788, 165.593457)"><g><path d="M 0.3125 -2.78125 L 0.3125 -3.234375 L 0.921875 -3.234375 L 0.921875 -2.78125 Z M 0.3125 0 L 0.3125 -2.359375 L 0.921875 -2.359375 L 0.921875 0 Z M 0.3125 0 "/></g></g><g transform="translate(44.720236, 165.593457)"><g><path d="M 0.859375 0.046875 C 0.628906 0.046875 0.445312 -0.015625 0.3125 -0.140625 C 0.1875 -0.265625 0.125 -0.441406 0.125 -0.671875 C 0.125 -0.910156 0.203125 -1.09375 0.359375 -1.21875 C 0.523438 -1.34375 0.757812 -1.410156 1.0625 -1.421875 L 1.5625 -1.421875 L 1.5625 -1.546875 C 1.5625 -1.703125 1.535156 -1.816406 1.484375 -1.890625 C 1.429688 -1.960938 1.34375 -2 1.21875 -2 C 1.101562 -2 1.019531 -1.972656 0.96875 -1.921875 C 0.914062 -1.867188 0.882812 -1.785156 0.875 -1.671875 L 0.234375 -1.703125 C 0.273438 -1.929688 0.378906 -2.101562 0.546875 -2.21875 C 0.722656 -2.332031 0.957031 -2.390625 1.25 -2.390625 C 1.539062 -2.390625 1.765625 -2.316406 1.921875 -2.171875 C 2.085938 -2.023438 2.171875 -1.816406 2.171875 -1.546875 L 2.171875 -0.703125 C 2.171875 -0.566406 2.1875 -0.472656 2.21875 -0.421875 C 2.25 -0.367188 2.300781 -0.34375 2.375 -0.34375 C 2.414062 -0.34375 2.457031 -0.347656 2.5 -0.359375 L 2.5 -0.03125 C 2.46875 -0.0195312 2.4375 -0.0078125 2.40625 0 C 2.375 0 2.34375 0 2.3125 0 C 2.289062 0.0078125 2.257812 0.015625 2.21875 0.015625 C 2.1875 0.0234375 2.148438 0.03125 2.109375 0.03125 C 1.960938 0.03125 1.847656 -0.00390625 1.765625 -0.078125 C 1.691406 -0.160156 1.648438 -0.273438 1.640625 -0.421875 L 1.625 -0.421875 C 1.457031 -0.109375 1.203125 0.046875 0.859375 0.046875 Z M 1.5625 -1.09375 L 1.25 -1.078125 C 1.113281 -1.078125 1.015625 -1.0625 0.953125 -1.03125 C 0.890625 -1.007812 0.84375 -0.972656 0.8125 -0.921875 C 0.78125 -0.867188 0.765625 -0.800781 0.765625 -0.71875 C 0.765625 -0.601562 0.789062 -0.515625 0.84375 -0.453125 C 0.894531 -0.398438 0.960938 -0.375 1.046875 -0.375 C 1.140625 -0.375 1.226562 -0.398438 1.3125 -0.453125 C 1.394531 -0.515625 1.457031 -0.585938 1.5 -0.671875 C 1.539062 -0.765625 1.5625 -0.863281 1.5625 -0.96875 Z M 1.5625 -1.09375 "/></g></g><g transform="translate(47.197307, 165.593457)"><g><path d="M 0.3125 0 L 0.3125 -3.234375 L 0.921875 -3.234375 L 0.921875 0 Z M 0.3125 0 "/></g></g></g><g fill="#ffffff" fill-opacity="1"><g transform="translate(16.75261, 170.047399)"><g><path d="M 0.296875 0 L 0.296875 -3.0625 L 0.9375 -3.0625 L 0.9375 -0.5 L 2.578125 -0.5 L 2.578125 0 Z M 0.296875 0 "/></g></g><g transform="translate(19.473255, 170.047399)"><g><path d="M 1.28125 0.046875 C 0.925781 0.046875 0.648438 -0.0546875 0.453125 -0.265625 C 0.265625 -0.472656 0.171875 -0.78125 0.171875 -1.1875 C 0.171875 -1.570312 0.265625 -1.867188 0.453125 -2.078125 C 0.648438 -2.285156 0.925781 -2.390625 1.28125 -2.390625 C 1.625 -2.390625 1.882812 -2.273438 2.0625 -2.046875 C 2.238281 -1.828125 2.328125 -1.503906 2.328125 -1.078125 L 2.328125 -1.0625 L 0.8125 -1.0625 C 0.8125 -0.832031 0.851562 -0.65625 0.9375 -0.53125 C 1.019531 -0.414062 1.140625 -0.359375 1.296875 -0.359375 C 1.515625 -0.359375 1.65625 -0.453125 1.71875 -0.640625 L 2.296875 -0.59375 C 2.128906 -0.164062 1.789062 0.046875 1.28125 0.046875 Z M 1.28125 -2.015625 C 1.132812 -2.015625 1.019531 -1.960938 0.9375 -1.859375 C 0.863281 -1.765625 0.820312 -1.625 0.8125 -1.4375 L 1.734375 -1.4375 C 1.722656 -1.625 1.675781 -1.765625 1.59375 -1.859375 C 1.507812 -1.960938 1.40625 -2.015625 1.28125 -2.015625 Z M 1.28125 -2.015625 "/></g></g><g transform="translate(21.950326, 170.047399)"><g><path d="M 0.859375 0.046875 C 0.628906 0.046875 0.445312 -0.015625 0.3125 -0.140625 C 0.1875 -0.265625 0.125 -0.441406 0.125 -0.671875 C 0.125 -0.910156 0.203125 -1.09375 0.359375 -1.21875 C 0.523438 -1.34375 0.757812 -1.410156 1.0625 -1.421875 L 1.5625 -1.421875 L 1.5625 -1.546875 C 1.5625 -1.703125 1.535156 -1.816406 1.484375 -1.890625 C 1.429688 -1.960938 1.34375 -2 1.21875 -2 C 1.101562 -2 1.019531 -1.972656 0.96875 -1.921875 C 0.914062 -1.867188 0.882812 -1.785156 0.875 -1.671875 L 0.234375 -1.703125 C 0.273438 -1.929688 0.378906 -2.101562 0.546875 -2.21875 C 0.722656 -2.332031 0.957031 -2.390625 1.25 -2.390625 C 1.539062 -2.390625 1.765625 -2.316406 1.921875 -2.171875 C 2.085938 -2.023438 2.171875 -1.816406 2.171875 -1.546875 L 2.171875 -0.703125 C 2.171875 -0.566406 2.1875 -0.472656 2.21875 -0.421875 C 2.25 -0.367188 2.300781 -0.34375 2.375 -0.34375 C 2.414062 -0.34375 2.457031 -0.347656 2.5 -0.359375 L 2.5 -0.03125 C 2.46875 -0.0195312 2.4375 -0.0078125 2.40625 0 C 2.375 0 2.34375 0 2.3125 0 C 2.289062 0.0078125 2.257812 0.015625 2.21875 0.015625 C 2.1875 0.0234375 2.148438 0.03125 2.109375 0.03125 C 1.960938 0.03125 1.847656 -0.00390625 1.765625 -0.078125 C 1.691406 -0.160156 1.648438 -0.273438 1.640625 -0.421875 L 1.625 -0.421875 C 1.457031 -0.109375 1.203125 0.046875 0.859375 0.046875 Z M 1.5625 -1.09375 L 1.25 -1.078125 C 1.113281 -1.078125 1.015625 -1.0625 0.953125 -1.03125 C 0.890625 -1.007812 0.84375 -0.972656 0.8125 -0.921875 C 0.78125 -0.867188 0.765625 -0.800781 0.765625 -0.71875 C 0.765625 -0.601562 0.789062 -0.515625 0.84375 -0.453125 C 0.894531 -0.398438 0.960938 -0.375 1.046875 -0.375 C 1.140625 -0.375 1.226562 -0.398438 1.3125 -0.453125 C 1.394531 -0.515625 1.457031 -0.585938 1.5 -0.671875 C 1.539062 -0.765625 1.5625 -0.863281 1.5625 -0.96875 Z M 1.5625 -1.09375 "/></g></g><g transform="translate(24.427396, 170.047399)"><g><path d="M 0.3125 0 L 0.3125 -1.796875 C 0.3125 -1.929688 0.304688 -2.039062 0.296875 -2.125 C 0.296875 -2.207031 0.296875 -2.285156 0.296875 -2.359375 L 0.875 -2.359375 C 0.875 -2.328125 0.878906 -2.242188 0.890625 -2.109375 C 0.898438 -1.984375 0.90625 -1.894531 0.90625 -1.84375 C 0.96875 -2.007812 1.019531 -2.125 1.0625 -2.1875 C 1.113281 -2.257812 1.171875 -2.3125 1.234375 -2.34375 C 1.296875 -2.375 1.375 -2.390625 1.46875 -2.390625 C 1.550781 -2.390625 1.617188 -2.378906 1.671875 -2.359375 L 1.671875 -1.859375 C 1.566406 -1.878906 1.476562 -1.890625 1.40625 -1.890625 C 1.25 -1.890625 1.128906 -1.828125 1.046875 -1.703125 C 0.960938 -1.578125 0.921875 -1.394531 0.921875 -1.15625 L 0.921875 0 Z M 0.3125 0 "/></g></g><g transform="translate(26.160693, 170.047399)"><g><path d="M 1.828125 0 L 1.828125 -1.3125 C 1.828125 -1.726562 1.691406 -1.9375 1.421875 -1.9375 C 1.265625 -1.9375 1.140625 -1.875 1.046875 -1.75 C 0.960938 -1.625 0.921875 -1.460938 0.921875 -1.265625 L 0.921875 0 L 0.3125 0 L 0.3125 -1.828125 C 0.3125 -1.953125 0.304688 -2.050781 0.296875 -2.125 C 0.296875 -2.207031 0.296875 -2.285156 0.296875 -2.359375 L 0.875 -2.359375 C 0.875 -2.328125 0.878906 -2.25 0.890625 -2.125 C 0.898438 -2.007812 0.90625 -1.929688 0.90625 -1.890625 C 0.988281 -2.066406 1.09375 -2.191406 1.21875 -2.265625 C 1.34375 -2.347656 1.492188 -2.390625 1.671875 -2.390625 C 1.921875 -2.390625 2.109375 -2.3125 2.234375 -2.15625 C 2.367188 -2.007812 2.4375 -1.789062 2.4375 -1.5 L 2.4375 0 Z M 1.828125 0 "/></g></g><g transform="translate(28.881339, 170.047399)"><g><path d="M 0.3125 -2.78125 L 0.3125 -3.234375 L 0.921875 -3.234375 L 0.921875 -2.78125 Z M 0.3125 0 L 0.3125 -2.359375 L 0.921875 -2.359375 L 0.921875 0 Z M 0.3125 0 "/></g></g><g transform="translate(30.118787, 170.047399)"><g><path d="M 1.828125 0 L 1.828125 -1.3125 C 1.828125 -1.726562 1.691406 -1.9375 1.421875 -1.9375 C 1.265625 -1.9375 1.140625 -1.875 1.046875 -1.75 C 0.960938 -1.625 0.921875 -1.460938 0.921875 -1.265625 L 0.921875 0 L 0.3125 0 L 0.3125 -1.828125 C 0.3125 -1.953125 0.304688 -2.050781 0.296875 -2.125 C 0.296875 -2.207031 0.296875 -2.285156 0.296875 -2.359375 L 0.875 -2.359375 C 0.875 -2.328125 0.878906 -2.25 0.890625 -2.125 C 0.898438 -2.007812 0.90625 -1.929688 0.90625 -1.890625 C 0.988281 -2.066406 1.09375 -2.191406 1.21875 -2.265625 C 1.34375 -2.347656 1.492188 -2.390625 1.671875 -2.390625 C 1.921875 -2.390625 2.109375 -2.3125 2.234375 -2.15625 C 2.367188 -2.007812 2.4375 -1.789062 2.4375 -1.5 L 2.4375 0 Z M 1.828125 0 "/></g></g><g transform="translate(32.839432, 170.047399)"><g><path d="M 1.296875 0.9375 C 1.003906 0.9375 0.769531 0.878906 0.59375 0.765625 C 0.425781 0.660156 0.320312 0.507812 0.28125 0.3125 L 0.890625 0.234375 C 0.910156 0.328125 0.957031 0.398438 1.03125 0.453125 C 1.101562 0.515625 1.195312 0.546875 1.3125 0.546875 C 1.476562 0.546875 1.597656 0.492188 1.671875 0.390625 C 1.753906 0.285156 1.796875 0.128906 1.796875 -0.078125 L 1.796875 -0.203125 L 1.8125 -0.4375 L 1.796875 -0.4375 C 1.660156 -0.144531 1.410156 0 1.046875 0 C 0.773438 0 0.5625 -0.101562 0.40625 -0.3125 C 0.257812 -0.519531 0.1875 -0.816406 0.1875 -1.203125 C 0.1875 -1.578125 0.257812 -1.867188 0.40625 -2.078125 C 0.5625 -2.285156 0.789062 -2.390625 1.09375 -2.390625 C 1.4375 -2.390625 1.671875 -2.25 1.796875 -1.96875 L 1.8125 -1.96875 C 1.8125 -2.019531 1.8125 -2.085938 1.8125 -2.171875 C 1.820312 -2.265625 1.832031 -2.328125 1.84375 -2.359375 L 2.421875 -2.359375 C 2.410156 -2.203125 2.40625 -2.019531 2.40625 -1.8125 L 2.40625 -0.078125 C 2.40625 0.265625 2.3125 0.519531 2.125 0.6875 C 1.9375 0.851562 1.660156 0.9375 1.296875 0.9375 Z M 1.8125 -1.203125 C 1.8125 -1.453125 1.765625 -1.644531 1.671875 -1.78125 C 1.585938 -1.914062 1.46875 -1.984375 1.3125 -1.984375 C 0.976562 -1.984375 0.8125 -1.722656 0.8125 -1.203125 C 0.8125 -0.679688 0.972656 -0.421875 1.296875 -0.421875 C 1.460938 -0.421875 1.585938 -0.488281 1.671875 -0.625 C 1.765625 -0.757812 1.8125 -0.953125 1.8125 -1.203125 Z M 1.8125 -1.203125 "/></g></g><g transform="translate(35.560077, 170.047399)"><g/></g><g transform="translate(36.797525, 170.047399)"><g><path d="M 0.3125 -2.78125 L 0.3125 -3.234375 L 0.921875 -3.234375 L 0.921875 -2.78125 Z M 0.3125 0 L 0.3125 -2.359375 L 0.921875 -2.359375 L 0.921875 0 Z M 0.3125 0 "/></g></g><g transform="translate(38.034973, 170.047399)"><g><path d="M 1.828125 0 L 1.828125 -1.3125 C 1.828125 -1.726562 1.691406 -1.9375 1.421875 -1.9375 C 1.265625 -1.9375 1.140625 -1.875 1.046875 -1.75 C 0.960938 -1.625 0.921875 -1.460938 0.921875 -1.265625 L 0.921875 0 L 0.3125 0 L 0.3125 -1.828125 C 0.3125 -1.953125 0.304688 -2.050781 0.296875 -2.125 C 0.296875 -2.207031 0.296875 -2.285156 0.296875 -2.359375 L 0.875 -2.359375 C 0.875 -2.328125 0.878906 -2.25 0.890625 -2.125 C 0.898438 -2.007812 0.90625 -1.929688 0.90625 -1.890625 C 0.988281 -2.066406 1.09375 -2.191406 1.21875 -2.265625 C 1.34375 -2.347656 1.492188 -2.390625 1.671875 -2.390625 C 1.921875 -2.390625 2.109375 -2.3125 2.234375 -2.15625 C 2.367188 -2.007812 2.4375 -1.789062 2.4375 -1.5 L 2.4375 0 Z M 1.828125 0 "/></g></g><g transform="translate(40.755619, 170.047399)"><g><path d="M 0.90625 0.046875 C 0.726562 0.046875 0.59375 0 0.5 -0.09375 C 0.40625 -0.195312 0.359375 -0.347656 0.359375 -0.546875 L 0.359375 -1.9375 L 0.046875 -1.9375 L 0.046875 -2.359375 L 0.375 -2.359375 L 0.578125 -2.90625 L 0.953125 -2.90625 L 0.953125 -2.359375 L 1.40625 -2.359375 L 1.40625 -1.9375 L 0.953125 -1.9375 L 0.953125 -0.71875 C 0.953125 -0.601562 0.972656 -0.515625 1.015625 -0.453125 C 1.066406 -0.398438 1.132812 -0.375 1.21875 -0.375 C 1.269531 -0.375 1.335938 -0.382812 1.421875 -0.40625 L 1.421875 -0.03125 C 1.273438 0.0195312 1.101562 0.046875 0.90625 0.046875 Z M 0.90625 0.046875 "/></g></g><g transform="translate(42.238816, 170.047399)"><g><path d="M 1.28125 0.046875 C 0.925781 0.046875 0.648438 -0.0546875 0.453125 -0.265625 C 0.265625 -0.472656 0.171875 -0.78125 0.171875 -1.1875 C 0.171875 -1.570312 0.265625 -1.867188 0.453125 -2.078125 C 0.648438 -2.285156 0.925781 -2.390625 1.28125 -2.390625 C 1.625 -2.390625 1.882812 -2.273438 2.0625 -2.046875 C 2.238281 -1.828125 2.328125 -1.503906 2.328125 -1.078125 L 2.328125 -1.0625 L 0.8125 -1.0625 C 0.8125 -0.832031 0.851562 -0.65625 0.9375 -0.53125 C 1.019531 -0.414062 1.140625 -0.359375 1.296875 -0.359375 C 1.515625 -0.359375 1.65625 -0.453125 1.71875 -0.640625 L 2.296875 -0.59375 C 2.128906 -0.164062 1.789062 0.046875 1.28125 0.046875 Z M 1.28125 -2.015625 C 1.132812 -2.015625 1.019531 -1.960938 0.9375 -1.859375 C 0.863281 -1.765625 0.820312 -1.625 0.8125 -1.4375 L 1.734375 -1.4375 C 1.722656 -1.625 1.675781 -1.765625 1.59375 -1.859375 C 1.507812 -1.960938 1.40625 -2.015625 1.28125 -2.015625 Z M 1.28125 -2.015625 "/></g></g><g transform="translate(44.715887, 170.047399)"><g><path d="M 0.3125 0 L 0.3125 -3.234375 L 0.921875 -3.234375 L 0.921875 0 Z M 0.3125 0 "/></g></g><g transform="translate(45.953335, 170.047399)"><g><path d="M 0.3125 0 L 0.3125 -3.234375 L 0.921875 -3.234375 L 0.921875 0 Z M 0.3125 0 "/></g></g><g transform="translate(47.190782, 170.047399)"><g><path d="M 0.3125 -2.78125 L 0.3125 -3.234375 L 0.921875 -3.234375 L 0.921875 -2.78125 Z M 0.3125 0 L 0.3125 -2.359375 L 0.921875 -2.359375 L 0.921875 0 Z M 0.3125 0 "/></g></g><g transform="translate(48.42823, 170.047399)"><g><path d="M 1.296875 0.9375 C 1.003906 0.9375 0.769531 0.878906 0.59375 0.765625 C 0.425781 0.660156 0.320312 0.507812 0.28125 0.3125 L 0.890625 0.234375 C 0.910156 0.328125 0.957031 0.398438 1.03125 0.453125 C 1.101562 0.515625 1.195312 0.546875 1.3125 0.546875 C 1.476562 0.546875 1.597656 0.492188 1.671875 0.390625 C 1.753906 0.285156 1.796875 0.128906 1.796875 -0.078125 L 1.796875 -0.203125 L 1.8125 -0.4375 L 1.796875 -0.4375 C 1.660156 -0.144531 1.410156 0 1.046875 0 C 0.773438 0 0.5625 -0.101562 0.40625 -0.3125 C 0.257812 -0.519531 0.1875 -0.816406 0.1875 -1.203125 C 0.1875 -1.578125 0.257812 -1.867188 0.40625 -2.078125 C 0.5625 -2.285156 0.789062 -2.390625 1.09375 -2.390625 C 1.4375 -2.390625 1.671875 -2.25 1.796875 -1.96875 L 1.8125 -1.96875 C 1.8125 -2.019531 1.8125 -2.085938 1.8125 -2.171875 C 1.820312 -2.265625 1.832031 -2.328125 1.84375 -2.359375 L 2.421875 -2.359375 C 2.410156 -2.203125 2.40625 -2.019531 2.40625 -1.8125 L 2.40625 -0.078125 C 2.40625 0.265625 2.3125 0.519531 2.125 0.6875 C 1.9375 0.851562 1.660156 0.9375 1.296875 0.9375 Z M 1.8125 -1.203125 C 1.8125 -1.453125 1.765625 -1.644531 1.671875 -1.78125 C 1.585938 -1.914062 1.46875 -1.984375 1.3125 -1.984375 C 0.976562 -1.984375 0.8125 -1.722656 0.8125 -1.203125 C 0.8125 -0.679688 0.972656 -0.421875 1.296875 -0.421875 C 1.460938 -0.421875 1.585938 -0.488281 1.671875 -0.625 C 1.765625 -0.757812 1.8125 -0.953125 1.8125 -1.203125 Z M 1.8125 -1.203125 "/></g></g><g transform="translate(51.148876, 170.047399)"><g><path d="M 1.28125 0.046875 C 0.925781 0.046875 0.648438 -0.0546875 0.453125 -0.265625 C 0.265625 -0.472656 0.171875 -0.78125 0.171875 -1.1875 C 0.171875 -1.570312 0.265625 -1.867188 0.453125 -2.078125 C 0.648438 -2.285156 0.925781 -2.390625 1.28125 -2.390625 C 1.625 -2.390625 1.882812 -2.273438 2.0625 -2.046875 C 2.238281 -1.828125 2.328125 -1.503906 2.328125 -1.078125 L 2.328125 -1.0625 L 0.8125 -1.0625 C 0.8125 -0.832031 0.851562 -0.65625 0.9375 -0.53125 C 1.019531 -0.414062 1.140625 -0.359375 1.296875 -0.359375 C 1.515625 -0.359375 1.65625 -0.453125 1.71875 -0.640625 L 2.296875 -0.59375 C 2.128906 -0.164062 1.789062 0.046875 1.28125 0.046875 Z M 1.28125 -2.015625 C 1.132812 -2.015625 1.019531 -1.960938 0.9375 -1.859375 C 0.863281 -1.765625 0.820312 -1.625 0.8125 -1.4375 L 1.734375 -1.4375 C 1.722656 -1.625 1.675781 -1.765625 1.59375 -1.859375 C 1.507812 -1.960938 1.40625 -2.015625 1.28125 -2.015625 Z M 1.28125 -2.015625 "/></g></g><g transform="translate(53.625946, 170.047399)"><g><path d="M 1.828125 0 L 1.828125 -1.3125 C 1.828125 -1.726562 1.691406 -1.9375 1.421875 -1.9375 C 1.265625 -1.9375 1.140625 -1.875 1.046875 -1.75 C 0.960938 -1.625 0.921875 -1.460938 0.921875 -1.265625 L 0.921875 0 L 0.3125 0 L 0.3125 -1.828125 C 0.3125 -1.953125 0.304688 -2.050781 0.296875 -2.125 C 0.296875 -2.207031 0.296875 -2.285156 0.296875 -2.359375 L 0.875 -2.359375 C 0.875 -2.328125 0.878906 -2.25 0.890625 -2.125 C 0.898438 -2.007812 0.90625 -1.929688 0.90625 -1.890625 C 0.988281 -2.066406 1.09375 -2.191406 1.21875 -2.265625 C 1.34375 -2.347656 1.492188 -2.390625 1.671875 -2.390625 C 1.921875 -2.390625 2.109375 -2.3125 2.234375 -2.15625 C 2.367188 -2.007812 2.4375 -1.789062 2.4375 -1.5 L 2.4375 0 Z M 1.828125 0 "/></g></g><g transform="translate(56.346592, 170.047399)"><g><path d="M 1.296875 0.046875 C 0.929688 0.046875 0.648438 -0.0546875 0.453125 -0.265625 C 0.265625 -0.484375 0.171875 -0.78125 0.171875 -1.15625 C 0.171875 -1.550781 0.269531 -1.851562 0.46875 -2.0625 C 0.664062 -2.28125 0.941406 -2.390625 1.296875 -2.390625 C 1.578125 -2.390625 1.804688 -2.320312 1.984375 -2.1875 C 2.171875 -2.050781 2.285156 -1.859375 2.328125 -1.609375 L 1.71875 -1.578125 C 1.695312 -1.703125 1.648438 -1.796875 1.578125 -1.859375 C 1.515625 -1.929688 1.414062 -1.96875 1.28125 -1.96875 C 0.96875 -1.96875 0.8125 -1.707031 0.8125 -1.1875 C 0.8125 -0.644531 0.972656 -0.375 1.296875 -0.375 C 1.410156 -0.375 1.503906 -0.410156 1.578125 -0.484375 C 1.660156 -0.554688 1.710938 -0.664062 1.734375 -0.8125 L 2.34375 -0.78125 C 2.320312 -0.625 2.265625 -0.476562 2.171875 -0.34375 C 2.078125 -0.21875 1.953125 -0.117188 1.796875 -0.046875 C 1.648438 0.015625 1.484375 0.046875 1.296875 0.046875 Z M 1.296875 0.046875 "/></g></g><g transform="translate(58.823662, 170.047399)"><g><path d="M 1.28125 0.046875 C 0.925781 0.046875 0.648438 -0.0546875 0.453125 -0.265625 C 0.265625 -0.472656 0.171875 -0.78125 0.171875 -1.1875 C 0.171875 -1.570312 0.265625 -1.867188 0.453125 -2.078125 C 0.648438 -2.285156 0.925781 -2.390625 1.28125 -2.390625 C 1.625 -2.390625 1.882812 -2.273438 2.0625 -2.046875 C 2.238281 -1.828125 2.328125 -1.503906 2.328125 -1.078125 L 2.328125 -1.0625 L 0.8125 -1.0625 C 0.8125 -0.832031 0.851562 -0.65625 0.9375 -0.53125 C 1.019531 -0.414062 1.140625 -0.359375 1.296875 -0.359375 C 1.515625 -0.359375 1.65625 -0.453125 1.71875 -0.640625 L 2.296875 -0.59375 C 2.128906 -0.164062 1.789062 0.046875 1.28125 0.046875 Z M 1.28125 -2.015625 C 1.132812 -2.015625 1.019531 -1.960938 0.9375 -1.859375 C 0.863281 -1.765625 0.820312 -1.625 0.8125 -1.4375 L 1.734375 -1.4375 C 1.722656 -1.625 1.675781 -1.765625 1.59375 -1.859375 C 1.507812 -1.960938 1.40625 -2.015625 1.28125 -2.015625 Z M 1.28125 -2.015625 "/></g></g></g><g fill="#000000" fill-opacity="1"><g transform="translate(141.413487, 119.32713)"><g><path d="M 10.4375 -21.796875 C 13.664062 -21.796875 16.5 -21 18.9375 -19.40625 L 16.875 -15.125 C 15.75 -15.78125 14.535156 -16.316406 13.234375 -16.734375 C 11.941406 -17.160156 10.859375 -17.375 9.984375 -17.375 C 8.398438 -17.375 7.609375 -16.847656 7.609375 -15.796875 C 7.609375 -15.117188 8 -14.570312 8.78125 -14.15625 C 9.5625 -13.75 10.507812 -13.394531 11.625 -13.09375 C 12.738281 -12.800781 13.851562 -12.441406 14.96875 -12.015625 C 16.09375 -11.597656 17.046875 -10.914062 17.828125 -9.96875 C 18.609375 -9.03125 19 -7.84375 19 -6.40625 C 19 -4.332031 18.1875 -2.710938 16.5625 -1.546875 C 14.945312 -0.390625 12.882812 0.1875 10.375 0.1875 C 8.59375 0.1875 6.828125 -0.117188 5.078125 -0.734375 C 3.335938 -1.347656 1.820312 -2.191406 0.53125 -3.265625 L 2.65625 -7.484375 C 3.738281 -6.535156 5.019531 -5.757812 6.5 -5.15625 C 7.976562 -4.550781 9.289062 -4.25 10.4375 -4.25 C 11.320312 -4.25 12.007812 -4.40625 12.5 -4.71875 C 13 -5.039062 13.25 -5.507812 13.25 -6.125 C 13.25 -6.71875 12.960938 -7.210938 12.390625 -7.609375 C 11.828125 -8.015625 11.125 -8.316406 10.28125 -8.515625 C 9.445312 -8.710938 8.535156 -8.972656 7.546875 -9.296875 C 6.554688 -9.628906 5.640625 -9.988281 4.796875 -10.375 C 3.960938 -10.769531 3.257812 -11.390625 2.6875 -12.234375 C 2.125 -13.085938 1.84375 -14.113281 1.84375 -15.3125 C 1.84375 -17.28125 2.628906 -18.851562 4.203125 -20.03125 C 5.773438 -21.207031 7.851562 -21.796875 10.4375 -21.796875 Z M 10.4375 -21.796875 "/></g></g></g><g fill="#000000" fill-opacity="1"><g transform="translate(161.245144, 119.32713)"><g><path d="M 9.359375 -16.78125 C 11.003906 -16.78125 12.46875 -16.457031 13.75 -15.8125 C 15.03125 -15.164062 16.03125 -14.25 16.75 -13.0625 L 12.9375 -10.75 C 12.113281 -11.894531 10.992188 -12.46875 9.578125 -12.46875 C 8.546875 -12.46875 7.707031 -12.082031 7.0625 -11.3125 C 6.414062 -10.539062 6.09375 -9.53125 6.09375 -8.28125 C 6.09375 -7.007812 6.410156 -5.988281 7.046875 -5.21875 C 7.679688 -4.445312 8.523438 -4.0625 9.578125 -4.0625 C 11.140625 -4.0625 12.269531 -4.6875 12.96875 -5.9375 L 16.84375 -3.671875 C 16.164062 -2.429688 15.175781 -1.476562 13.875 -0.8125 C 12.570312 -0.144531 11.046875 0.1875 9.296875 0.1875 C 6.734375 0.1875 4.664062 -0.585938 3.09375 -2.140625 C 1.519531 -3.691406 0.734375 -5.726562 0.734375 -8.25 C 0.734375 -10.800781 1.53125 -12.859375 3.125 -14.421875 C 4.71875 -15.992188 6.796875 -16.78125 9.359375 -16.78125 Z M 9.359375 -16.78125 "/></g></g></g><g fill="#000000" fill-opacity="1"><g transform="translate(178.551669, 119.32713)"><g><path d="M 13.1875 -16.84375 C 15.007812 -16.84375 16.472656 -16.257812 17.578125 -15.09375 C 18.691406 -13.9375 19.25 -12.394531 19.25 -10.46875 L 19.25 0 L 13.921875 0 L 13.921875 -9 C 13.921875 -9.957031 13.65625 -10.71875 13.125 -11.28125 C 12.601562 -11.851562 11.894531 -12.140625 11 -12.140625 C 9.96875 -12.140625 9.144531 -11.769531 8.53125 -11.03125 C 7.914062 -10.289062 7.609375 -9.34375 7.609375 -8.1875 L 7.609375 0 L 2.28125 0 L 2.28125 -22.84375 L 7.609375 -22.84375 L 7.609375 -13.859375 C 8.773438 -15.804688 10.632812 -16.800781 13.1875 -16.84375 Z M 13.1875 -16.84375 "/></g></g></g><g fill="#000000" fill-opacity="1"><g transform="translate(199.43035, 119.32713)"><g><path d="M 9.828125 -16.78125 C 12.535156 -16.78125 14.71875 -16.003906 16.375 -14.453125 C 18.039062 -12.910156 18.875 -10.863281 18.875 -8.3125 C 18.875 -5.769531 18.039062 -3.71875 16.375 -2.15625 C 14.71875 -0.59375 12.535156 0.1875 9.828125 0.1875 C 7.097656 0.1875 4.898438 -0.59375 3.234375 -2.15625 C 1.566406 -3.71875 0.734375 -5.769531 0.734375 -8.3125 C 0.734375 -10.863281 1.566406 -12.910156 3.234375 -14.453125 C 4.898438 -16.003906 7.097656 -16.78125 9.828125 -16.78125 Z M 9.828125 -12.5625 C 8.710938 -12.5625 7.8125 -12.160156 7.125 -11.359375 C 6.4375 -10.554688 6.09375 -9.519531 6.09375 -8.25 C 6.09375 -6.957031 6.4375 -5.914062 7.125 -5.125 C 7.8125 -4.332031 8.710938 -3.9375 9.828125 -3.9375 C 10.910156 -3.9375 11.796875 -4.332031 12.484375 -5.125 C 13.171875 -5.914062 13.515625 -6.957031 13.515625 -8.25 C 13.515625 -9.519531 13.171875 -10.554688 12.484375 -11.359375 C 11.796875 -12.160156 10.910156 -12.5625 9.828125 -12.5625 Z M 9.828125 -12.5625 "/></g></g></g><g fill="#000000" fill-opacity="1"><g transform="translate(219.046451, 119.32713)"><g><path d="M 9.828125 -16.78125 C 12.535156 -16.78125 14.71875 -16.003906 16.375 -14.453125 C 18.039062 -12.910156 18.875 -10.863281 18.875 -8.3125 C 18.875 -5.769531 18.039062 -3.71875 16.375 -2.15625 C 14.71875 -0.59375 12.535156 0.1875 9.828125 0.1875 C 7.097656 0.1875 4.898438 -0.59375 3.234375 -2.15625 C 1.566406 -3.71875 0.734375 -5.769531 0.734375 -8.3125 C 0.734375 -10.863281 1.566406 -12.910156 3.234375 -14.453125 C 4.898438 -16.003906 7.097656 -16.78125 9.828125 -16.78125 Z M 9.828125 -12.5625 C 8.710938 -12.5625 7.8125 -12.160156 7.125 -11.359375 C 6.4375 -10.554688 6.09375 -9.519531 6.09375 -8.25 C 6.09375 -6.957031 6.4375 -5.914062 7.125 -5.125 C 7.8125 -4.332031 8.710938 -3.9375 9.828125 -3.9375 C 10.910156 -3.9375 11.796875 -4.332031 12.484375 -5.125 C 13.171875 -5.914062 13.515625 -6.957031 13.515625 -8.25 C 13.515625 -9.519531 13.171875 -10.554688 12.484375 -11.359375 C 11.796875 -12.160156 10.910156 -12.5625 9.828125 -12.5625 Z M 9.828125 -12.5625 "/></g></g></g><g fill="#000000" fill-opacity="1"><g transform="translate(238.662552, 119.32713)"><g><path d="M 7.609375 0 L 2.28125 0 L 2.28125 -22.84375 L 7.609375 -22.84375 Z M 7.609375 0 "/></g></g></g><g fill="#000000" fill-opacity="1"><g transform="translate(248.54758, 119.32713)"><g/></g></g><g fill="#000000" fill-opacity="1"><g transform="translate(255.691921, 119.32713)"><g><path d="M 9.828125 -16.78125 C 12.535156 -16.78125 14.71875 -16.003906 16.375 -14.453125 C 18.039062 -12.910156 18.875 -10.863281 18.875 -8.3125 C 18.875 -5.769531 18.039062 -3.71875 16.375 -2.15625 C 14.71875 -0.59375 12.535156 0.1875 9.828125 0.1875 C 7.097656 0.1875 4.898438 -0.59375 3.234375 -2.15625 C 1.566406 -3.71875 0.734375 -5.769531 0.734375 -8.3125 C 0.734375 -10.863281 1.566406 -12.910156 3.234375 -14.453125 C 4.898438 -16.003906 7.097656 -16.78125 9.828125 -16.78125 Z M 9.828125 -12.5625 C 8.710938 -12.5625 7.8125 -12.160156 7.125 -11.359375 C 6.4375 -10.554688 6.09375 -9.519531 6.09375 -8.25 C 6.09375 -6.957031 6.4375 -5.914062 7.125 -5.125 C 7.8125 -4.332031 8.710938 -3.9375 9.828125 -3.9375 C 10.910156 -3.9375 11.796875 -4.332031 12.484375 -5.125 C 13.171875 -5.914062 13.515625 -6.957031 13.515625 -8.25 C 13.515625 -9.519531 13.171875 -10.554688 12.484375 -11.359375 C 11.796875 -12.160156 10.910156 -12.5625 9.828125 -12.5625 Z M 9.828125 -12.5625 "/></g></g></g><g fill="#000000" fill-opacity="1"><g transform="translate(275.308022, 119.32713)"><g><path d="M 10.28125 -18.875 C 9.726562 -18.894531 9.269531 -18.742188 8.90625 -18.421875 C 8.550781 -18.109375 8.375 -17.65625 8.375 -17.0625 L 8.375 -15.859375 L 12.140625 -15.859375 L 12.140625 -12.34375 L 8.375 -12.34375 L 8.375 0 L 3.109375 0 L 3.109375 -12.34375 L 0.859375 -12.34375 L 0.859375 -15.859375 L 3.109375 -15.859375 L 3.109375 -17.40625 C 3.109375 -19.1875 3.703125 -20.578125 4.890625 -21.578125 C 6.085938 -22.585938 7.609375 -23.09375 9.453125 -23.09375 C 11.222656 -23.09375 12.773438 -22.703125 14.109375 -21.921875 L 12.21875 -18.203125 C 11.601562 -18.648438 10.957031 -18.875 10.28125 -18.875 Z M 10.28125 -18.875 "/></g></g></g><g fill="#000000" fill-opacity="1"><g transform="translate(141.413487, 162.12935)"><g><path d="M 25.84375 0 L 21 0 L 20.96875 -14.015625 L 15.796875 -2.15625 L 12.21875 -2.15625 L 7.046875 -14.015625 L 7.046875 0 L 2.15625 0 L 2.15625 -21.59375 L 8.15625 -21.59375 L 14.015625 -8.75 L 19.859375 -21.59375 L 25.84375 -21.59375 Z M 25.84375 0 "/></g></g></g><g fill="#000000" fill-opacity="1"><g transform="translate(169.43648, 162.12935)"><g><path d="M 9.578125 -16.84375 C 11.859375 -16.84375 13.628906 -16.3125 14.890625 -15.25 C 16.148438 -14.195312 16.789062 -12.726562 16.8125 -10.84375 L 16.8125 0 L 11.609375 0 L 11.609375 -1.90625 C 10.523438 -0.46875 8.832031 0.25 6.53125 0.25 C 4.78125 0.25 3.390625 -0.234375 2.359375 -1.203125 C 1.335938 -2.171875 0.828125 -3.421875 0.828125 -4.953125 C 0.828125 -6.535156 1.375 -7.765625 2.46875 -8.640625 C 3.570312 -9.515625 5.148438 -9.960938 7.203125 -9.984375 L 11.578125 -9.984375 L 11.578125 -10.21875 C 11.578125 -11.039062 11.304688 -11.679688 10.765625 -12.140625 C 10.222656 -12.609375 9.414062 -12.84375 8.34375 -12.84375 C 6.84375 -12.84375 5.191406 -12.378906 3.390625 -11.453125 L 1.875 -14.96875 C 4.5625 -16.21875 7.128906 -16.84375 9.578125 -16.84375 Z M 8.15625 -3.359375 C 9 -3.359375 9.738281 -3.566406 10.375 -3.984375 C 11.007812 -4.410156 11.410156 -4.960938 11.578125 -5.640625 L 11.578125 -7.109375 L 8.21875 -7.109375 C 6.625 -7.109375 5.828125 -6.515625 5.828125 -5.328125 C 5.828125 -4.710938 6.03125 -4.226562 6.4375 -3.875 C 6.84375 -3.53125 7.414062 -3.359375 8.15625 -3.359375 Z M 8.15625 -3.359375 "/></g></g></g><g fill="#000000" fill-opacity="1"><g transform="translate(187.9132, 162.12935)"><g><path d="M 9.359375 -16.78125 C 11.003906 -16.78125 12.46875 -16.457031 13.75 -15.8125 C 15.03125 -15.164062 16.03125 -14.25 16.75 -13.0625 L 12.9375 -10.75 C 12.113281 -11.894531 10.992188 -12.46875 9.578125 -12.46875 C 8.546875 -12.46875 7.707031 -12.082031 7.0625 -11.3125 C 6.414062 -10.539062 6.09375 -9.53125 6.09375 -8.28125 C 6.09375 -7.007812 6.410156 -5.988281 7.046875 -5.21875 C 7.679688 -4.445312 8.523438 -4.0625 9.578125 -4.0625 C 11.140625 -4.0625 12.269531 -4.6875 12.96875 -5.9375 L 16.84375 -3.671875 C 16.164062 -2.429688 15.175781 -1.476562 13.875 -0.8125 C 12.570312 -0.144531 11.046875 0.1875 9.296875 0.1875 C 6.734375 0.1875 4.664062 -0.585938 3.09375 -2.140625 C 1.519531 -3.691406 0.734375 -5.726562 0.734375 -8.25 C 0.734375 -10.800781 1.53125 -12.859375 3.125 -14.421875 C 4.71875 -15.992188 6.796875 -16.78125 9.359375 -16.78125 Z M 9.359375 -16.78125 "/></g></g></g><g fill="#000000" fill-opacity="1"><g transform="translate(205.219726, 162.12935)"><g><path d="M 13.1875 -16.84375 C 15.007812 -16.84375 16.472656 -16.257812 17.578125 -15.09375 C 18.691406 -13.9375 19.25 -12.394531 19.25 -10.46875 L 19.25 0 L 13.921875 0 L 13.921875 -9 C 13.921875 -9.957031 13.65625 -10.71875 13.125 -11.28125 C 12.601562 -11.851562 11.894531 -12.140625 11 -12.140625 C 9.96875 -12.140625 9.144531 -11.769531 8.53125 -11.03125 C 7.914062 -10.289062 7.609375 -9.34375 7.609375 -8.1875 L 7.609375 0 L 2.28125 0 L 2.28125 -22.84375 L 7.609375 -22.84375 L 7.609375 -13.859375 C 8.773438 -15.804688 10.632812 -16.800781 13.1875 -16.84375 Z M 13.1875 -16.84375 "/></g></g></g><g fill="#000000" fill-opacity="1"><g transform="translate(226.098407, 162.12935)"><g><path d="M 2.78125 -23.390625 C 3.3125 -23.910156 3.984375 -24.171875 4.796875 -24.171875 C 5.617188 -24.171875 6.289062 -23.910156 6.8125 -23.390625 C 7.34375 -22.867188 7.609375 -22.195312 7.609375 -21.375 C 7.609375 -20.550781 7.34375 -19.875 6.8125 -19.34375 C 6.289062 -18.8125 5.617188 -18.546875 4.796875 -18.546875 C 3.984375 -18.546875 3.3125 -18.8125 2.78125 -19.34375 C 2.257812 -19.875 2 -20.550781 2 -21.375 C 2 -22.195312 2.257812 -22.867188 2.78125 -23.390625 Z M 7.421875 0 L 2.125 0 L 2.125 -16.59375 L 7.421875 -16.59375 Z M 7.421875 0 "/></g></g></g><g fill="#000000" fill-opacity="1"><g transform="translate(235.675494, 162.12935)"><g><path d="M 13 -16.84375 C 14.820312 -16.84375 16.285156 -16.257812 17.390625 -15.09375 C 18.503906 -13.9375 19.0625 -12.394531 19.0625 -10.46875 L 19.0625 0 L 13.765625 0 L 13.765625 -9 C 13.765625 -9.957031 13.503906 -10.71875 12.984375 -11.28125 C 12.460938 -11.851562 11.75 -12.140625 10.84375 -12.140625 C 9.894531 -12.140625 9.117188 -11.828125 8.515625 -11.203125 C 7.910156 -10.585938 7.554688 -9.78125 7.453125 -8.78125 L 7.453125 0 L 2.125 0 L 2.125 -16.59375 L 7.453125 -16.59375 L 7.453125 -13.890625 C 8.617188 -15.816406 10.46875 -16.800781 13 -16.84375 Z M 13 -16.84375 "/></g></g></g><g fill="#000000" fill-opacity="1"><g transform="translate(256.400189, 162.12935)"><g><path d="M 9.390625 -16.78125 C 12.265625 -16.78125 14.425781 -15.894531 15.875 -14.125 C 17.320312 -12.363281 17.953125 -9.945312 17.765625 -6.875 L 6.09375 -6.875 C 6.363281 -5.882812 6.835938 -5.117188 7.515625 -4.578125 C 8.191406 -4.046875 9.023438 -3.78125 10.015625 -3.78125 C 11.523438 -3.78125 12.847656 -4.347656 13.984375 -5.484375 L 16.78125 -2.734375 C 15 -0.785156 12.585938 0.1875 9.546875 0.1875 C 6.859375 0.1875 4.71875 -0.582031 3.125 -2.125 C 1.53125 -3.664062 0.734375 -5.707031 0.734375 -8.25 C 0.734375 -10.820312 1.53125 -12.882812 3.125 -14.4375 C 4.71875 -16 6.804688 -16.78125 9.390625 -16.78125 Z M 6 -9.734375 L 12.65625 -9.734375 C 12.65625 -10.734375 12.363281 -11.539062 11.78125 -12.15625 C 11.195312 -12.78125 10.421875 -13.09375 9.453125 -13.09375 C 8.546875 -13.09375 7.785156 -12.785156 7.171875 -12.171875 C 6.554688 -11.566406 6.164062 -10.753906 6 -9.734375 Z M 6 -9.734375 "/></g></g></g><g fill="#000000" fill-opacity="1"><g transform="translate(274.93848, 162.12935)"><g/></g></g><g fill="#000000" fill-opacity="1"><g transform="translate(282.082822, 162.12935)"><g><path d="M 7.640625 -4.59375 L 16.78125 -4.59375 L 16.78125 0 L 2.15625 0 L 2.15625 -21.5625 L 7.640625 -21.5625 Z M 7.640625 -4.59375 "/></g></g></g><g fill="#000000" fill-opacity="1"><g transform="translate(299.327747, 162.12935)"><g><path d="M 9.390625 -16.78125 C 12.265625 -16.78125 14.425781 -15.894531 15.875 -14.125 C 17.320312 -12.363281 17.953125 -9.945312 17.765625 -6.875 L 6.09375 -6.875 C 6.363281 -5.882812 6.835938 -5.117188 7.515625 -4.578125 C 8.191406 -4.046875 9.023438 -3.78125 10.015625 -3.78125 C 11.523438 -3.78125 12.847656 -4.347656 13.984375 -5.484375 L 16.78125 -2.734375 C 15 -0.785156 12.585938 0.1875 9.546875 0.1875 C 6.859375 0.1875 4.71875 -0.582031 3.125 -2.125 C 1.53125 -3.664062 0.734375 -5.707031 0.734375 -8.25 C 0.734375 -10.820312 1.53125 -12.882812 3.125 -14.4375 C 4.71875 -16 6.804688 -16.78125 9.390625 -16.78125 Z M 6 -9.734375 L 12.65625 -9.734375 C 12.65625 -10.734375 12.363281 -11.539062 11.78125 -12.15625 C 11.195312 -12.78125 10.421875 -13.09375 9.453125 -13.09375 C 8.546875 -13.09375 7.785156 -12.785156 7.171875 -12.171875 C 6.554688 -11.566406 6.164062 -10.753906 6 -9.734375 Z M 6 -9.734375 "/></g></g></g><g fill="#000000" fill-opacity="1"><g transform="translate(317.866038, 162.12935)"><g><path d="M 9.578125 -16.84375 C 11.859375 -16.84375 13.628906 -16.3125 14.890625 -15.25 C 16.148438 -14.195312 16.789062 -12.726562 16.8125 -10.84375 L 16.8125 0 L 11.609375 0 L 11.609375 -1.90625 C 10.523438 -0.46875 8.832031 0.25 6.53125 0.25 C 4.78125 0.25 3.390625 -0.234375 2.359375 -1.203125 C 1.335938 -2.171875 0.828125 -3.421875 0.828125 -4.953125 C 0.828125 -6.535156 1.375 -7.765625 2.46875 -8.640625 C 3.570312 -9.515625 5.148438 -9.960938 7.203125 -9.984375 L 11.578125 -9.984375 L 11.578125 -10.21875 C 11.578125 -11.039062 11.304688 -11.679688 10.765625 -12.140625 C 10.222656 -12.609375 9.414062 -12.84375 8.34375 -12.84375 C 6.84375 -12.84375 5.191406 -12.378906 3.390625 -11.453125 L 1.875 -14.96875 C 4.5625 -16.21875 7.128906 -16.84375 9.578125 -16.84375 Z M 8.15625 -3.359375 C 9 -3.359375 9.738281 -3.566406 10.375 -3.984375 C 11.007812 -4.410156 11.410156 -4.960938 11.578125 -5.640625 L 11.578125 -7.109375 L 8.21875 -7.109375 C 6.625 -7.109375 5.828125 -6.515625 5.828125 -5.328125 C 5.828125 -4.710938 6.03125 -4.226562 6.4375 -3.875 C 6.84375 -3.53125 7.414062 -3.359375 8.15625 -3.359375 Z M 8.15625 -3.359375 "/></g></g></g><g fill="#000000" fill-opacity="1"><g transform="translate(336.342759, 162.12935)"><g><path d="M 7.453125 -16.59375 L 7.453125 -13.796875 C 8.617188 -15.785156 10.414062 -16.800781 12.84375 -16.84375 L 12.84375 -12.046875 C 11.320312 -12.179688 10.078125 -11.925781 9.109375 -11.28125 C 8.148438 -10.632812 7.597656 -9.71875 7.453125 -8.53125 L 7.453125 0 L 2.125 0 L 2.125 -16.59375 Z M 7.453125 -16.59375 "/></g></g></g><g fill="#000000" fill-opacity="1"><g transform="translate(349.492001, 162.12935)"><g><path d="M 13 -16.84375 C 14.820312 -16.84375 16.285156 -16.257812 17.390625 -15.09375 C 18.503906 -13.9375 19.0625 -12.394531 19.0625 -10.46875 L 19.0625 0 L 13.765625 0 L 13.765625 -9 C 13.765625 -9.957031 13.503906 -10.71875 12.984375 -11.28125 C 12.460938 -11.851562 11.75 -12.140625 10.84375 -12.140625 C 9.894531 -12.140625 9.117188 -11.828125 8.515625 -11.203125 C 7.910156 -10.585938 7.554688 -9.78125 7.453125 -8.78125 L 7.453125 0 L 2.125 0 L 2.125 -16.59375 L 7.453125 -16.59375 L 7.453125 -13.890625 C 8.617188 -15.816406 10.46875 -16.800781 13 -16.84375 Z M 13 -16.84375 "/></g></g></g></svg>