<svg xmlns="http://www.w3.org/2000/svg" xmlns:xlink="http://www.w3.org/1999/xlink" width="496" zoomAndPan="magnify" viewBox="0 0 372 262.499992" height="350" preserveAspectRatio="xMidYMid meet" version="1.0"><defs><g/><clipPath id="79fb3b984e"><path d="M 0.355469 60.75 L 141.414062 60.75 L 141.414062 201.25 L 0.355469 201.25 Z M 0.355469 60.75 " clip-rule="nonzero"/></clipPath></defs><g clip-path="url(#79fb3b984e)"><path fill="#370909" d="M 0.355469 60.75 L 141.402344 60.75 L 141.402344 201.25 L 0.355469 201.25 Z M 0.355469 60.75 " fill-opacity="1" fill-rule="nonzero"/></g><g fill="#ffffff" fill-opacity="1"><g transform="translate(15.098182, 135.149003)"><g><path d="M 25.9375 0 L 23.078125 -8.234375 L 10.78125 -8.234375 L 7.921875 0 L 1.171875 0 L 12.9375 -32.25 L 20.890625 -32.25 L 32.609375 0 Z M 16.921875 -27.28125 L 16.78125 -26.78125 C 16.625 -26.226562 16.4375 -25.597656 16.21875 -24.890625 C 16.007812 -24.191406 14.703125 -20.335938 12.296875 -13.328125 L 21.5625 -13.328125 L 18.375 -22.59375 L 17.390625 -25.703125 Z M 16.921875 -27.28125 "/></g></g></g><g fill="#ffffff" fill-opacity="1"><g transform="translate(48.940639, 135.149003)"><g><path d="M 3.265625 -29.234375 L 3.265625 -33.96875 L 9.703125 -33.96875 L 9.703125 -29.234375 Z M 3.265625 0 L 3.265625 -24.765625 L 9.703125 -24.765625 L 9.703125 0 Z M 3.265625 0 "/></g></g></g><g fill="#ffffff" fill-opacity="1"><g transform="translate(61.960489, 135.149003)"><g><path d="M 29.921875 0 L 29.921875 -19.546875 C 29.921875 -19.984375 29.921875 -20.421875 29.921875 -20.859375 C 29.929688 -21.304688 30.003906 -23.210938 30.140625 -26.578125 C 29.054688 -22.472656 28.253906 -19.609375 27.734375 -17.984375 L 21.921875 0 L 17.125 0 L 11.3125 -17.984375 L 8.859375 -26.578125 C 9.035156 -23.035156 9.125 -20.691406 9.125 -19.546875 L 9.125 0 L 3.140625 0 L 3.140625 -32.25 L 12.171875 -32.25 L 17.9375 -14.21875 L 18.453125 -12.46875 L 19.546875 -8.140625 L 20.984375 -13.328125 L 26.921875 -32.25 L 35.90625 -32.25 L 35.90625 0 Z M 29.921875 0 "/></g></g></g><g fill="#ffffff" fill-opacity="1"><g transform="translate(100.997157, 135.149003)"><g><path d="M 3.140625 0 L 3.140625 -32.25 L 9.890625 -32.25 L 9.890625 -5.21875 L 27.1875 -5.21875 L 27.1875 0 Z M 3.140625 0 "/></g></g></g><g fill="#ffffff" fill-opacity="1"><g transform="translate(15.098182, 153.476674)"><g><path d="M 7.71875 -2.0625 C 9.445312 -2.0625 10.644531 -2.925781 11.3125 -4.65625 L 13.8125 -3.71875 C 13.269531 -2.394531 12.476562 -1.410156 11.4375 -0.765625 C 10.40625 -0.128906 9.164062 0.1875 7.71875 0.1875 C 5.519531 0.1875 3.816406 -0.429688 2.609375 -1.671875 C 1.410156 -2.921875 0.8125 -4.664062 0.8125 -6.90625 C 0.8125 -9.144531 1.390625 -10.863281 2.546875 -12.0625 C 3.710938 -13.269531 5.394531 -13.875 7.59375 -13.875 C 9.195312 -13.875 10.503906 -13.550781 11.515625 -12.90625 C 12.523438 -12.269531 13.234375 -11.328125 13.640625 -10.078125 L 11.109375 -9.390625 C 10.898438 -10.066406 10.484375 -10.609375 9.859375 -11.015625 C 9.234375 -11.421875 8.492188 -11.625 7.640625 -11.625 C 6.347656 -11.625 5.367188 -11.222656 4.703125 -10.421875 C 4.035156 -9.617188 3.703125 -8.445312 3.703125 -6.90625 C 3.703125 -5.332031 4.046875 -4.128906 4.734375 -3.296875 C 5.421875 -2.472656 6.414062 -2.0625 7.71875 -2.0625 Z M 7.71875 -2.0625 "/></g></g></g><g fill="#ffffff" fill-opacity="1"><g transform="translate(29.448471, 153.476674)"><g><path d="M 3.8125 0.1875 C 2.800781 0.1875 2.007812 -0.0859375 1.4375 -0.640625 C 0.863281 -1.191406 0.578125 -1.96875 0.578125 -2.96875 C 0.578125 -4.050781 0.929688 -4.878906 1.640625 -5.453125 C 2.347656 -6.023438 3.375 -6.316406 4.71875 -6.328125 L 6.984375 -6.359375 L 6.984375 -6.90625 C 6.984375 -7.582031 6.863281 -8.085938 6.625 -8.421875 C 6.382812 -8.753906 5.992188 -8.921875 5.453125 -8.921875 C 4.953125 -8.921875 4.582031 -8.804688 4.34375 -8.578125 C 4.101562 -8.347656 3.957031 -7.96875 3.90625 -7.4375 L 1.0625 -7.578125 C 1.226562 -8.597656 1.691406 -9.367188 2.453125 -9.890625 C 3.210938 -10.421875 4.253906 -10.6875 5.578125 -10.6875 C 6.898438 -10.6875 7.921875 -10.359375 8.640625 -9.703125 C 9.359375 -9.054688 9.71875 -8.128906 9.71875 -6.921875 L 9.71875 -3.109375 C 9.71875 -2.515625 9.78125 -2.101562 9.90625 -1.875 C 10.039062 -1.65625 10.265625 -1.546875 10.578125 -1.546875 C 10.785156 -1.546875 10.988281 -1.566406 11.1875 -1.609375 L 11.1875 -0.140625 C 11.019531 -0.0976562 10.867188 -0.0625 10.734375 -0.03125 C 10.609375 0 10.476562 0.0234375 10.34375 0.046875 C 10.21875 0.0664062 10.082031 0.0820312 9.9375 0.09375 C 9.789062 0.101562 9.625 0.109375 9.4375 0.109375 C 8.75 0.109375 8.238281 -0.0546875 7.90625 -0.390625 C 7.582031 -0.722656 7.390625 -1.21875 7.328125 -1.875 L 7.265625 -1.875 C 6.503906 -0.5 5.351562 0.1875 3.8125 0.1875 Z M 6.984375 -4.859375 L 5.59375 -4.84375 C 4.957031 -4.8125 4.503906 -4.738281 4.234375 -4.625 C 3.972656 -4.519531 3.769531 -4.347656 3.625 -4.109375 C 3.488281 -3.878906 3.421875 -3.570312 3.421875 -3.1875 C 3.421875 -2.6875 3.535156 -2.3125 3.765625 -2.0625 C 3.992188 -1.820312 4.300781 -1.703125 4.6875 -1.703125 C 5.113281 -1.703125 5.503906 -1.816406 5.859375 -2.046875 C 6.210938 -2.285156 6.488281 -2.609375 6.6875 -3.015625 C 6.882812 -3.429688 6.984375 -3.867188 6.984375 -4.328125 Z M 6.984375 -4.859375 "/></g></g></g><g fill="#ffffff" fill-opacity="1"><g transform="translate(40.499846, 153.476674)"><g><path d="M 7.5625 0 L 7.5625 -5.890625 C 7.5625 -7.734375 7.035156 -8.65625 5.984375 -8.65625 C 5.429688 -8.65625 4.976562 -8.375 4.625 -7.8125 C 4.28125 -7.25 4.109375 -6.519531 4.109375 -5.625 L 4.109375 0 L 1.390625 0 L 1.390625 -8.15625 C 1.390625 -8.71875 1.378906 -9.175781 1.359375 -9.53125 C 1.347656 -9.894531 1.332031 -10.21875 1.3125 -10.5 L 3.90625 -10.5 C 3.925781 -10.375 3.953125 -10.046875 3.984375 -9.515625 C 4.015625 -8.984375 4.03125 -8.613281 4.03125 -8.40625 L 4.078125 -8.40625 C 4.410156 -9.21875 4.828125 -9.800781 5.328125 -10.15625 C 5.828125 -10.519531 6.429688 -10.703125 7.140625 -10.703125 C 8.742188 -10.703125 9.710938 -9.9375 10.046875 -8.40625 L 10.109375 -8.40625 C 10.460938 -9.226562 10.890625 -9.816406 11.390625 -10.171875 C 11.890625 -10.523438 12.523438 -10.703125 13.296875 -10.703125 C 14.316406 -10.703125 15.09375 -10.351562 15.625 -9.65625 C 16.164062 -8.96875 16.4375 -7.972656 16.4375 -6.671875 L 16.4375 0 L 13.734375 0 L 13.734375 -5.890625 C 13.734375 -7.734375 13.203125 -8.65625 12.140625 -8.65625 C 11.609375 -8.65625 11.171875 -8.394531 10.828125 -7.875 C 10.492188 -7.363281 10.3125 -6.65625 10.28125 -5.75 L 10.28125 0 Z M 7.5625 0 "/></g></g></g><g fill="#ffffff" fill-opacity="1"><g transform="translate(58.168455, 153.476674)"><g><path d="M 11.328125 -5.296875 C 11.328125 -3.546875 10.972656 -2.191406 10.265625 -1.234375 C 9.566406 -0.285156 8.578125 0.1875 7.296875 0.1875 C 6.554688 0.1875 5.910156 0.03125 5.359375 -0.28125 C 4.816406 -0.601562 4.398438 -1.066406 4.109375 -1.671875 L 4.0625 -1.671875 C 4.09375 -1.472656 4.109375 -0.882812 4.109375 0.09375 L 4.109375 4.125 L 1.390625 4.125 L 1.390625 -8.078125 C 1.390625 -9.066406 1.363281 -9.875 1.3125 -10.5 L 3.953125 -10.5 C 3.992188 -10.382812 4.023438 -10.15625 4.046875 -9.8125 C 4.066406 -9.46875 4.078125 -9.128906 4.078125 -8.796875 L 4.109375 -8.796875 C 4.722656 -10.078125 5.84375 -10.71875 7.46875 -10.71875 C 8.695312 -10.71875 9.644531 -10.25 10.3125 -9.3125 C 10.988281 -8.375 11.328125 -7.035156 11.328125 -5.296875 Z M 8.484375 -5.296875 C 8.484375 -7.648438 7.757812 -8.828125 6.3125 -8.828125 C 5.59375 -8.828125 5.039062 -8.507812 4.65625 -7.875 C 4.269531 -7.238281 4.078125 -6.351562 4.078125 -5.21875 C 4.078125 -4.082031 4.269531 -3.207031 4.65625 -2.59375 C 5.039062 -1.976562 5.585938 -1.671875 6.296875 -1.671875 C 7.753906 -1.671875 8.484375 -2.878906 8.484375 -5.296875 Z M 8.484375 -5.296875 "/></g></g></g><g fill="#ffffff" fill-opacity="1"><g transform="translate(70.306532, 153.476674)"><g><path d="M 3.953125 -10.5 L 3.953125 -4.609375 C 3.953125 -2.765625 4.578125 -1.84375 5.828125 -1.84375 C 6.484375 -1.84375 7.015625 -2.125 7.421875 -2.6875 C 7.828125 -3.257812 8.03125 -3.988281 8.03125 -4.875 L 8.03125 -10.5 L 10.75 -10.5 L 10.75 -2.34375 C 10.75 -1.457031 10.773438 -0.675781 10.828125 0 L 8.234375 0 C 8.148438 -0.925781 8.109375 -1.625 8.109375 -2.09375 L 8.0625 -2.09375 C 7.695312 -1.289062 7.234375 -0.707031 6.671875 -0.34375 C 6.117188 0.0078125 5.457031 0.1875 4.6875 0.1875 C 3.570312 0.1875 2.71875 -0.148438 2.125 -0.828125 C 1.53125 -1.515625 1.234375 -2.515625 1.234375 -3.828125 L 1.234375 -10.5 Z M 3.953125 -10.5 "/></g></g></g><g fill="#ffffff" fill-opacity="1"><g transform="translate(82.444608, 153.476674)"><g><path d="M 10.234375 -3.0625 C 10.234375 -2.050781 9.816406 -1.253906 8.984375 -0.671875 C 8.160156 -0.0976562 7.015625 0.1875 5.546875 0.1875 C 4.097656 0.1875 2.988281 -0.0351562 2.21875 -0.484375 C 1.457031 -0.941406 0.953125 -1.65625 0.703125 -2.625 L 3.09375 -2.984375 C 3.226562 -2.484375 3.460938 -2.128906 3.796875 -1.921875 C 4.128906 -1.710938 4.710938 -1.609375 5.546875 -1.609375 C 6.304688 -1.609375 6.859375 -1.703125 7.203125 -1.890625 C 7.554688 -2.085938 7.734375 -2.394531 7.734375 -2.8125 C 7.734375 -3.144531 7.59375 -3.410156 7.3125 -3.609375 C 7.03125 -3.804688 6.550781 -3.972656 5.875 -4.109375 C 4.34375 -4.421875 3.304688 -4.707031 2.765625 -4.96875 C 2.222656 -5.226562 1.8125 -5.566406 1.53125 -5.984375 C 1.25 -6.398438 1.109375 -6.910156 1.109375 -7.515625 C 1.109375 -8.523438 1.492188 -9.304688 2.265625 -9.859375 C 3.046875 -10.421875 4.144531 -10.703125 5.5625 -10.703125 C 6.8125 -10.703125 7.816406 -10.457031 8.578125 -9.96875 C 9.335938 -9.488281 9.8125 -8.789062 10 -7.875 L 7.578125 -7.625 C 7.503906 -8.050781 7.3125 -8.367188 7 -8.578125 C 6.695312 -8.785156 6.21875 -8.890625 5.5625 -8.890625 C 4.914062 -8.890625 4.429688 -8.804688 4.109375 -8.640625 C 3.785156 -8.472656 3.625 -8.195312 3.625 -7.8125 C 3.625 -7.507812 3.742188 -7.269531 3.984375 -7.09375 C 4.234375 -6.914062 4.65625 -6.765625 5.25 -6.640625 C 6.070312 -6.472656 6.800781 -6.300781 7.4375 -6.125 C 8.070312 -5.945312 8.582031 -5.734375 8.96875 -5.484375 C 9.351562 -5.242188 9.660156 -4.929688 9.890625 -4.546875 C 10.117188 -4.160156 10.234375 -3.664062 10.234375 -3.0625 Z M 10.234375 -3.0625 "/></g></g></g><g fill="#ffffff" fill-opacity="1"><g transform="translate(16.75261, 161.139529)"><g><path d="M 2.28125 0 L 2.28125 -1.3125 L 0.9375 -1.3125 L 0.9375 0 L 0.296875 0 L 0.296875 -3.0625 L 0.9375 -3.0625 L 0.9375 -1.84375 L 2.28125 -1.84375 L 2.28125 -3.0625 L 2.921875 -3.0625 L 2.921875 0 Z M 2.28125 0 "/></g></g><g transform="translate(19.969104, 161.139529)"><g><path d="M 0.890625 -2.359375 L 0.890625 -1.03125 C 0.890625 -0.613281 1.023438 -0.40625 1.296875 -0.40625 C 1.453125 -0.40625 1.570312 -0.46875 1.65625 -0.59375 C 1.75 -0.726562 1.796875 -0.894531 1.796875 -1.09375 L 1.796875 -2.359375 L 2.40625 -2.359375 L 2.40625 -0.53125 C 2.40625 -0.320312 2.410156 -0.144531 2.421875 0 L 1.84375 0 C 1.820312 -0.207031 1.8125 -0.363281 1.8125 -0.46875 C 1.726562 -0.289062 1.625 -0.160156 1.5 -0.078125 C 1.375 0.00390625 1.222656 0.046875 1.046875 0.046875 C 0.796875 0.046875 0.601562 -0.03125 0.46875 -0.1875 C 0.34375 -0.34375 0.28125 -0.566406 0.28125 -0.859375 L 0.28125 -2.359375 Z M 0.890625 -2.359375 "/></g></g><g transform="translate(22.68975, 161.139529)"><g><path d="M 1.703125 0 L 1.703125 -1.3125 C 1.703125 -1.726562 1.582031 -1.9375 1.34375 -1.9375 C 1.21875 -1.9375 1.113281 -1.875 1.03125 -1.75 C 0.957031 -1.625 0.921875 -1.460938 0.921875 -1.265625 L 0.921875 0 L 0.3125 0 L 0.3125 -1.828125 C 0.3125 -1.953125 0.304688 -2.050781 0.296875 -2.125 C 0.296875 -2.207031 0.296875 -2.285156 0.296875 -2.359375 L 0.875 -2.359375 C 0.875 -2.328125 0.878906 -2.25 0.890625 -2.125 C 0.898438 -2.007812 0.90625 -1.929688 0.90625 -1.890625 C 0.988281 -2.066406 1.082031 -2.191406 1.1875 -2.265625 C 1.300781 -2.347656 1.4375 -2.390625 1.59375 -2.390625 C 1.957031 -2.390625 2.175781 -2.222656 2.25 -1.890625 L 2.265625 -1.890625 C 2.347656 -2.066406 2.441406 -2.191406 2.546875 -2.265625 C 2.660156 -2.347656 2.804688 -2.390625 2.984375 -2.390625 C 3.210938 -2.390625 3.382812 -2.3125 3.5 -2.15625 C 3.625 -2.007812 3.6875 -1.789062 3.6875 -1.5 L 3.6875 0 L 3.078125 0 L 3.078125 -1.3125 C 3.078125 -1.726562 2.957031 -1.9375 2.71875 -1.9375 C 2.601562 -1.9375 2.503906 -1.878906 2.421875 -1.765625 C 2.347656 -1.648438 2.304688 -1.492188 2.296875 -1.296875 L 2.296875 0 Z M 1.703125 0 "/></g></g><g transform="translate(26.650018, 161.139529)"><g><path d="M 0.859375 0.046875 C 0.628906 0.046875 0.445312 -0.015625 0.3125 -0.140625 C 0.1875 -0.265625 0.125 -0.441406 0.125 -0.671875 C 0.125 -0.910156 0.203125 -1.09375 0.359375 -1.21875 C 0.523438 -1.34375 0.757812 -1.410156 1.0625 -1.421875 L 1.5625 -1.421875 L 1.5625 -1.546875 C 1.5625 -1.703125 1.535156 -1.816406 1.484375 -1.890625 C 1.429688 -1.960938 1.34375 -2 1.21875 -2 C 1.101562 -2 1.019531 -1.972656 0.96875 -1.921875 C 0.914062 -1.867188 0.882812 -1.785156 0.875 -1.671875 L 0.234375 -1.703125 C 0.273438 -1.929688 0.378906 -2.101562 0.546875 -2.21875 C 0.722656 -2.332031 0.957031 -2.390625 1.25 -2.390625 C 1.539062 -2.390625 1.765625 -2.316406 1.921875 -2.171875 C 2.085938 -2.023438 2.171875 -1.816406 2.171875 -1.546875 L 2.171875 -0.703125 C 2.171875 -0.566406 2.1875 -0.472656 2.21875 -0.421875 C 2.25 -0.367188 2.300781 -0.34375 2.375 -0.34375 C 2.414062 -0.34375 2.457031 -0.347656 2.5 -0.359375 L 2.5 -0.03125 C 2.46875 -0.0195312 2.4375 -0.0078125 2.40625 0 C 2.375 0 2.34375 0 2.3125 0 C 2.289062 0.0078125 2.257812 0.015625 2.21875 0.015625 C 2.1875 0.0234375 2.148438 0.03125 2.109375 0.03125 C 1.960938 0.03125 1.847656 -0.00390625 1.765625 -0.078125 C 1.691406 -0.160156 1.648438 -0.273438 1.640625 -0.421875 L 1.625 -0.421875 C 1.457031 -0.109375 1.203125 0.046875 0.859375 0.046875 Z M 1.5625 -1.09375 L 1.25 -1.078125 C 1.113281 -1.078125 1.015625 -1.0625 0.953125 -1.03125 C 0.890625 -1.007812 0.84375 -0.972656 0.8125 -0.921875 C 0.78125 -0.867188 0.765625 -0.800781 0.765625 -0.71875 C 0.765625 -0.601562 0.789062 -0.515625 0.84375 -0.453125 C 0.894531 -0.398438 0.960938 -0.375 1.046875 -0.375 C 1.140625 -0.375 1.226562 -0.398438 1.3125 -0.453125 C 1.394531 -0.515625 1.457031 -0.585938 1.5 -0.671875 C 1.539062 -0.765625 1.5625 -0.863281 1.5625 -0.96875 Z M 1.5625 -1.09375 "/></g></g><g transform="translate(29.127088, 161.139529)"><g><path d="M 1.828125 0 L 1.828125 -1.3125 C 1.828125 -1.726562 1.691406 -1.9375 1.421875 -1.9375 C 1.265625 -1.9375 1.140625 -1.875 1.046875 -1.75 C 0.960938 -1.625 0.921875 -1.460938 0.921875 -1.265625 L 0.921875 0 L 0.3125 0 L 0.3125 -1.828125 C 0.3125 -1.953125 0.304688 -2.050781 0.296875 -2.125 C 0.296875 -2.207031 0.296875 -2.285156 0.296875 -2.359375 L 0.875 -2.359375 C 0.875 -2.328125 0.878906 -2.25 0.890625 -2.125 C 0.898438 -2.007812 0.90625 -1.929688 0.90625 -1.890625 C 0.988281 -2.066406 1.09375 -2.191406 1.21875 -2.265625 C 1.34375 -2.347656 1.492188 -2.390625 1.671875 -2.390625 C 1.921875 -2.390625 2.109375 -2.3125 2.234375 -2.15625 C 2.367188 -2.007812 2.4375 -1.789062 2.4375 -1.5 L 2.4375 0 Z M 1.828125 0 "/></g></g><g transform="translate(31.847734, 161.139529)"><g/></g><g transform="translate(33.085182, 161.139529)"><g><path d="M 0.296875 0 L 0.296875 -3.0625 L 0.9375 -3.0625 L 0.9375 0 Z M 0.296875 0 "/></g></g><g transform="translate(34.32263, 161.139529)"><g><path d="M 1.828125 0 L 1.828125 -1.3125 C 1.828125 -1.726562 1.691406 -1.9375 1.421875 -1.9375 C 1.265625 -1.9375 1.140625 -1.875 1.046875 -1.75 C 0.960938 -1.625 0.921875 -1.460938 0.921875 -1.265625 L 0.921875 0 L 0.3125 0 L 0.3125 -1.828125 C 0.3125 -1.953125 0.304688 -2.050781 0.296875 -2.125 C 0.296875 -2.207031 0.296875 -2.285156 0.296875 -2.359375 L 0.875 -2.359375 C 0.875 -2.328125 0.878906 -2.25 0.890625 -2.125 C 0.898438 -2.007812 0.90625 -1.929688 0.90625 -1.890625 C 0.988281 -2.066406 1.09375 -2.191406 1.21875 -2.265625 C 1.34375 -2.347656 1.492188 -2.390625 1.671875 -2.390625 C 1.921875 -2.390625 2.109375 -2.3125 2.234375 -2.15625 C 2.367188 -2.007812 2.4375 -1.789062 2.4375 -1.5 L 2.4375 0 Z M 1.828125 0 "/></g></g><g transform="translate(37.043275, 161.139529)"><g><path d="M 0.90625 0.046875 C 0.726562 0.046875 0.59375 0 0.5 -0.09375 C 0.40625 -0.195312 0.359375 -0.347656 0.359375 -0.546875 L 0.359375 -1.9375 L 0.046875 -1.9375 L 0.046875 -2.359375 L 0.375 -2.359375 L 0.578125 -2.90625 L 0.953125 -2.90625 L 0.953125 -2.359375 L 1.40625 -2.359375 L 1.40625 -1.9375 L 0.953125 -1.9375 L 0.953125 -0.71875 C 0.953125 -0.601562 0.972656 -0.515625 1.015625 -0.453125 C 1.066406 -0.398438 1.132812 -0.375 1.21875 -0.375 C 1.269531 -0.375 1.335938 -0.382812 1.421875 -0.40625 L 1.421875 -0.03125 C 1.273438 0.0195312 1.101562 0.046875 0.90625 0.046875 Z M 0.90625 0.046875 "/></g></g><g transform="translate(38.526473, 161.139529)"><g><path d="M 1.28125 0.046875 C 0.925781 0.046875 0.648438 -0.0546875 0.453125 -0.265625 C 0.265625 -0.472656 0.171875 -0.78125 0.171875 -1.1875 C 0.171875 -1.570312 0.265625 -1.867188 0.453125 -2.078125 C 0.648438 -2.285156 0.925781 -2.390625 1.28125 -2.390625 C 1.625 -2.390625 1.882812 -2.273438 2.0625 -2.046875 C 2.238281 -1.828125 2.328125 -1.503906 2.328125 -1.078125 L 2.328125 -1.0625 L 0.8125 -1.0625 C 0.8125 -0.832031 0.851562 -0.65625 0.9375 -0.53125 C 1.019531 -0.414062 1.140625 -0.359375 1.296875 -0.359375 C 1.515625 -0.359375 1.65625 -0.453125 1.71875 -0.640625 L 2.296875 -0.59375 C 2.128906 -0.164062 1.789062 0.046875 1.28125 0.046875 Z M 1.28125 -2.015625 C 1.132812 -2.015625 1.019531 -1.960938 0.9375 -1.859375 C 0.863281 -1.765625 0.820312 -1.625 0.8125 -1.4375 L 1.734375 -1.4375 C 1.722656 -1.625 1.675781 -1.765625 1.59375 -1.859375 C 1.507812 -1.960938 1.40625 -2.015625 1.28125 -2.015625 Z M 1.28125 -2.015625 "/></g></g><g transform="translate(41.003543, 161.139529)"><g><path d="M 0.3125 0 L 0.3125 -3.234375 L 0.921875 -3.234375 L 0.921875 0 Z M 0.3125 0 "/></g></g><g transform="translate(42.240991, 161.139529)"><g><path d="M 0.3125 0 L 0.3125 -3.234375 L 0.921875 -3.234375 L 0.921875 0 Z M 0.3125 0 "/></g></g><g transform="translate(43.478439, 161.139529)"><g><path d="M 0.3125 -2.78125 L 0.3125 -3.234375 L 0.921875 -3.234375 L 0.921875 -2.78125 Z M 0.3125 0 L 0.3125 -2.359375 L 0.921875 -2.359375 L 0.921875 0 Z M 0.3125 0 "/></g></g><g transform="translate(44.715887, 161.139529)"><g><path d="M 1.296875 0.9375 C 1.003906 0.9375 0.769531 0.878906 0.59375 0.765625 C 0.425781 0.660156 0.320312 0.507812 0.28125 0.3125 L 0.890625 0.234375 C 0.910156 0.328125 0.957031 0.398438 1.03125 0.453125 C 1.101562 0.515625 1.195312 0.546875 1.3125 0.546875 C 1.476562 0.546875 1.597656 0.492188 1.671875 0.390625 C 1.753906 0.285156 1.796875 0.128906 1.796875 -0.078125 L 1.796875 -0.203125 L 1.8125 -0.4375 L 1.796875 -0.4375 C 1.660156 -0.144531 1.410156 0 1.046875 0 C 0.773438 0 0.5625 -0.101562 0.40625 -0.3125 C 0.257812 -0.519531 0.1875 -0.816406 0.1875 -1.203125 C 0.1875 -1.578125 0.257812 -1.867188 0.40625 -2.078125 C 0.5625 -2.285156 0.789062 -2.390625 1.09375 -2.390625 C 1.4375 -2.390625 1.671875 -2.25 1.796875 -1.96875 L 1.8125 -1.96875 C 1.8125 -2.019531 1.8125 -2.085938 1.8125 -2.171875 C 1.820312 -2.265625 1.832031 -2.328125 1.84375 -2.359375 L 2.421875 -2.359375 C 2.410156 -2.203125 2.40625 -2.019531 2.40625 -1.8125 L 2.40625 -0.078125 C 2.40625 0.265625 2.3125 0.519531 2.125 0.6875 C 1.9375 0.851562 1.660156 0.9375 1.296875 0.9375 Z M 1.8125 -1.203125 C 1.8125 -1.453125 1.765625 -1.644531 1.671875 -1.78125 C 1.585938 -1.914062 1.46875 -1.984375 1.3125 -1.984375 C 0.976562 -1.984375 0.8125 -1.722656 0.8125 -1.203125 C 0.8125 -0.679688 0.972656 -0.421875 1.296875 -0.421875 C 1.460938 -0.421875 1.585938 -0.488281 1.671875 -0.625 C 1.765625 -0.757812 1.8125 -0.953125 1.8125 -1.203125 Z M 1.8125 -1.203125 "/></g></g><g transform="translate(47.436532, 161.139529)"><g><path d="M 1.28125 0.046875 C 0.925781 0.046875 0.648438 -0.0546875 0.453125 -0.265625 C 0.265625 -0.472656 0.171875 -0.78125 0.171875 -1.1875 C 0.171875 -1.570312 0.265625 -1.867188 0.453125 -2.078125 C 0.648438 -2.285156 0.925781 -2.390625 1.28125 -2.390625 C 1.625 -2.390625 1.882812 -2.273438 2.0625 -2.046875 C 2.238281 -1.828125 2.328125 -1.503906 2.328125 -1.078125 L 2.328125 -1.0625 L 0.8125 -1.0625 C 0.8125 -0.832031 0.851562 -0.65625 0.9375 -0.53125 C 1.019531 -0.414062 1.140625 -0.359375 1.296875 -0.359375 C 1.515625 -0.359375 1.65625 -0.453125 1.71875 -0.640625 L 2.296875 -0.59375 C 2.128906 -0.164062 1.789062 0.046875 1.28125 0.046875 Z M 1.28125 -2.015625 C 1.132812 -2.015625 1.019531 -1.960938 0.9375 -1.859375 C 0.863281 -1.765625 0.820312 -1.625 0.8125 -1.4375 L 1.734375 -1.4375 C 1.722656 -1.625 1.675781 -1.765625 1.59375 -1.859375 C 1.507812 -1.960938 1.40625 -2.015625 1.28125 -2.015625 Z M 1.28125 -2.015625 "/></g></g><g transform="translate(49.913603, 161.139529)"><g><path d="M 1.828125 0 L 1.828125 -1.3125 C 1.828125 -1.726562 1.691406 -1.9375 1.421875 -1.9375 C 1.265625 -1.9375 1.140625 -1.875 1.046875 -1.75 C 0.960938 -1.625 0.921875 -1.460938 0.921875 -1.265625 L 0.921875 0 L 0.3125 0 L 0.3125 -1.828125 C 0.3125 -1.953125 0.304688 -2.050781 0.296875 -2.125 C 0.296875 -2.207031 0.296875 -2.285156 0.296875 -2.359375 L 0.875 -2.359375 C 0.875 -2.328125 0.878906 -2.25 0.890625 -2.125 C 0.898438 -2.007812 0.90625 -1.929688 0.90625 -1.890625 C 0.988281 -2.066406 1.09375 -2.191406 1.21875 -2.265625 C 1.34375 -2.347656 1.492188 -2.390625 1.671875 -2.390625 C 1.921875 -2.390625 2.109375 -2.3125 2.234375 -2.15625 C 2.367188 -2.007812 2.4375 -1.789062 2.4375 -1.5 L 2.4375 0 Z M 1.828125 0 "/></g></g><g transform="translate(52.634248, 161.139529)"><g><path d="M 1.296875 0.046875 C 0.929688 0.046875 0.648438 -0.0546875 0.453125 -0.265625 C 0.265625 -0.484375 0.171875 -0.78125 0.171875 -1.15625 C 0.171875 -1.550781 0.269531 -1.851562 0.46875 -2.0625 C 0.664062 -2.28125 0.941406 -2.390625 1.296875 -2.390625 C 1.578125 -2.390625 1.804688 -2.320312 1.984375 -2.1875 C 2.171875 -2.050781 2.285156 -1.859375 2.328125 -1.609375 L 1.71875 -1.578125 C 1.695312 -1.703125 1.648438 -1.796875 1.578125 -1.859375 C 1.515625 -1.929688 1.414062 -1.96875 1.28125 -1.96875 C 0.96875 -1.96875 0.8125 -1.707031 0.8125 -1.1875 C 0.8125 -0.644531 0.972656 -0.375 1.296875 -0.375 C 1.410156 -0.375 1.503906 -0.410156 1.578125 -0.484375 C 1.660156 -0.554688 1.710938 -0.664062 1.734375 -0.8125 L 2.34375 -0.78125 C 2.320312 -0.625 2.265625 -0.476562 2.171875 -0.34375 C 2.078125 -0.21875 1.953125 -0.117188 1.796875 -0.046875 C 1.648438 0.015625 1.484375 0.046875 1.296875 0.046875 Z M 1.296875 0.046875 "/></g></g><g transform="translate(55.111319, 161.139529)"><g><path d="M 1.28125 0.046875 C 0.925781 0.046875 0.648438 -0.0546875 0.453125 -0.265625 C 0.265625 -0.472656 0.171875 -0.78125 0.171875 -1.1875 C 0.171875 -1.570312 0.265625 -1.867188 0.453125 -2.078125 C 0.648438 -2.285156 0.925781 -2.390625 1.28125 -2.390625 C 1.625 -2.390625 1.882812 -2.273438 2.0625 -2.046875 C 2.238281 -1.828125 2.328125 -1.503906 2.328125 -1.078125 L 2.328125 -1.0625 L 0.8125 -1.0625 C 0.8125 -0.832031 0.851562 -0.65625 0.9375 -0.53125 C 1.019531 -0.414062 1.140625 -0.359375 1.296875 -0.359375 C 1.515625 -0.359375 1.65625 -0.453125 1.71875 -0.640625 L 2.296875 -0.59375 C 2.128906 -0.164062 1.789062 0.046875 1.28125 0.046875 Z M 1.28125 -2.015625 C 1.132812 -2.015625 1.019531 -1.960938 0.9375 -1.859375 C 0.863281 -1.765625 0.820312 -1.625 0.8125 -1.4375 L 1.734375 -1.4375 C 1.722656 -1.625 1.675781 -1.765625 1.59375 -1.859375 C 1.507812 -1.960938 1.40625 -2.015625 1.28125 -2.015625 Z M 1.28125 -2.015625 "/></g></g></g><g fill="#ffffff" fill-opacity="1"><g transform="translate(16.75261, 165.593471)"><g><path d="M 2.84375 0 L 2.84375 -1.859375 C 2.84375 -1.898438 2.84375 -1.941406 2.84375 -1.984375 C 2.84375 -2.023438 2.847656 -2.207031 2.859375 -2.53125 C 2.753906 -2.132812 2.679688 -1.859375 2.640625 -1.703125 L 2.078125 0 L 1.625 0 L 1.078125 -1.703125 L 0.84375 -2.53125 C 0.863281 -2.1875 0.875 -1.960938 0.875 -1.859375 L 0.875 0 L 0.296875 0 L 0.296875 -3.0625 L 1.15625 -3.0625 L 1.703125 -1.34375 L 1.75 -1.1875 L 1.859375 -0.78125 L 2 -1.265625 L 2.5625 -3.0625 L 3.40625 -3.0625 L 3.40625 0 Z M 2.84375 0 "/></g></g><g transform="translate(20.462779, 165.593471)"><g><path d="M 1.28125 0.046875 C 0.925781 0.046875 0.648438 -0.0546875 0.453125 -0.265625 C 0.265625 -0.472656 0.171875 -0.78125 0.171875 -1.1875 C 0.171875 -1.570312 0.265625 -1.867188 0.453125 -2.078125 C 0.648438 -2.285156 0.925781 -2.390625 1.28125 -2.390625 C 1.625 -2.390625 1.882812 -2.273438 2.0625 -2.046875 C 2.238281 -1.828125 2.328125 -1.503906 2.328125 -1.078125 L 2.328125 -1.0625 L 0.8125 -1.0625 C 0.8125 -0.832031 0.851562 -0.65625 0.9375 -0.53125 C 1.019531 -0.414062 1.140625 -0.359375 1.296875 -0.359375 C 1.515625 -0.359375 1.65625 -0.453125 1.71875 -0.640625 L 2.296875 -0.59375 C 2.128906 -0.164062 1.789062 0.046875 1.28125 0.046875 Z M 1.28125 -2.015625 C 1.132812 -2.015625 1.019531 -1.960938 0.9375 -1.859375 C 0.863281 -1.765625 0.820312 -1.625 0.8125 -1.4375 L 1.734375 -1.4375 C 1.722656 -1.625 1.675781 -1.765625 1.59375 -1.859375 C 1.507812 -1.960938 1.40625 -2.015625 1.28125 -2.015625 Z M 1.28125 -2.015625 "/></g></g><g transform="translate(22.939849, 165.593471)"><g><path d="M 1.28125 0.046875 C 0.925781 0.046875 0.648438 -0.0546875 0.453125 -0.265625 C 0.265625 -0.472656 0.171875 -0.78125 0.171875 -1.1875 C 0.171875 -1.570312 0.265625 -1.867188 0.453125 -2.078125 C 0.648438 -2.285156 0.925781 -2.390625 1.28125 -2.390625 C 1.625 -2.390625 1.882812 -2.273438 2.0625 -2.046875 C 2.238281 -1.828125 2.328125 -1.503906 2.328125 -1.078125 L 2.328125 -1.0625 L 0.8125 -1.0625 C 0.8125 -0.832031 0.851562 -0.65625 0.9375 -0.53125 C 1.019531 -0.414062 1.140625 -0.359375 1.296875 -0.359375 C 1.515625 -0.359375 1.65625 -0.453125 1.71875 -0.640625 L 2.296875 -0.59375 C 2.128906 -0.164062 1.789062 0.046875 1.28125 0.046875 Z M 1.28125 -2.015625 C 1.132812 -2.015625 1.019531 -1.960938 0.9375 -1.859375 C 0.863281 -1.765625 0.820312 -1.625 0.8125 -1.4375 L 1.734375 -1.4375 C 1.722656 -1.625 1.675781 -1.765625 1.59375 -1.859375 C 1.507812 -1.960938 1.40625 -2.015625 1.28125 -2.015625 Z M 1.28125 -2.015625 "/></g></g><g transform="translate(25.41692, 165.593471)"><g><path d="M 0.90625 0.046875 C 0.726562 0.046875 0.59375 0 0.5 -0.09375 C 0.40625 -0.195312 0.359375 -0.347656 0.359375 -0.546875 L 0.359375 -1.9375 L 0.046875 -1.9375 L 0.046875 -2.359375 L 0.375 -2.359375 L 0.578125 -2.90625 L 0.953125 -2.90625 L 0.953125 -2.359375 L 1.40625 -2.359375 L 1.40625 -1.9375 L 0.953125 -1.9375 L 0.953125 -0.71875 C 0.953125 -0.601562 0.972656 -0.515625 1.015625 -0.453125 C 1.066406 -0.398438 1.132812 -0.375 1.21875 -0.375 C 1.269531 -0.375 1.335938 -0.382812 1.421875 -0.40625 L 1.421875 -0.03125 C 1.273438 0.0195312 1.101562 0.046875 0.90625 0.046875 Z M 0.90625 0.046875 "/></g></g><g transform="translate(26.900117, 165.593471)"><g><path d="M 2.296875 -0.6875 C 2.296875 -0.457031 2.203125 -0.273438 2.015625 -0.140625 C 1.828125 -0.015625 1.566406 0.046875 1.234375 0.046875 C 0.910156 0.046875 0.660156 -0.00390625 0.484375 -0.109375 C 0.316406 -0.210938 0.207031 -0.375 0.15625 -0.59375 L 0.6875 -0.671875 C 0.71875 -0.554688 0.769531 -0.472656 0.84375 -0.421875 C 0.925781 -0.378906 1.054688 -0.359375 1.234375 -0.359375 C 1.410156 -0.359375 1.535156 -0.378906 1.609375 -0.421875 C 1.691406 -0.460938 1.734375 -0.53125 1.734375 -0.625 C 1.734375 -0.707031 1.703125 -0.769531 1.640625 -0.8125 C 1.578125 -0.851562 1.46875 -0.890625 1.3125 -0.921875 C 0.96875 -0.992188 0.734375 -1.054688 0.609375 -1.109375 C 0.492188 -1.171875 0.40625 -1.25 0.34375 -1.34375 C 0.28125 -1.4375 0.25 -1.550781 0.25 -1.6875 C 0.25 -1.90625 0.332031 -2.078125 0.5 -2.203125 C 0.675781 -2.328125 0.925781 -2.390625 1.25 -2.390625 C 1.53125 -2.390625 1.753906 -2.335938 1.921875 -2.234375 C 2.085938 -2.128906 2.191406 -1.972656 2.234375 -1.765625 L 1.703125 -1.703125 C 1.679688 -1.796875 1.632812 -1.863281 1.5625 -1.90625 C 1.5 -1.957031 1.394531 -1.984375 1.25 -1.984375 C 1.101562 -1.984375 0.992188 -1.960938 0.921875 -1.921875 C 0.847656 -1.890625 0.8125 -1.832031 0.8125 -1.75 C 0.8125 -1.675781 0.835938 -1.617188 0.890625 -1.578125 C 0.953125 -1.546875 1.046875 -1.515625 1.171875 -1.484375 C 1.359375 -1.453125 1.519531 -1.414062 1.65625 -1.375 C 1.800781 -1.332031 1.914062 -1.28125 2 -1.21875 C 2.09375 -1.164062 2.164062 -1.097656 2.21875 -1.015625 C 2.269531 -0.929688 2.296875 -0.820312 2.296875 -0.6875 Z M 2.296875 -0.6875 "/></g></g><g transform="translate(29.377188, 165.593471)"><g/></g><g transform="translate(30.614636, 165.593471)"><g><path d="M 2.46875 0 L 2.1875 -0.78125 L 1.03125 -0.78125 L 0.75 0 L 0.109375 0 L 1.234375 -3.0625 L 1.984375 -3.0625 L 3.09375 0 Z M 1.609375 -2.59375 L 1.59375 -2.546875 C 1.582031 -2.492188 1.566406 -2.429688 1.546875 -2.359375 C 1.523438 -2.296875 1.398438 -1.929688 1.171875 -1.265625 L 2.046875 -1.265625 L 1.75 -2.140625 L 1.65625 -2.4375 Z M 1.609375 -2.59375 "/></g></g><g transform="translate(33.83113, 165.593471)"><g><path d="M 0.3125 0 L 0.3125 -1.796875 C 0.3125 -1.929688 0.304688 -2.039062 0.296875 -2.125 C 0.296875 -2.207031 0.296875 -2.285156 0.296875 -2.359375 L 0.875 -2.359375 C 0.875 -2.328125 0.878906 -2.242188 0.890625 -2.109375 C 0.898438 -1.984375 0.90625 -1.894531 0.90625 -1.84375 C 0.96875 -2.007812 1.019531 -2.125 1.0625 -2.1875 C 1.113281 -2.257812 1.171875 -2.3125 1.234375 -2.34375 C 1.296875 -2.375 1.375 -2.390625 1.46875 -2.390625 C 1.550781 -2.390625 1.617188 -2.378906 1.671875 -2.359375 L 1.671875 -1.859375 C 1.566406 -1.878906 1.476562 -1.890625 1.40625 -1.890625 C 1.25 -1.890625 1.128906 -1.828125 1.046875 -1.703125 C 0.960938 -1.578125 0.921875 -1.394531 0.921875 -1.15625 L 0.921875 0 Z M 0.3125 0 "/></g></g><g transform="translate(35.564427, 165.593471)"><g><path d="M 0.90625 0.046875 C 0.726562 0.046875 0.59375 0 0.5 -0.09375 C 0.40625 -0.195312 0.359375 -0.347656 0.359375 -0.546875 L 0.359375 -1.9375 L 0.046875 -1.9375 L 0.046875 -2.359375 L 0.375 -2.359375 L 0.578125 -2.90625 L 0.953125 -2.90625 L 0.953125 -2.359375 L 1.40625 -2.359375 L 1.40625 -1.9375 L 0.953125 -1.9375 L 0.953125 -0.71875 C 0.953125 -0.601562 0.972656 -0.515625 1.015625 -0.453125 C 1.066406 -0.398438 1.132812 -0.375 1.21875 -0.375 C 1.269531 -0.375 1.335938 -0.382812 1.421875 -0.40625 L 1.421875 -0.03125 C 1.273438 0.0195312 1.101562 0.046875 0.90625 0.046875 Z M 0.90625 0.046875 "/></g></g><g transform="translate(37.047625, 165.593471)"><g><path d="M 0.3125 -2.78125 L 0.3125 -3.234375 L 0.921875 -3.234375 L 0.921875 -2.78125 Z M 0.3125 0 L 0.3125 -2.359375 L 0.921875 -2.359375 L 0.921875 0 Z M 0.3125 0 "/></g></g><g transform="translate(38.285073, 165.593471)"><g><path d="M 1.03125 -1.9375 L 1.03125 0 L 0.421875 0 L 0.421875 -1.9375 L 0.078125 -1.9375 L 0.078125 -2.359375 L 0.421875 -2.359375 L 0.421875 -2.59375 C 0.421875 -2.8125 0.476562 -2.972656 0.59375 -3.078125 C 0.707031 -3.179688 0.878906 -3.234375 1.109375 -3.234375 C 1.222656 -3.234375 1.347656 -3.21875 1.484375 -3.1875 L 1.484375 -2.796875 C 1.429688 -2.804688 1.375 -2.8125 1.3125 -2.8125 C 1.207031 -2.8125 1.132812 -2.789062 1.09375 -2.75 C 1.050781 -2.707031 1.03125 -2.632812 1.03125 -2.53125 L 1.03125 -2.359375 L 1.484375 -2.359375 L 1.484375 -1.9375 Z M 1.03125 -1.9375 "/></g></g><g transform="translate(39.76827, 165.593471)"><g><path d="M 0.3125 -2.78125 L 0.3125 -3.234375 L 0.921875 -3.234375 L 0.921875 -2.78125 Z M 0.3125 0 L 0.3125 -2.359375 L 0.921875 -2.359375 L 0.921875 0 Z M 0.3125 0 "/></g></g><g transform="translate(41.005718, 165.593471)"><g><path d="M 1.296875 0.046875 C 0.929688 0.046875 0.648438 -0.0546875 0.453125 -0.265625 C 0.265625 -0.484375 0.171875 -0.78125 0.171875 -1.15625 C 0.171875 -1.550781 0.269531 -1.851562 0.46875 -2.0625 C 0.664062 -2.28125 0.941406 -2.390625 1.296875 -2.390625 C 1.578125 -2.390625 1.804688 -2.320312 1.984375 -2.1875 C 2.171875 -2.050781 2.285156 -1.859375 2.328125 -1.609375 L 1.71875 -1.578125 C 1.695312 -1.703125 1.648438 -1.796875 1.578125 -1.859375 C 1.515625 -1.929688 1.414062 -1.96875 1.28125 -1.96875 C 0.96875 -1.96875 0.8125 -1.707031 0.8125 -1.1875 C 0.8125 -0.644531 0.972656 -0.375 1.296875 -0.375 C 1.410156 -0.375 1.503906 -0.410156 1.578125 -0.484375 C 1.660156 -0.554688 1.710938 -0.664062 1.734375 -0.8125 L 2.34375 -0.78125 C 2.320312 -0.625 2.265625 -0.476562 2.171875 -0.34375 C 2.078125 -0.21875 1.953125 -0.117188 1.796875 -0.046875 C 1.648438 0.015625 1.484375 0.046875 1.296875 0.046875 Z M 1.296875 0.046875 "/></g></g><g transform="translate(43.482788, 165.593471)"><g><path d="M 0.3125 -2.78125 L 0.3125 -3.234375 L 0.921875 -3.234375 L 0.921875 -2.78125 Z M 0.3125 0 L 0.3125 -2.359375 L 0.921875 -2.359375 L 0.921875 0 Z M 0.3125 0 "/></g></g><g transform="translate(44.720236, 165.593471)"><g><path d="M 0.859375 0.046875 C 0.628906 0.046875 0.445312 -0.015625 0.3125 -0.140625 C 0.1875 -0.265625 0.125 -0.441406 0.125 -0.671875 C 0.125 -0.910156 0.203125 -1.09375 0.359375 -1.21875 C 0.523438 -1.34375 0.757812 -1.410156 1.0625 -1.421875 L 1.5625 -1.421875 L 1.5625 -1.546875 C 1.5625 -1.703125 1.535156 -1.816406 1.484375 -1.890625 C 1.429688 -1.960938 1.34375 -2 1.21875 -2 C 1.101562 -2 1.019531 -1.972656 0.96875 -1.921875 C 0.914062 -1.867188 0.882812 -1.785156 0.875 -1.671875 L 0.234375 -1.703125 C 0.273438 -1.929688 0.378906 -2.101562 0.546875 -2.21875 C 0.722656 -2.332031 0.957031 -2.390625 1.25 -2.390625 C 1.539062 -2.390625 1.765625 -2.316406 1.921875 -2.171875 C 2.085938 -2.023438 2.171875 -1.816406 2.171875 -1.546875 L 2.171875 -0.703125 C 2.171875 -0.566406 2.1875 -0.472656 2.21875 -0.421875 C 2.25 -0.367188 2.300781 -0.34375 2.375 -0.34375 C 2.414062 -0.34375 2.457031 -0.347656 2.5 -0.359375 L 2.5 -0.03125 C 2.46875 -0.0195312 2.4375 -0.0078125 2.40625 0 C 2.375 0 2.34375 0 2.3125 0 C 2.289062 0.0078125 2.257812 0.015625 2.21875 0.015625 C 2.1875 0.0234375 2.148438 0.03125 2.109375 0.03125 C 1.960938 0.03125 1.847656 -0.00390625 1.765625 -0.078125 C 1.691406 -0.160156 1.648438 -0.273438 1.640625 -0.421875 L 1.625 -0.421875 C 1.457031 -0.109375 1.203125 0.046875 0.859375 0.046875 Z M 1.5625 -1.09375 L 1.25 -1.078125 C 1.113281 -1.078125 1.015625 -1.0625 0.953125 -1.03125 C 0.890625 -1.007812 0.84375 -0.972656 0.8125 -0.921875 C 0.78125 -0.867188 0.765625 -0.800781 0.765625 -0.71875 C 0.765625 -0.601562 0.789062 -0.515625 0.84375 -0.453125 C 0.894531 -0.398438 0.960938 -0.375 1.046875 -0.375 C 1.140625 -0.375 1.226562 -0.398438 1.3125 -0.453125 C 1.394531 -0.515625 1.457031 -0.585938 1.5 -0.671875 C 1.539062 -0.765625 1.5625 -0.863281 1.5625 -0.96875 Z M 1.5625 -1.09375 "/></g></g><g transform="translate(47.197307, 165.593471)"><g><path d="M 0.3125 0 L 0.3125 -3.234375 L 0.921875 -3.234375 L 0.921875 0 Z M 0.3125 0 "/></g></g></g><g fill="#ffffff" fill-opacity="1"><g transform="translate(16.75261, 170.047414)"><g><path d="M 0.296875 0 L 0.296875 -3.0625 L 0.9375 -3.0625 L 0.9375 -0.5 L 2.578125 -0.5 L 2.578125 0 Z M 0.296875 0 "/></g></g><g transform="translate(19.473255, 170.047414)"><g><path d="M 1.28125 0.046875 C 0.925781 0.046875 0.648438 -0.0546875 0.453125 -0.265625 C 0.265625 -0.472656 0.171875 -0.78125 0.171875 -1.1875 C 0.171875 -1.570312 0.265625 -1.867188 0.453125 -2.078125 C 0.648438 -2.285156 0.925781 -2.390625 1.28125 -2.390625 C 1.625 -2.390625 1.882812 -2.273438 2.0625 -2.046875 C 2.238281 -1.828125 2.328125 -1.503906 2.328125 -1.078125 L 2.328125 -1.0625 L 0.8125 -1.0625 C 0.8125 -0.832031 0.851562 -0.65625 0.9375 -0.53125 C 1.019531 -0.414062 1.140625 -0.359375 1.296875 -0.359375 C 1.515625 -0.359375 1.65625 -0.453125 1.71875 -0.640625 L 2.296875 -0.59375 C 2.128906 -0.164062 1.789062 0.046875 1.28125 0.046875 Z M 1.28125 -2.015625 C 1.132812 -2.015625 1.019531 -1.960938 0.9375 -1.859375 C 0.863281 -1.765625 0.820312 -1.625 0.8125 -1.4375 L 1.734375 -1.4375 C 1.722656 -1.625 1.675781 -1.765625 1.59375 -1.859375 C 1.507812 -1.960938 1.40625 -2.015625 1.28125 -2.015625 Z M 1.28125 -2.015625 "/></g></g><g transform="translate(21.950326, 170.047414)"><g><path d="M 0.859375 0.046875 C 0.628906 0.046875 0.445312 -0.015625 0.3125 -0.140625 C 0.1875 -0.265625 0.125 -0.441406 0.125 -0.671875 C 0.125 -0.910156 0.203125 -1.09375 0.359375 -1.21875 C 0.523438 -1.34375 0.757812 -1.410156 1.0625 -1.421875 L 1.5625 -1.421875 L 1.5625 -1.546875 C 1.5625 -1.703125 1.535156 -1.816406 1.484375 -1.890625 C 1.429688 -1.960938 1.34375 -2 1.21875 -2 C 1.101562 -2 1.019531 -1.972656 0.96875 -1.921875 C 0.914062 -1.867188 0.882812 -1.785156 0.875 -1.671875 L 0.234375 -1.703125 C 0.273438 -1.929688 0.378906 -2.101562 0.546875 -2.21875 C 0.722656 -2.332031 0.957031 -2.390625 1.25 -2.390625 C 1.539062 -2.390625 1.765625 -2.316406 1.921875 -2.171875 C 2.085938 -2.023438 2.171875 -1.816406 2.171875 -1.546875 L 2.171875 -0.703125 C 2.171875 -0.566406 2.1875 -0.472656 2.21875 -0.421875 C 2.25 -0.367188 2.300781 -0.34375 2.375 -0.34375 C 2.414062 -0.34375 2.457031 -0.347656 2.5 -0.359375 L 2.5 -0.03125 C 2.46875 -0.0195312 2.4375 -0.0078125 2.40625 0 C 2.375 0 2.34375 0 2.3125 0 C 2.289062 0.0078125 2.257812 0.015625 2.21875 0.015625 C 2.1875 0.0234375 2.148438 0.03125 2.109375 0.03125 C 1.960938 0.03125 1.847656 -0.00390625 1.765625 -0.078125 C 1.691406 -0.160156 1.648438 -0.273438 1.640625 -0.421875 L 1.625 -0.421875 C 1.457031 -0.109375 1.203125 0.046875 0.859375 0.046875 Z M 1.5625 -1.09375 L 1.25 -1.078125 C 1.113281 -1.078125 1.015625 -1.0625 0.953125 -1.03125 C 0.890625 -1.007812 0.84375 -0.972656 0.8125 -0.921875 C 0.78125 -0.867188 0.765625 -0.800781 0.765625 -0.71875 C 0.765625 -0.601562 0.789062 -0.515625 0.84375 -0.453125 C 0.894531 -0.398438 0.960938 -0.375 1.046875 -0.375 C 1.140625 -0.375 1.226562 -0.398438 1.3125 -0.453125 C 1.394531 -0.515625 1.457031 -0.585938 1.5 -0.671875 C 1.539062 -0.765625 1.5625 -0.863281 1.5625 -0.96875 Z M 1.5625 -1.09375 "/></g></g><g transform="translate(24.427396, 170.047414)"><g><path d="M 0.3125 0 L 0.3125 -1.796875 C 0.3125 -1.929688 0.304688 -2.039062 0.296875 -2.125 C 0.296875 -2.207031 0.296875 -2.285156 0.296875 -2.359375 L 0.875 -2.359375 C 0.875 -2.328125 0.878906 -2.242188 0.890625 -2.109375 C 0.898438 -1.984375 0.90625 -1.894531 0.90625 -1.84375 C 0.96875 -2.007812 1.019531 -2.125 1.0625 -2.1875 C 1.113281 -2.257812 1.171875 -2.3125 1.234375 -2.34375 C 1.296875 -2.375 1.375 -2.390625 1.46875 -2.390625 C 1.550781 -2.390625 1.617188 -2.378906 1.671875 -2.359375 L 1.671875 -1.859375 C 1.566406 -1.878906 1.476562 -1.890625 1.40625 -1.890625 C 1.25 -1.890625 1.128906 -1.828125 1.046875 -1.703125 C 0.960938 -1.578125 0.921875 -1.394531 0.921875 -1.15625 L 0.921875 0 Z M 0.3125 0 "/></g></g><g transform="translate(26.160693, 170.047414)"><g><path d="M 1.828125 0 L 1.828125 -1.3125 C 1.828125 -1.726562 1.691406 -1.9375 1.421875 -1.9375 C 1.265625 -1.9375 1.140625 -1.875 1.046875 -1.75 C 0.960938 -1.625 0.921875 -1.460938 0.921875 -1.265625 L 0.921875 0 L 0.3125 0 L 0.3125 -1.828125 C 0.3125 -1.953125 0.304688 -2.050781 0.296875 -2.125 C 0.296875 -2.207031 0.296875 -2.285156 0.296875 -2.359375 L 0.875 -2.359375 C 0.875 -2.328125 0.878906 -2.25 0.890625 -2.125 C 0.898438 -2.007812 0.90625 -1.929688 0.90625 -1.890625 C 0.988281 -2.066406 1.09375 -2.191406 1.21875 -2.265625 C 1.34375 -2.347656 1.492188 -2.390625 1.671875 -2.390625 C 1.921875 -2.390625 2.109375 -2.3125 2.234375 -2.15625 C 2.367188 -2.007812 2.4375 -1.789062 2.4375 -1.5 L 2.4375 0 Z M 1.828125 0 "/></g></g><g transform="translate(28.881339, 170.047414)"><g><path d="M 0.3125 -2.78125 L 0.3125 -3.234375 L 0.921875 -3.234375 L 0.921875 -2.78125 Z M 0.3125 0 L 0.3125 -2.359375 L 0.921875 -2.359375 L 0.921875 0 Z M 0.3125 0 "/></g></g><g transform="translate(30.118787, 170.047414)"><g><path d="M 1.828125 0 L 1.828125 -1.3125 C 1.828125 -1.726562 1.691406 -1.9375 1.421875 -1.9375 C 1.265625 -1.9375 1.140625 -1.875 1.046875 -1.75 C 0.960938 -1.625 0.921875 -1.460938 0.921875 -1.265625 L 0.921875 0 L 0.3125 0 L 0.3125 -1.828125 C 0.3125 -1.953125 0.304688 -2.050781 0.296875 -2.125 C 0.296875 -2.207031 0.296875 -2.285156 0.296875 -2.359375 L 0.875 -2.359375 C 0.875 -2.328125 0.878906 -2.25 0.890625 -2.125 C 0.898438 -2.007812 0.90625 -1.929688 0.90625 -1.890625 C 0.988281 -2.066406 1.09375 -2.191406 1.21875 -2.265625 C 1.34375 -2.347656 1.492188 -2.390625 1.671875 -2.390625 C 1.921875 -2.390625 2.109375 -2.3125 2.234375 -2.15625 C 2.367188 -2.007812 2.4375 -1.789062 2.4375 -1.5 L 2.4375 0 Z M 1.828125 0 "/></g></g><g transform="translate(32.839432, 170.047414)"><g><path d="M 1.296875 0.9375 C 1.003906 0.9375 0.769531 0.878906 0.59375 0.765625 C 0.425781 0.660156 0.320312 0.507812 0.28125 0.3125 L 0.890625 0.234375 C 0.910156 0.328125 0.957031 0.398438 1.03125 0.453125 C 1.101562 0.515625 1.195312 0.546875 1.3125 0.546875 C 1.476562 0.546875 1.597656 0.492188 1.671875 0.390625 C 1.753906 0.285156 1.796875 0.128906 1.796875 -0.078125 L 1.796875 -0.203125 L 1.8125 -0.4375 L 1.796875 -0.4375 C 1.660156 -0.144531 1.410156 0 1.046875 0 C 0.773438 0 0.5625 -0.101562 0.40625 -0.3125 C 0.257812 -0.519531 0.1875 -0.816406 0.1875 -1.203125 C 0.1875 -1.578125 0.257812 -1.867188 0.40625 -2.078125 C 0.5625 -2.285156 0.789062 -2.390625 1.09375 -2.390625 C 1.4375 -2.390625 1.671875 -2.25 1.796875 -1.96875 L 1.8125 -1.96875 C 1.8125 -2.019531 1.8125 -2.085938 1.8125 -2.171875 C 1.820312 -2.265625 1.832031 -2.328125 1.84375 -2.359375 L 2.421875 -2.359375 C 2.410156 -2.203125 2.40625 -2.019531 2.40625 -1.8125 L 2.40625 -0.078125 C 2.40625 0.265625 2.3125 0.519531 2.125 0.6875 C 1.9375 0.851562 1.660156 0.9375 1.296875 0.9375 Z M 1.8125 -1.203125 C 1.8125 -1.453125 1.765625 -1.644531 1.671875 -1.78125 C 1.585938 -1.914062 1.46875 -1.984375 1.3125 -1.984375 C 0.976562 -1.984375 0.8125 -1.722656 0.8125 -1.203125 C 0.8125 -0.679688 0.972656 -0.421875 1.296875 -0.421875 C 1.460938 -0.421875 1.585938 -0.488281 1.671875 -0.625 C 1.765625 -0.757812 1.8125 -0.953125 1.8125 -1.203125 Z M 1.8125 -1.203125 "/></g></g><g transform="translate(35.560077, 170.047414)"><g/></g><g transform="translate(36.797525, 170.047414)"><g><path d="M 0.3125 -2.78125 L 0.3125 -3.234375 L 0.921875 -3.234375 L 0.921875 -2.78125 Z M 0.3125 0 L 0.3125 -2.359375 L 0.921875 -2.359375 L 0.921875 0 Z M 0.3125 0 "/></g></g><g transform="translate(38.034973, 170.047414)"><g><path d="M 1.828125 0 L 1.828125 -1.3125 C 1.828125 -1.726562 1.691406 -1.9375 1.421875 -1.9375 C 1.265625 -1.9375 1.140625 -1.875 1.046875 -1.75 C 0.960938 -1.625 0.921875 -1.460938 0.921875 -1.265625 L 0.921875 0 L 0.3125 0 L 0.3125 -1.828125 C 0.3125 -1.953125 0.304688 -2.050781 0.296875 -2.125 C 0.296875 -2.207031 0.296875 -2.285156 0.296875 -2.359375 L 0.875 -2.359375 C 0.875 -2.328125 0.878906 -2.25 0.890625 -2.125 C 0.898438 -2.007812 0.90625 -1.929688 0.90625 -1.890625 C 0.988281 -2.066406 1.09375 -2.191406 1.21875 -2.265625 C 1.34375 -2.347656 1.492188 -2.390625 1.671875 -2.390625 C 1.921875 -2.390625 2.109375 -2.3125 2.234375 -2.15625 C 2.367188 -2.007812 2.4375 -1.789062 2.4375 -1.5 L 2.4375 0 Z M 1.828125 0 "/></g></g><g transform="translate(40.755619, 170.047414)"><g><path d="M 0.90625 0.046875 C 0.726562 0.046875 0.59375 0 0.5 -0.09375 C 0.40625 -0.195312 0.359375 -0.347656 0.359375 -0.546875 L 0.359375 -1.9375 L 0.046875 -1.9375 L 0.046875 -2.359375 L 0.375 -2.359375 L 0.578125 -2.90625 L 0.953125 -2.90625 L 0.953125 -2.359375 L 1.40625 -2.359375 L 1.40625 -1.9375 L 0.953125 -1.9375 L 0.953125 -0.71875 C 0.953125 -0.601562 0.972656 -0.515625 1.015625 -0.453125 C 1.066406 -0.398438 1.132812 -0.375 1.21875 -0.375 C 1.269531 -0.375 1.335938 -0.382812 1.421875 -0.40625 L 1.421875 -0.03125 C 1.273438 0.0195312 1.101562 0.046875 0.90625 0.046875 Z M 0.90625 0.046875 "/></g></g><g transform="translate(42.238816, 170.047414)"><g><path d="M 1.28125 0.046875 C 0.925781 0.046875 0.648438 -0.0546875 0.453125 -0.265625 C 0.265625 -0.472656 0.171875 -0.78125 0.171875 -1.1875 C 0.171875 -1.570312 0.265625 -1.867188 0.453125 -2.078125 C 0.648438 -2.285156 0.925781 -2.390625 1.28125 -2.390625 C 1.625 -2.390625 1.882812 -2.273438 2.0625 -2.046875 C 2.238281 -1.828125 2.328125 -1.503906 2.328125 -1.078125 L 2.328125 -1.0625 L 0.8125 -1.0625 C 0.8125 -0.832031 0.851562 -0.65625 0.9375 -0.53125 C 1.019531 -0.414062 1.140625 -0.359375 1.296875 -0.359375 C 1.515625 -0.359375 1.65625 -0.453125 1.71875 -0.640625 L 2.296875 -0.59375 C 2.128906 -0.164062 1.789062 0.046875 1.28125 0.046875 Z M 1.28125 -2.015625 C 1.132812 -2.015625 1.019531 -1.960938 0.9375 -1.859375 C 0.863281 -1.765625 0.820312 -1.625 0.8125 -1.4375 L 1.734375 -1.4375 C 1.722656 -1.625 1.675781 -1.765625 1.59375 -1.859375 C 1.507812 -1.960938 1.40625 -2.015625 1.28125 -2.015625 Z M 1.28125 -2.015625 "/></g></g><g transform="translate(44.715887, 170.047414)"><g><path d="M 0.3125 0 L 0.3125 -3.234375 L 0.921875 -3.234375 L 0.921875 0 Z M 0.3125 0 "/></g></g><g transform="translate(45.953335, 170.047414)"><g><path d="M 0.3125 0 L 0.3125 -3.234375 L 0.921875 -3.234375 L 0.921875 0 Z M 0.3125 0 "/></g></g><g transform="translate(47.190782, 170.047414)"><g><path d="M 0.3125 -2.78125 L 0.3125 -3.234375 L 0.921875 -3.234375 L 0.921875 -2.78125 Z M 0.3125 0 L 0.3125 -2.359375 L 0.921875 -2.359375 L 0.921875 0 Z M 0.3125 0 "/></g></g><g transform="translate(48.42823, 170.047414)"><g><path d="M 1.296875 0.9375 C 1.003906 0.9375 0.769531 0.878906 0.59375 0.765625 C 0.425781 0.660156 0.320312 0.507812 0.28125 0.3125 L 0.890625 0.234375 C 0.910156 0.328125 0.957031 0.398438 1.03125 0.453125 C 1.101562 0.515625 1.195312 0.546875 1.3125 0.546875 C 1.476562 0.546875 1.597656 0.492188 1.671875 0.390625 C 1.753906 0.285156 1.796875 0.128906 1.796875 -0.078125 L 1.796875 -0.203125 L 1.8125 -0.4375 L 1.796875 -0.4375 C 1.660156 -0.144531 1.410156 0 1.046875 0 C 0.773438 0 0.5625 -0.101562 0.40625 -0.3125 C 0.257812 -0.519531 0.1875 -0.816406 0.1875 -1.203125 C 0.1875 -1.578125 0.257812 -1.867188 0.40625 -2.078125 C 0.5625 -2.285156 0.789062 -2.390625 1.09375 -2.390625 C 1.4375 -2.390625 1.671875 -2.25 1.796875 -1.96875 L 1.8125 -1.96875 C 1.8125 -2.019531 1.8125 -2.085938 1.8125 -2.171875 C 1.820312 -2.265625 1.832031 -2.328125 1.84375 -2.359375 L 2.421875 -2.359375 C 2.410156 -2.203125 2.40625 -2.019531 2.40625 -1.8125 L 2.40625 -0.078125 C 2.40625 0.265625 2.3125 0.519531 2.125 0.6875 C 1.9375 0.851562 1.660156 0.9375 1.296875 0.9375 Z M 1.8125 -1.203125 C 1.8125 -1.453125 1.765625 -1.644531 1.671875 -1.78125 C 1.585938 -1.914062 1.46875 -1.984375 1.3125 -1.984375 C 0.976562 -1.984375 0.8125 -1.722656 0.8125 -1.203125 C 0.8125 -0.679688 0.972656 -0.421875 1.296875 -0.421875 C 1.460938 -0.421875 1.585938 -0.488281 1.671875 -0.625 C 1.765625 -0.757812 1.8125 -0.953125 1.8125 -1.203125 Z M 1.8125 -1.203125 "/></g></g><g transform="translate(51.148876, 170.047414)"><g><path d="M 1.28125 0.046875 C 0.925781 0.046875 0.648438 -0.0546875 0.453125 -0.265625 C 0.265625 -0.472656 0.171875 -0.78125 0.171875 -1.1875 C 0.171875 -1.570312 0.265625 -1.867188 0.453125 -2.078125 C 0.648438 -2.285156 0.925781 -2.390625 1.28125 -2.390625 C 1.625 -2.390625 1.882812 -2.273438 2.0625 -2.046875 C 2.238281 -1.828125 2.328125 -1.503906 2.328125 -1.078125 L 2.328125 -1.0625 L 0.8125 -1.0625 C 0.8125 -0.832031 0.851562 -0.65625 0.9375 -0.53125 C 1.019531 -0.414062 1.140625 -0.359375 1.296875 -0.359375 C 1.515625 -0.359375 1.65625 -0.453125 1.71875 -0.640625 L 2.296875 -0.59375 C 2.128906 -0.164062 1.789062 0.046875 1.28125 0.046875 Z M 1.28125 -2.015625 C 1.132812 -2.015625 1.019531 -1.960938 0.9375 -1.859375 C 0.863281 -1.765625 0.820312 -1.625 0.8125 -1.4375 L 1.734375 -1.4375 C 1.722656 -1.625 1.675781 -1.765625 1.59375 -1.859375 C 1.507812 -1.960938 1.40625 -2.015625 1.28125 -2.015625 Z M 1.28125 -2.015625 "/></g></g><g transform="translate(53.625946, 170.047414)"><g><path d="M 1.828125 0 L 1.828125 -1.3125 C 1.828125 -1.726562 1.691406 -1.9375 1.421875 -1.9375 C 1.265625 -1.9375 1.140625 -1.875 1.046875 -1.75 C 0.960938 -1.625 0.921875 -1.460938 0.921875 -1.265625 L 0.921875 0 L 0.3125 0 L 0.3125 -1.828125 C 0.3125 -1.953125 0.304688 -2.050781 0.296875 -2.125 C 0.296875 -2.207031 0.296875 -2.285156 0.296875 -2.359375 L 0.875 -2.359375 C 0.875 -2.328125 0.878906 -2.25 0.890625 -2.125 C 0.898438 -2.007812 0.90625 -1.929688 0.90625 -1.890625 C 0.988281 -2.066406 1.09375 -2.191406 1.21875 -2.265625 C 1.34375 -2.347656 1.492188 -2.390625 1.671875 -2.390625 C 1.921875 -2.390625 2.109375 -2.3125 2.234375 -2.15625 C 2.367188 -2.007812 2.4375 -1.789062 2.4375 -1.5 L 2.4375 0 Z M 1.828125 0 "/></g></g><g transform="translate(56.346592, 170.047414)"><g><path d="M 1.296875 0.046875 C 0.929688 0.046875 0.648438 -0.0546875 0.453125 -0.265625 C 0.265625 -0.484375 0.171875 -0.78125 0.171875 -1.15625 C 0.171875 -1.550781 0.269531 -1.851562 0.46875 -2.0625 C 0.664062 -2.28125 0.941406 -2.390625 1.296875 -2.390625 C 1.578125 -2.390625 1.804688 -2.320312 1.984375 -2.1875 C 2.171875 -2.050781 2.285156 -1.859375 2.328125 -1.609375 L 1.71875 -1.578125 C 1.695312 -1.703125 1.648438 -1.796875 1.578125 -1.859375 C 1.515625 -1.929688 1.414062 -1.96875 1.28125 -1.96875 C 0.96875 -1.96875 0.8125 -1.707031 0.8125 -1.1875 C 0.8125 -0.644531 0.972656 -0.375 1.296875 -0.375 C 1.410156 -0.375 1.503906 -0.410156 1.578125 -0.484375 C 1.660156 -0.554688 1.710938 -0.664062 1.734375 -0.8125 L 2.34375 -0.78125 C 2.320312 -0.625 2.265625 -0.476562 2.171875 -0.34375 C 2.078125 -0.21875 1.953125 -0.117188 1.796875 -0.046875 C 1.648438 0.015625 1.484375 0.046875 1.296875 0.046875 Z M 1.296875 0.046875 "/></g></g><g transform="translate(58.823662, 170.047414)"><g><path d="M 1.28125 0.046875 C 0.925781 0.046875 0.648438 -0.0546875 0.453125 -0.265625 C 0.265625 -0.472656 0.171875 -0.78125 0.171875 -1.1875 C 0.171875 -1.570312 0.265625 -1.867188 0.453125 -2.078125 C 0.648438 -2.285156 0.925781 -2.390625 1.28125 -2.390625 C 1.625 -2.390625 1.882812 -2.273438 2.0625 -2.046875 C 2.238281 -1.828125 2.328125 -1.503906 2.328125 -1.078125 L 2.328125 -1.0625 L 0.8125 -1.0625 C 0.8125 -0.832031 0.851562 -0.65625 0.9375 -0.53125 C 1.019531 -0.414062 1.140625 -0.359375 1.296875 -0.359375 C 1.515625 -0.359375 1.65625 -0.453125 1.71875 -0.640625 L 2.296875 -0.59375 C 2.128906 -0.164062 1.789062 0.046875 1.28125 0.046875 Z M 1.28125 -2.015625 C 1.132812 -2.015625 1.019531 -1.960938 0.9375 -1.859375 C 0.863281 -1.765625 0.820312 -1.625 0.8125 -1.4375 L 1.734375 -1.4375 C 1.722656 -1.625 1.675781 -1.765625 1.59375 -1.859375 C 1.507812 -1.960938 1.40625 -2.015625 1.28125 -2.015625 Z M 1.28125 -2.015625 "/></g></g></g><g fill="#000000" fill-opacity="1"><g transform="translate(147.497171, 121.829981)"><g><path d="M 8.203125 -17.125 C 10.734375 -17.125 12.957031 -16.492188 14.875 -15.234375 L 13.25 -11.875 C 12.363281 -12.394531 11.410156 -12.816406 10.390625 -13.140625 C 9.378906 -13.472656 8.53125 -13.640625 7.84375 -13.640625 C 6.59375 -13.640625 5.96875 -13.226562 5.96875 -12.40625 C 5.96875 -11.875 6.273438 -11.445312 6.890625 -11.125 C 7.503906 -10.800781 8.25 -10.519531 9.125 -10.28125 C 10.007812 -10.050781 10.890625 -9.769531 11.765625 -9.4375 C 12.640625 -9.113281 13.382812 -8.578125 14 -7.828125 C 14.613281 -7.085938 14.921875 -6.15625 14.921875 -5.03125 C 14.921875 -3.40625 14.285156 -2.132812 13.015625 -1.21875 C 11.742188 -0.3125 10.125 0.140625 8.15625 0.140625 C 6.75 0.140625 5.359375 -0.0976562 3.984375 -0.578125 C 2.617188 -1.066406 1.425781 -1.726562 0.40625 -2.5625 L 2.078125 -5.875 C 2.929688 -5.132812 3.9375 -4.523438 5.09375 -4.046875 C 6.257812 -3.578125 7.296875 -3.34375 8.203125 -3.34375 C 8.890625 -3.34375 9.425781 -3.46875 9.8125 -3.71875 C 10.207031 -3.96875 10.40625 -4.332031 10.40625 -4.8125 C 10.40625 -5.28125 10.179688 -5.671875 9.734375 -5.984375 C 9.296875 -6.296875 8.742188 -6.53125 8.078125 -6.6875 C 7.421875 -6.84375 6.703125 -7.046875 5.921875 -7.296875 C 5.148438 -7.554688 4.429688 -7.835938 3.765625 -8.140625 C 3.109375 -8.453125 2.554688 -8.941406 2.109375 -9.609375 C 1.671875 -10.285156 1.453125 -11.085938 1.453125 -12.015625 C 1.453125 -13.566406 2.066406 -14.804688 3.296875 -15.734375 C 4.535156 -16.660156 6.171875 -17.125 8.203125 -17.125 Z M 8.203125 -17.125 "/></g></g></g><g fill="#000000" fill-opacity="1"><g transform="translate(163.076796, 121.829981)"><g><path d="M 7.359375 -13.1875 C 8.640625 -13.1875 9.785156 -12.929688 10.796875 -12.421875 C 11.804688 -11.910156 12.59375 -11.1875 13.15625 -10.25 L 10.15625 -8.4375 C 9.507812 -9.34375 8.628906 -9.796875 7.515625 -9.796875 C 6.710938 -9.796875 6.054688 -9.492188 5.546875 -8.890625 C 5.046875 -8.285156 4.796875 -7.488281 4.796875 -6.5 C 4.796875 -5.5 5.039062 -4.695312 5.53125 -4.09375 C 6.03125 -3.488281 6.691406 -3.1875 7.515625 -3.1875 C 8.742188 -3.1875 9.632812 -3.679688 10.1875 -4.671875 L 13.234375 -2.875 C 12.703125 -1.90625 11.921875 -1.160156 10.890625 -0.640625 C 9.867188 -0.117188 8.671875 0.140625 7.296875 0.140625 C 5.285156 0.140625 3.660156 -0.460938 2.421875 -1.671875 C 1.191406 -2.890625 0.578125 -4.492188 0.578125 -6.484375 C 0.578125 -8.484375 1.203125 -10.097656 2.453125 -11.328125 C 3.703125 -12.566406 5.335938 -13.1875 7.359375 -13.1875 Z M 7.359375 -13.1875 "/></g></g></g><g fill="#000000" fill-opacity="1"><g transform="translate(176.672694, 121.829981)"><g><path d="M 10.359375 -13.234375 C 11.785156 -13.234375 12.9375 -12.773438 13.8125 -11.859375 C 14.6875 -10.953125 15.125 -9.738281 15.125 -8.21875 L 15.125 0 L 10.9375 0 L 10.9375 -7.0625 C 10.9375 -7.820312 10.726562 -8.421875 10.3125 -8.859375 C 9.90625 -9.304688 9.347656 -9.53125 8.640625 -9.53125 C 7.828125 -9.53125 7.175781 -9.238281 6.6875 -8.65625 C 6.207031 -8.070312 5.96875 -7.332031 5.96875 -6.4375 L 5.96875 0 L 1.796875 0 L 1.796875 -17.953125 L 5.96875 -17.953125 L 5.96875 -10.890625 C 6.894531 -12.421875 8.359375 -13.203125 10.359375 -13.234375 Z M 10.359375 -13.234375 "/></g></g></g><g fill="#000000" fill-opacity="1"><g transform="translate(193.074855, 121.829981)"><g><path d="M 7.71875 -13.1875 C 9.84375 -13.1875 11.554688 -12.578125 12.859375 -11.359375 C 14.171875 -10.140625 14.828125 -8.53125 14.828125 -6.53125 C 14.828125 -4.53125 14.171875 -2.914062 12.859375 -1.6875 C 11.554688 -0.46875 9.84375 0.140625 7.71875 0.140625 C 5.570312 0.140625 3.84375 -0.46875 2.53125 -1.6875 C 1.226562 -2.914062 0.578125 -4.53125 0.578125 -6.53125 C 0.578125 -8.53125 1.226562 -10.140625 2.53125 -11.359375 C 3.84375 -12.578125 5.570312 -13.1875 7.71875 -13.1875 Z M 7.71875 -9.875 C 6.84375 -9.875 6.132812 -9.554688 5.59375 -8.921875 C 5.0625 -8.296875 4.796875 -7.484375 4.796875 -6.484375 C 4.796875 -5.460938 5.0625 -4.640625 5.59375 -4.015625 C 6.132812 -3.398438 6.84375 -3.09375 7.71875 -3.09375 C 8.570312 -3.09375 9.269531 -3.398438 9.8125 -4.015625 C 10.351562 -4.640625 10.625 -5.460938 10.625 -6.484375 C 10.625 -7.484375 10.351562 -8.296875 9.8125 -8.921875 C 9.269531 -9.554688 8.570312 -9.875 7.71875 -9.875 Z M 7.71875 -9.875 "/></g></g></g><g fill="#000000" fill-opacity="1"><g transform="translate(208.48514, 121.829981)"><g><path d="M 7.71875 -13.1875 C 9.84375 -13.1875 11.554688 -12.578125 12.859375 -11.359375 C 14.171875 -10.140625 14.828125 -8.53125 14.828125 -6.53125 C 14.828125 -4.53125 14.171875 -2.914062 12.859375 -1.6875 C 11.554688 -0.46875 9.84375 0.140625 7.71875 0.140625 C 5.570312 0.140625 3.84375 -0.46875 2.53125 -1.6875 C 1.226562 -2.914062 0.578125 -4.53125 0.578125 -6.53125 C 0.578125 -8.53125 1.226562 -10.140625 2.53125 -11.359375 C 3.84375 -12.578125 5.570312 -13.1875 7.71875 -13.1875 Z M 7.71875 -9.875 C 6.84375 -9.875 6.132812 -9.554688 5.59375 -8.921875 C 5.0625 -8.296875 4.796875 -7.484375 4.796875 -6.484375 C 4.796875 -5.460938 5.0625 -4.640625 5.59375 -4.015625 C 6.132812 -3.398438 6.84375 -3.09375 7.71875 -3.09375 C 8.570312 -3.09375 9.269531 -3.398438 9.8125 -4.015625 C 10.351562 -4.640625 10.625 -5.460938 10.625 -6.484375 C 10.625 -7.484375 10.351562 -8.296875 9.8125 -8.921875 C 9.269531 -9.554688 8.570312 -9.875 7.71875 -9.875 Z M 7.71875 -9.875 "/></g></g></g><g fill="#000000" fill-opacity="1"><g transform="translate(223.895426, 121.829981)"><g><path d="M 5.96875 0 L 1.796875 0 L 1.796875 -17.953125 L 5.96875 -17.953125 Z M 5.96875 0 "/></g></g></g><g fill="#000000" fill-opacity="1"><g transform="translate(231.661042, 121.829981)"><g/></g></g><g fill="#000000" fill-opacity="1"><g transform="translate(237.273591, 121.829981)"><g><path d="M 7.71875 -13.1875 C 9.84375 -13.1875 11.554688 -12.578125 12.859375 -11.359375 C 14.171875 -10.140625 14.828125 -8.53125 14.828125 -6.53125 C 14.828125 -4.53125 14.171875 -2.914062 12.859375 -1.6875 C 11.554688 -0.46875 9.84375 0.140625 7.71875 0.140625 C 5.570312 0.140625 3.84375 -0.46875 2.53125 -1.6875 C 1.226562 -2.914062 0.578125 -4.53125 0.578125 -6.53125 C 0.578125 -8.53125 1.226562 -10.140625 2.53125 -11.359375 C 3.84375 -12.578125 5.570312 -13.1875 7.71875 -13.1875 Z M 7.71875 -9.875 C 6.84375 -9.875 6.132812 -9.554688 5.59375 -8.921875 C 5.0625 -8.296875 4.796875 -7.484375 4.796875 -6.484375 C 4.796875 -5.460938 5.0625 -4.640625 5.59375 -4.015625 C 6.132812 -3.398438 6.84375 -3.09375 7.71875 -3.09375 C 8.570312 -3.09375 9.269531 -3.398438 9.8125 -4.015625 C 10.351562 -4.640625 10.625 -5.460938 10.625 -6.484375 C 10.625 -7.484375 10.351562 -8.296875 9.8125 -8.921875 C 9.269531 -9.554688 8.570312 -9.875 7.71875 -9.875 Z M 7.71875 -9.875 "/></g></g></g><g fill="#000000" fill-opacity="1"><g transform="translate(252.683877, 121.829981)"><g><path d="M 8.078125 -14.828125 C 7.640625 -14.835938 7.28125 -14.71875 7 -14.46875 C 6.71875 -14.21875 6.578125 -13.863281 6.578125 -13.40625 L 6.578125 -12.453125 L 9.53125 -12.453125 L 9.53125 -9.703125 L 6.578125 -9.703125 L 6.578125 0 L 2.4375 0 L 2.4375 -9.703125 L 0.671875 -9.703125 L 0.671875 -12.453125 L 2.4375 -12.453125 L 2.4375 -13.671875 C 2.4375 -15.066406 2.90625 -16.160156 3.84375 -16.953125 C 4.78125 -17.742188 5.972656 -18.140625 7.421875 -18.140625 C 8.804688 -18.140625 10.023438 -17.832031 11.078125 -17.21875 L 9.609375 -14.296875 C 9.117188 -14.648438 8.609375 -14.828125 8.078125 -14.828125 Z M 8.078125 -14.828125 "/></g></g></g><g fill="#000000" fill-opacity="1"><g transform="translate(147.497171, 155.455136)"><g><path d="M 20.296875 0 L 16.5 0 L 16.46875 -11 L 12.40625 -1.6875 L 9.609375 -1.6875 L 5.53125 -11 L 5.53125 0 L 1.6875 0 L 1.6875 -16.953125 L 6.40625 -16.953125 L 11 -6.875 L 15.59375 -16.953125 L 20.296875 -16.953125 Z M 20.296875 0 "/></g></g></g><g fill="#000000" fill-opacity="1"><g transform="translate(169.511858, 155.455136)"><g><path d="M 7.515625 -13.234375 C 9.304688 -13.234375 10.695312 -12.816406 11.6875 -11.984375 C 12.6875 -11.148438 13.191406 -9.992188 13.203125 -8.515625 L 13.203125 0 L 9.125 0 L 9.125 -1.5 C 8.269531 -0.375 6.9375 0.1875 5.125 0.1875 C 3.757812 0.1875 2.671875 -0.1875 1.859375 -0.9375 C 1.054688 -1.695312 0.65625 -2.679688 0.65625 -3.890625 C 0.65625 -5.128906 1.082031 -6.09375 1.9375 -6.78125 C 2.800781 -7.46875 4.039062 -7.820312 5.65625 -7.84375 L 9.09375 -7.84375 L 9.09375 -8.03125 C 9.09375 -8.675781 8.878906 -9.179688 8.453125 -9.546875 C 8.023438 -9.910156 7.394531 -10.09375 6.5625 -10.09375 C 5.382812 -10.09375 4.082031 -9.726562 2.65625 -9 L 1.46875 -11.75 C 3.582031 -12.738281 5.597656 -13.234375 7.515625 -13.234375 Z M 6.40625 -2.640625 C 7.070312 -2.640625 7.65625 -2.800781 8.15625 -3.125 C 8.65625 -3.457031 8.96875 -3.890625 9.09375 -4.421875 L 9.09375 -5.59375 L 6.453125 -5.59375 C 5.203125 -5.59375 4.578125 -5.125 4.578125 -4.1875 C 4.578125 -3.695312 4.734375 -3.316406 5.046875 -3.046875 C 5.367188 -2.773438 5.820312 -2.640625 6.40625 -2.640625 Z M 6.40625 -2.640625 "/></g></g></g><g fill="#000000" fill-opacity="1"><g transform="translate(184.027054, 155.455136)"><g><path d="M 7.359375 -13.1875 C 8.640625 -13.1875 9.785156 -12.929688 10.796875 -12.421875 C 11.804688 -11.910156 12.59375 -11.1875 13.15625 -10.25 L 10.15625 -8.4375 C 9.507812 -9.34375 8.628906 -9.796875 7.515625 -9.796875 C 6.710938 -9.796875 6.054688 -9.492188 5.546875 -8.890625 C 5.046875 -8.285156 4.796875 -7.488281 4.796875 -6.5 C 4.796875 -5.5 5.039062 -4.695312 5.53125 -4.09375 C 6.03125 -3.488281 6.691406 -3.1875 7.515625 -3.1875 C 8.742188 -3.1875 9.632812 -3.679688 10.1875 -4.671875 L 13.234375 -2.875 C 12.703125 -1.90625 11.921875 -1.160156 10.890625 -0.640625 C 9.867188 -0.117188 8.671875 0.140625 7.296875 0.140625 C 5.285156 0.140625 3.660156 -0.460938 2.421875 -1.671875 C 1.191406 -2.890625 0.578125 -4.492188 0.578125 -6.484375 C 0.578125 -8.484375 1.203125 -10.097656 2.453125 -11.328125 C 3.703125 -12.566406 5.335938 -13.1875 7.359375 -13.1875 Z M 7.359375 -13.1875 "/></g></g></g><g fill="#000000" fill-opacity="1"><g transform="translate(197.622952, 155.455136)"><g><path d="M 10.359375 -13.234375 C 11.785156 -13.234375 12.9375 -12.773438 13.8125 -11.859375 C 14.6875 -10.953125 15.125 -9.738281 15.125 -8.21875 L 15.125 0 L 10.9375 0 L 10.9375 -7.0625 C 10.9375 -7.820312 10.726562 -8.421875 10.3125 -8.859375 C 9.90625 -9.304688 9.347656 -9.53125 8.640625 -9.53125 C 7.828125 -9.53125 7.175781 -9.238281 6.6875 -8.65625 C 6.207031 -8.070312 5.96875 -7.332031 5.96875 -6.4375 L 5.96875 0 L 1.796875 0 L 1.796875 -17.953125 L 5.96875 -17.953125 L 5.96875 -10.890625 C 6.894531 -12.421875 8.359375 -13.203125 10.359375 -13.234375 Z M 10.359375 -13.234375 "/></g></g></g><g fill="#000000" fill-opacity="1"><g transform="translate(214.025112, 155.455136)"><g><path d="M 2.1875 -18.359375 C 2.601562 -18.773438 3.128906 -18.984375 3.765625 -18.984375 C 4.410156 -18.984375 4.9375 -18.773438 5.34375 -18.359375 C 5.757812 -17.953125 5.96875 -17.425781 5.96875 -16.78125 C 5.96875 -16.132812 5.757812 -15.601562 5.34375 -15.1875 C 4.9375 -14.769531 4.410156 -14.5625 3.765625 -14.5625 C 3.128906 -14.5625 2.601562 -14.769531 2.1875 -15.1875 C 1.78125 -15.601562 1.578125 -16.132812 1.578125 -16.78125 C 1.578125 -17.425781 1.78125 -17.953125 2.1875 -18.359375 Z M 5.828125 0 L 1.671875 0 L 1.671875 -13.03125 L 5.828125 -13.03125 Z M 5.828125 0 "/></g></g></g><g fill="#000000" fill-opacity="1"><g transform="translate(221.548812, 155.455136)"><g><path d="M 10.203125 -13.234375 C 11.640625 -13.234375 12.789062 -12.773438 13.65625 -11.859375 C 14.53125 -10.953125 14.96875 -9.738281 14.96875 -8.21875 L 14.96875 0 L 10.8125 0 L 10.8125 -7.0625 C 10.8125 -7.820312 10.601562 -8.421875 10.1875 -8.859375 C 9.78125 -9.304688 9.222656 -9.53125 8.515625 -9.53125 C 7.773438 -9.53125 7.164062 -9.285156 6.6875 -8.796875 C 6.207031 -8.316406 5.929688 -7.679688 5.859375 -6.890625 L 5.859375 0 L 1.671875 0 L 1.671875 -13.03125 L 5.859375 -13.03125 L 5.859375 -10.90625 C 6.773438 -12.425781 8.222656 -13.203125 10.203125 -13.234375 Z M 10.203125 -13.234375 "/></g></g></g><g fill="#000000" fill-opacity="1"><g transform="translate(237.830003, 155.455136)"><g><path d="M 7.375 -13.1875 C 9.632812 -13.1875 11.332031 -12.488281 12.46875 -11.09375 C 13.601562 -9.707031 14.097656 -7.804688 13.953125 -5.390625 L 4.796875 -5.390625 C 5.003906 -4.617188 5.375 -4.019531 5.90625 -3.59375 C 6.4375 -3.175781 7.085938 -2.96875 7.859375 -2.96875 C 9.054688 -2.96875 10.097656 -3.414062 10.984375 -4.3125 L 13.1875 -2.15625 C 11.78125 -0.625 9.882812 0.140625 7.5 0.140625 C 5.382812 0.140625 3.703125 -0.460938 2.453125 -1.671875 C 1.203125 -2.878906 0.578125 -4.484375 0.578125 -6.484375 C 0.578125 -8.492188 1.203125 -10.113281 2.453125 -11.34375 C 3.703125 -12.570312 5.34375 -13.1875 7.375 -13.1875 Z M 4.71875 -7.640625 L 9.9375 -7.640625 C 9.9375 -8.429688 9.707031 -9.066406 9.25 -9.546875 C 8.789062 -10.035156 8.179688 -10.28125 7.421875 -10.28125 C 6.710938 -10.28125 6.113281 -10.039062 5.625 -9.5625 C 5.144531 -9.09375 4.84375 -8.453125 4.71875 -7.640625 Z M 4.71875 -7.640625 "/></g></g></g><g fill="#000000" fill-opacity="1"><g transform="translate(252.393568, 155.455136)"><g/></g></g><g fill="#000000" fill-opacity="1"><g transform="translate(258.006117, 155.455136)"><g><path d="M 6 -3.609375 L 13.1875 -3.609375 L 13.1875 0 L 1.6875 0 L 1.6875 -16.9375 L 6 -16.9375 Z M 6 -3.609375 "/></g></g></g><g fill="#000000" fill-opacity="1"><g transform="translate(271.553622, 155.455136)"><g><path d="M 7.375 -13.1875 C 9.632812 -13.1875 11.332031 -12.488281 12.46875 -11.09375 C 13.601562 -9.707031 14.097656 -7.804688 13.953125 -5.390625 L 4.796875 -5.390625 C 5.003906 -4.617188 5.375 -4.019531 5.90625 -3.59375 C 6.4375 -3.175781 7.085938 -2.96875 7.859375 -2.96875 C 9.054688 -2.96875 10.097656 -3.414062 10.984375 -4.3125 L 13.1875 -2.15625 C 11.78125 -0.625 9.882812 0.140625 7.5 0.140625 C 5.382812 0.140625 3.703125 -0.460938 2.453125 -1.671875 C 1.203125 -2.878906 0.578125 -4.484375 0.578125 -6.484375 C 0.578125 -8.492188 1.203125 -10.113281 2.453125 -11.34375 C 3.703125 -12.570312 5.34375 -13.1875 7.375 -13.1875 Z M 4.71875 -7.640625 L 9.9375 -7.640625 C 9.9375 -8.429688 9.707031 -9.066406 9.25 -9.546875 C 8.789062 -10.035156 8.179688 -10.28125 7.421875 -10.28125 C 6.710938 -10.28125 6.113281 -10.039062 5.625 -9.5625 C 5.144531 -9.09375 4.84375 -8.453125 4.71875 -7.640625 Z M 4.71875 -7.640625 "/></g></g></g><g fill="#000000" fill-opacity="1"><g transform="translate(286.117187, 155.455136)"><g><path d="M 7.515625 -13.234375 C 9.304688 -13.234375 10.695312 -12.816406 11.6875 -11.984375 C 12.6875 -11.148438 13.191406 -9.992188 13.203125 -8.515625 L 13.203125 0 L 9.125 0 L 9.125 -1.5 C 8.269531 -0.375 6.9375 0.1875 5.125 0.1875 C 3.757812 0.1875 2.671875 -0.1875 1.859375 -0.9375 C 1.054688 -1.695312 0.65625 -2.679688 0.65625 -3.890625 C 0.65625 -5.128906 1.082031 -6.09375 1.9375 -6.78125 C 2.800781 -7.46875 4.039062 -7.820312 5.65625 -7.84375 L 9.09375 -7.84375 L 9.09375 -8.03125 C 9.09375 -8.675781 8.878906 -9.179688 8.453125 -9.546875 C 8.023438 -9.910156 7.394531 -10.09375 6.5625 -10.09375 C 5.382812 -10.09375 4.082031 -9.726562 2.65625 -9 L 1.46875 -11.75 C 3.582031 -12.738281 5.597656 -13.234375 7.515625 -13.234375 Z M 6.40625 -2.640625 C 7.070312 -2.640625 7.65625 -2.800781 8.15625 -3.125 C 8.65625 -3.457031 8.96875 -3.890625 9.09375 -4.421875 L 9.09375 -5.59375 L 6.453125 -5.59375 C 5.203125 -5.59375 4.578125 -5.125 4.578125 -4.1875 C 4.578125 -3.695312 4.734375 -3.316406 5.046875 -3.046875 C 5.367188 -2.773438 5.820312 -2.640625 6.40625 -2.640625 Z M 6.40625 -2.640625 "/></g></g></g><g fill="#000000" fill-opacity="1"><g transform="translate(300.632383, 155.455136)"><g><path d="M 5.859375 -13.03125 L 5.859375 -10.84375 C 6.773438 -12.40625 8.1875 -13.203125 10.09375 -13.234375 L 10.09375 -9.453125 C 8.894531 -9.566406 7.914062 -9.367188 7.15625 -8.859375 C 6.394531 -8.359375 5.960938 -7.640625 5.859375 -6.703125 L 5.859375 0 L 1.671875 0 L 1.671875 -13.03125 Z M 5.859375 -13.03125 "/></g></g></g><g fill="#000000" fill-opacity="1"><g transform="translate(310.962345, 155.455136)"><g><path d="M 10.203125 -13.234375 C 11.640625 -13.234375 12.789062 -12.773438 13.65625 -11.859375 C 14.53125 -10.953125 14.96875 -9.738281 14.96875 -8.21875 L 14.96875 0 L 10.8125 0 L 10.8125 -7.0625 C 10.8125 -7.820312 10.601562 -8.421875 10.1875 -8.859375 C 9.78125 -9.304688 9.222656 -9.53125 8.515625 -9.53125 C 7.773438 -9.53125 7.164062 -9.285156 6.6875 -8.796875 C 6.207031 -8.316406 5.929688 -7.679688 5.859375 -6.890625 L 5.859375 0 L 1.671875 0 L 1.671875 -13.03125 L 5.859375 -13.03125 L 5.859375 -10.90625 C 6.773438 -12.425781 8.222656 -13.203125 10.203125 -13.234375 Z M 10.203125 -13.234375 "/></g></g></g><g fill="#000000" fill-opacity="1"><g transform="translate(327.243536, 155.455136)"><g><path d="M 2.1875 -18.359375 C 2.601562 -18.773438 3.128906 -18.984375 3.765625 -18.984375 C 4.410156 -18.984375 4.9375 -18.773438 5.34375 -18.359375 C 5.757812 -17.953125 5.96875 -17.425781 5.96875 -16.78125 C 5.96875 -16.132812 5.757812 -15.601562 5.34375 -15.1875 C 4.9375 -14.769531 4.410156 -14.5625 3.765625 -14.5625 C 3.128906 -14.5625 2.601562 -14.769531 2.1875 -15.1875 C 1.78125 -15.601562 1.578125 -16.132812 1.578125 -16.78125 C 1.578125 -17.425781 1.78125 -17.953125 2.1875 -18.359375 Z M 5.828125 0 L 1.671875 0 L 1.671875 -13.03125 L 5.828125 -13.03125 Z M 5.828125 0 "/></g></g></g><g fill="#000000" fill-opacity="1"><g transform="translate(334.767235, 155.455136)"><g><path d="M 10.203125 -13.234375 C 11.640625 -13.234375 12.789062 -12.773438 13.65625 -11.859375 C 14.53125 -10.953125 14.96875 -9.738281 14.96875 -8.21875 L 14.96875 0 L 10.8125 0 L 10.8125 -7.0625 C 10.8125 -7.820312 10.601562 -8.421875 10.1875 -8.859375 C 9.78125 -9.304688 9.222656 -9.53125 8.515625 -9.53125 C 7.773438 -9.53125 7.164062 -9.285156 6.6875 -8.796875 C 6.207031 -8.316406 5.929688 -7.679688 5.859375 -6.890625 L 5.859375 0 L 1.671875 0 L 1.671875 -13.03125 L 5.859375 -13.03125 L 5.859375 -10.90625 C 6.773438 -12.425781 8.222656 -13.203125 10.203125 -13.234375 Z M 10.203125 -13.234375 "/></g></g></g><g fill="#000000" fill-opacity="1"><g transform="translate(351.048426, 155.455136)"><g><path d="M 14.125 -13.03125 L 14.125 -1.1875 C 14.125 0.65625 13.472656 2.125 12.171875 3.21875 C 10.878906 4.3125 9.175781 4.859375 7.0625 4.859375 C 4.90625 4.859375 2.96875 4.285156 1.25 3.140625 L 2.703125 0.3125 C 3.960938 1.1875 5.3125 1.625 6.75 1.625 C 7.75 1.625 8.535156 1.378906 9.109375 0.890625 C 9.679688 0.410156 9.96875 -0.238281 9.96875 -1.0625 L 9.96875 -2.4375 C 9.082031 -1.28125 7.832031 -0.703125 6.21875 -0.703125 C 4.550781 -0.703125 3.195312 -1.28125 2.15625 -2.4375 C 1.125 -3.601562 0.609375 -5.128906 0.609375 -7.015625 C 0.609375 -8.847656 1.113281 -10.332031 2.125 -11.46875 C 3.144531 -12.613281 4.476562 -13.1875 6.125 -13.1875 C 7.78125 -13.195312 9.0625 -12.613281 9.96875 -11.4375 L 9.96875 -13.03125 Z M 7.25 -3.71875 C 8.0625 -3.71875 8.71875 -4.007812 9.21875 -4.59375 C 9.71875 -5.1875 9.96875 -5.953125 9.96875 -6.890625 C 9.96875 -7.847656 9.71875 -8.617188 9.21875 -9.203125 C 8.71875 -9.796875 8.0625 -10.09375 7.25 -10.09375 C 6.425781 -10.09375 5.757812 -9.796875 5.25 -9.203125 C 4.75 -8.617188 4.5 -7.847656 4.5 -6.890625 C 4.5 -5.953125 4.75 -5.1875 5.25 -4.59375 C 5.757812 -4.007812 6.425781 -3.71875 7.25 -3.71875 Z M 7.25 -3.71875 "/></g></g></g></svg>