<svg xmlns="http://www.w3.org/2000/svg" xmlns:xlink="http://www.w3.org/1999/xlink" width="550" zoomAndPan="magnify" viewBox="0 0 412.5 262.499992" height="350" preserveAspectRatio="xMidYMid meet" version="1.0"><defs><g/><clipPath id="9a3a41b552"><path d="M 0.144531 49.96875 L 136.882812 49.96875 L 136.882812 186.164062 L 0.144531 186.164062 Z M 0.144531 49.96875 " clip-rule="nonzero"/></clipPath></defs><g clip-path="url(#9a3a41b552)"><path fill="#370909" d="M 0.144531 49.96875 L 136.871094 49.96875 L 136.871094 186.164062 L 0.144531 186.164062 Z M 0.144531 49.96875 " fill-opacity="1" fill-rule="nonzero"/></g><g fill="#ffffff" fill-opacity="1"><g transform="translate(14.435702, 122.08802)"><g><path d="M 25.140625 0 L 22.359375 -7.984375 L 10.453125 -7.984375 L 7.671875 0 L 1.125 0 L 12.53125 -31.265625 L 20.25 -31.265625 L 31.609375 0 Z M 16.390625 -26.453125 L 16.265625 -25.953125 C 16.117188 -25.421875 15.941406 -24.816406 15.734375 -24.140625 C 15.523438 -23.460938 14.25 -19.71875 11.90625 -12.90625 L 20.90625 -12.90625 L 17.8125 -21.890625 L 16.859375 -24.921875 Z M 16.390625 -26.453125 "/></g></g></g><g fill="#ffffff" fill-opacity="1"><g transform="translate(47.241957, 122.08802)"><g><path d="M 3.171875 -28.328125 L 3.171875 -32.921875 L 9.40625 -32.921875 L 9.40625 -28.328125 Z M 3.171875 0 L 3.171875 -24 L 9.40625 -24 L 9.40625 0 Z M 3.171875 0 "/></g></g></g><g fill="#ffffff" fill-opacity="1"><g transform="translate(59.863161, 122.08802)"><g><path d="M 29 0 L 29 -18.953125 C 29 -19.378906 29 -19.804688 29 -20.234375 C 29.007812 -20.660156 29.082031 -22.503906 29.21875 -25.765625 C 28.164062 -21.785156 27.390625 -19.007812 26.890625 -17.4375 L 21.25 0 L 16.59375 0 L 10.953125 -17.4375 L 8.59375 -25.765625 C 8.769531 -22.328125 8.859375 -20.054688 8.859375 -18.953125 L 8.859375 0 L 3.046875 0 L 3.046875 -31.265625 L 11.796875 -31.265625 L 17.390625 -13.78125 L 17.875 -12.09375 L 18.953125 -7.890625 L 20.34375 -12.90625 L 26.09375 -31.265625 L 34.8125 -31.265625 L 34.8125 0 Z M 29 0 "/></g></g></g><g fill="#ffffff" fill-opacity="1"><g transform="translate(97.704589, 122.08802)"><g><path d="M 3.046875 0 L 3.046875 -31.265625 L 9.578125 -31.265625 L 9.578125 -5.0625 L 26.359375 -5.0625 L 26.359375 0 Z M 3.046875 0 "/></g></g></g><g fill="#ffffff" fill-opacity="1"><g transform="translate(14.435702, 139.854493)"><g><path d="M 7.484375 -2 C 9.148438 -2 10.3125 -2.835938 10.96875 -4.515625 L 13.390625 -3.609375 C 12.867188 -2.328125 12.101562 -1.375 11.09375 -0.75 C 10.082031 -0.125 8.878906 0.1875 7.484375 0.1875 C 5.347656 0.1875 3.695312 -0.414062 2.53125 -1.625 C 1.375 -2.832031 0.796875 -4.519531 0.796875 -6.6875 C 0.796875 -8.863281 1.351562 -10.535156 2.46875 -11.703125 C 3.59375 -12.867188 5.222656 -13.453125 7.359375 -13.453125 C 8.910156 -13.453125 10.175781 -13.140625 11.15625 -12.515625 C 12.132812 -11.890625 12.820312 -10.972656 13.21875 -9.765625 L 10.765625 -9.09375 C 10.554688 -9.757812 10.148438 -10.285156 9.546875 -10.671875 C 8.941406 -11.066406 8.226562 -11.265625 7.40625 -11.265625 C 6.15625 -11.265625 5.203125 -10.875 4.546875 -10.09375 C 3.898438 -9.320312 3.578125 -8.1875 3.578125 -6.6875 C 3.578125 -5.164062 3.910156 -4.003906 4.578125 -3.203125 C 5.253906 -2.398438 6.222656 -2 7.484375 -2 Z M 7.484375 -2 "/></g></g></g><g fill="#ffffff" fill-opacity="1"><g transform="translate(28.346608, 139.854493)"><g><path d="M 3.703125 0.1875 C 2.710938 0.1875 1.941406 -0.078125 1.390625 -0.609375 C 0.835938 -1.148438 0.5625 -1.90625 0.5625 -2.875 C 0.5625 -3.925781 0.90625 -4.726562 1.59375 -5.28125 C 2.28125 -5.832031 3.273438 -6.117188 4.578125 -6.140625 L 6.765625 -6.171875 L 6.765625 -6.6875 C 6.765625 -7.351562 6.648438 -7.847656 6.421875 -8.171875 C 6.191406 -8.492188 5.8125 -8.65625 5.28125 -8.65625 C 4.789062 -8.65625 4.429688 -8.539062 4.203125 -8.3125 C 3.972656 -8.09375 3.832031 -7.726562 3.78125 -7.21875 L 1.03125 -7.34375 C 1.195312 -8.332031 1.644531 -9.082031 2.375 -9.59375 C 3.113281 -10.101562 4.125 -10.359375 5.40625 -10.359375 C 6.6875 -10.359375 7.675781 -10.039062 8.375 -9.40625 C 9.070312 -8.78125 9.421875 -7.882812 9.421875 -6.71875 L 9.421875 -3.015625 C 9.421875 -2.441406 9.484375 -2.046875 9.609375 -1.828125 C 9.734375 -1.609375 9.945312 -1.5 10.25 -1.5 C 10.457031 -1.5 10.65625 -1.519531 10.84375 -1.5625 L 10.84375 -0.125 C 10.6875 -0.09375 10.539062 -0.0625 10.40625 -0.03125 C 10.28125 0 10.15625 0.0234375 10.03125 0.046875 C 9.90625 0.0664062 9.769531 0.0820312 9.625 0.09375 C 9.488281 0.101562 9.328125 0.109375 9.140625 0.109375 C 8.472656 0.109375 7.984375 -0.0507812 7.671875 -0.375 C 7.359375 -0.695312 7.171875 -1.175781 7.109375 -1.8125 L 7.046875 -1.8125 C 6.304688 -0.476562 5.191406 0.1875 3.703125 0.1875 Z M 6.765625 -4.71875 L 5.421875 -4.6875 C 4.804688 -4.664062 4.367188 -4.597656 4.109375 -4.484375 C 3.847656 -4.378906 3.648438 -4.210938 3.515625 -3.984375 C 3.390625 -3.765625 3.328125 -3.460938 3.328125 -3.078125 C 3.328125 -2.597656 3.4375 -2.238281 3.65625 -2 C 3.875 -1.769531 4.171875 -1.65625 4.546875 -1.65625 C 4.960938 -1.65625 5.335938 -1.765625 5.671875 -1.984375 C 6.015625 -2.210938 6.28125 -2.523438 6.46875 -2.921875 C 6.664062 -3.328125 6.765625 -3.753906 6.765625 -4.203125 Z M 6.765625 -4.71875 "/></g></g></g><g fill="#ffffff" fill-opacity="1"><g transform="translate(39.059607, 139.854493)"><g><path d="M 7.34375 0 L 7.34375 -5.703125 C 7.34375 -7.492188 6.828125 -8.390625 5.796875 -8.390625 C 5.265625 -8.390625 4.828125 -8.113281 4.484375 -7.5625 C 4.148438 -7.019531 3.984375 -6.316406 3.984375 -5.453125 L 3.984375 0 L 1.34375 0 L 1.34375 -7.90625 C 1.34375 -8.445312 1.332031 -8.890625 1.3125 -9.234375 C 1.300781 -9.585938 1.285156 -9.898438 1.265625 -10.171875 L 3.796875 -10.171875 C 3.804688 -10.054688 3.828125 -9.738281 3.859375 -9.21875 C 3.890625 -8.707031 3.90625 -8.351562 3.90625 -8.15625 L 3.953125 -8.15625 C 4.273438 -8.9375 4.675781 -9.5 5.15625 -9.84375 C 5.644531 -10.195312 6.234375 -10.375 6.921875 -10.375 C 8.472656 -10.375 9.414062 -9.632812 9.75 -8.15625 L 9.796875 -8.15625 C 10.140625 -8.945312 10.550781 -9.515625 11.03125 -9.859375 C 11.519531 -10.203125 12.140625 -10.375 12.890625 -10.375 C 13.878906 -10.375 14.632812 -10.035156 15.15625 -9.359375 C 15.675781 -8.691406 15.9375 -7.726562 15.9375 -6.46875 L 15.9375 0 L 13.3125 0 L 13.3125 -5.703125 C 13.3125 -7.492188 12.796875 -8.390625 11.765625 -8.390625 C 11.253906 -8.390625 10.832031 -8.140625 10.5 -7.640625 C 10.175781 -7.140625 10 -6.453125 9.96875 -5.578125 L 9.96875 0 Z M 7.34375 0 "/></g></g></g><g fill="#ffffff" fill-opacity="1"><g transform="translate(56.187232, 139.854493)"><g><path d="M 10.984375 -5.140625 C 10.984375 -3.441406 10.640625 -2.128906 9.953125 -1.203125 C 9.273438 -0.273438 8.316406 0.1875 7.078125 0.1875 C 6.359375 0.1875 5.734375 0.03125 5.203125 -0.28125 C 4.671875 -0.59375 4.265625 -1.039062 3.984375 -1.625 L 3.9375 -1.625 C 3.96875 -1.425781 3.984375 -0.851562 3.984375 0.09375 L 3.984375 4 L 1.34375 4 L 1.34375 -7.84375 C 1.34375 -8.800781 1.316406 -9.578125 1.265625 -10.171875 L 3.84375 -10.171875 C 3.875 -10.066406 3.898438 -9.847656 3.921875 -9.515625 C 3.941406 -9.179688 3.953125 -8.847656 3.953125 -8.515625 L 3.984375 -8.515625 C 4.578125 -9.765625 5.664062 -10.390625 7.25 -10.390625 C 8.425781 -10.390625 9.34375 -9.929688 10 -9.015625 C 10.65625 -8.109375 10.984375 -6.816406 10.984375 -5.140625 Z M 8.21875 -5.140625 C 8.21875 -7.421875 7.519531 -8.5625 6.125 -8.5625 C 5.425781 -8.5625 4.890625 -8.253906 4.515625 -7.640625 C 4.140625 -7.023438 3.953125 -6.164062 3.953125 -5.0625 C 3.953125 -3.96875 4.140625 -3.117188 4.515625 -2.515625 C 4.890625 -1.921875 5.421875 -1.625 6.109375 -1.625 C 7.515625 -1.625 8.21875 -2.796875 8.21875 -5.140625 Z M 8.21875 -5.140625 "/></g></g></g><g fill="#ffffff" fill-opacity="1"><g transform="translate(67.953659, 139.854493)"><g><path d="M 3.84375 -10.171875 L 3.84375 -4.46875 C 3.84375 -2.675781 4.441406 -1.78125 5.640625 -1.78125 C 6.285156 -1.78125 6.800781 -2.054688 7.1875 -2.609375 C 7.582031 -3.160156 7.78125 -3.863281 7.78125 -4.71875 L 7.78125 -10.171875 L 10.421875 -10.171875 L 10.421875 -2.28125 C 10.421875 -1.414062 10.445312 -0.65625 10.5 0 L 7.984375 0 C 7.898438 -0.90625 7.859375 -1.578125 7.859375 -2.015625 L 7.8125 -2.015625 C 7.46875 -1.242188 7.019531 -0.679688 6.46875 -0.328125 C 5.925781 0.015625 5.285156 0.1875 4.546875 0.1875 C 3.460938 0.1875 2.628906 -0.140625 2.046875 -0.796875 C 1.472656 -1.460938 1.1875 -2.4375 1.1875 -3.71875 L 1.1875 -10.171875 Z M 3.84375 -10.171875 "/></g></g></g><g fill="#ffffff" fill-opacity="1"><g transform="translate(79.720086, 139.854493)"><g><path d="M 9.921875 -2.96875 C 9.921875 -1.988281 9.515625 -1.21875 8.703125 -0.65625 C 7.898438 -0.09375 6.789062 0.1875 5.375 0.1875 C 3.976562 0.1875 2.90625 -0.03125 2.15625 -0.46875 C 1.414062 -0.914062 0.921875 -1.609375 0.671875 -2.546875 L 3 -2.890625 C 3.132812 -2.398438 3.363281 -2.054688 3.6875 -1.859375 C 4.007812 -1.660156 4.570312 -1.5625 5.375 -1.5625 C 6.113281 -1.5625 6.648438 -1.65625 6.984375 -1.84375 C 7.328125 -2.03125 7.5 -2.328125 7.5 -2.734375 C 7.5 -3.054688 7.359375 -3.3125 7.078125 -3.5 C 6.804688 -3.695312 6.347656 -3.859375 5.703125 -3.984375 C 4.210938 -4.285156 3.207031 -4.5625 2.6875 -4.8125 C 2.164062 -5.0625 1.765625 -5.390625 1.484375 -5.796875 C 1.210938 -6.203125 1.078125 -6.703125 1.078125 -7.296875 C 1.078125 -8.265625 1.453125 -9.019531 2.203125 -9.5625 C 2.953125 -10.101562 4.015625 -10.375 5.390625 -10.375 C 6.597656 -10.375 7.570312 -10.140625 8.3125 -9.671875 C 9.050781 -9.203125 9.507812 -8.519531 9.6875 -7.625 L 7.34375 -7.390625 C 7.269531 -7.796875 7.082031 -8.097656 6.78125 -8.296875 C 6.488281 -8.503906 6.023438 -8.609375 5.390625 -8.609375 C 4.765625 -8.609375 4.296875 -8.53125 3.984375 -8.375 C 3.671875 -8.21875 3.515625 -7.953125 3.515625 -7.578125 C 3.515625 -7.273438 3.632812 -7.035156 3.875 -6.859375 C 4.113281 -6.691406 4.519531 -6.550781 5.09375 -6.4375 C 5.882812 -6.28125 6.585938 -6.113281 7.203125 -5.9375 C 7.828125 -5.769531 8.320312 -5.566406 8.6875 -5.328125 C 9.0625 -5.085938 9.359375 -4.78125 9.578125 -4.40625 C 9.804688 -4.03125 9.921875 -3.550781 9.921875 -2.96875 Z M 9.921875 -2.96875 "/></g></g></g><g fill="#ffffff" fill-opacity="1"><g transform="translate(16.039474, 147.282752)"><g><path d="M 2.203125 0 L 2.203125 -1.265625 L 0.90625 -1.265625 L 0.90625 0 L 0.28125 0 L 0.28125 -2.96875 L 0.90625 -2.96875 L 0.90625 -1.78125 L 2.203125 -1.78125 L 2.203125 -2.96875 L 2.828125 -2.96875 L 2.828125 0 Z M 2.203125 0 "/></g></g><g transform="translate(19.157485, 147.282752)"><g><path d="M 0.859375 -2.28125 L 0.859375 -1 C 0.859375 -0.601562 0.992188 -0.40625 1.265625 -0.40625 C 1.410156 -0.40625 1.523438 -0.460938 1.609375 -0.578125 C 1.691406 -0.703125 1.734375 -0.863281 1.734375 -1.0625 L 1.734375 -2.28125 L 2.328125 -2.28125 L 2.328125 -0.515625 C 2.328125 -0.316406 2.332031 -0.144531 2.34375 0 L 1.78125 0 C 1.769531 -0.195312 1.765625 -0.347656 1.765625 -0.453125 L 1.75 -0.453125 C 1.664062 -0.273438 1.5625 -0.144531 1.4375 -0.0625 C 1.320312 0.0078125 1.179688 0.046875 1.015625 0.046875 C 0.773438 0.046875 0.585938 -0.0234375 0.453125 -0.171875 C 0.328125 -0.328125 0.265625 -0.546875 0.265625 -0.828125 L 0.265625 -2.28125 Z M 0.859375 -2.28125 "/></g></g><g transform="translate(21.794829, 147.282752)"><g><path d="M 1.640625 0 L 1.640625 -1.28125 C 1.640625 -1.675781 1.523438 -1.875 1.296875 -1.875 C 1.179688 -1.875 1.082031 -1.8125 1 -1.6875 C 0.925781 -1.570312 0.890625 -1.414062 0.890625 -1.21875 L 0.890625 0 L 0.296875 0 L 0.296875 -1.765625 C 0.296875 -1.890625 0.296875 -1.988281 0.296875 -2.0625 C 0.296875 -2.144531 0.289062 -2.21875 0.28125 -2.28125 L 0.84375 -2.28125 C 0.851562 -2.25 0.859375 -2.175781 0.859375 -2.0625 C 0.867188 -1.945312 0.875 -1.867188 0.875 -1.828125 L 0.890625 -1.828125 C 0.960938 -2.003906 1.050781 -2.128906 1.15625 -2.203125 C 1.257812 -2.285156 1.390625 -2.328125 1.546875 -2.328125 C 1.890625 -2.328125 2.101562 -2.160156 2.1875 -1.828125 C 2.269531 -2.003906 2.363281 -2.128906 2.46875 -2.203125 C 2.582031 -2.285156 2.722656 -2.328125 2.890625 -2.328125 C 3.109375 -2.328125 3.273438 -2.25 3.390625 -2.09375 C 3.503906 -1.945312 3.5625 -1.734375 3.5625 -1.453125 L 3.5625 0 L 2.984375 0 L 2.984375 -1.28125 C 2.984375 -1.675781 2.867188 -1.875 2.640625 -1.875 C 2.523438 -1.875 2.425781 -1.816406 2.34375 -1.703125 C 2.269531 -1.597656 2.234375 -1.445312 2.234375 -1.25 L 2.234375 0 Z M 1.640625 0 "/></g></g><g transform="translate(25.63384, 147.282752)"><g><path d="M 0.828125 0.046875 C 0.609375 0.046875 0.4375 -0.0078125 0.3125 -0.125 C 0.1875 -0.25 0.125 -0.421875 0.125 -0.640625 C 0.125 -0.878906 0.203125 -1.0625 0.359375 -1.1875 C 0.515625 -1.3125 0.738281 -1.375 1.03125 -1.375 L 1.515625 -1.375 L 1.515625 -1.5 C 1.515625 -1.644531 1.488281 -1.753906 1.4375 -1.828125 C 1.382812 -1.898438 1.300781 -1.9375 1.1875 -1.9375 C 1.070312 -1.9375 0.988281 -1.910156 0.9375 -1.859375 C 0.882812 -1.804688 0.851562 -1.722656 0.84375 -1.609375 L 0.234375 -1.640625 C 0.265625 -1.867188 0.363281 -2.039062 0.53125 -2.15625 C 0.695312 -2.269531 0.921875 -2.328125 1.203125 -2.328125 C 1.492188 -2.328125 1.71875 -2.253906 1.875 -2.109375 C 2.03125 -1.960938 2.109375 -1.757812 2.109375 -1.5 L 2.109375 -0.671875 C 2.109375 -0.546875 2.117188 -0.457031 2.140625 -0.40625 C 2.171875 -0.363281 2.222656 -0.34375 2.296875 -0.34375 C 2.335938 -0.34375 2.378906 -0.34375 2.421875 -0.34375 L 2.421875 -0.03125 C 2.390625 -0.0195312 2.359375 -0.0078125 2.328125 0 C 2.296875 0 2.265625 0 2.234375 0 C 2.210938 0.0078125 2.1875 0.015625 2.15625 0.015625 C 2.125 0.0234375 2.085938 0.03125 2.046875 0.03125 C 1.898438 0.03125 1.789062 -0.00390625 1.71875 -0.078125 C 1.644531 -0.148438 1.601562 -0.257812 1.59375 -0.40625 L 1.578125 -0.40625 C 1.410156 -0.101562 1.160156 0.046875 0.828125 0.046875 Z M 1.515625 -1.0625 L 1.21875 -1.046875 C 1.070312 -1.046875 0.96875 -1.03125 0.90625 -1 C 0.851562 -0.976562 0.8125 -0.941406 0.78125 -0.890625 C 0.757812 -0.835938 0.75 -0.769531 0.75 -0.6875 C 0.75 -0.582031 0.769531 -0.503906 0.8125 -0.453125 C 0.863281 -0.398438 0.929688 -0.375 1.015625 -0.375 C 1.109375 -0.375 1.191406 -0.394531 1.265625 -0.4375 C 1.347656 -0.488281 1.410156 -0.5625 1.453125 -0.65625 C 1.492188 -0.75 1.515625 -0.84375 1.515625 -0.9375 Z M 1.515625 -1.0625 "/></g></g><g transform="translate(28.035067, 147.282752)"><g><path d="M 1.78125 0 L 1.78125 -1.28125 C 1.78125 -1.675781 1.644531 -1.875 1.375 -1.875 C 1.226562 -1.875 1.109375 -1.8125 1.015625 -1.6875 C 0.929688 -1.570312 0.890625 -1.414062 0.890625 -1.21875 L 0.890625 0 L 0.296875 0 L 0.296875 -1.765625 C 0.296875 -1.890625 0.296875 -1.988281 0.296875 -2.0625 C 0.296875 -2.144531 0.289062 -2.21875 0.28125 -2.28125 L 0.84375 -2.28125 C 0.851562 -2.25 0.859375 -2.175781 0.859375 -2.0625 C 0.867188 -1.945312 0.875 -1.867188 0.875 -1.828125 L 0.890625 -1.828125 C 0.960938 -2.003906 1.054688 -2.128906 1.171875 -2.203125 C 1.296875 -2.285156 1.445312 -2.328125 1.625 -2.328125 C 1.863281 -2.328125 2.046875 -2.25 2.171875 -2.09375 C 2.296875 -1.945312 2.359375 -1.734375 2.359375 -1.453125 L 2.359375 0 Z M 1.78125 0 "/></g></g><g transform="translate(30.672411, 147.282752)"><g/></g><g transform="translate(31.87197, 147.282752)"><g><path d="M 0.28125 0 L 0.28125 -2.96875 L 0.90625 -2.96875 L 0.90625 0 Z M 0.28125 0 "/></g></g><g transform="translate(33.071529, 147.282752)"><g><path d="M 1.78125 0 L 1.78125 -1.28125 C 1.78125 -1.675781 1.644531 -1.875 1.375 -1.875 C 1.226562 -1.875 1.109375 -1.8125 1.015625 -1.6875 C 0.929688 -1.570312 0.890625 -1.414062 0.890625 -1.21875 L 0.890625 0 L 0.296875 0 L 0.296875 -1.765625 C 0.296875 -1.890625 0.296875 -1.988281 0.296875 -2.0625 C 0.296875 -2.144531 0.289062 -2.21875 0.28125 -2.28125 L 0.84375 -2.28125 C 0.851562 -2.25 0.859375 -2.175781 0.859375 -2.0625 C 0.867188 -1.945312 0.875 -1.867188 0.875 -1.828125 L 0.890625 -1.828125 C 0.960938 -2.003906 1.054688 -2.128906 1.171875 -2.203125 C 1.296875 -2.285156 1.445312 -2.328125 1.625 -2.328125 C 1.863281 -2.328125 2.046875 -2.25 2.171875 -2.09375 C 2.296875 -1.945312 2.359375 -1.734375 2.359375 -1.453125 L 2.359375 0 Z M 1.78125 0 "/></g></g><g transform="translate(35.708873, 147.282752)"><g><path d="M 0.890625 0.03125 C 0.710938 0.03125 0.578125 -0.015625 0.484375 -0.109375 C 0.390625 -0.203125 0.34375 -0.34375 0.34375 -0.53125 L 0.34375 -1.875 L 0.046875 -1.875 L 0.046875 -2.28125 L 0.375 -2.28125 L 0.5625 -2.8125 L 0.921875 -2.8125 L 0.921875 -2.28125 L 1.359375 -2.28125 L 1.359375 -1.875 L 0.921875 -1.875 L 0.921875 -0.6875 C 0.921875 -0.582031 0.941406 -0.503906 0.984375 -0.453125 C 1.023438 -0.398438 1.09375 -0.375 1.1875 -0.375 C 1.226562 -0.375 1.296875 -0.382812 1.390625 -0.40625 L 1.390625 -0.03125 C 1.242188 0.0078125 1.078125 0.03125 0.890625 0.03125 Z M 0.890625 0.03125 "/></g></g><g transform="translate(37.146657, 147.282752)"><g><path d="M 1.234375 0.046875 C 0.890625 0.046875 0.625 -0.0507812 0.4375 -0.25 C 0.257812 -0.457031 0.171875 -0.757812 0.171875 -1.15625 C 0.171875 -1.53125 0.265625 -1.816406 0.453125 -2.015625 C 0.640625 -2.222656 0.90625 -2.328125 1.25 -2.328125 C 1.570312 -2.328125 1.816406 -2.21875 1.984375 -2 C 2.160156 -1.78125 2.25 -1.460938 2.25 -1.046875 L 2.25 -1.03125 L 0.796875 -1.03125 C 0.796875 -0.800781 0.832031 -0.628906 0.90625 -0.515625 C 0.988281 -0.410156 1.109375 -0.359375 1.265625 -0.359375 C 1.472656 -0.359375 1.601562 -0.445312 1.65625 -0.625 L 2.21875 -0.578125 C 2.050781 -0.160156 1.722656 0.046875 1.234375 0.046875 Z M 1.234375 -1.953125 C 1.097656 -1.953125 0.988281 -1.898438 0.90625 -1.796875 C 0.832031 -1.703125 0.796875 -1.566406 0.796875 -1.390625 L 1.671875 -1.390625 C 1.660156 -1.578125 1.617188 -1.71875 1.546875 -1.8125 C 1.472656 -1.90625 1.367188 -1.953125 1.234375 -1.953125 Z M 1.234375 -1.953125 "/></g></g><g transform="translate(39.547884, 147.282752)"><g><path d="M 0.296875 0 L 0.296875 -3.125 L 0.890625 -3.125 L 0.890625 0 Z M 0.296875 0 "/></g></g><g transform="translate(40.747443, 147.282752)"><g><path d="M 0.296875 0 L 0.296875 -3.125 L 0.890625 -3.125 L 0.890625 0 Z M 0.296875 0 "/></g></g><g transform="translate(41.947003, 147.282752)"><g><path d="M 0.296875 -2.6875 L 0.296875 -3.125 L 0.890625 -3.125 L 0.890625 -2.6875 Z M 0.296875 0 L 0.296875 -2.28125 L 0.890625 -2.28125 L 0.890625 0 Z M 0.296875 0 "/></g></g><g transform="translate(43.146562, 147.282752)"><g><path d="M 1.25 0.90625 C 0.976562 0.90625 0.753906 0.851562 0.578125 0.75 C 0.410156 0.644531 0.304688 0.492188 0.265625 0.296875 L 0.859375 0.234375 C 0.878906 0.328125 0.925781 0.398438 1 0.453125 C 1.070312 0.503906 1.160156 0.53125 1.265625 0.53125 C 1.429688 0.53125 1.550781 0.476562 1.625 0.375 C 1.707031 0.269531 1.75 0.117188 1.75 -0.078125 L 1.75 -0.421875 C 1.613281 -0.140625 1.367188 0 1.015625 0 C 0.742188 0 0.535156 -0.0976562 0.390625 -0.296875 C 0.242188 -0.503906 0.171875 -0.789062 0.171875 -1.15625 C 0.171875 -1.53125 0.242188 -1.816406 0.390625 -2.015625 C 0.546875 -2.222656 0.769531 -2.328125 1.0625 -2.328125 C 1.382812 -2.328125 1.613281 -2.1875 1.75 -1.90625 C 1.75 -1.957031 1.753906 -2.023438 1.765625 -2.109375 C 1.773438 -2.191406 1.78125 -2.25 1.78125 -2.28125 L 2.34375 -2.28125 C 2.332031 -2.125 2.328125 -1.945312 2.328125 -1.75 L 2.328125 -0.0625 C 2.328125 0.257812 2.234375 0.5 2.046875 0.65625 C 1.867188 0.820312 1.601562 0.90625 1.25 0.90625 Z M 1.75 -1.171875 C 1.75 -1.398438 1.707031 -1.582031 1.625 -1.71875 C 1.539062 -1.851562 1.421875 -1.921875 1.265625 -1.921875 C 0.953125 -1.921875 0.796875 -1.664062 0.796875 -1.15625 C 0.796875 -0.664062 0.953125 -0.421875 1.265625 -0.421875 C 1.421875 -0.421875 1.539062 -0.484375 1.625 -0.609375 C 1.707031 -0.742188 1.75 -0.929688 1.75 -1.171875 Z M 1.75 -1.171875 "/></g></g><g transform="translate(45.783906, 147.282752)"><g><path d="M 1.234375 0.046875 C 0.890625 0.046875 0.625 -0.0507812 0.4375 -0.25 C 0.257812 -0.457031 0.171875 -0.757812 0.171875 -1.15625 C 0.171875 -1.53125 0.265625 -1.816406 0.453125 -2.015625 C 0.640625 -2.222656 0.90625 -2.328125 1.25 -2.328125 C 1.570312 -2.328125 1.816406 -2.21875 1.984375 -2 C 2.160156 -1.78125 2.25 -1.460938 2.25 -1.046875 L 2.25 -1.03125 L 0.796875 -1.03125 C 0.796875 -0.800781 0.832031 -0.628906 0.90625 -0.515625 C 0.988281 -0.410156 1.109375 -0.359375 1.265625 -0.359375 C 1.472656 -0.359375 1.601562 -0.445312 1.65625 -0.625 L 2.21875 -0.578125 C 2.050781 -0.160156 1.722656 0.046875 1.234375 0.046875 Z M 1.234375 -1.953125 C 1.097656 -1.953125 0.988281 -1.898438 0.90625 -1.796875 C 0.832031 -1.703125 0.796875 -1.566406 0.796875 -1.390625 L 1.671875 -1.390625 C 1.660156 -1.578125 1.617188 -1.71875 1.546875 -1.8125 C 1.472656 -1.90625 1.367188 -1.953125 1.234375 -1.953125 Z M 1.234375 -1.953125 "/></g></g><g transform="translate(48.185132, 147.282752)"><g><path d="M 1.78125 0 L 1.78125 -1.28125 C 1.78125 -1.675781 1.644531 -1.875 1.375 -1.875 C 1.226562 -1.875 1.109375 -1.8125 1.015625 -1.6875 C 0.929688 -1.570312 0.890625 -1.414062 0.890625 -1.21875 L 0.890625 0 L 0.296875 0 L 0.296875 -1.765625 C 0.296875 -1.890625 0.296875 -1.988281 0.296875 -2.0625 C 0.296875 -2.144531 0.289062 -2.21875 0.28125 -2.28125 L 0.84375 -2.28125 C 0.851562 -2.25 0.859375 -2.175781 0.859375 -2.0625 C 0.867188 -1.945312 0.875 -1.867188 0.875 -1.828125 L 0.890625 -1.828125 C 0.960938 -2.003906 1.054688 -2.128906 1.171875 -2.203125 C 1.296875 -2.285156 1.445312 -2.328125 1.625 -2.328125 C 1.863281 -2.328125 2.046875 -2.25 2.171875 -2.09375 C 2.296875 -1.945312 2.359375 -1.734375 2.359375 -1.453125 L 2.359375 0 Z M 1.78125 0 "/></g></g><g transform="translate(50.822476, 147.282752)"><g><path d="M 1.25 0.046875 C 0.90625 0.046875 0.640625 -0.0546875 0.453125 -0.265625 C 0.265625 -0.472656 0.171875 -0.757812 0.171875 -1.125 C 0.171875 -1.5 0.265625 -1.789062 0.453125 -2 C 0.640625 -2.21875 0.910156 -2.328125 1.265625 -2.328125 C 1.523438 -2.328125 1.742188 -2.257812 1.921875 -2.125 C 2.097656 -1.988281 2.207031 -1.800781 2.25 -1.5625 L 1.65625 -1.53125 C 1.644531 -1.644531 1.601562 -1.738281 1.53125 -1.8125 C 1.46875 -1.882812 1.375 -1.921875 1.25 -1.921875 C 0.945312 -1.921875 0.796875 -1.664062 0.796875 -1.15625 C 0.796875 -0.625 0.945312 -0.359375 1.25 -0.359375 C 1.363281 -0.359375 1.457031 -0.394531 1.53125 -0.46875 C 1.613281 -0.539062 1.660156 -0.644531 1.671875 -0.78125 L 2.265625 -0.765625 C 2.242188 -0.609375 2.1875 -0.46875 2.09375 -0.34375 C 2.007812 -0.21875 1.894531 -0.117188 1.75 -0.046875 C 1.601562 0.015625 1.4375 0.046875 1.25 0.046875 Z M 1.25 0.046875 "/></g></g><g transform="translate(53.223703, 147.282752)"><g><path d="M 1.234375 0.046875 C 0.890625 0.046875 0.625 -0.0507812 0.4375 -0.25 C 0.257812 -0.457031 0.171875 -0.757812 0.171875 -1.15625 C 0.171875 -1.53125 0.265625 -1.816406 0.453125 -2.015625 C 0.640625 -2.222656 0.90625 -2.328125 1.25 -2.328125 C 1.570312 -2.328125 1.816406 -2.21875 1.984375 -2 C 2.160156 -1.78125 2.25 -1.460938 2.25 -1.046875 L 2.25 -1.03125 L 0.796875 -1.03125 C 0.796875 -0.800781 0.832031 -0.628906 0.90625 -0.515625 C 0.988281 -0.410156 1.109375 -0.359375 1.265625 -0.359375 C 1.472656 -0.359375 1.601562 -0.445312 1.65625 -0.625 L 2.21875 -0.578125 C 2.050781 -0.160156 1.722656 0.046875 1.234375 0.046875 Z M 1.234375 -1.953125 C 1.097656 -1.953125 0.988281 -1.898438 0.90625 -1.796875 C 0.832031 -1.703125 0.796875 -1.566406 0.796875 -1.390625 L 1.671875 -1.390625 C 1.660156 -1.578125 1.617188 -1.71875 1.546875 -1.8125 C 1.472656 -1.90625 1.367188 -1.953125 1.234375 -1.953125 Z M 1.234375 -1.953125 "/></g></g></g><g fill="#ffffff" fill-opacity="1"><g transform="translate(16.039474, 151.600322)"><g><path d="M 2.75 0 L 2.75 -1.796875 C 2.75 -1.835938 2.75 -1.878906 2.75 -1.921875 C 2.75 -1.960938 2.753906 -2.132812 2.765625 -2.4375 C 2.671875 -2.0625 2.597656 -1.800781 2.546875 -1.65625 L 2.015625 0 L 1.578125 0 L 1.046875 -1.65625 L 0.8125 -2.4375 C 0.832031 -2.113281 0.84375 -1.898438 0.84375 -1.796875 L 0.84375 0 L 0.28125 0 L 0.28125 -2.96875 L 1.125 -2.96875 L 1.65625 -1.3125 L 1.703125 -1.140625 L 1.796875 -0.75 L 1.9375 -1.21875 L 2.46875 -2.96875 L 3.296875 -2.96875 L 3.296875 0 Z M 2.75 0 "/></g></g><g transform="translate(19.636044, 151.600322)"><g><path d="M 1.234375 0.046875 C 0.890625 0.046875 0.625 -0.0507812 0.4375 -0.25 C 0.257812 -0.457031 0.171875 -0.757812 0.171875 -1.15625 C 0.171875 -1.53125 0.265625 -1.816406 0.453125 -2.015625 C 0.640625 -2.222656 0.90625 -2.328125 1.25 -2.328125 C 1.570312 -2.328125 1.816406 -2.21875 1.984375 -2 C 2.160156 -1.78125 2.25 -1.460938 2.25 -1.046875 L 2.25 -1.03125 L 0.796875 -1.03125 C 0.796875 -0.800781 0.832031 -0.628906 0.90625 -0.515625 C 0.988281 -0.410156 1.109375 -0.359375 1.265625 -0.359375 C 1.472656 -0.359375 1.601562 -0.445312 1.65625 -0.625 L 2.21875 -0.578125 C 2.050781 -0.160156 1.722656 0.046875 1.234375 0.046875 Z M 1.234375 -1.953125 C 1.097656 -1.953125 0.988281 -1.898438 0.90625 -1.796875 C 0.832031 -1.703125 0.796875 -1.566406 0.796875 -1.390625 L 1.671875 -1.390625 C 1.660156 -1.578125 1.617188 -1.71875 1.546875 -1.8125 C 1.472656 -1.90625 1.367188 -1.953125 1.234375 -1.953125 Z M 1.234375 -1.953125 "/></g></g><g transform="translate(22.037271, 151.600322)"><g><path d="M 1.234375 0.046875 C 0.890625 0.046875 0.625 -0.0507812 0.4375 -0.25 C 0.257812 -0.457031 0.171875 -0.757812 0.171875 -1.15625 C 0.171875 -1.53125 0.265625 -1.816406 0.453125 -2.015625 C 0.640625 -2.222656 0.90625 -2.328125 1.25 -2.328125 C 1.570312 -2.328125 1.816406 -2.21875 1.984375 -2 C 2.160156 -1.78125 2.25 -1.460938 2.25 -1.046875 L 2.25 -1.03125 L 0.796875 -1.03125 C 0.796875 -0.800781 0.832031 -0.628906 0.90625 -0.515625 C 0.988281 -0.410156 1.109375 -0.359375 1.265625 -0.359375 C 1.472656 -0.359375 1.601562 -0.445312 1.65625 -0.625 L 2.21875 -0.578125 C 2.050781 -0.160156 1.722656 0.046875 1.234375 0.046875 Z M 1.234375 -1.953125 C 1.097656 -1.953125 0.988281 -1.898438 0.90625 -1.796875 C 0.832031 -1.703125 0.796875 -1.566406 0.796875 -1.390625 L 1.671875 -1.390625 C 1.660156 -1.578125 1.617188 -1.71875 1.546875 -1.8125 C 1.472656 -1.90625 1.367188 -1.953125 1.234375 -1.953125 Z M 1.234375 -1.953125 "/></g></g><g transform="translate(24.438497, 151.600322)"><g><path d="M 0.890625 0.03125 C 0.710938 0.03125 0.578125 -0.015625 0.484375 -0.109375 C 0.390625 -0.203125 0.34375 -0.34375 0.34375 -0.53125 L 0.34375 -1.875 L 0.046875 -1.875 L 0.046875 -2.28125 L 0.375 -2.28125 L 0.5625 -2.8125 L 0.921875 -2.8125 L 0.921875 -2.28125 L 1.359375 -2.28125 L 1.359375 -1.875 L 0.921875 -1.875 L 0.921875 -0.6875 C 0.921875 -0.582031 0.941406 -0.503906 0.984375 -0.453125 C 1.023438 -0.398438 1.09375 -0.375 1.1875 -0.375 C 1.226562 -0.375 1.296875 -0.382812 1.390625 -0.40625 L 1.390625 -0.03125 C 1.242188 0.0078125 1.078125 0.03125 0.890625 0.03125 Z M 0.890625 0.03125 "/></g></g><g transform="translate(25.876282, 151.600322)"><g><path d="M 2.21875 -0.671875 C 2.21875 -0.441406 2.128906 -0.265625 1.953125 -0.140625 C 1.773438 -0.015625 1.523438 0.046875 1.203125 0.046875 C 0.890625 0.046875 0.648438 0 0.484375 -0.09375 C 0.316406 -0.195312 0.207031 -0.351562 0.15625 -0.5625 L 0.671875 -0.640625 C 0.703125 -0.535156 0.753906 -0.457031 0.828125 -0.40625 C 0.898438 -0.363281 1.023438 -0.34375 1.203125 -0.34375 C 1.367188 -0.34375 1.488281 -0.363281 1.5625 -0.40625 C 1.632812 -0.445312 1.671875 -0.515625 1.671875 -0.609375 C 1.671875 -0.679688 1.640625 -0.738281 1.578125 -0.78125 C 1.523438 -0.820312 1.425781 -0.859375 1.28125 -0.890625 C 0.945312 -0.953125 0.71875 -1.007812 0.59375 -1.0625 C 0.476562 -1.125 0.390625 -1.203125 0.328125 -1.296875 C 0.265625 -1.390625 0.234375 -1.5 0.234375 -1.625 C 0.234375 -1.84375 0.316406 -2.015625 0.484375 -2.140625 C 0.660156 -2.265625 0.898438 -2.328125 1.203125 -2.328125 C 1.472656 -2.328125 1.691406 -2.269531 1.859375 -2.15625 C 2.023438 -2.050781 2.128906 -1.898438 2.171875 -1.703125 L 1.640625 -1.65625 C 1.628906 -1.75 1.585938 -1.816406 1.515625 -1.859375 C 1.453125 -1.898438 1.347656 -1.921875 1.203125 -1.921875 C 1.066406 -1.921875 0.960938 -1.90625 0.890625 -1.875 C 0.816406 -1.84375 0.78125 -1.78125 0.78125 -1.6875 C 0.78125 -1.625 0.804688 -1.570312 0.859375 -1.53125 C 0.921875 -1.5 1.015625 -1.46875 1.140625 -1.4375 C 1.316406 -1.40625 1.472656 -1.367188 1.609375 -1.328125 C 1.753906 -1.285156 1.867188 -1.238281 1.953125 -1.1875 C 2.035156 -1.132812 2.097656 -1.066406 2.140625 -0.984375 C 2.191406 -0.898438 2.21875 -0.796875 2.21875 -0.671875 Z M 2.21875 -0.671875 "/></g></g><g transform="translate(28.277508, 151.600322)"><g/></g><g transform="translate(29.477068, 151.600322)"><g><path d="M 2.390625 0 L 2.125 -0.765625 L 0.984375 -0.765625 L 0.734375 0 L 0.109375 0 L 1.1875 -2.96875 L 1.921875 -2.96875 L 3 0 Z M 1.5625 -2.515625 L 1.546875 -2.46875 C 1.523438 -2.414062 1.503906 -2.351562 1.484375 -2.28125 C 1.472656 -2.21875 1.351562 -1.863281 1.125 -1.21875 L 1.984375 -1.21875 L 1.6875 -2.078125 L 1.59375 -2.359375 Z M 1.5625 -2.515625 "/></g></g><g transform="translate(32.595078, 151.600322)"><g><path d="M 0.296875 0 L 0.296875 -1.75 C 0.296875 -1.875 0.296875 -1.976562 0.296875 -2.0625 C 0.296875 -2.144531 0.289062 -2.21875 0.28125 -2.28125 L 0.84375 -2.28125 C 0.851562 -2.25 0.859375 -2.171875 0.859375 -2.046875 C 0.867188 -1.921875 0.875 -1.835938 0.875 -1.796875 L 0.890625 -1.796875 C 0.941406 -1.953125 0.988281 -2.0625 1.03125 -2.125 C 1.082031 -2.195312 1.140625 -2.25 1.203125 -2.28125 C 1.265625 -2.3125 1.34375 -2.328125 1.4375 -2.328125 C 1.507812 -2.328125 1.566406 -2.316406 1.609375 -2.296875 L 1.609375 -1.796875 C 1.515625 -1.816406 1.429688 -1.828125 1.359375 -1.828125 C 1.210938 -1.828125 1.097656 -1.765625 1.015625 -1.640625 C 0.929688 -1.523438 0.890625 -1.351562 0.890625 -1.125 L 0.890625 0 Z M 0.296875 0 "/></g></g><g transform="translate(34.275305, 151.600322)"><g><path d="M 0.890625 0.03125 C 0.710938 0.03125 0.578125 -0.015625 0.484375 -0.109375 C 0.390625 -0.203125 0.34375 -0.34375 0.34375 -0.53125 L 0.34375 -1.875 L 0.046875 -1.875 L 0.046875 -2.28125 L 0.375 -2.28125 L 0.5625 -2.8125 L 0.921875 -2.8125 L 0.921875 -2.28125 L 1.359375 -2.28125 L 1.359375 -1.875 L 0.921875 -1.875 L 0.921875 -0.6875 C 0.921875 -0.582031 0.941406 -0.503906 0.984375 -0.453125 C 1.023438 -0.398438 1.09375 -0.375 1.1875 -0.375 C 1.226562 -0.375 1.296875 -0.382812 1.390625 -0.40625 L 1.390625 -0.03125 C 1.242188 0.0078125 1.078125 0.03125 0.890625 0.03125 Z M 0.890625 0.03125 "/></g></g><g transform="translate(35.713089, 151.600322)"><g><path d="M 0.296875 -2.6875 L 0.296875 -3.125 L 0.890625 -3.125 L 0.890625 -2.6875 Z M 0.296875 0 L 0.296875 -2.28125 L 0.890625 -2.28125 L 0.890625 0 Z M 0.296875 0 "/></g></g><g transform="translate(36.912648, 151.600322)"><g><path d="M 1 -1.875 L 1 0 L 0.40625 0 L 0.40625 -1.875 L 0.078125 -1.875 L 0.078125 -2.28125 L 0.40625 -2.28125 L 0.40625 -2.515625 C 0.40625 -2.722656 0.457031 -2.875 0.5625 -2.96875 C 0.675781 -3.070312 0.84375 -3.125 1.0625 -3.125 C 1.175781 -3.125 1.300781 -3.113281 1.4375 -3.09375 L 1.4375 -2.703125 C 1.382812 -2.722656 1.328125 -2.734375 1.265625 -2.734375 C 1.171875 -2.734375 1.101562 -2.710938 1.0625 -2.671875 C 1.019531 -2.628906 1 -2.554688 1 -2.453125 L 1 -2.28125 L 1.4375 -2.28125 L 1.4375 -1.875 Z M 1 -1.875 "/></g></g><g transform="translate(38.350433, 151.600322)"><g><path d="M 0.296875 -2.6875 L 0.296875 -3.125 L 0.890625 -3.125 L 0.890625 -2.6875 Z M 0.296875 0 L 0.296875 -2.28125 L 0.890625 -2.28125 L 0.890625 0 Z M 0.296875 0 "/></g></g><g transform="translate(39.549992, 151.600322)"><g><path d="M 1.25 0.046875 C 0.90625 0.046875 0.640625 -0.0546875 0.453125 -0.265625 C 0.265625 -0.472656 0.171875 -0.757812 0.171875 -1.125 C 0.171875 -1.5 0.265625 -1.789062 0.453125 -2 C 0.640625 -2.21875 0.910156 -2.328125 1.265625 -2.328125 C 1.523438 -2.328125 1.742188 -2.257812 1.921875 -2.125 C 2.097656 -1.988281 2.207031 -1.800781 2.25 -1.5625 L 1.65625 -1.53125 C 1.644531 -1.644531 1.601562 -1.738281 1.53125 -1.8125 C 1.46875 -1.882812 1.375 -1.921875 1.25 -1.921875 C 0.945312 -1.921875 0.796875 -1.664062 0.796875 -1.15625 C 0.796875 -0.625 0.945312 -0.359375 1.25 -0.359375 C 1.363281 -0.359375 1.457031 -0.394531 1.53125 -0.46875 C 1.613281 -0.539062 1.660156 -0.644531 1.671875 -0.78125 L 2.265625 -0.765625 C 2.242188 -0.609375 2.1875 -0.46875 2.09375 -0.34375 C 2.007812 -0.21875 1.894531 -0.117188 1.75 -0.046875 C 1.601562 0.015625 1.4375 0.046875 1.25 0.046875 Z M 1.25 0.046875 "/></g></g><g transform="translate(41.951219, 151.600322)"><g><path d="M 0.296875 -2.6875 L 0.296875 -3.125 L 0.890625 -3.125 L 0.890625 -2.6875 Z M 0.296875 0 L 0.296875 -2.28125 L 0.890625 -2.28125 L 0.890625 0 Z M 0.296875 0 "/></g></g><g transform="translate(43.150778, 151.600322)"><g><path d="M 0.828125 0.046875 C 0.609375 0.046875 0.4375 -0.0078125 0.3125 -0.125 C 0.1875 -0.25 0.125 -0.421875 0.125 -0.640625 C 0.125 -0.878906 0.203125 -1.0625 0.359375 -1.1875 C 0.515625 -1.3125 0.738281 -1.375 1.03125 -1.375 L 1.515625 -1.375 L 1.515625 -1.5 C 1.515625 -1.644531 1.488281 -1.753906 1.4375 -1.828125 C 1.382812 -1.898438 1.300781 -1.9375 1.1875 -1.9375 C 1.070312 -1.9375 0.988281 -1.910156 0.9375 -1.859375 C 0.882812 -1.804688 0.851562 -1.722656 0.84375 -1.609375 L 0.234375 -1.640625 C 0.265625 -1.867188 0.363281 -2.039062 0.53125 -2.15625 C 0.695312 -2.269531 0.921875 -2.328125 1.203125 -2.328125 C 1.492188 -2.328125 1.71875 -2.253906 1.875 -2.109375 C 2.03125 -1.960938 2.109375 -1.757812 2.109375 -1.5 L 2.109375 -0.671875 C 2.109375 -0.546875 2.117188 -0.457031 2.140625 -0.40625 C 2.171875 -0.363281 2.222656 -0.34375 2.296875 -0.34375 C 2.335938 -0.34375 2.378906 -0.34375 2.421875 -0.34375 L 2.421875 -0.03125 C 2.390625 -0.0195312 2.359375 -0.0078125 2.328125 0 C 2.296875 0 2.265625 0 2.234375 0 C 2.210938 0.0078125 2.1875 0.015625 2.15625 0.015625 C 2.125 0.0234375 2.085938 0.03125 2.046875 0.03125 C 1.898438 0.03125 1.789062 -0.00390625 1.71875 -0.078125 C 1.644531 -0.148438 1.601562 -0.257812 1.59375 -0.40625 L 1.578125 -0.40625 C 1.410156 -0.101562 1.160156 0.046875 0.828125 0.046875 Z M 1.515625 -1.0625 L 1.21875 -1.046875 C 1.070312 -1.046875 0.96875 -1.03125 0.90625 -1 C 0.851562 -0.976562 0.8125 -0.941406 0.78125 -0.890625 C 0.757812 -0.835938 0.75 -0.769531 0.75 -0.6875 C 0.75 -0.582031 0.769531 -0.503906 0.8125 -0.453125 C 0.863281 -0.398438 0.929688 -0.375 1.015625 -0.375 C 1.109375 -0.375 1.191406 -0.394531 1.265625 -0.4375 C 1.347656 -0.488281 1.410156 -0.5625 1.453125 -0.65625 C 1.492188 -0.75 1.515625 -0.84375 1.515625 -0.9375 Z M 1.515625 -1.0625 "/></g></g><g transform="translate(45.552005, 151.600322)"><g><path d="M 0.296875 0 L 0.296875 -3.125 L 0.890625 -3.125 L 0.890625 0 Z M 0.296875 0 "/></g></g></g><g fill="#ffffff" fill-opacity="1"><g transform="translate(16.039474, 155.917892)"><g><path d="M 0.28125 0 L 0.28125 -2.96875 L 0.90625 -2.96875 L 0.90625 -0.484375 L 2.5 -0.484375 L 2.5 0 Z M 0.28125 0 "/></g></g><g transform="translate(18.676818, 155.917892)"><g><path d="M 1.234375 0.046875 C 0.890625 0.046875 0.625 -0.0507812 0.4375 -0.25 C 0.257812 -0.457031 0.171875 -0.757812 0.171875 -1.15625 C 0.171875 -1.53125 0.265625 -1.816406 0.453125 -2.015625 C 0.640625 -2.222656 0.90625 -2.328125 1.25 -2.328125 C 1.570312 -2.328125 1.816406 -2.21875 1.984375 -2 C 2.160156 -1.78125 2.25 -1.460938 2.25 -1.046875 L 2.25 -1.03125 L 0.796875 -1.03125 C 0.796875 -0.800781 0.832031 -0.628906 0.90625 -0.515625 C 0.988281 -0.410156 1.109375 -0.359375 1.265625 -0.359375 C 1.472656 -0.359375 1.601562 -0.445312 1.65625 -0.625 L 2.21875 -0.578125 C 2.050781 -0.160156 1.722656 0.046875 1.234375 0.046875 Z M 1.234375 -1.953125 C 1.097656 -1.953125 0.988281 -1.898438 0.90625 -1.796875 C 0.832031 -1.703125 0.796875 -1.566406 0.796875 -1.390625 L 1.671875 -1.390625 C 1.660156 -1.578125 1.617188 -1.71875 1.546875 -1.8125 C 1.472656 -1.90625 1.367188 -1.953125 1.234375 -1.953125 Z M 1.234375 -1.953125 "/></g></g><g transform="translate(21.078045, 155.917892)"><g><path d="M 0.828125 0.046875 C 0.609375 0.046875 0.4375 -0.0078125 0.3125 -0.125 C 0.1875 -0.25 0.125 -0.421875 0.125 -0.640625 C 0.125 -0.878906 0.203125 -1.0625 0.359375 -1.1875 C 0.515625 -1.3125 0.738281 -1.375 1.03125 -1.375 L 1.515625 -1.375 L 1.515625 -1.5 C 1.515625 -1.644531 1.488281 -1.753906 1.4375 -1.828125 C 1.382812 -1.898438 1.300781 -1.9375 1.1875 -1.9375 C 1.070312 -1.9375 0.988281 -1.910156 0.9375 -1.859375 C 0.882812 -1.804688 0.851562 -1.722656 0.84375 -1.609375 L 0.234375 -1.640625 C 0.265625 -1.867188 0.363281 -2.039062 0.53125 -2.15625 C 0.695312 -2.269531 0.921875 -2.328125 1.203125 -2.328125 C 1.492188 -2.328125 1.71875 -2.253906 1.875 -2.109375 C 2.03125 -1.960938 2.109375 -1.757812 2.109375 -1.5 L 2.109375 -0.671875 C 2.109375 -0.546875 2.117188 -0.457031 2.140625 -0.40625 C 2.171875 -0.363281 2.222656 -0.34375 2.296875 -0.34375 C 2.335938 -0.34375 2.378906 -0.34375 2.421875 -0.34375 L 2.421875 -0.03125 C 2.390625 -0.0195312 2.359375 -0.0078125 2.328125 0 C 2.296875 0 2.265625 0 2.234375 0 C 2.210938 0.0078125 2.1875 0.015625 2.15625 0.015625 C 2.125 0.0234375 2.085938 0.03125 2.046875 0.03125 C 1.898438 0.03125 1.789062 -0.00390625 1.71875 -0.078125 C 1.644531 -0.148438 1.601562 -0.257812 1.59375 -0.40625 L 1.578125 -0.40625 C 1.410156 -0.101562 1.160156 0.046875 0.828125 0.046875 Z M 1.515625 -1.0625 L 1.21875 -1.046875 C 1.070312 -1.046875 0.96875 -1.03125 0.90625 -1 C 0.851562 -0.976562 0.8125 -0.941406 0.78125 -0.890625 C 0.757812 -0.835938 0.75 -0.769531 0.75 -0.6875 C 0.75 -0.582031 0.769531 -0.503906 0.8125 -0.453125 C 0.863281 -0.398438 0.929688 -0.375 1.015625 -0.375 C 1.109375 -0.375 1.191406 -0.394531 1.265625 -0.4375 C 1.347656 -0.488281 1.410156 -0.5625 1.453125 -0.65625 C 1.492188 -0.75 1.515625 -0.84375 1.515625 -0.9375 Z M 1.515625 -1.0625 "/></g></g><g transform="translate(23.479271, 155.917892)"><g><path d="M 0.296875 0 L 0.296875 -1.75 C 0.296875 -1.875 0.296875 -1.976562 0.296875 -2.0625 C 0.296875 -2.144531 0.289062 -2.21875 0.28125 -2.28125 L 0.84375 -2.28125 C 0.851562 -2.25 0.859375 -2.171875 0.859375 -2.046875 C 0.867188 -1.921875 0.875 -1.835938 0.875 -1.796875 L 0.890625 -1.796875 C 0.941406 -1.953125 0.988281 -2.0625 1.03125 -2.125 C 1.082031 -2.195312 1.140625 -2.25 1.203125 -2.28125 C 1.265625 -2.3125 1.34375 -2.328125 1.4375 -2.328125 C 1.507812 -2.328125 1.566406 -2.316406 1.609375 -2.296875 L 1.609375 -1.796875 C 1.515625 -1.816406 1.429688 -1.828125 1.359375 -1.828125 C 1.210938 -1.828125 1.097656 -1.765625 1.015625 -1.640625 C 0.929688 -1.523438 0.890625 -1.351562 0.890625 -1.125 L 0.890625 0 Z M 0.296875 0 "/></g></g><g transform="translate(25.159498, 155.917892)"><g><path d="M 1.78125 0 L 1.78125 -1.28125 C 1.78125 -1.675781 1.644531 -1.875 1.375 -1.875 C 1.226562 -1.875 1.109375 -1.8125 1.015625 -1.6875 C 0.929688 -1.570312 0.890625 -1.414062 0.890625 -1.21875 L 0.890625 0 L 0.296875 0 L 0.296875 -1.765625 C 0.296875 -1.890625 0.296875 -1.988281 0.296875 -2.0625 C 0.296875 -2.144531 0.289062 -2.21875 0.28125 -2.28125 L 0.84375 -2.28125 C 0.851562 -2.25 0.859375 -2.175781 0.859375 -2.0625 C 0.867188 -1.945312 0.875 -1.867188 0.875 -1.828125 L 0.890625 -1.828125 C 0.960938 -2.003906 1.054688 -2.128906 1.171875 -2.203125 C 1.296875 -2.285156 1.445312 -2.328125 1.625 -2.328125 C 1.863281 -2.328125 2.046875 -2.25 2.171875 -2.09375 C 2.296875 -1.945312 2.359375 -1.734375 2.359375 -1.453125 L 2.359375 0 Z M 1.78125 0 "/></g></g><g transform="translate(27.796841, 155.917892)"><g><path d="M 0.296875 -2.6875 L 0.296875 -3.125 L 0.890625 -3.125 L 0.890625 -2.6875 Z M 0.296875 0 L 0.296875 -2.28125 L 0.890625 -2.28125 L 0.890625 0 Z M 0.296875 0 "/></g></g><g transform="translate(28.996401, 155.917892)"><g><path d="M 1.78125 0 L 1.78125 -1.28125 C 1.78125 -1.675781 1.644531 -1.875 1.375 -1.875 C 1.226562 -1.875 1.109375 -1.8125 1.015625 -1.6875 C 0.929688 -1.570312 0.890625 -1.414062 0.890625 -1.21875 L 0.890625 0 L 0.296875 0 L 0.296875 -1.765625 C 0.296875 -1.890625 0.296875 -1.988281 0.296875 -2.0625 C 0.296875 -2.144531 0.289062 -2.21875 0.28125 -2.28125 L 0.84375 -2.28125 C 0.851562 -2.25 0.859375 -2.175781 0.859375 -2.0625 C 0.867188 -1.945312 0.875 -1.867188 0.875 -1.828125 L 0.890625 -1.828125 C 0.960938 -2.003906 1.054688 -2.128906 1.171875 -2.203125 C 1.296875 -2.285156 1.445312 -2.328125 1.625 -2.328125 C 1.863281 -2.328125 2.046875 -2.25 2.171875 -2.09375 C 2.296875 -1.945312 2.359375 -1.734375 2.359375 -1.453125 L 2.359375 0 Z M 1.78125 0 "/></g></g><g transform="translate(31.633744, 155.917892)"><g><path d="M 1.25 0.90625 C 0.976562 0.90625 0.753906 0.851562 0.578125 0.75 C 0.410156 0.644531 0.304688 0.492188 0.265625 0.296875 L 0.859375 0.234375 C 0.878906 0.328125 0.925781 0.398438 1 0.453125 C 1.070312 0.503906 1.160156 0.53125 1.265625 0.53125 C 1.429688 0.53125 1.550781 0.476562 1.625 0.375 C 1.707031 0.269531 1.75 0.117188 1.75 -0.078125 L 1.75 -0.421875 C 1.613281 -0.140625 1.367188 0 1.015625 0 C 0.742188 0 0.535156 -0.0976562 0.390625 -0.296875 C 0.242188 -0.503906 0.171875 -0.789062 0.171875 -1.15625 C 0.171875 -1.53125 0.242188 -1.816406 0.390625 -2.015625 C 0.546875 -2.222656 0.769531 -2.328125 1.0625 -2.328125 C 1.382812 -2.328125 1.613281 -2.1875 1.75 -1.90625 C 1.75 -1.957031 1.753906 -2.023438 1.765625 -2.109375 C 1.773438 -2.191406 1.78125 -2.25 1.78125 -2.28125 L 2.34375 -2.28125 C 2.332031 -2.125 2.328125 -1.945312 2.328125 -1.75 L 2.328125 -0.0625 C 2.328125 0.257812 2.234375 0.5 2.046875 0.65625 C 1.867188 0.820312 1.601562 0.90625 1.25 0.90625 Z M 1.75 -1.171875 C 1.75 -1.398438 1.707031 -1.582031 1.625 -1.71875 C 1.539062 -1.851562 1.421875 -1.921875 1.265625 -1.921875 C 0.953125 -1.921875 0.796875 -1.664062 0.796875 -1.15625 C 0.796875 -0.664062 0.953125 -0.421875 1.265625 -0.421875 C 1.421875 -0.421875 1.539062 -0.484375 1.625 -0.609375 C 1.707031 -0.742188 1.75 -0.929688 1.75 -1.171875 Z M 1.75 -1.171875 "/></g></g><g transform="translate(34.271088, 155.917892)"><g/></g><g transform="translate(35.470648, 155.917892)"><g><path d="M 0.296875 -2.6875 L 0.296875 -3.125 L 0.890625 -3.125 L 0.890625 -2.6875 Z M 0.296875 0 L 0.296875 -2.28125 L 0.890625 -2.28125 L 0.890625 0 Z M 0.296875 0 "/></g></g><g transform="translate(36.670207, 155.917892)"><g><path d="M 1.78125 0 L 1.78125 -1.28125 C 1.78125 -1.675781 1.644531 -1.875 1.375 -1.875 C 1.226562 -1.875 1.109375 -1.8125 1.015625 -1.6875 C 0.929688 -1.570312 0.890625 -1.414062 0.890625 -1.21875 L 0.890625 0 L 0.296875 0 L 0.296875 -1.765625 C 0.296875 -1.890625 0.296875 -1.988281 0.296875 -2.0625 C 0.296875 -2.144531 0.289062 -2.21875 0.28125 -2.28125 L 0.84375 -2.28125 C 0.851562 -2.25 0.859375 -2.175781 0.859375 -2.0625 C 0.867188 -1.945312 0.875 -1.867188 0.875 -1.828125 L 0.890625 -1.828125 C 0.960938 -2.003906 1.054688 -2.128906 1.171875 -2.203125 C 1.296875 -2.285156 1.445312 -2.328125 1.625 -2.328125 C 1.863281 -2.328125 2.046875 -2.25 2.171875 -2.09375 C 2.296875 -1.945312 2.359375 -1.734375 2.359375 -1.453125 L 2.359375 0 Z M 1.78125 0 "/></g></g><g transform="translate(39.307551, 155.917892)"><g><path d="M 0.890625 0.03125 C 0.710938 0.03125 0.578125 -0.015625 0.484375 -0.109375 C 0.390625 -0.203125 0.34375 -0.34375 0.34375 -0.53125 L 0.34375 -1.875 L 0.046875 -1.875 L 0.046875 -2.28125 L 0.375 -2.28125 L 0.5625 -2.8125 L 0.921875 -2.8125 L 0.921875 -2.28125 L 1.359375 -2.28125 L 1.359375 -1.875 L 0.921875 -1.875 L 0.921875 -0.6875 C 0.921875 -0.582031 0.941406 -0.503906 0.984375 -0.453125 C 1.023438 -0.398438 1.09375 -0.375 1.1875 -0.375 C 1.226562 -0.375 1.296875 -0.382812 1.390625 -0.40625 L 1.390625 -0.03125 C 1.242188 0.0078125 1.078125 0.03125 0.890625 0.03125 Z M 0.890625 0.03125 "/></g></g><g transform="translate(40.745335, 155.917892)"><g><path d="M 1.234375 0.046875 C 0.890625 0.046875 0.625 -0.0507812 0.4375 -0.25 C 0.257812 -0.457031 0.171875 -0.757812 0.171875 -1.15625 C 0.171875 -1.53125 0.265625 -1.816406 0.453125 -2.015625 C 0.640625 -2.222656 0.90625 -2.328125 1.25 -2.328125 C 1.570312 -2.328125 1.816406 -2.21875 1.984375 -2 C 2.160156 -1.78125 2.25 -1.460938 2.25 -1.046875 L 2.25 -1.03125 L 0.796875 -1.03125 C 0.796875 -0.800781 0.832031 -0.628906 0.90625 -0.515625 C 0.988281 -0.410156 1.109375 -0.359375 1.265625 -0.359375 C 1.472656 -0.359375 1.601562 -0.445312 1.65625 -0.625 L 2.21875 -0.578125 C 2.050781 -0.160156 1.722656 0.046875 1.234375 0.046875 Z M 1.234375 -1.953125 C 1.097656 -1.953125 0.988281 -1.898438 0.90625 -1.796875 C 0.832031 -1.703125 0.796875 -1.566406 0.796875 -1.390625 L 1.671875 -1.390625 C 1.660156 -1.578125 1.617188 -1.71875 1.546875 -1.8125 C 1.472656 -1.90625 1.367188 -1.953125 1.234375 -1.953125 Z M 1.234375 -1.953125 "/></g></g><g transform="translate(43.146562, 155.917892)"><g><path d="M 0.296875 0 L 0.296875 -3.125 L 0.890625 -3.125 L 0.890625 0 Z M 0.296875 0 "/></g></g><g transform="translate(44.346121, 155.917892)"><g><path d="M 0.296875 0 L 0.296875 -3.125 L 0.890625 -3.125 L 0.890625 0 Z M 0.296875 0 "/></g></g><g transform="translate(45.54568, 155.917892)"><g><path d="M 0.296875 -2.6875 L 0.296875 -3.125 L 0.890625 -3.125 L 0.890625 -2.6875 Z M 0.296875 0 L 0.296875 -2.28125 L 0.890625 -2.28125 L 0.890625 0 Z M 0.296875 0 "/></g></g><g transform="translate(46.745239, 155.917892)"><g><path d="M 1.25 0.90625 C 0.976562 0.90625 0.753906 0.851562 0.578125 0.75 C 0.410156 0.644531 0.304688 0.492188 0.265625 0.296875 L 0.859375 0.234375 C 0.878906 0.328125 0.925781 0.398438 1 0.453125 C 1.070312 0.503906 1.160156 0.53125 1.265625 0.53125 C 1.429688 0.53125 1.550781 0.476562 1.625 0.375 C 1.707031 0.269531 1.75 0.117188 1.75 -0.078125 L 1.75 -0.421875 C 1.613281 -0.140625 1.367188 0 1.015625 0 C 0.742188 0 0.535156 -0.0976562 0.390625 -0.296875 C 0.242188 -0.503906 0.171875 -0.789062 0.171875 -1.15625 C 0.171875 -1.53125 0.242188 -1.816406 0.390625 -2.015625 C 0.546875 -2.222656 0.769531 -2.328125 1.0625 -2.328125 C 1.382812 -2.328125 1.613281 -2.1875 1.75 -1.90625 C 1.75 -1.957031 1.753906 -2.023438 1.765625 -2.109375 C 1.773438 -2.191406 1.78125 -2.25 1.78125 -2.28125 L 2.34375 -2.28125 C 2.332031 -2.125 2.328125 -1.945312 2.328125 -1.75 L 2.328125 -0.0625 C 2.328125 0.257812 2.234375 0.5 2.046875 0.65625 C 1.867188 0.820312 1.601562 0.90625 1.25 0.90625 Z M 1.75 -1.171875 C 1.75 -1.398438 1.707031 -1.582031 1.625 -1.71875 C 1.539062 -1.851562 1.421875 -1.921875 1.265625 -1.921875 C 0.953125 -1.921875 0.796875 -1.664062 0.796875 -1.15625 C 0.796875 -0.664062 0.953125 -0.421875 1.265625 -0.421875 C 1.421875 -0.421875 1.539062 -0.484375 1.625 -0.609375 C 1.707031 -0.742188 1.75 -0.929688 1.75 -1.171875 Z M 1.75 -1.171875 "/></g></g><g transform="translate(49.382583, 155.917892)"><g><path d="M 1.234375 0.046875 C 0.890625 0.046875 0.625 -0.0507812 0.4375 -0.25 C 0.257812 -0.457031 0.171875 -0.757812 0.171875 -1.15625 C 0.171875 -1.53125 0.265625 -1.816406 0.453125 -2.015625 C 0.640625 -2.222656 0.90625 -2.328125 1.25 -2.328125 C 1.570312 -2.328125 1.816406 -2.21875 1.984375 -2 C 2.160156 -1.78125 2.25 -1.460938 2.25 -1.046875 L 2.25 -1.03125 L 0.796875 -1.03125 C 0.796875 -0.800781 0.832031 -0.628906 0.90625 -0.515625 C 0.988281 -0.410156 1.109375 -0.359375 1.265625 -0.359375 C 1.472656 -0.359375 1.601562 -0.445312 1.65625 -0.625 L 2.21875 -0.578125 C 2.050781 -0.160156 1.722656 0.046875 1.234375 0.046875 Z M 1.234375 -1.953125 C 1.097656 -1.953125 0.988281 -1.898438 0.90625 -1.796875 C 0.832031 -1.703125 0.796875 -1.566406 0.796875 -1.390625 L 1.671875 -1.390625 C 1.660156 -1.578125 1.617188 -1.71875 1.546875 -1.8125 C 1.472656 -1.90625 1.367188 -1.953125 1.234375 -1.953125 Z M 1.234375 -1.953125 "/></g></g><g transform="translate(51.78381, 155.917892)"><g><path d="M 1.78125 0 L 1.78125 -1.28125 C 1.78125 -1.675781 1.644531 -1.875 1.375 -1.875 C 1.226562 -1.875 1.109375 -1.8125 1.015625 -1.6875 C 0.929688 -1.570312 0.890625 -1.414062 0.890625 -1.21875 L 0.890625 0 L 0.296875 0 L 0.296875 -1.765625 C 0.296875 -1.890625 0.296875 -1.988281 0.296875 -2.0625 C 0.296875 -2.144531 0.289062 -2.21875 0.28125 -2.28125 L 0.84375 -2.28125 C 0.851562 -2.25 0.859375 -2.175781 0.859375 -2.0625 C 0.867188 -1.945312 0.875 -1.867188 0.875 -1.828125 L 0.890625 -1.828125 C 0.960938 -2.003906 1.054688 -2.128906 1.171875 -2.203125 C 1.296875 -2.285156 1.445312 -2.328125 1.625 -2.328125 C 1.863281 -2.328125 2.046875 -2.25 2.171875 -2.09375 C 2.296875 -1.945312 2.359375 -1.734375 2.359375 -1.453125 L 2.359375 0 Z M 1.78125 0 "/></g></g><g transform="translate(54.421154, 155.917892)"><g><path d="M 1.25 0.046875 C 0.90625 0.046875 0.640625 -0.0546875 0.453125 -0.265625 C 0.265625 -0.472656 0.171875 -0.757812 0.171875 -1.125 C 0.171875 -1.5 0.265625 -1.789062 0.453125 -2 C 0.640625 -2.21875 0.910156 -2.328125 1.265625 -2.328125 C 1.523438 -2.328125 1.742188 -2.257812 1.921875 -2.125 C 2.097656 -1.988281 2.207031 -1.800781 2.25 -1.5625 L 1.65625 -1.53125 C 1.644531 -1.644531 1.601562 -1.738281 1.53125 -1.8125 C 1.46875 -1.882812 1.375 -1.921875 1.25 -1.921875 C 0.945312 -1.921875 0.796875 -1.664062 0.796875 -1.15625 C 0.796875 -0.625 0.945312 -0.359375 1.25 -0.359375 C 1.363281 -0.359375 1.457031 -0.394531 1.53125 -0.46875 C 1.613281 -0.539062 1.660156 -0.644531 1.671875 -0.78125 L 2.265625 -0.765625 C 2.242188 -0.609375 2.1875 -0.46875 2.09375 -0.34375 C 2.007812 -0.21875 1.894531 -0.117188 1.75 -0.046875 C 1.601562 0.015625 1.4375 0.046875 1.25 0.046875 Z M 1.25 0.046875 "/></g></g><g transform="translate(56.82238, 155.917892)"><g><path d="M 1.234375 0.046875 C 0.890625 0.046875 0.625 -0.0507812 0.4375 -0.25 C 0.257812 -0.457031 0.171875 -0.757812 0.171875 -1.15625 C 0.171875 -1.53125 0.265625 -1.816406 0.453125 -2.015625 C 0.640625 -2.222656 0.90625 -2.328125 1.25 -2.328125 C 1.570312 -2.328125 1.816406 -2.21875 1.984375 -2 C 2.160156 -1.78125 2.25 -1.460938 2.25 -1.046875 L 2.25 -1.03125 L 0.796875 -1.03125 C 0.796875 -0.800781 0.832031 -0.628906 0.90625 -0.515625 C 0.988281 -0.410156 1.109375 -0.359375 1.265625 -0.359375 C 1.472656 -0.359375 1.601562 -0.445312 1.65625 -0.625 L 2.21875 -0.578125 C 2.050781 -0.160156 1.722656 0.046875 1.234375 0.046875 Z M 1.234375 -1.953125 C 1.097656 -1.953125 0.988281 -1.898438 0.90625 -1.796875 C 0.832031 -1.703125 0.796875 -1.566406 0.796875 -1.390625 L 1.671875 -1.390625 C 1.660156 -1.578125 1.617188 -1.71875 1.546875 -1.8125 C 1.472656 -1.90625 1.367188 -1.953125 1.234375 -1.953125 Z M 1.234375 -1.953125 "/></g></g></g><g fill="#000000" fill-opacity="1"><g transform="translate(140.511696, 106.750588)"><g><path d="M 10.125 -21.140625 C 13.25 -21.140625 15.992188 -20.363281 18.359375 -18.8125 L 16.359375 -14.65625 C 15.265625 -15.289062 14.085938 -15.8125 12.828125 -16.21875 C 11.578125 -16.632812 10.523438 -16.84375 9.671875 -16.84375 C 8.140625 -16.84375 7.375 -16.332031 7.375 -15.3125 C 7.375 -14.65625 7.75 -14.128906 8.5 -13.734375 C 9.257812 -13.335938 10.179688 -12.992188 11.265625 -12.703125 C 12.359375 -12.410156 13.445312 -12.0625 14.53125 -11.65625 C 15.613281 -11.25 16.53125 -10.585938 17.28125 -9.671875 C 18.039062 -8.753906 18.421875 -7.597656 18.421875 -6.203125 C 18.421875 -4.191406 17.632812 -2.625 16.0625 -1.5 C 14.488281 -0.382812 12.488281 0.171875 10.0625 0.171875 C 8.332031 0.171875 6.617188 -0.125 4.921875 -0.71875 C 3.234375 -1.3125 1.757812 -2.128906 0.5 -3.171875 L 2.5625 -7.25 C 3.625 -6.332031 4.867188 -5.582031 6.296875 -5 C 7.734375 -4.414062 9.007812 -4.125 10.125 -4.125 C 10.976562 -4.125 11.644531 -4.273438 12.125 -4.578125 C 12.601562 -4.890625 12.84375 -5.34375 12.84375 -5.9375 C 12.84375 -6.519531 12.566406 -7.003906 12.015625 -7.390625 C 11.472656 -7.773438 10.789062 -8.0625 9.96875 -8.25 C 9.15625 -8.445312 8.269531 -8.703125 7.3125 -9.015625 C 6.351562 -9.335938 5.46875 -9.6875 4.65625 -10.0625 C 3.84375 -10.4375 3.160156 -11.035156 2.609375 -11.859375 C 2.066406 -12.691406 1.796875 -13.6875 1.796875 -14.84375 C 1.796875 -16.75 2.554688 -18.273438 4.078125 -19.421875 C 5.597656 -20.566406 7.613281 -21.140625 10.125 -21.140625 Z M 10.125 -21.140625 "/></g></g></g><g fill="#000000" fill-opacity="1"><g transform="translate(159.736141, 106.750588)"><g><path d="M 9.078125 -16.265625 C 10.671875 -16.265625 12.085938 -15.953125 13.328125 -15.328125 C 14.578125 -14.703125 15.550781 -13.8125 16.25 -12.65625 L 12.546875 -10.421875 C 11.742188 -11.535156 10.65625 -12.09375 9.28125 -12.09375 C 8.289062 -12.09375 7.476562 -11.71875 6.84375 -10.96875 C 6.21875 -10.226562 5.90625 -9.25 5.90625 -8.03125 C 5.90625 -6.800781 6.210938 -5.8125 6.828125 -5.0625 C 7.453125 -4.3125 8.269531 -3.9375 9.28125 -3.9375 C 10.800781 -3.9375 11.898438 -4.546875 12.578125 -5.765625 L 16.328125 -3.546875 C 15.671875 -2.359375 14.710938 -1.441406 13.453125 -0.796875 C 12.191406 -0.148438 10.710938 0.171875 9.015625 0.171875 C 6.523438 0.171875 4.519531 -0.578125 3 -2.078125 C 1.476562 -3.578125 0.71875 -5.550781 0.71875 -8 C 0.71875 -10.46875 1.488281 -12.460938 3.03125 -13.984375 C 4.570312 -15.503906 6.585938 -16.265625 9.078125 -16.265625 Z M 9.078125 -16.265625 "/></g></g></g><g fill="#000000" fill-opacity="1"><g transform="translate(176.51277, 106.750588)"><g><path d="M 12.78125 -16.328125 C 14.550781 -16.328125 15.972656 -15.765625 17.046875 -14.640625 C 18.117188 -13.515625 18.65625 -12.019531 18.65625 -10.15625 L 18.65625 0 L 13.5 0 L 13.5 -8.71875 C 13.5 -9.65625 13.242188 -10.394531 12.734375 -10.9375 C 12.222656 -11.488281 11.53125 -11.765625 10.65625 -11.765625 C 9.664062 -11.765625 8.867188 -11.40625 8.265625 -10.6875 C 7.671875 -9.96875 7.375 -9.050781 7.375 -7.9375 L 7.375 0 L 2.203125 0 L 2.203125 -22.15625 L 7.375 -22.15625 L 7.375 -13.4375 C 8.507812 -15.320312 10.3125 -16.285156 12.78125 -16.328125 Z M 12.78125 -16.328125 "/></g></g></g><g fill="#000000" fill-opacity="1"><g transform="translate(196.752181, 106.750588)"><g><path d="M 9.53125 -16.265625 C 12.15625 -16.265625 14.269531 -15.515625 15.875 -14.015625 C 17.488281 -12.515625 18.296875 -10.53125 18.296875 -8.0625 C 18.296875 -5.59375 17.488281 -3.601562 15.875 -2.09375 C 14.269531 -0.582031 12.15625 0.171875 9.53125 0.171875 C 6.875 0.171875 4.738281 -0.582031 3.125 -2.09375 C 1.519531 -3.601562 0.71875 -5.59375 0.71875 -8.0625 C 0.71875 -10.53125 1.519531 -12.515625 3.125 -14.015625 C 4.738281 -15.515625 6.875 -16.265625 9.53125 -16.265625 Z M 9.53125 -12.1875 C 8.445312 -12.1875 7.570312 -11.796875 6.90625 -11.015625 C 6.238281 -10.242188 5.90625 -9.238281 5.90625 -8 C 5.90625 -6.75 6.238281 -5.738281 6.90625 -4.96875 C 7.570312 -4.207031 8.445312 -3.828125 9.53125 -3.828125 C 10.582031 -3.828125 11.441406 -4.207031 12.109375 -4.96875 C 12.773438 -5.738281 13.109375 -6.75 13.109375 -8 C 13.109375 -9.238281 12.773438 -10.242188 12.109375 -11.015625 C 11.441406 -11.796875 10.582031 -12.1875 9.53125 -12.1875 Z M 9.53125 -12.1875 "/></g></g></g><g fill="#000000" fill-opacity="1"><g transform="translate(215.767669, 106.750588)"><g><path d="M 9.53125 -16.265625 C 12.15625 -16.265625 14.269531 -15.515625 15.875 -14.015625 C 17.488281 -12.515625 18.296875 -10.53125 18.296875 -8.0625 C 18.296875 -5.59375 17.488281 -3.601562 15.875 -2.09375 C 14.269531 -0.582031 12.15625 0.171875 9.53125 0.171875 C 6.875 0.171875 4.738281 -0.582031 3.125 -2.09375 C 1.519531 -3.601562 0.71875 -5.59375 0.71875 -8.0625 C 0.71875 -10.53125 1.519531 -12.515625 3.125 -14.015625 C 4.738281 -15.515625 6.875 -16.265625 9.53125 -16.265625 Z M 9.53125 -12.1875 C 8.445312 -12.1875 7.570312 -11.796875 6.90625 -11.015625 C 6.238281 -10.242188 5.90625 -9.238281 5.90625 -8 C 5.90625 -6.75 6.238281 -5.738281 6.90625 -4.96875 C 7.570312 -4.207031 8.445312 -3.828125 9.53125 -3.828125 C 10.582031 -3.828125 11.441406 -4.207031 12.109375 -4.96875 C 12.773438 -5.738281 13.109375 -6.75 13.109375 -8 C 13.109375 -9.238281 12.773438 -10.242188 12.109375 -11.015625 C 11.441406 -11.796875 10.582031 -12.1875 9.53125 -12.1875 Z M 9.53125 -12.1875 "/></g></g></g><g fill="#000000" fill-opacity="1"><g transform="translate(234.783158, 106.750588)"><g><path d="M 7.375 0 L 2.203125 0 L 2.203125 -22.15625 L 7.375 -22.15625 Z M 7.375 0 "/></g></g></g><g fill="#000000" fill-opacity="1"><g transform="translate(244.365523, 106.750588)"><g/></g></g><g fill="#000000" fill-opacity="1"><g transform="translate(251.291117, 106.750588)"><g><path d="M 9.53125 -16.265625 C 12.15625 -16.265625 14.269531 -15.515625 15.875 -14.015625 C 17.488281 -12.515625 18.296875 -10.53125 18.296875 -8.0625 C 18.296875 -5.59375 17.488281 -3.601562 15.875 -2.09375 C 14.269531 -0.582031 12.15625 0.171875 9.53125 0.171875 C 6.875 0.171875 4.738281 -0.582031 3.125 -2.09375 C 1.519531 -3.601562 0.71875 -5.59375 0.71875 -8.0625 C 0.71875 -10.53125 1.519531 -12.515625 3.125 -14.015625 C 4.738281 -15.515625 6.875 -16.265625 9.53125 -16.265625 Z M 9.53125 -12.1875 C 8.445312 -12.1875 7.570312 -11.796875 6.90625 -11.015625 C 6.238281 -10.242188 5.90625 -9.238281 5.90625 -8 C 5.90625 -6.75 6.238281 -5.738281 6.90625 -4.96875 C 7.570312 -4.207031 8.445312 -3.828125 9.53125 -3.828125 C 10.582031 -3.828125 11.441406 -4.207031 12.109375 -4.96875 C 12.773438 -5.738281 13.109375 -6.75 13.109375 -8 C 13.109375 -9.238281 12.773438 -10.242188 12.109375 -11.015625 C 11.441406 -11.796875 10.582031 -12.1875 9.53125 -12.1875 Z M 9.53125 -12.1875 "/></g></g></g><g fill="#000000" fill-opacity="1"><g transform="translate(270.306605, 106.750588)"><g><path d="M 9.96875 -18.296875 C 9.4375 -18.316406 8.992188 -18.171875 8.640625 -17.859375 C 8.296875 -17.554688 8.125 -17.117188 8.125 -16.546875 L 8.125 -15.375 L 11.765625 -15.375 L 11.765625 -11.96875 L 8.125 -11.96875 L 8.125 0 L 3.015625 0 L 3.015625 -11.96875 L 0.84375 -11.96875 L 0.84375 -15.375 L 3.015625 -15.375 L 3.015625 -16.875 C 3.015625 -18.601562 3.59375 -19.953125 4.75 -20.921875 C 5.90625 -21.898438 7.378906 -22.390625 9.171875 -22.390625 C 10.878906 -22.390625 12.378906 -22.015625 13.671875 -21.265625 L 11.859375 -17.640625 C 11.253906 -18.078125 10.625 -18.296875 9.96875 -18.296875 Z M 9.96875 -18.296875 "/></g></g></g><g fill="#000000" fill-opacity="1"><g transform="translate(140.511696, 148.242276)"><g><path d="M 25.046875 0 L 20.359375 0 L 20.328125 -13.59375 L 15.3125 -2.09375 L 11.859375 -2.09375 L 6.84375 -13.59375 L 6.84375 0 L 2.09375 0 L 2.09375 -20.9375 L 7.90625 -20.9375 L 13.59375 -8.484375 L 19.265625 -20.9375 L 25.046875 -20.9375 Z M 25.046875 0 "/></g></g></g><g fill="#000000" fill-opacity="1"><g transform="translate(167.676672, 148.242276)"><g><path d="M 9.28125 -16.328125 C 11.488281 -16.328125 13.203125 -15.8125 14.421875 -14.78125 C 15.648438 -13.757812 16.273438 -12.335938 16.296875 -10.515625 L 16.296875 0 L 11.25 0 L 11.25 -1.84375 C 10.195312 -0.457031 8.554688 0.234375 6.328125 0.234375 C 4.640625 0.234375 3.296875 -0.226562 2.296875 -1.15625 C 1.304688 -2.09375 0.8125 -3.3125 0.8125 -4.8125 C 0.8125 -6.34375 1.34375 -7.53125 2.40625 -8.375 C 3.46875 -9.21875 4.992188 -9.648438 6.984375 -9.671875 L 11.234375 -9.671875 L 11.234375 -9.90625 C 11.234375 -10.707031 10.96875 -11.332031 10.4375 -11.78125 C 9.90625 -12.226562 9.125 -12.453125 8.09375 -12.453125 C 6.632812 -12.453125 5.03125 -12.003906 3.28125 -11.109375 L 1.828125 -14.515625 C 4.429688 -15.722656 6.914062 -16.328125 9.28125 -16.328125 Z M 7.90625 -3.25 C 8.726562 -3.25 9.445312 -3.453125 10.0625 -3.859375 C 10.675781 -4.273438 11.066406 -4.8125 11.234375 -5.46875 L 11.234375 -6.890625 L 7.96875 -6.890625 C 6.414062 -6.890625 5.640625 -6.316406 5.640625 -5.171875 C 5.640625 -4.566406 5.835938 -4.09375 6.234375 -3.75 C 6.640625 -3.414062 7.195312 -3.25 7.90625 -3.25 Z M 7.90625 -3.25 "/></g></g></g><g fill="#000000" fill-opacity="1"><g transform="translate(185.587666, 148.242276)"><g><path d="M 9.078125 -16.265625 C 10.671875 -16.265625 12.085938 -15.953125 13.328125 -15.328125 C 14.578125 -14.703125 15.550781 -13.8125 16.25 -12.65625 L 12.546875 -10.421875 C 11.742188 -11.535156 10.65625 -12.09375 9.28125 -12.09375 C 8.289062 -12.09375 7.476562 -11.71875 6.84375 -10.96875 C 6.21875 -10.226562 5.90625 -9.25 5.90625 -8.03125 C 5.90625 -6.800781 6.210938 -5.8125 6.828125 -5.0625 C 7.453125 -4.3125 8.269531 -3.9375 9.28125 -3.9375 C 10.800781 -3.9375 11.898438 -4.546875 12.578125 -5.765625 L 16.328125 -3.546875 C 15.671875 -2.359375 14.710938 -1.441406 13.453125 -0.796875 C 12.191406 -0.148438 10.710938 0.171875 9.015625 0.171875 C 6.523438 0.171875 4.519531 -0.578125 3 -2.078125 C 1.476562 -3.578125 0.71875 -5.550781 0.71875 -8 C 0.71875 -10.46875 1.488281 -12.460938 3.03125 -13.984375 C 4.570312 -15.503906 6.585938 -16.265625 9.078125 -16.265625 Z M 9.078125 -16.265625 "/></g></g></g><g fill="#000000" fill-opacity="1"><g transform="translate(202.364295, 148.242276)"><g><path d="M 12.78125 -16.328125 C 14.550781 -16.328125 15.972656 -15.765625 17.046875 -14.640625 C 18.117188 -13.515625 18.65625 -12.019531 18.65625 -10.15625 L 18.65625 0 L 13.5 0 L 13.5 -8.71875 C 13.5 -9.65625 13.242188 -10.394531 12.734375 -10.9375 C 12.222656 -11.488281 11.53125 -11.765625 10.65625 -11.765625 C 9.664062 -11.765625 8.867188 -11.40625 8.265625 -10.6875 C 7.671875 -9.96875 7.375 -9.050781 7.375 -7.9375 L 7.375 0 L 2.203125 0 L 2.203125 -22.15625 L 7.375 -22.15625 L 7.375 -13.4375 C 8.507812 -15.320312 10.3125 -16.285156 12.78125 -16.328125 Z M 12.78125 -16.328125 "/></g></g></g><g fill="#000000" fill-opacity="1"><g transform="translate(222.603706, 148.242276)"><g><path d="M 2.703125 -22.671875 C 3.210938 -23.179688 3.863281 -23.4375 4.65625 -23.4375 C 5.457031 -23.4375 6.109375 -23.179688 6.609375 -22.671875 C 7.117188 -22.171875 7.375 -21.519531 7.375 -20.71875 C 7.375 -19.925781 7.117188 -19.269531 6.609375 -18.75 C 6.109375 -18.226562 5.457031 -17.96875 4.65625 -17.96875 C 3.863281 -17.96875 3.210938 -18.226562 2.703125 -18.75 C 2.191406 -19.269531 1.9375 -19.925781 1.9375 -20.71875 C 1.9375 -21.519531 2.191406 -22.171875 2.703125 -22.671875 Z M 7.203125 0 L 2.0625 0 L 2.0625 -16.09375 L 7.203125 -16.09375 Z M 7.203125 0 "/></g></g></g><g fill="#000000" fill-opacity="1"><g transform="translate(231.887559, 148.242276)"><g><path d="M 12.59375 -16.328125 C 14.375 -16.328125 15.800781 -15.765625 16.875 -14.640625 C 17.945312 -13.515625 18.484375 -12.019531 18.484375 -10.15625 L 18.484375 0 L 13.34375 0 L 13.34375 -8.71875 C 13.34375 -9.65625 13.085938 -10.394531 12.578125 -10.9375 C 12.078125 -11.488281 11.390625 -11.765625 10.515625 -11.765625 C 9.597656 -11.765625 8.84375 -11.460938 8.25 -10.859375 C 7.664062 -10.265625 7.320312 -9.484375 7.21875 -8.515625 L 7.21875 0 L 2.0625 0 L 2.0625 -16.09375 L 7.21875 -16.09375 L 7.21875 -13.46875 C 8.351562 -15.332031 10.144531 -16.285156 12.59375 -16.328125 Z M 12.59375 -16.328125 "/></g></g></g><g fill="#000000" fill-opacity="1"><g transform="translate(251.977699, 148.242276)"><g><path d="M 9.109375 -16.265625 C 11.890625 -16.265625 13.984375 -15.410156 15.390625 -13.703125 C 16.796875 -11.992188 17.410156 -9.644531 17.234375 -6.65625 L 5.90625 -6.65625 C 6.164062 -5.695312 6.625 -4.957031 7.28125 -4.4375 C 7.9375 -3.925781 8.742188 -3.671875 9.703125 -3.671875 C 11.171875 -3.671875 12.457031 -4.21875 13.5625 -5.3125 L 16.265625 -2.65625 C 14.535156 -0.769531 12.195312 0.171875 9.25 0.171875 C 6.644531 0.171875 4.570312 -0.570312 3.03125 -2.0625 C 1.488281 -3.550781 0.71875 -5.53125 0.71875 -8 C 0.71875 -10.488281 1.488281 -12.488281 3.03125 -14 C 4.570312 -15.507812 6.597656 -16.265625 9.109375 -16.265625 Z M 5.828125 -9.4375 L 12.265625 -9.4375 C 12.265625 -10.414062 11.976562 -11.203125 11.40625 -11.796875 C 10.84375 -12.390625 10.097656 -12.6875 9.171875 -12.6875 C 8.296875 -12.6875 7.554688 -12.390625 6.953125 -11.796875 C 6.359375 -11.210938 5.984375 -10.425781 5.828125 -9.4375 Z M 5.828125 -9.4375 "/></g></g></g><g fill="#000000" fill-opacity="1"><g transform="translate(269.948379, 148.242276)"><g/></g></g><g fill="#000000" fill-opacity="1"><g transform="translate(276.873972, 148.242276)"><g><path d="M 7.40625 -4.453125 L 16.265625 -4.453125 L 16.265625 0 L 2.09375 0 L 2.09375 -20.90625 L 7.40625 -20.90625 Z M 7.40625 -4.453125 "/></g></g></g><g fill="#000000" fill-opacity="1"><g transform="translate(293.590887, 148.242276)"><g><path d="M 9.109375 -16.265625 C 11.890625 -16.265625 13.984375 -15.410156 15.390625 -13.703125 C 16.796875 -11.992188 17.410156 -9.644531 17.234375 -6.65625 L 5.90625 -6.65625 C 6.164062 -5.695312 6.625 -4.957031 7.28125 -4.4375 C 7.9375 -3.925781 8.742188 -3.671875 9.703125 -3.671875 C 11.171875 -3.671875 12.457031 -4.21875 13.5625 -5.3125 L 16.265625 -2.65625 C 14.535156 -0.769531 12.195312 0.171875 9.25 0.171875 C 6.644531 0.171875 4.570312 -0.570312 3.03125 -2.0625 C 1.488281 -3.550781 0.71875 -5.53125 0.71875 -8 C 0.71875 -10.488281 1.488281 -12.488281 3.03125 -14 C 4.570312 -15.507812 6.597656 -16.265625 9.109375 -16.265625 Z M 5.828125 -9.4375 L 12.265625 -9.4375 C 12.265625 -10.414062 11.976562 -11.203125 11.40625 -11.796875 C 10.84375 -12.390625 10.097656 -12.6875 9.171875 -12.6875 C 8.296875 -12.6875 7.554688 -12.390625 6.953125 -11.796875 C 6.359375 -11.210938 5.984375 -10.425781 5.828125 -9.4375 Z M 5.828125 -9.4375 "/></g></g></g><g fill="#000000" fill-opacity="1"><g transform="translate(311.561567, 148.242276)"><g><path d="M 9.28125 -16.328125 C 11.488281 -16.328125 13.203125 -15.8125 14.421875 -14.78125 C 15.648438 -13.757812 16.273438 -12.335938 16.296875 -10.515625 L 16.296875 0 L 11.25 0 L 11.25 -1.84375 C 10.195312 -0.457031 8.554688 0.234375 6.328125 0.234375 C 4.640625 0.234375 3.296875 -0.226562 2.296875 -1.15625 C 1.304688 -2.09375 0.8125 -3.3125 0.8125 -4.8125 C 0.8125 -6.34375 1.34375 -7.53125 2.40625 -8.375 C 3.46875 -9.21875 4.992188 -9.648438 6.984375 -9.671875 L 11.234375 -9.671875 L 11.234375 -9.90625 C 11.234375 -10.707031 10.96875 -11.332031 10.4375 -11.78125 C 9.90625 -12.226562 9.125 -12.453125 8.09375 -12.453125 C 6.632812 -12.453125 5.03125 -12.003906 3.28125 -11.109375 L 1.828125 -14.515625 C 4.429688 -15.722656 6.914062 -16.328125 9.28125 -16.328125 Z M 7.90625 -3.25 C 8.726562 -3.25 9.445312 -3.453125 10.0625 -3.859375 C 10.675781 -4.273438 11.066406 -4.8125 11.234375 -5.46875 L 11.234375 -6.890625 L 7.96875 -6.890625 C 6.414062 -6.890625 5.640625 -6.316406 5.640625 -5.171875 C 5.640625 -4.566406 5.835938 -4.09375 6.234375 -3.75 C 6.640625 -3.414062 7.195312 -3.25 7.90625 -3.25 Z M 7.90625 -3.25 "/></g></g></g><g fill="#000000" fill-opacity="1"><g transform="translate(329.472561, 148.242276)"><g><path d="M 7.21875 -16.09375 L 7.21875 -13.375 C 8.351562 -15.300781 10.097656 -16.285156 12.453125 -16.328125 L 12.453125 -11.671875 C 10.972656 -11.816406 9.765625 -11.570312 8.828125 -10.9375 C 7.898438 -10.3125 7.363281 -9.421875 7.21875 -8.265625 L 7.21875 0 L 2.0625 0 L 2.0625 -16.09375 Z M 7.21875 -16.09375 "/></g></g></g><g fill="#000000" fill-opacity="1"><g transform="translate(342.219196, 148.242276)"><g><path d="M 12.59375 -16.328125 C 14.375 -16.328125 15.800781 -15.765625 16.875 -14.640625 C 17.945312 -13.515625 18.484375 -12.019531 18.484375 -10.15625 L 18.484375 0 L 13.34375 0 L 13.34375 -8.71875 C 13.34375 -9.65625 13.085938 -10.394531 12.578125 -10.9375 C 12.078125 -11.488281 11.390625 -11.765625 10.515625 -11.765625 C 9.597656 -11.765625 8.84375 -11.460938 8.25 -10.859375 C 7.664062 -10.265625 7.320312 -9.484375 7.21875 -8.515625 L 7.21875 0 L 2.0625 0 L 2.0625 -16.09375 L 7.21875 -16.09375 L 7.21875 -13.46875 C 8.351562 -15.332031 10.144531 -16.285156 12.59375 -16.328125 Z M 12.59375 -16.328125 "/></g></g></g><g fill="#000000" fill-opacity="1"><g transform="translate(362.309337, 148.242276)"><g><path d="M 2.703125 -22.671875 C 3.210938 -23.179688 3.863281 -23.4375 4.65625 -23.4375 C 5.457031 -23.4375 6.109375 -23.179688 6.609375 -22.671875 C 7.117188 -22.171875 7.375 -21.519531 7.375 -20.71875 C 7.375 -19.925781 7.117188 -19.269531 6.609375 -18.75 C 6.109375 -18.226562 5.457031 -17.96875 4.65625 -17.96875 C 3.863281 -17.96875 3.210938 -18.226562 2.703125 -18.75 C 2.191406 -19.269531 1.9375 -19.925781 1.9375 -20.71875 C 1.9375 -21.519531 2.191406 -22.171875 2.703125 -22.671875 Z M 7.203125 0 L 2.0625 0 L 2.0625 -16.09375 L 7.203125 -16.09375 Z M 7.203125 0 "/></g></g></g><g fill="#000000" fill-opacity="1"><g transform="translate(371.593189, 148.242276)"><g><path d="M 12.59375 -16.328125 C 14.375 -16.328125 15.800781 -15.765625 16.875 -14.640625 C 17.945312 -13.515625 18.484375 -12.019531 18.484375 -10.15625 L 18.484375 0 L 13.34375 0 L 13.34375 -8.71875 C 13.34375 -9.65625 13.085938 -10.394531 12.578125 -10.9375 C 12.078125 -11.488281 11.390625 -11.765625 10.515625 -11.765625 C 9.597656 -11.765625 8.84375 -11.460938 8.25 -10.859375 C 7.664062 -10.265625 7.320312 -9.484375 7.21875 -8.515625 L 7.21875 0 L 2.0625 0 L 2.0625 -16.09375 L 7.21875 -16.09375 L 7.21875 -13.46875 C 8.351562 -15.332031 10.144531 -16.285156 12.59375 -16.328125 Z M 12.59375 -16.328125 "/></g></g></g><g fill="#000000" fill-opacity="1"><g transform="translate(391.68333, 148.242276)"><g><path d="M 17.4375 -16.09375 L 17.4375 -1.46875 C 17.4375 0.800781 16.632812 2.613281 15.03125 3.96875 C 13.425781 5.320312 11.320312 6 8.71875 6 C 6.050781 6 3.660156 5.289062 1.546875 3.875 L 3.34375 0.390625 C 4.894531 1.460938 6.554688 2 8.328125 2 C 9.566406 2 10.535156 1.695312 11.234375 1.09375 C 11.941406 0.5 12.296875 -0.300781 12.296875 -1.3125 L 12.296875 -3.015625 C 11.203125 -1.578125 9.660156 -0.859375 7.671875 -0.859375 C 5.617188 -0.859375 3.953125 -1.578125 2.671875 -3.015625 C 1.390625 -4.453125 0.75 -6.332031 0.75 -8.65625 C 0.75 -10.925781 1.375 -12.757812 2.625 -14.15625 C 3.882812 -15.5625 5.523438 -16.265625 7.546875 -16.265625 C 9.597656 -16.285156 11.179688 -15.570312 12.296875 -14.125 L 12.296875 -16.09375 Z M 8.953125 -4.59375 C 9.953125 -4.59375 10.757812 -4.957031 11.375 -5.6875 C 11.988281 -6.414062 12.296875 -7.359375 12.296875 -8.515625 C 12.296875 -9.679688 11.988281 -10.628906 11.375 -11.359375 C 10.757812 -12.085938 9.953125 -12.453125 8.953125 -12.453125 C 7.941406 -12.453125 7.117188 -12.085938 6.484375 -11.359375 C 5.859375 -10.628906 5.546875 -9.679688 5.546875 -8.515625 C 5.546875 -7.359375 5.859375 -6.414062 6.484375 -5.6875 C 7.117188 -4.957031 7.941406 -4.59375 8.953125 -4.59375 Z M 8.953125 -4.59375 "/></g></g></g></svg>