<svg xmlns="http://www.w3.org/2000/svg" xmlns:xlink="http://www.w3.org/1999/xlink" width="496" zoomAndPan="magnify" viewBox="0 0 372 299.999988" height="400" preserveAspectRatio="xMidYMid meet" version="1.0"><defs><g/><clipPath id="11d46a1d2b"><path d="M 0 82.808594 L 122.957031 82.808594 L 122.957031 205.277344 L 0 205.277344 Z M 0 82.808594 " clip-rule="nonzero"/></clipPath></defs><g clip-path="url(#11d46a1d2b)"><path fill="#370909" d="M 0 82.808594 L 122.945312 82.808594 L 122.945312 205.277344 L 0 205.277344 Z M 0 82.808594 " fill-opacity="1" fill-rule="nonzero"/></g><g fill="#ffffff" fill-opacity="1"><g transform="translate(12.852284, 147.660054)"><g><path d="M 22.609375 0 L 20.109375 -7.1875 L 9.390625 -7.1875 L 6.90625 0 L 1.015625 0 L 11.265625 -28.109375 L 18.21875 -28.109375 L 28.4375 0 Z M 14.75 -23.78125 L 14.625 -23.34375 C 14.488281 -22.863281 14.328125 -22.316406 14.140625 -21.703125 C 13.953125 -21.085938 12.8125 -17.722656 10.71875 -11.609375 L 18.796875 -11.609375 L 16.015625 -19.6875 L 15.15625 -22.40625 Z M 14.75 -23.78125 "/></g></g></g><g fill="#ffffff" fill-opacity="1"><g transform="translate(42.351467, 147.660054)"><g><path d="M 2.859375 -25.484375 L 2.859375 -29.609375 L 8.453125 -29.609375 L 8.453125 -25.484375 Z M 2.859375 0 L 2.859375 -21.59375 L 8.453125 -21.59375 L 8.453125 0 Z M 2.859375 0 "/></g></g></g><g fill="#ffffff" fill-opacity="1"><g transform="translate(53.700376, 147.660054)"><g><path d="M 26.078125 0 L 26.078125 -17.03125 C 26.078125 -17.414062 26.078125 -17.800781 26.078125 -18.1875 C 26.085938 -18.582031 26.15625 -20.238281 26.28125 -23.15625 C 25.332031 -19.582031 24.632812 -17.09375 24.1875 -15.6875 L 19.109375 0 L 14.921875 0 L 9.859375 -15.6875 L 7.71875 -23.15625 C 7.875 -20.070312 7.953125 -18.03125 7.953125 -17.03125 L 7.953125 0 L 2.734375 0 L 2.734375 -28.109375 L 10.609375 -28.109375 L 15.640625 -12.390625 L 16.078125 -10.875 L 17.03125 -7.109375 L 18.296875 -11.609375 L 23.46875 -28.109375 L 31.296875 -28.109375 L 31.296875 0 Z M 26.078125 0 "/></g></g></g><g fill="#ffffff" fill-opacity="1"><g transform="translate(87.727156, 147.660054)"><g><path d="M 2.734375 0 L 2.734375 -28.109375 L 8.625 -28.109375 L 8.625 -4.546875 L 23.703125 -4.546875 L 23.703125 0 Z M 2.734375 0 "/></g></g></g><g fill="#ffffff" fill-opacity="1"><g transform="translate(12.852284, 163.635581)"><g><path d="M 6.71875 -1.796875 C 8.226562 -1.796875 9.273438 -2.550781 9.859375 -4.0625 L 12.046875 -3.234375 C 11.578125 -2.085938 10.890625 -1.234375 9.984375 -0.671875 C 9.078125 -0.109375 7.988281 0.171875 6.71875 0.171875 C 4.800781 0.171875 3.316406 -0.367188 2.265625 -1.453125 C 1.222656 -2.546875 0.703125 -4.066406 0.703125 -6.015625 C 0.703125 -7.972656 1.207031 -9.472656 2.21875 -10.515625 C 3.226562 -11.566406 4.691406 -12.09375 6.609375 -12.09375 C 8.015625 -12.09375 9.15625 -11.8125 10.03125 -11.25 C 10.914062 -10.695312 11.535156 -9.875 11.890625 -8.78125 L 9.6875 -8.1875 C 9.5 -8.78125 9.132812 -9.253906 8.59375 -9.609375 C 8.050781 -9.960938 7.410156 -10.140625 6.671875 -10.140625 C 5.535156 -10.140625 4.675781 -9.785156 4.09375 -9.078125 C 3.507812 -8.378906 3.21875 -7.359375 3.21875 -6.015625 C 3.21875 -4.640625 3.519531 -3.59375 4.125 -2.875 C 4.726562 -2.15625 5.59375 -1.796875 6.71875 -1.796875 Z M 6.71875 -1.796875 "/></g></g></g><g fill="#ffffff" fill-opacity="1"><g transform="translate(25.360885, 163.635581)"><g><path d="M 3.328125 0.171875 C 2.441406 0.171875 1.75 -0.0664062 1.25 -0.546875 C 0.75 -1.035156 0.5 -1.71875 0.5 -2.59375 C 0.5 -3.539062 0.804688 -4.257812 1.421875 -4.75 C 2.046875 -5.25 2.945312 -5.503906 4.125 -5.515625 L 6.09375 -5.546875 L 6.09375 -6.015625 C 6.09375 -6.609375 5.988281 -7.050781 5.78125 -7.34375 C 5.570312 -7.632812 5.226562 -7.78125 4.75 -7.78125 C 4.3125 -7.78125 3.988281 -7.679688 3.78125 -7.484375 C 3.582031 -7.285156 3.457031 -6.953125 3.40625 -6.484375 L 0.921875 -6.609375 C 1.078125 -7.492188 1.484375 -8.164062 2.140625 -8.625 C 2.804688 -9.09375 3.710938 -9.328125 4.859375 -9.328125 C 6.015625 -9.328125 6.90625 -9.039062 7.53125 -8.46875 C 8.15625 -7.894531 8.46875 -7.085938 8.46875 -6.046875 L 8.46875 -2.703125 C 8.46875 -2.191406 8.523438 -1.835938 8.640625 -1.640625 C 8.753906 -1.453125 8.945312 -1.359375 9.21875 -1.359375 C 9.40625 -1.359375 9.582031 -1.375 9.75 -1.40625 L 9.75 -0.125 C 9.601562 -0.0820312 9.472656 -0.046875 9.359375 -0.015625 C 9.253906 0.00390625 9.144531 0.0195312 9.03125 0.03125 C 8.914062 0.0507812 8.796875 0.0664062 8.671875 0.078125 C 8.546875 0.0859375 8.394531 0.09375 8.21875 0.09375 C 7.625 0.09375 7.179688 -0.0507812 6.890625 -0.34375 C 6.609375 -0.632812 6.441406 -1.066406 6.390625 -1.640625 L 6.34375 -1.640625 C 5.675781 -0.429688 4.671875 0.171875 3.328125 0.171875 Z M 6.09375 -4.234375 L 4.875 -4.21875 C 4.320312 -4.195312 3.925781 -4.132812 3.6875 -4.03125 C 3.457031 -3.9375 3.28125 -3.785156 3.15625 -3.578125 C 3.039062 -3.378906 2.984375 -3.113281 2.984375 -2.78125 C 2.984375 -2.34375 3.082031 -2.015625 3.28125 -1.796875 C 3.488281 -1.585938 3.757812 -1.484375 4.09375 -1.484375 C 4.457031 -1.484375 4.789062 -1.582031 5.09375 -1.78125 C 5.40625 -1.988281 5.648438 -2.269531 5.828125 -2.625 C 6.003906 -2.988281 6.09375 -3.375 6.09375 -3.78125 Z M 6.09375 -4.234375 "/></g></g></g><g fill="#ffffff" fill-opacity="1"><g transform="translate(34.993947, 163.635581)"><g><path d="M 6.59375 0 L 6.59375 -5.140625 C 6.59375 -6.742188 6.132812 -7.546875 5.21875 -7.546875 C 4.738281 -7.546875 4.347656 -7.300781 4.046875 -6.8125 C 3.742188 -6.320312 3.59375 -5.6875 3.59375 -4.90625 L 3.59375 0 L 1.203125 0 L 1.203125 -7.109375 C 1.203125 -7.597656 1.195312 -8 1.1875 -8.3125 C 1.175781 -8.625 1.160156 -8.90625 1.140625 -9.15625 L 3.40625 -9.15625 C 3.425781 -9.050781 3.445312 -8.765625 3.46875 -8.296875 C 3.5 -7.828125 3.515625 -7.503906 3.515625 -7.328125 L 3.546875 -7.328125 C 3.847656 -8.035156 4.21875 -8.546875 4.65625 -8.859375 C 5.09375 -9.171875 5.613281 -9.328125 6.21875 -9.328125 C 7.613281 -9.328125 8.460938 -8.660156 8.765625 -7.328125 L 8.8125 -7.328125 C 9.125 -8.046875 9.492188 -8.554688 9.921875 -8.859375 C 10.359375 -9.171875 10.914062 -9.328125 11.59375 -9.328125 C 12.476562 -9.328125 13.15625 -9.023438 13.625 -8.421875 C 14.09375 -7.816406 14.328125 -6.945312 14.328125 -5.8125 L 14.328125 0 L 11.96875 0 L 11.96875 -5.140625 C 11.96875 -6.742188 11.503906 -7.546875 10.578125 -7.546875 C 10.117188 -7.546875 9.738281 -7.320312 9.4375 -6.875 C 9.144531 -6.425781 8.984375 -5.804688 8.953125 -5.015625 L 8.953125 0 Z M 6.59375 0 "/></g></g></g><g fill="#ffffff" fill-opacity="1"><g transform="translate(50.395002, 163.635581)"><g><path d="M 9.875 -4.625 C 9.875 -3.09375 9.566406 -1.910156 8.953125 -1.078125 C 8.335938 -0.242188 7.472656 0.171875 6.359375 0.171875 C 5.710938 0.171875 5.148438 0.03125 4.671875 -0.25 C 4.203125 -0.53125 3.84375 -0.929688 3.59375 -1.453125 L 3.53125 -1.453125 C 3.570312 -1.285156 3.59375 -0.773438 3.59375 0.078125 L 3.59375 3.59375 L 1.203125 3.59375 L 1.203125 -7.046875 C 1.203125 -7.910156 1.179688 -8.613281 1.140625 -9.15625 L 3.453125 -9.15625 C 3.484375 -9.050781 3.503906 -8.847656 3.515625 -8.546875 C 3.535156 -8.253906 3.546875 -7.960938 3.546875 -7.671875 L 3.59375 -7.671875 C 4.125 -8.785156 5.097656 -9.34375 6.515625 -9.34375 C 7.578125 -9.34375 8.398438 -8.929688 8.984375 -8.109375 C 9.578125 -7.296875 9.875 -6.132812 9.875 -4.625 Z M 7.390625 -4.625 C 7.390625 -6.675781 6.765625 -7.703125 5.515625 -7.703125 C 4.878906 -7.703125 4.390625 -7.425781 4.046875 -6.875 C 3.710938 -6.320312 3.546875 -5.546875 3.546875 -4.546875 C 3.546875 -3.566406 3.710938 -2.804688 4.046875 -2.265625 C 4.390625 -1.722656 4.867188 -1.453125 5.484375 -1.453125 C 6.753906 -1.453125 7.390625 -2.507812 7.390625 -4.625 Z M 7.390625 -4.625 "/></g></g></g><g fill="#ffffff" fill-opacity="1"><g transform="translate(60.975301, 163.635581)"><g><path d="M 3.453125 -9.15625 L 3.453125 -4.015625 C 3.453125 -2.410156 3.992188 -1.609375 5.078125 -1.609375 C 5.648438 -1.609375 6.113281 -1.851562 6.46875 -2.34375 C 6.820312 -2.84375 7 -3.476562 7 -4.25 L 7 -9.15625 L 9.375 -9.15625 L 9.375 -2.046875 C 9.375 -1.265625 9.394531 -0.582031 9.4375 0 L 7.171875 0 C 7.109375 -0.8125 7.078125 -1.414062 7.078125 -1.8125 L 7.03125 -1.8125 C 6.71875 -1.125 6.316406 -0.617188 5.828125 -0.296875 C 5.335938 0.015625 4.757812 0.171875 4.09375 0.171875 C 3.113281 0.171875 2.363281 -0.125 1.84375 -0.71875 C 1.332031 -1.3125 1.078125 -2.1875 1.078125 -3.34375 L 1.078125 -9.15625 Z M 3.453125 -9.15625 "/></g></g></g><g fill="#ffffff" fill-opacity="1"><g transform="translate(71.555599, 163.635581)"><g><path d="M 8.921875 -2.671875 C 8.921875 -1.785156 8.554688 -1.085938 7.828125 -0.578125 C 7.109375 -0.078125 6.109375 0.171875 4.828125 0.171875 C 3.566406 0.171875 2.601562 -0.0234375 1.9375 -0.421875 C 1.269531 -0.828125 0.828125 -1.445312 0.609375 -2.28125 L 2.703125 -2.59375 C 2.816406 -2.164062 3.019531 -1.859375 3.3125 -1.671875 C 3.601562 -1.492188 4.109375 -1.40625 4.828125 -1.40625 C 5.492188 -1.40625 5.976562 -1.488281 6.28125 -1.65625 C 6.59375 -1.820312 6.75 -2.085938 6.75 -2.453125 C 6.75 -2.742188 6.625 -2.972656 6.375 -3.140625 C 6.125 -3.316406 5.707031 -3.46875 5.125 -3.59375 C 3.78125 -3.851562 2.875 -4.097656 2.40625 -4.328125 C 1.9375 -4.554688 1.578125 -4.851562 1.328125 -5.21875 C 1.085938 -5.582031 0.96875 -6.03125 0.96875 -6.5625 C 0.96875 -7.4375 1.304688 -8.113281 1.984375 -8.59375 C 2.660156 -9.082031 3.613281 -9.328125 4.84375 -9.328125 C 5.9375 -9.328125 6.8125 -9.113281 7.46875 -8.6875 C 8.132812 -8.269531 8.550781 -7.660156 8.71875 -6.859375 L 6.609375 -6.640625 C 6.535156 -7.015625 6.367188 -7.289062 6.109375 -7.46875 C 5.847656 -7.65625 5.425781 -7.75 4.84375 -7.75 C 4.28125 -7.75 3.859375 -7.675781 3.578125 -7.53125 C 3.296875 -7.382812 3.15625 -7.144531 3.15625 -6.8125 C 3.15625 -6.539062 3.265625 -6.328125 3.484375 -6.171875 C 3.703125 -6.023438 4.066406 -5.898438 4.578125 -5.796875 C 5.296875 -5.648438 5.929688 -5.5 6.484375 -5.34375 C 7.035156 -5.1875 7.476562 -5 7.8125 -4.78125 C 8.15625 -4.570312 8.425781 -4.296875 8.625 -3.953125 C 8.820312 -3.617188 8.921875 -3.191406 8.921875 -2.671875 Z M 8.921875 -2.671875 "/></g></g></g><g fill="#ffffff" fill-opacity="1"><g transform="translate(14.294386, 170.315005)"><g><path d="M 1.984375 0 L 1.984375 -1.140625 L 0.8125 -1.140625 L 0.8125 0 L 0.265625 0 L 0.265625 -2.671875 L 0.8125 -2.671875 L 0.8125 -1.609375 L 1.984375 -1.609375 L 1.984375 -2.671875 L 2.53125 -2.671875 L 2.53125 0 Z M 1.984375 0 "/></g></g><g transform="translate(17.098083, 170.315005)"><g><path d="M 0.765625 -2.046875 L 0.765625 -0.90625 C 0.765625 -0.539062 0.890625 -0.359375 1.140625 -0.359375 C 1.265625 -0.359375 1.363281 -0.410156 1.4375 -0.515625 C 1.519531 -0.628906 1.5625 -0.773438 1.5625 -0.953125 L 1.5625 -2.046875 L 2.09375 -2.046875 L 2.09375 -0.453125 C 2.09375 -0.285156 2.097656 -0.132812 2.109375 0 L 1.609375 0 C 1.585938 -0.175781 1.578125 -0.3125 1.578125 -0.40625 C 1.503906 -0.25 1.410156 -0.132812 1.296875 -0.0625 C 1.191406 0 1.0625 0.03125 0.90625 0.03125 C 0.695312 0.03125 0.53125 -0.03125 0.40625 -0.15625 C 0.289062 -0.289062 0.234375 -0.488281 0.234375 -0.75 L 0.234375 -2.046875 Z M 0.765625 -2.046875 "/></g></g><g transform="translate(19.469566, 170.315005)"><g><path d="M 1.46875 0 L 1.46875 -1.15625 C 1.46875 -1.507812 1.367188 -1.6875 1.171875 -1.6875 C 1.054688 -1.6875 0.960938 -1.628906 0.890625 -1.515625 C 0.828125 -1.410156 0.796875 -1.269531 0.796875 -1.09375 L 0.796875 0 L 0.265625 0 L 0.265625 -1.59375 C 0.265625 -1.695312 0.265625 -1.785156 0.265625 -1.859375 C 0.265625 -1.929688 0.257812 -1.992188 0.25 -2.046875 L 0.765625 -2.046875 C 0.765625 -2.023438 0.765625 -1.960938 0.765625 -1.859375 C 0.773438 -1.753906 0.78125 -1.679688 0.78125 -1.640625 L 0.796875 -1.640625 C 0.859375 -1.796875 0.9375 -1.910156 1.03125 -1.984375 C 1.132812 -2.054688 1.253906 -2.09375 1.390625 -2.09375 C 1.703125 -2.09375 1.890625 -1.941406 1.953125 -1.640625 L 1.96875 -1.640625 C 2.039062 -1.796875 2.125 -1.910156 2.21875 -1.984375 C 2.3125 -2.054688 2.4375 -2.09375 2.59375 -2.09375 C 2.789062 -2.09375 2.941406 -2.023438 3.046875 -1.890625 C 3.148438 -1.753906 3.203125 -1.554688 3.203125 -1.296875 L 3.203125 0 L 2.671875 0 L 2.671875 -1.15625 C 2.671875 -1.507812 2.566406 -1.6875 2.359375 -1.6875 C 2.265625 -1.6875 2.179688 -1.632812 2.109375 -1.53125 C 2.046875 -1.4375 2.007812 -1.300781 2 -1.125 L 2 0 Z M 1.46875 0 "/></g></g><g transform="translate(22.921581, 170.315005)"><g><path d="M 0.75 0.03125 C 0.550781 0.03125 0.394531 -0.0195312 0.28125 -0.125 C 0.164062 -0.226562 0.109375 -0.378906 0.109375 -0.578125 C 0.109375 -0.785156 0.175781 -0.945312 0.3125 -1.0625 C 0.457031 -1.175781 0.660156 -1.234375 0.921875 -1.234375 L 1.359375 -1.234375 L 1.359375 -1.34375 C 1.359375 -1.476562 1.332031 -1.578125 1.28125 -1.640625 C 1.238281 -1.703125 1.164062 -1.734375 1.0625 -1.734375 C 0.96875 -1.734375 0.894531 -1.710938 0.84375 -1.671875 C 0.800781 -1.628906 0.773438 -1.554688 0.765625 -1.453125 L 0.203125 -1.484375 C 0.234375 -1.679688 0.320312 -1.828125 0.46875 -1.921875 C 0.625 -2.023438 0.832031 -2.078125 1.09375 -2.078125 C 1.34375 -2.078125 1.535156 -2.015625 1.671875 -1.890625 C 1.816406 -1.765625 1.890625 -1.582031 1.890625 -1.34375 L 1.890625 -0.609375 C 1.890625 -0.492188 1.898438 -0.410156 1.921875 -0.359375 C 1.953125 -0.316406 2 -0.296875 2.0625 -0.296875 C 2.101562 -0.296875 2.144531 -0.300781 2.1875 -0.3125 L 2.1875 -0.03125 C 2.144531 -0.0195312 2.113281 -0.0078125 2.09375 0 C 2.070312 0 2.046875 0 2.015625 0 C 1.992188 0.0078125 1.96875 0.015625 1.9375 0.015625 C 1.90625 0.015625 1.875 0.015625 1.84375 0.015625 C 1.707031 0.015625 1.609375 -0.015625 1.546875 -0.078125 C 1.484375 -0.140625 1.441406 -0.234375 1.421875 -0.359375 C 1.265625 -0.0976562 1.039062 0.03125 0.75 0.03125 Z M 1.359375 -0.953125 L 1.09375 -0.9375 C 0.96875 -0.9375 0.878906 -0.925781 0.828125 -0.90625 C 0.773438 -0.882812 0.734375 -0.847656 0.703125 -0.796875 C 0.679688 -0.753906 0.671875 -0.695312 0.671875 -0.625 C 0.671875 -0.519531 0.691406 -0.441406 0.734375 -0.390625 C 0.773438 -0.347656 0.832031 -0.328125 0.90625 -0.328125 C 0.988281 -0.328125 1.066406 -0.347656 1.140625 -0.390625 C 1.210938 -0.441406 1.265625 -0.503906 1.296875 -0.578125 C 1.335938 -0.660156 1.359375 -0.75 1.359375 -0.84375 Z M 1.359375 -0.953125 "/></g></g><g transform="translate(25.08075, 170.315005)"><g><path d="M 1.59375 0 L 1.59375 -1.15625 C 1.59375 -1.507812 1.472656 -1.6875 1.234375 -1.6875 C 1.097656 -1.6875 0.988281 -1.628906 0.90625 -1.515625 C 0.832031 -1.410156 0.796875 -1.269531 0.796875 -1.09375 L 0.796875 0 L 0.265625 0 L 0.265625 -1.59375 C 0.265625 -1.695312 0.265625 -1.785156 0.265625 -1.859375 C 0.265625 -1.929688 0.257812 -1.992188 0.25 -2.046875 L 0.765625 -2.046875 C 0.765625 -2.023438 0.765625 -1.960938 0.765625 -1.859375 C 0.773438 -1.753906 0.78125 -1.679688 0.78125 -1.640625 L 0.796875 -1.640625 C 0.867188 -1.796875 0.957031 -1.910156 1.0625 -1.984375 C 1.175781 -2.054688 1.304688 -2.09375 1.453125 -2.09375 C 1.671875 -2.09375 1.835938 -2.023438 1.953125 -1.890625 C 2.066406 -1.753906 2.125 -1.554688 2.125 -1.296875 L 2.125 0 Z M 1.59375 0 "/></g></g><g transform="translate(27.452233, 170.315005)"><g/></g><g transform="translate(28.530869, 170.315005)"><g><path d="M 0.265625 0 L 0.265625 -2.671875 L 0.8125 -2.671875 L 0.8125 0 Z M 0.265625 0 "/></g></g><g transform="translate(29.609506, 170.315005)"><g><path d="M 1.59375 0 L 1.59375 -1.15625 C 1.59375 -1.507812 1.472656 -1.6875 1.234375 -1.6875 C 1.097656 -1.6875 0.988281 -1.628906 0.90625 -1.515625 C 0.832031 -1.410156 0.796875 -1.269531 0.796875 -1.09375 L 0.796875 0 L 0.265625 0 L 0.265625 -1.59375 C 0.265625 -1.695312 0.265625 -1.785156 0.265625 -1.859375 C 0.265625 -1.929688 0.257812 -1.992188 0.25 -2.046875 L 0.765625 -2.046875 C 0.765625 -2.023438 0.765625 -1.960938 0.765625 -1.859375 C 0.773438 -1.753906 0.78125 -1.679688 0.78125 -1.640625 L 0.796875 -1.640625 C 0.867188 -1.796875 0.957031 -1.910156 1.0625 -1.984375 C 1.175781 -2.054688 1.304688 -2.09375 1.453125 -2.09375 C 1.671875 -2.09375 1.835938 -2.023438 1.953125 -1.890625 C 2.066406 -1.753906 2.125 -1.554688 2.125 -1.296875 L 2.125 0 Z M 1.59375 0 "/></g></g><g transform="translate(31.980989, 170.315005)"><g><path d="M 0.796875 0.03125 C 0.640625 0.03125 0.519531 -0.0078125 0.4375 -0.09375 C 0.351562 -0.175781 0.3125 -0.304688 0.3125 -0.484375 L 0.3125 -1.6875 L 0.046875 -1.6875 L 0.046875 -2.046875 L 0.328125 -2.046875 L 0.5 -2.53125 L 0.828125 -2.53125 L 0.828125 -2.046875 L 1.21875 -2.046875 L 1.21875 -1.6875 L 0.828125 -1.6875 L 0.828125 -0.625 C 0.828125 -0.519531 0.847656 -0.441406 0.890625 -0.390625 C 0.929688 -0.347656 0.988281 -0.328125 1.0625 -0.328125 C 1.101562 -0.328125 1.164062 -0.335938 1.25 -0.359375 L 1.25 -0.03125 C 1.113281 0.0078125 0.960938 0.03125 0.796875 0.03125 Z M 0.796875 0.03125 "/></g></g><g transform="translate(33.273836, 170.315005)"><g><path d="M 1.109375 0.03125 C 0.796875 0.03125 0.554688 -0.0546875 0.390625 -0.234375 C 0.234375 -0.421875 0.15625 -0.6875 0.15625 -1.03125 C 0.15625 -1.375 0.238281 -1.632812 0.40625 -1.8125 C 0.570312 -1.988281 0.804688 -2.078125 1.109375 -2.078125 C 1.410156 -2.078125 1.632812 -1.976562 1.78125 -1.78125 C 1.9375 -1.59375 2.015625 -1.3125 2.015625 -0.9375 L 2.015625 -0.921875 L 0.703125 -0.921875 C 0.703125 -0.722656 0.738281 -0.570312 0.8125 -0.46875 C 0.894531 -0.363281 1.003906 -0.3125 1.140625 -0.3125 C 1.328125 -0.3125 1.441406 -0.394531 1.484375 -0.5625 L 2 -0.515625 C 1.851562 -0.148438 1.554688 0.03125 1.109375 0.03125 Z M 1.109375 -1.75 C 0.984375 -1.75 0.882812 -1.703125 0.8125 -1.609375 C 0.75 -1.523438 0.71875 -1.40625 0.71875 -1.25 L 1.515625 -1.25 C 1.503906 -1.414062 1.460938 -1.539062 1.390625 -1.625 C 1.316406 -1.707031 1.222656 -1.75 1.109375 -1.75 Z M 1.109375 -1.75 "/></g></g><g transform="translate(35.433004, 170.315005)"><g><path d="M 0.265625 0 L 0.265625 -2.8125 L 0.796875 -2.8125 L 0.796875 0 Z M 0.265625 0 "/></g></g><g transform="translate(36.511641, 170.315005)"><g><path d="M 0.265625 0 L 0.265625 -2.8125 L 0.796875 -2.8125 L 0.796875 0 Z M 0.265625 0 "/></g></g><g transform="translate(37.590277, 170.315005)"><g><path d="M 0.265625 -2.421875 L 0.265625 -2.8125 L 0.796875 -2.8125 L 0.796875 -2.421875 Z M 0.265625 0 L 0.265625 -2.046875 L 0.796875 -2.046875 L 0.796875 0 Z M 0.265625 0 "/></g></g><g transform="translate(38.668913, 170.315005)"><g><path d="M 1.125 0.828125 C 0.875 0.828125 0.671875 0.773438 0.515625 0.671875 C 0.367188 0.578125 0.28125 0.441406 0.25 0.265625 L 0.78125 0.203125 C 0.789062 0.285156 0.828125 0.347656 0.890625 0.390625 C 0.953125 0.441406 1.035156 0.46875 1.140625 0.46875 C 1.285156 0.46875 1.390625 0.421875 1.453125 0.328125 C 1.523438 0.242188 1.5625 0.113281 1.5625 -0.0625 L 1.5625 -0.171875 L 1.578125 -0.375 L 1.5625 -0.375 C 1.445312 -0.125 1.226562 0 0.90625 0 C 0.664062 0 0.476562 -0.0859375 0.34375 -0.265625 C 0.21875 -0.453125 0.15625 -0.710938 0.15625 -1.046875 C 0.15625 -1.378906 0.222656 -1.632812 0.359375 -1.8125 C 0.492188 -2 0.691406 -2.09375 0.953125 -2.09375 C 1.242188 -2.09375 1.445312 -1.96875 1.5625 -1.71875 L 1.578125 -1.71875 C 1.578125 -1.757812 1.578125 -1.816406 1.578125 -1.890625 C 1.585938 -1.972656 1.597656 -2.023438 1.609375 -2.046875 L 2.109375 -2.046875 C 2.097656 -1.910156 2.09375 -1.753906 2.09375 -1.578125 L 2.09375 -0.0625 C 2.09375 0.226562 2.007812 0.445312 1.84375 0.59375 C 1.675781 0.75 1.4375 0.828125 1.125 0.828125 Z M 1.578125 -1.046875 C 1.578125 -1.265625 1.535156 -1.429688 1.453125 -1.546875 C 1.378906 -1.660156 1.273438 -1.71875 1.140625 -1.71875 C 0.859375 -1.71875 0.71875 -1.492188 0.71875 -1.046875 C 0.71875 -0.597656 0.859375 -0.375 1.140625 -0.375 C 1.273438 -0.375 1.378906 -0.429688 1.453125 -0.546875 C 1.535156 -0.671875 1.578125 -0.835938 1.578125 -1.046875 Z M 1.578125 -1.046875 "/></g></g><g transform="translate(41.040397, 170.315005)"><g><path d="M 1.109375 0.03125 C 0.796875 0.03125 0.554688 -0.0546875 0.390625 -0.234375 C 0.234375 -0.421875 0.15625 -0.6875 0.15625 -1.03125 C 0.15625 -1.375 0.238281 -1.632812 0.40625 -1.8125 C 0.570312 -1.988281 0.804688 -2.078125 1.109375 -2.078125 C 1.410156 -2.078125 1.632812 -1.976562 1.78125 -1.78125 C 1.9375 -1.59375 2.015625 -1.3125 2.015625 -0.9375 L 2.015625 -0.921875 L 0.703125 -0.921875 C 0.703125 -0.722656 0.738281 -0.570312 0.8125 -0.46875 C 0.894531 -0.363281 1.003906 -0.3125 1.140625 -0.3125 C 1.328125 -0.3125 1.441406 -0.394531 1.484375 -0.5625 L 2 -0.515625 C 1.851562 -0.148438 1.554688 0.03125 1.109375 0.03125 Z M 1.109375 -1.75 C 0.984375 -1.75 0.882812 -1.703125 0.8125 -1.609375 C 0.75 -1.523438 0.71875 -1.40625 0.71875 -1.25 L 1.515625 -1.25 C 1.503906 -1.414062 1.460938 -1.539062 1.390625 -1.625 C 1.316406 -1.707031 1.222656 -1.75 1.109375 -1.75 Z M 1.109375 -1.75 "/></g></g><g transform="translate(43.199565, 170.315005)"><g><path d="M 1.59375 0 L 1.59375 -1.15625 C 1.59375 -1.507812 1.472656 -1.6875 1.234375 -1.6875 C 1.097656 -1.6875 0.988281 -1.628906 0.90625 -1.515625 C 0.832031 -1.410156 0.796875 -1.269531 0.796875 -1.09375 L 0.796875 0 L 0.265625 0 L 0.265625 -1.59375 C 0.265625 -1.695312 0.265625 -1.785156 0.265625 -1.859375 C 0.265625 -1.929688 0.257812 -1.992188 0.25 -2.046875 L 0.765625 -2.046875 C 0.765625 -2.023438 0.765625 -1.960938 0.765625 -1.859375 C 0.773438 -1.753906 0.78125 -1.679688 0.78125 -1.640625 L 0.796875 -1.640625 C 0.867188 -1.796875 0.957031 -1.910156 1.0625 -1.984375 C 1.175781 -2.054688 1.304688 -2.09375 1.453125 -2.09375 C 1.671875 -2.09375 1.835938 -2.023438 1.953125 -1.890625 C 2.066406 -1.753906 2.125 -1.554688 2.125 -1.296875 L 2.125 0 Z M 1.59375 0 "/></g></g><g transform="translate(45.571049, 170.315005)"><g><path d="M 1.125 0.03125 C 0.8125 0.03125 0.570312 -0.0546875 0.40625 -0.234375 C 0.238281 -0.421875 0.15625 -0.679688 0.15625 -1.015625 C 0.15625 -1.347656 0.238281 -1.609375 0.40625 -1.796875 C 0.570312 -1.984375 0.8125 -2.078125 1.125 -2.078125 C 1.375 -2.078125 1.578125 -2.015625 1.734375 -1.890625 C 1.890625 -1.773438 1.988281 -1.613281 2.03125 -1.40625 L 1.484375 -1.375 C 1.472656 -1.476562 1.4375 -1.5625 1.375 -1.625 C 1.3125 -1.6875 1.226562 -1.71875 1.125 -1.71875 C 0.84375 -1.71875 0.703125 -1.488281 0.703125 -1.03125 C 0.703125 -0.5625 0.84375 -0.328125 1.125 -0.328125 C 1.226562 -0.328125 1.3125 -0.359375 1.375 -0.421875 C 1.445312 -0.484375 1.492188 -0.578125 1.515625 -0.703125 L 2.046875 -0.6875 C 2.023438 -0.539062 1.972656 -0.410156 1.890625 -0.296875 C 1.804688 -0.191406 1.695312 -0.109375 1.5625 -0.046875 C 1.4375 0.00390625 1.289062 0.03125 1.125 0.03125 Z M 1.125 0.03125 "/></g></g><g transform="translate(47.730217, 170.315005)"><g><path d="M 1.109375 0.03125 C 0.796875 0.03125 0.554688 -0.0546875 0.390625 -0.234375 C 0.234375 -0.421875 0.15625 -0.6875 0.15625 -1.03125 C 0.15625 -1.375 0.238281 -1.632812 0.40625 -1.8125 C 0.570312 -1.988281 0.804688 -2.078125 1.109375 -2.078125 C 1.410156 -2.078125 1.632812 -1.976562 1.78125 -1.78125 C 1.9375 -1.59375 2.015625 -1.3125 2.015625 -0.9375 L 2.015625 -0.921875 L 0.703125 -0.921875 C 0.703125 -0.722656 0.738281 -0.570312 0.8125 -0.46875 C 0.894531 -0.363281 1.003906 -0.3125 1.140625 -0.3125 C 1.328125 -0.3125 1.441406 -0.394531 1.484375 -0.5625 L 2 -0.515625 C 1.851562 -0.148438 1.554688 0.03125 1.109375 0.03125 Z M 1.109375 -1.75 C 0.984375 -1.75 0.882812 -1.703125 0.8125 -1.609375 C 0.75 -1.523438 0.71875 -1.40625 0.71875 -1.25 L 1.515625 -1.25 C 1.503906 -1.414062 1.460938 -1.539062 1.390625 -1.625 C 1.316406 -1.707031 1.222656 -1.75 1.109375 -1.75 Z M 1.109375 -1.75 "/></g></g></g><g fill="#ffffff" fill-opacity="1"><g transform="translate(14.294386, 174.197338)"><g><path d="M 2.46875 0 L 2.46875 -1.609375 C 2.46875 -1.648438 2.46875 -1.6875 2.46875 -1.71875 C 2.46875 -1.757812 2.472656 -1.921875 2.484375 -2.203125 C 2.398438 -1.859375 2.335938 -1.617188 2.296875 -1.484375 L 1.8125 0 L 1.421875 0 L 0.9375 -1.484375 L 0.734375 -2.203125 C 0.742188 -1.898438 0.75 -1.703125 0.75 -1.609375 L 0.75 0 L 0.265625 0 L 0.265625 -2.671875 L 1 -2.671875 L 1.484375 -1.171875 L 1.53125 -1.03125 L 1.609375 -0.671875 L 1.734375 -1.09375 L 2.21875 -2.671875 L 2.96875 -2.671875 L 2.96875 0 Z M 2.46875 0 "/></g></g><g transform="translate(17.5284, 174.197338)"><g><path d="M 1.109375 0.03125 C 0.796875 0.03125 0.554688 -0.0546875 0.390625 -0.234375 C 0.234375 -0.421875 0.15625 -0.6875 0.15625 -1.03125 C 0.15625 -1.375 0.238281 -1.632812 0.40625 -1.8125 C 0.570312 -1.988281 0.804688 -2.078125 1.109375 -2.078125 C 1.410156 -2.078125 1.632812 -1.976562 1.78125 -1.78125 C 1.9375 -1.59375 2.015625 -1.3125 2.015625 -0.9375 L 2.015625 -0.921875 L 0.703125 -0.921875 C 0.703125 -0.722656 0.738281 -0.570312 0.8125 -0.46875 C 0.894531 -0.363281 1.003906 -0.3125 1.140625 -0.3125 C 1.328125 -0.3125 1.441406 -0.394531 1.484375 -0.5625 L 2 -0.515625 C 1.851562 -0.148438 1.554688 0.03125 1.109375 0.03125 Z M 1.109375 -1.75 C 0.984375 -1.75 0.882812 -1.703125 0.8125 -1.609375 C 0.75 -1.523438 0.71875 -1.40625 0.71875 -1.25 L 1.515625 -1.25 C 1.503906 -1.414062 1.460938 -1.539062 1.390625 -1.625 C 1.316406 -1.707031 1.222656 -1.75 1.109375 -1.75 Z M 1.109375 -1.75 "/></g></g><g transform="translate(19.687568, 174.197338)"><g><path d="M 1.109375 0.03125 C 0.796875 0.03125 0.554688 -0.0546875 0.390625 -0.234375 C 0.234375 -0.421875 0.15625 -0.6875 0.15625 -1.03125 C 0.15625 -1.375 0.238281 -1.632812 0.40625 -1.8125 C 0.570312 -1.988281 0.804688 -2.078125 1.109375 -2.078125 C 1.410156 -2.078125 1.632812 -1.976562 1.78125 -1.78125 C 1.9375 -1.59375 2.015625 -1.3125 2.015625 -0.9375 L 2.015625 -0.921875 L 0.703125 -0.921875 C 0.703125 -0.722656 0.738281 -0.570312 0.8125 -0.46875 C 0.894531 -0.363281 1.003906 -0.3125 1.140625 -0.3125 C 1.328125 -0.3125 1.441406 -0.394531 1.484375 -0.5625 L 2 -0.515625 C 1.851562 -0.148438 1.554688 0.03125 1.109375 0.03125 Z M 1.109375 -1.75 C 0.984375 -1.75 0.882812 -1.703125 0.8125 -1.609375 C 0.75 -1.523438 0.71875 -1.40625 0.71875 -1.25 L 1.515625 -1.25 C 1.503906 -1.414062 1.460938 -1.539062 1.390625 -1.625 C 1.316406 -1.707031 1.222656 -1.75 1.109375 -1.75 Z M 1.109375 -1.75 "/></g></g><g transform="translate(21.846736, 174.197338)"><g><path d="M 0.796875 0.03125 C 0.640625 0.03125 0.519531 -0.0078125 0.4375 -0.09375 C 0.351562 -0.175781 0.3125 -0.304688 0.3125 -0.484375 L 0.3125 -1.6875 L 0.046875 -1.6875 L 0.046875 -2.046875 L 0.328125 -2.046875 L 0.5 -2.53125 L 0.828125 -2.53125 L 0.828125 -2.046875 L 1.21875 -2.046875 L 1.21875 -1.6875 L 0.828125 -1.6875 L 0.828125 -0.625 C 0.828125 -0.519531 0.847656 -0.441406 0.890625 -0.390625 C 0.929688 -0.347656 0.988281 -0.328125 1.0625 -0.328125 C 1.101562 -0.328125 1.164062 -0.335938 1.25 -0.359375 L 1.25 -0.03125 C 1.113281 0.0078125 0.960938 0.03125 0.796875 0.03125 Z M 0.796875 0.03125 "/></g></g><g transform="translate(23.139583, 174.197338)"><g><path d="M 2 -0.59375 C 2 -0.394531 1.914062 -0.238281 1.75 -0.125 C 1.59375 -0.0195312 1.367188 0.03125 1.078125 0.03125 C 0.796875 0.03125 0.578125 -0.0078125 0.421875 -0.09375 C 0.273438 -0.1875 0.179688 -0.328125 0.140625 -0.515625 L 0.609375 -0.578125 C 0.628906 -0.484375 0.671875 -0.414062 0.734375 -0.375 C 0.804688 -0.332031 0.921875 -0.3125 1.078125 -0.3125 C 1.222656 -0.3125 1.332031 -0.328125 1.40625 -0.359375 C 1.476562 -0.398438 1.515625 -0.460938 1.515625 -0.546875 C 1.515625 -0.609375 1.484375 -0.660156 1.421875 -0.703125 C 1.367188 -0.742188 1.273438 -0.773438 1.140625 -0.796875 C 0.847656 -0.859375 0.644531 -0.914062 0.53125 -0.96875 C 0.425781 -1.019531 0.347656 -1.082031 0.296875 -1.15625 C 0.242188 -1.238281 0.21875 -1.34375 0.21875 -1.46875 C 0.21875 -1.664062 0.289062 -1.816406 0.4375 -1.921875 C 0.59375 -2.035156 0.804688 -2.09375 1.078125 -2.09375 C 1.328125 -2.09375 1.523438 -2.039062 1.671875 -1.9375 C 1.816406 -1.84375 1.910156 -1.707031 1.953125 -1.53125 L 1.484375 -1.484375 C 1.460938 -1.566406 1.421875 -1.628906 1.359375 -1.671875 C 1.304688 -1.710938 1.210938 -1.734375 1.078125 -1.734375 C 0.953125 -1.734375 0.859375 -1.71875 0.796875 -1.6875 C 0.734375 -1.65625 0.703125 -1.597656 0.703125 -1.515625 C 0.703125 -1.460938 0.722656 -1.414062 0.765625 -1.375 C 0.816406 -1.34375 0.90625 -1.316406 1.03125 -1.296875 C 1.1875 -1.265625 1.328125 -1.226562 1.453125 -1.1875 C 1.578125 -1.15625 1.675781 -1.113281 1.75 -1.0625 C 1.820312 -1.019531 1.878906 -0.960938 1.921875 -0.890625 C 1.972656 -0.816406 2 -0.71875 2 -0.59375 Z M 2 -0.59375 "/></g></g><g transform="translate(25.298752, 174.197338)"><g/></g><g transform="translate(26.377388, 174.197338)"><g><path d="M 2.140625 0 L 1.90625 -0.6875 L 0.890625 -0.6875 L 0.65625 0 L 0.09375 0 L 1.0625 -2.671875 L 1.734375 -2.671875 L 2.703125 0 Z M 1.390625 -2.25 L 1.390625 -2.21875 C 1.378906 -2.164062 1.363281 -2.109375 1.34375 -2.046875 C 1.320312 -1.992188 1.210938 -1.675781 1.015625 -1.09375 L 1.78125 -1.09375 L 1.515625 -1.875 L 1.4375 -2.125 Z M 1.390625 -2.25 "/></g></g><g transform="translate(29.181084, 174.197338)"><g><path d="M 0.265625 0 L 0.265625 -1.5625 C 0.265625 -1.675781 0.265625 -1.769531 0.265625 -1.84375 C 0.265625 -1.914062 0.257812 -1.984375 0.25 -2.046875 L 0.765625 -2.046875 C 0.765625 -2.023438 0.765625 -1.957031 0.765625 -1.84375 C 0.773438 -1.726562 0.78125 -1.648438 0.78125 -1.609375 L 0.796875 -1.609375 C 0.847656 -1.753906 0.894531 -1.851562 0.9375 -1.90625 C 0.976562 -1.96875 1.023438 -2.015625 1.078125 -2.046875 C 1.128906 -2.078125 1.195312 -2.09375 1.28125 -2.09375 C 1.351562 -2.09375 1.410156 -2.082031 1.453125 -2.0625 L 1.453125 -1.609375 C 1.367188 -1.628906 1.289062 -1.640625 1.21875 -1.640625 C 1.09375 -1.640625 0.988281 -1.585938 0.90625 -1.484375 C 0.832031 -1.378906 0.796875 -1.21875 0.796875 -1 L 0.796875 0 Z M 0.265625 0 "/></g></g><g transform="translate(30.691933, 174.197338)"><g><path d="M 0.796875 0.03125 C 0.640625 0.03125 0.519531 -0.0078125 0.4375 -0.09375 C 0.351562 -0.175781 0.3125 -0.304688 0.3125 -0.484375 L 0.3125 -1.6875 L 0.046875 -1.6875 L 0.046875 -2.046875 L 0.328125 -2.046875 L 0.5 -2.53125 L 0.828125 -2.53125 L 0.828125 -2.046875 L 1.21875 -2.046875 L 1.21875 -1.6875 L 0.828125 -1.6875 L 0.828125 -0.625 C 0.828125 -0.519531 0.847656 -0.441406 0.890625 -0.390625 C 0.929688 -0.347656 0.988281 -0.328125 1.0625 -0.328125 C 1.101562 -0.328125 1.164062 -0.335938 1.25 -0.359375 L 1.25 -0.03125 C 1.113281 0.0078125 0.960938 0.03125 0.796875 0.03125 Z M 0.796875 0.03125 "/></g></g><g transform="translate(31.98478, 174.197338)"><g><path d="M 0.265625 -2.421875 L 0.265625 -2.8125 L 0.796875 -2.8125 L 0.796875 -2.421875 Z M 0.265625 0 L 0.265625 -2.046875 L 0.796875 -2.046875 L 0.796875 0 Z M 0.265625 0 "/></g></g><g transform="translate(33.063417, 174.197338)"><g><path d="M 0.890625 -1.6875 L 0.890625 0 L 0.359375 0 L 0.359375 -1.6875 L 0.0625 -1.6875 L 0.0625 -2.046875 L 0.359375 -2.046875 L 0.359375 -2.265625 C 0.359375 -2.453125 0.40625 -2.585938 0.5 -2.671875 C 0.601562 -2.765625 0.757812 -2.8125 0.96875 -2.8125 C 1.0625 -2.8125 1.171875 -2.800781 1.296875 -2.78125 L 1.296875 -2.4375 C 1.242188 -2.445312 1.191406 -2.453125 1.140625 -2.453125 C 1.046875 -2.453125 0.976562 -2.429688 0.9375 -2.390625 C 0.90625 -2.359375 0.890625 -2.296875 0.890625 -2.203125 L 0.890625 -2.046875 L 1.296875 -2.046875 L 1.296875 -1.6875 Z M 0.890625 -1.6875 "/></g></g><g transform="translate(34.356264, 174.197338)"><g><path d="M 0.265625 -2.421875 L 0.265625 -2.8125 L 0.796875 -2.8125 L 0.796875 -2.421875 Z M 0.265625 0 L 0.265625 -2.046875 L 0.796875 -2.046875 L 0.796875 0 Z M 0.265625 0 "/></g></g><g transform="translate(35.4349, 174.197338)"><g><path d="M 1.125 0.03125 C 0.8125 0.03125 0.570312 -0.0546875 0.40625 -0.234375 C 0.238281 -0.421875 0.15625 -0.679688 0.15625 -1.015625 C 0.15625 -1.347656 0.238281 -1.609375 0.40625 -1.796875 C 0.570312 -1.984375 0.8125 -2.078125 1.125 -2.078125 C 1.375 -2.078125 1.578125 -2.015625 1.734375 -1.890625 C 1.890625 -1.773438 1.988281 -1.613281 2.03125 -1.40625 L 1.484375 -1.375 C 1.472656 -1.476562 1.4375 -1.5625 1.375 -1.625 C 1.3125 -1.6875 1.226562 -1.71875 1.125 -1.71875 C 0.84375 -1.71875 0.703125 -1.488281 0.703125 -1.03125 C 0.703125 -0.5625 0.84375 -0.328125 1.125 -0.328125 C 1.226562 -0.328125 1.3125 -0.359375 1.375 -0.421875 C 1.445312 -0.484375 1.492188 -0.578125 1.515625 -0.703125 L 2.046875 -0.6875 C 2.023438 -0.539062 1.972656 -0.410156 1.890625 -0.296875 C 1.804688 -0.191406 1.695312 -0.109375 1.5625 -0.046875 C 1.4375 0.00390625 1.289062 0.03125 1.125 0.03125 Z M 1.125 0.03125 "/></g></g><g transform="translate(37.594068, 174.197338)"><g><path d="M 0.265625 -2.421875 L 0.265625 -2.8125 L 0.796875 -2.8125 L 0.796875 -2.421875 Z M 0.265625 0 L 0.265625 -2.046875 L 0.796875 -2.046875 L 0.796875 0 Z M 0.265625 0 "/></g></g><g transform="translate(38.672705, 174.197338)"><g><path d="M 0.75 0.03125 C 0.550781 0.03125 0.394531 -0.0195312 0.28125 -0.125 C 0.164062 -0.226562 0.109375 -0.378906 0.109375 -0.578125 C 0.109375 -0.785156 0.175781 -0.945312 0.3125 -1.0625 C 0.457031 -1.175781 0.660156 -1.234375 0.921875 -1.234375 L 1.359375 -1.234375 L 1.359375 -1.34375 C 1.359375 -1.476562 1.332031 -1.578125 1.28125 -1.640625 C 1.238281 -1.703125 1.164062 -1.734375 1.0625 -1.734375 C 0.96875 -1.734375 0.894531 -1.710938 0.84375 -1.671875 C 0.800781 -1.628906 0.773438 -1.554688 0.765625 -1.453125 L 0.203125 -1.484375 C 0.234375 -1.679688 0.320312 -1.828125 0.46875 -1.921875 C 0.625 -2.023438 0.832031 -2.078125 1.09375 -2.078125 C 1.34375 -2.078125 1.535156 -2.015625 1.671875 -1.890625 C 1.816406 -1.765625 1.890625 -1.582031 1.890625 -1.34375 L 1.890625 -0.609375 C 1.890625 -0.492188 1.898438 -0.410156 1.921875 -0.359375 C 1.953125 -0.316406 2 -0.296875 2.0625 -0.296875 C 2.101562 -0.296875 2.144531 -0.300781 2.1875 -0.3125 L 2.1875 -0.03125 C 2.144531 -0.0195312 2.113281 -0.0078125 2.09375 0 C 2.070312 0 2.046875 0 2.015625 0 C 1.992188 0.0078125 1.96875 0.015625 1.9375 0.015625 C 1.90625 0.015625 1.875 0.015625 1.84375 0.015625 C 1.707031 0.015625 1.609375 -0.015625 1.546875 -0.078125 C 1.484375 -0.140625 1.441406 -0.234375 1.421875 -0.359375 C 1.265625 -0.0976562 1.039062 0.03125 0.75 0.03125 Z M 1.359375 -0.953125 L 1.09375 -0.9375 C 0.96875 -0.9375 0.878906 -0.925781 0.828125 -0.90625 C 0.773438 -0.882812 0.734375 -0.847656 0.703125 -0.796875 C 0.679688 -0.753906 0.671875 -0.695312 0.671875 -0.625 C 0.671875 -0.519531 0.691406 -0.441406 0.734375 -0.390625 C 0.773438 -0.347656 0.832031 -0.328125 0.90625 -0.328125 C 0.988281 -0.328125 1.066406 -0.347656 1.140625 -0.390625 C 1.210938 -0.441406 1.265625 -0.503906 1.296875 -0.578125 C 1.335938 -0.660156 1.359375 -0.75 1.359375 -0.84375 Z M 1.359375 -0.953125 "/></g></g><g transform="translate(40.831873, 174.197338)"><g><path d="M 0.265625 0 L 0.265625 -2.8125 L 0.796875 -2.8125 L 0.796875 0 Z M 0.265625 0 "/></g></g></g><g fill="#ffffff" fill-opacity="1"><g transform="translate(14.294386, 178.07967)"><g><path d="M 0.265625 0 L 0.265625 -2.671875 L 0.8125 -2.671875 L 0.8125 -0.4375 L 2.25 -0.4375 L 2.25 0 Z M 0.265625 0 "/></g></g><g transform="translate(16.66587, 178.07967)"><g><path d="M 1.109375 0.03125 C 0.796875 0.03125 0.554688 -0.0546875 0.390625 -0.234375 C 0.234375 -0.421875 0.15625 -0.6875 0.15625 -1.03125 C 0.15625 -1.375 0.238281 -1.632812 0.40625 -1.8125 C 0.570312 -1.988281 0.804688 -2.078125 1.109375 -2.078125 C 1.410156 -2.078125 1.632812 -1.976562 1.78125 -1.78125 C 1.9375 -1.59375 2.015625 -1.3125 2.015625 -0.9375 L 2.015625 -0.921875 L 0.703125 -0.921875 C 0.703125 -0.722656 0.738281 -0.570312 0.8125 -0.46875 C 0.894531 -0.363281 1.003906 -0.3125 1.140625 -0.3125 C 1.328125 -0.3125 1.441406 -0.394531 1.484375 -0.5625 L 2 -0.515625 C 1.851562 -0.148438 1.554688 0.03125 1.109375 0.03125 Z M 1.109375 -1.75 C 0.984375 -1.75 0.882812 -1.703125 0.8125 -1.609375 C 0.75 -1.523438 0.71875 -1.40625 0.71875 -1.25 L 1.515625 -1.25 C 1.503906 -1.414062 1.460938 -1.539062 1.390625 -1.625 C 1.316406 -1.707031 1.222656 -1.75 1.109375 -1.75 Z M 1.109375 -1.75 "/></g></g><g transform="translate(18.825038, 178.07967)"><g><path d="M 0.75 0.03125 C 0.550781 0.03125 0.394531 -0.0195312 0.28125 -0.125 C 0.164062 -0.226562 0.109375 -0.378906 0.109375 -0.578125 C 0.109375 -0.785156 0.175781 -0.945312 0.3125 -1.0625 C 0.457031 -1.175781 0.660156 -1.234375 0.921875 -1.234375 L 1.359375 -1.234375 L 1.359375 -1.34375 C 1.359375 -1.476562 1.332031 -1.578125 1.28125 -1.640625 C 1.238281 -1.703125 1.164062 -1.734375 1.0625 -1.734375 C 0.96875 -1.734375 0.894531 -1.710938 0.84375 -1.671875 C 0.800781 -1.628906 0.773438 -1.554688 0.765625 -1.453125 L 0.203125 -1.484375 C 0.234375 -1.679688 0.320312 -1.828125 0.46875 -1.921875 C 0.625 -2.023438 0.832031 -2.078125 1.09375 -2.078125 C 1.34375 -2.078125 1.535156 -2.015625 1.671875 -1.890625 C 1.816406 -1.765625 1.890625 -1.582031 1.890625 -1.34375 L 1.890625 -0.609375 C 1.890625 -0.492188 1.898438 -0.410156 1.921875 -0.359375 C 1.953125 -0.316406 2 -0.296875 2.0625 -0.296875 C 2.101562 -0.296875 2.144531 -0.300781 2.1875 -0.3125 L 2.1875 -0.03125 C 2.144531 -0.0195312 2.113281 -0.0078125 2.09375 0 C 2.070312 0 2.046875 0 2.015625 0 C 1.992188 0.0078125 1.96875 0.015625 1.9375 0.015625 C 1.90625 0.015625 1.875 0.015625 1.84375 0.015625 C 1.707031 0.015625 1.609375 -0.015625 1.546875 -0.078125 C 1.484375 -0.140625 1.441406 -0.234375 1.421875 -0.359375 C 1.265625 -0.0976562 1.039062 0.03125 0.75 0.03125 Z M 1.359375 -0.953125 L 1.09375 -0.9375 C 0.96875 -0.9375 0.878906 -0.925781 0.828125 -0.90625 C 0.773438 -0.882812 0.734375 -0.847656 0.703125 -0.796875 C 0.679688 -0.753906 0.671875 -0.695312 0.671875 -0.625 C 0.671875 -0.519531 0.691406 -0.441406 0.734375 -0.390625 C 0.773438 -0.347656 0.832031 -0.328125 0.90625 -0.328125 C 0.988281 -0.328125 1.066406 -0.347656 1.140625 -0.390625 C 1.210938 -0.441406 1.265625 -0.503906 1.296875 -0.578125 C 1.335938 -0.660156 1.359375 -0.75 1.359375 -0.84375 Z M 1.359375 -0.953125 "/></g></g><g transform="translate(20.984206, 178.07967)"><g><path d="M 0.265625 0 L 0.265625 -1.5625 C 0.265625 -1.675781 0.265625 -1.769531 0.265625 -1.84375 C 0.265625 -1.914062 0.257812 -1.984375 0.25 -2.046875 L 0.765625 -2.046875 C 0.765625 -2.023438 0.765625 -1.957031 0.765625 -1.84375 C 0.773438 -1.726562 0.78125 -1.648438 0.78125 -1.609375 L 0.796875 -1.609375 C 0.847656 -1.753906 0.894531 -1.851562 0.9375 -1.90625 C 0.976562 -1.96875 1.023438 -2.015625 1.078125 -2.046875 C 1.128906 -2.078125 1.195312 -2.09375 1.28125 -2.09375 C 1.351562 -2.09375 1.410156 -2.082031 1.453125 -2.0625 L 1.453125 -1.609375 C 1.367188 -1.628906 1.289062 -1.640625 1.21875 -1.640625 C 1.09375 -1.640625 0.988281 -1.585938 0.90625 -1.484375 C 0.832031 -1.378906 0.796875 -1.21875 0.796875 -1 L 0.796875 0 Z M 0.265625 0 "/></g></g><g transform="translate(22.495056, 178.07967)"><g><path d="M 1.59375 0 L 1.59375 -1.15625 C 1.59375 -1.507812 1.472656 -1.6875 1.234375 -1.6875 C 1.097656 -1.6875 0.988281 -1.628906 0.90625 -1.515625 C 0.832031 -1.410156 0.796875 -1.269531 0.796875 -1.09375 L 0.796875 0 L 0.265625 0 L 0.265625 -1.59375 C 0.265625 -1.695312 0.265625 -1.785156 0.265625 -1.859375 C 0.265625 -1.929688 0.257812 -1.992188 0.25 -2.046875 L 0.765625 -2.046875 C 0.765625 -2.023438 0.765625 -1.960938 0.765625 -1.859375 C 0.773438 -1.753906 0.78125 -1.679688 0.78125 -1.640625 L 0.796875 -1.640625 C 0.867188 -1.796875 0.957031 -1.910156 1.0625 -1.984375 C 1.175781 -2.054688 1.304688 -2.09375 1.453125 -2.09375 C 1.671875 -2.09375 1.835938 -2.023438 1.953125 -1.890625 C 2.066406 -1.753906 2.125 -1.554688 2.125 -1.296875 L 2.125 0 Z M 1.59375 0 "/></g></g><g transform="translate(24.866539, 178.07967)"><g><path d="M 0.265625 -2.421875 L 0.265625 -2.8125 L 0.796875 -2.8125 L 0.796875 -2.421875 Z M 0.265625 0 L 0.265625 -2.046875 L 0.796875 -2.046875 L 0.796875 0 Z M 0.265625 0 "/></g></g><g transform="translate(25.945175, 178.07967)"><g><path d="M 1.59375 0 L 1.59375 -1.15625 C 1.59375 -1.507812 1.472656 -1.6875 1.234375 -1.6875 C 1.097656 -1.6875 0.988281 -1.628906 0.90625 -1.515625 C 0.832031 -1.410156 0.796875 -1.269531 0.796875 -1.09375 L 0.796875 0 L 0.265625 0 L 0.265625 -1.59375 C 0.265625 -1.695312 0.265625 -1.785156 0.265625 -1.859375 C 0.265625 -1.929688 0.257812 -1.992188 0.25 -2.046875 L 0.765625 -2.046875 C 0.765625 -2.023438 0.765625 -1.960938 0.765625 -1.859375 C 0.773438 -1.753906 0.78125 -1.679688 0.78125 -1.640625 L 0.796875 -1.640625 C 0.867188 -1.796875 0.957031 -1.910156 1.0625 -1.984375 C 1.175781 -2.054688 1.304688 -2.09375 1.453125 -2.09375 C 1.671875 -2.09375 1.835938 -2.023438 1.953125 -1.890625 C 2.066406 -1.753906 2.125 -1.554688 2.125 -1.296875 L 2.125 0 Z M 1.59375 0 "/></g></g><g transform="translate(28.316659, 178.07967)"><g><path d="M 1.125 0.828125 C 0.875 0.828125 0.671875 0.773438 0.515625 0.671875 C 0.367188 0.578125 0.28125 0.441406 0.25 0.265625 L 0.78125 0.203125 C 0.789062 0.285156 0.828125 0.347656 0.890625 0.390625 C 0.953125 0.441406 1.035156 0.46875 1.140625 0.46875 C 1.285156 0.46875 1.390625 0.421875 1.453125 0.328125 C 1.523438 0.242188 1.5625 0.113281 1.5625 -0.0625 L 1.5625 -0.171875 L 1.578125 -0.375 L 1.5625 -0.375 C 1.445312 -0.125 1.226562 0 0.90625 0 C 0.664062 0 0.476562 -0.0859375 0.34375 -0.265625 C 0.21875 -0.453125 0.15625 -0.710938 0.15625 -1.046875 C 0.15625 -1.378906 0.222656 -1.632812 0.359375 -1.8125 C 0.492188 -2 0.691406 -2.09375 0.953125 -2.09375 C 1.242188 -2.09375 1.445312 -1.96875 1.5625 -1.71875 L 1.578125 -1.71875 C 1.578125 -1.757812 1.578125 -1.816406 1.578125 -1.890625 C 1.585938 -1.972656 1.597656 -2.023438 1.609375 -2.046875 L 2.109375 -2.046875 C 2.097656 -1.910156 2.09375 -1.753906 2.09375 -1.578125 L 2.09375 -0.0625 C 2.09375 0.226562 2.007812 0.445312 1.84375 0.59375 C 1.675781 0.75 1.4375 0.828125 1.125 0.828125 Z M 1.578125 -1.046875 C 1.578125 -1.265625 1.535156 -1.429688 1.453125 -1.546875 C 1.378906 -1.660156 1.273438 -1.71875 1.140625 -1.71875 C 0.859375 -1.71875 0.71875 -1.492188 0.71875 -1.046875 C 0.71875 -0.597656 0.859375 -0.375 1.140625 -0.375 C 1.273438 -0.375 1.378906 -0.429688 1.453125 -0.546875 C 1.535156 -0.671875 1.578125 -0.835938 1.578125 -1.046875 Z M 1.578125 -1.046875 "/></g></g><g transform="translate(30.688142, 178.07967)"><g/></g><g transform="translate(31.766778, 178.07967)"><g><path d="M 0.265625 -2.421875 L 0.265625 -2.8125 L 0.796875 -2.8125 L 0.796875 -2.421875 Z M 0.265625 0 L 0.265625 -2.046875 L 0.796875 -2.046875 L 0.796875 0 Z M 0.265625 0 "/></g></g><g transform="translate(32.845415, 178.07967)"><g><path d="M 1.59375 0 L 1.59375 -1.15625 C 1.59375 -1.507812 1.472656 -1.6875 1.234375 -1.6875 C 1.097656 -1.6875 0.988281 -1.628906 0.90625 -1.515625 C 0.832031 -1.410156 0.796875 -1.269531 0.796875 -1.09375 L 0.796875 0 L 0.265625 0 L 0.265625 -1.59375 C 0.265625 -1.695312 0.265625 -1.785156 0.265625 -1.859375 C 0.265625 -1.929688 0.257812 -1.992188 0.25 -2.046875 L 0.765625 -2.046875 C 0.765625 -2.023438 0.765625 -1.960938 0.765625 -1.859375 C 0.773438 -1.753906 0.78125 -1.679688 0.78125 -1.640625 L 0.796875 -1.640625 C 0.867188 -1.796875 0.957031 -1.910156 1.0625 -1.984375 C 1.175781 -2.054688 1.304688 -2.09375 1.453125 -2.09375 C 1.671875 -2.09375 1.835938 -2.023438 1.953125 -1.890625 C 2.066406 -1.753906 2.125 -1.554688 2.125 -1.296875 L 2.125 0 Z M 1.59375 0 "/></g></g><g transform="translate(35.216898, 178.07967)"><g><path d="M 0.796875 0.03125 C 0.640625 0.03125 0.519531 -0.0078125 0.4375 -0.09375 C 0.351562 -0.175781 0.3125 -0.304688 0.3125 -0.484375 L 0.3125 -1.6875 L 0.046875 -1.6875 L 0.046875 -2.046875 L 0.328125 -2.046875 L 0.5 -2.53125 L 0.828125 -2.53125 L 0.828125 -2.046875 L 1.21875 -2.046875 L 1.21875 -1.6875 L 0.828125 -1.6875 L 0.828125 -0.625 C 0.828125 -0.519531 0.847656 -0.441406 0.890625 -0.390625 C 0.929688 -0.347656 0.988281 -0.328125 1.0625 -0.328125 C 1.101562 -0.328125 1.164062 -0.335938 1.25 -0.359375 L 1.25 -0.03125 C 1.113281 0.0078125 0.960938 0.03125 0.796875 0.03125 Z M 0.796875 0.03125 "/></g></g><g transform="translate(36.509745, 178.07967)"><g><path d="M 1.109375 0.03125 C 0.796875 0.03125 0.554688 -0.0546875 0.390625 -0.234375 C 0.234375 -0.421875 0.15625 -0.6875 0.15625 -1.03125 C 0.15625 -1.375 0.238281 -1.632812 0.40625 -1.8125 C 0.570312 -1.988281 0.804688 -2.078125 1.109375 -2.078125 C 1.410156 -2.078125 1.632812 -1.976562 1.78125 -1.78125 C 1.9375 -1.59375 2.015625 -1.3125 2.015625 -0.9375 L 2.015625 -0.921875 L 0.703125 -0.921875 C 0.703125 -0.722656 0.738281 -0.570312 0.8125 -0.46875 C 0.894531 -0.363281 1.003906 -0.3125 1.140625 -0.3125 C 1.328125 -0.3125 1.441406 -0.394531 1.484375 -0.5625 L 2 -0.515625 C 1.851562 -0.148438 1.554688 0.03125 1.109375 0.03125 Z M 1.109375 -1.75 C 0.984375 -1.75 0.882812 -1.703125 0.8125 -1.609375 C 0.75 -1.523438 0.71875 -1.40625 0.71875 -1.25 L 1.515625 -1.25 C 1.503906 -1.414062 1.460938 -1.539062 1.390625 -1.625 C 1.316406 -1.707031 1.222656 -1.75 1.109375 -1.75 Z M 1.109375 -1.75 "/></g></g><g transform="translate(38.668913, 178.07967)"><g><path d="M 0.265625 0 L 0.265625 -2.8125 L 0.796875 -2.8125 L 0.796875 0 Z M 0.265625 0 "/></g></g><g transform="translate(39.74755, 178.07967)"><g><path d="M 0.265625 0 L 0.265625 -2.8125 L 0.796875 -2.8125 L 0.796875 0 Z M 0.265625 0 "/></g></g><g transform="translate(40.826186, 178.07967)"><g><path d="M 0.265625 -2.421875 L 0.265625 -2.8125 L 0.796875 -2.8125 L 0.796875 -2.421875 Z M 0.265625 0 L 0.265625 -2.046875 L 0.796875 -2.046875 L 0.796875 0 Z M 0.265625 0 "/></g></g><g transform="translate(41.904822, 178.07967)"><g><path d="M 1.125 0.828125 C 0.875 0.828125 0.671875 0.773438 0.515625 0.671875 C 0.367188 0.578125 0.28125 0.441406 0.25 0.265625 L 0.78125 0.203125 C 0.789062 0.285156 0.828125 0.347656 0.890625 0.390625 C 0.953125 0.441406 1.035156 0.46875 1.140625 0.46875 C 1.285156 0.46875 1.390625 0.421875 1.453125 0.328125 C 1.523438 0.242188 1.5625 0.113281 1.5625 -0.0625 L 1.5625 -0.171875 L 1.578125 -0.375 L 1.5625 -0.375 C 1.445312 -0.125 1.226562 0 0.90625 0 C 0.664062 0 0.476562 -0.0859375 0.34375 -0.265625 C 0.21875 -0.453125 0.15625 -0.710938 0.15625 -1.046875 C 0.15625 -1.378906 0.222656 -1.632812 0.359375 -1.8125 C 0.492188 -2 0.691406 -2.09375 0.953125 -2.09375 C 1.242188 -2.09375 1.445312 -1.96875 1.5625 -1.71875 L 1.578125 -1.71875 C 1.578125 -1.757812 1.578125 -1.816406 1.578125 -1.890625 C 1.585938 -1.972656 1.597656 -2.023438 1.609375 -2.046875 L 2.109375 -2.046875 C 2.097656 -1.910156 2.09375 -1.753906 2.09375 -1.578125 L 2.09375 -0.0625 C 2.09375 0.226562 2.007812 0.445312 1.84375 0.59375 C 1.675781 0.75 1.4375 0.828125 1.125 0.828125 Z M 1.578125 -1.046875 C 1.578125 -1.265625 1.535156 -1.429688 1.453125 -1.546875 C 1.378906 -1.660156 1.273438 -1.71875 1.140625 -1.71875 C 0.859375 -1.71875 0.71875 -1.492188 0.71875 -1.046875 C 0.71875 -0.597656 0.859375 -0.375 1.140625 -0.375 C 1.273438 -0.375 1.378906 -0.429688 1.453125 -0.546875 C 1.535156 -0.671875 1.578125 -0.835938 1.578125 -1.046875 Z M 1.578125 -1.046875 "/></g></g><g transform="translate(44.276306, 178.07967)"><g><path d="M 1.109375 0.03125 C 0.796875 0.03125 0.554688 -0.0546875 0.390625 -0.234375 C 0.234375 -0.421875 0.15625 -0.6875 0.15625 -1.03125 C 0.15625 -1.375 0.238281 -1.632812 0.40625 -1.8125 C 0.570312 -1.988281 0.804688 -2.078125 1.109375 -2.078125 C 1.410156 -2.078125 1.632812 -1.976562 1.78125 -1.78125 C 1.9375 -1.59375 2.015625 -1.3125 2.015625 -0.9375 L 2.015625 -0.921875 L 0.703125 -0.921875 C 0.703125 -0.722656 0.738281 -0.570312 0.8125 -0.46875 C 0.894531 -0.363281 1.003906 -0.3125 1.140625 -0.3125 C 1.328125 -0.3125 1.441406 -0.394531 1.484375 -0.5625 L 2 -0.515625 C 1.851562 -0.148438 1.554688 0.03125 1.109375 0.03125 Z M 1.109375 -1.75 C 0.984375 -1.75 0.882812 -1.703125 0.8125 -1.609375 C 0.75 -1.523438 0.71875 -1.40625 0.71875 -1.25 L 1.515625 -1.25 C 1.503906 -1.414062 1.460938 -1.539062 1.390625 -1.625 C 1.316406 -1.707031 1.222656 -1.75 1.109375 -1.75 Z M 1.109375 -1.75 "/></g></g><g transform="translate(46.435474, 178.07967)"><g><path d="M 1.59375 0 L 1.59375 -1.15625 C 1.59375 -1.507812 1.472656 -1.6875 1.234375 -1.6875 C 1.097656 -1.6875 0.988281 -1.628906 0.90625 -1.515625 C 0.832031 -1.410156 0.796875 -1.269531 0.796875 -1.09375 L 0.796875 0 L 0.265625 0 L 0.265625 -1.59375 C 0.265625 -1.695312 0.265625 -1.785156 0.265625 -1.859375 C 0.265625 -1.929688 0.257812 -1.992188 0.25 -2.046875 L 0.765625 -2.046875 C 0.765625 -2.023438 0.765625 -1.960938 0.765625 -1.859375 C 0.773438 -1.753906 0.78125 -1.679688 0.78125 -1.640625 L 0.796875 -1.640625 C 0.867188 -1.796875 0.957031 -1.910156 1.0625 -1.984375 C 1.175781 -2.054688 1.304688 -2.09375 1.453125 -2.09375 C 1.671875 -2.09375 1.835938 -2.023438 1.953125 -1.890625 C 2.066406 -1.753906 2.125 -1.554688 2.125 -1.296875 L 2.125 0 Z M 1.59375 0 "/></g></g><g transform="translate(48.806958, 178.07967)"><g><path d="M 1.125 0.03125 C 0.8125 0.03125 0.570312 -0.0546875 0.40625 -0.234375 C 0.238281 -0.421875 0.15625 -0.679688 0.15625 -1.015625 C 0.15625 -1.347656 0.238281 -1.609375 0.40625 -1.796875 C 0.570312 -1.984375 0.8125 -2.078125 1.125 -2.078125 C 1.375 -2.078125 1.578125 -2.015625 1.734375 -1.890625 C 1.890625 -1.773438 1.988281 -1.613281 2.03125 -1.40625 L 1.484375 -1.375 C 1.472656 -1.476562 1.4375 -1.5625 1.375 -1.625 C 1.3125 -1.6875 1.226562 -1.71875 1.125 -1.71875 C 0.84375 -1.71875 0.703125 -1.488281 0.703125 -1.03125 C 0.703125 -0.5625 0.84375 -0.328125 1.125 -0.328125 C 1.226562 -0.328125 1.3125 -0.359375 1.375 -0.421875 C 1.445312 -0.484375 1.492188 -0.578125 1.515625 -0.703125 L 2.046875 -0.6875 C 2.023438 -0.539062 1.972656 -0.410156 1.890625 -0.296875 C 1.804688 -0.191406 1.695312 -0.109375 1.5625 -0.046875 C 1.4375 0.00390625 1.289062 0.03125 1.125 0.03125 Z M 1.125 0.03125 "/></g></g><g transform="translate(50.966126, 178.07967)"><g><path d="M 1.109375 0.03125 C 0.796875 0.03125 0.554688 -0.0546875 0.390625 -0.234375 C 0.234375 -0.421875 0.15625 -0.6875 0.15625 -1.03125 C 0.15625 -1.375 0.238281 -1.632812 0.40625 -1.8125 C 0.570312 -1.988281 0.804688 -2.078125 1.109375 -2.078125 C 1.410156 -2.078125 1.632812 -1.976562 1.78125 -1.78125 C 1.9375 -1.59375 2.015625 -1.3125 2.015625 -0.9375 L 2.015625 -0.921875 L 0.703125 -0.921875 C 0.703125 -0.722656 0.738281 -0.570312 0.8125 -0.46875 C 0.894531 -0.363281 1.003906 -0.3125 1.140625 -0.3125 C 1.328125 -0.3125 1.441406 -0.394531 1.484375 -0.5625 L 2 -0.515625 C 1.851562 -0.148438 1.554688 0.03125 1.109375 0.03125 Z M 1.109375 -1.75 C 0.984375 -1.75 0.882812 -1.703125 0.8125 -1.609375 C 0.75 -1.523438 0.71875 -1.40625 0.71875 -1.25 L 1.515625 -1.25 C 1.503906 -1.414062 1.460938 -1.539062 1.390625 -1.625 C 1.316406 -1.707031 1.222656 -1.75 1.109375 -1.75 Z M 1.109375 -1.75 "/></g></g></g><g fill="#000000" fill-opacity="1"><g transform="translate(126.21905, 133.868742)"><g><path d="M 9.09375 -19 C 11.90625 -19 14.378906 -18.300781 16.515625 -16.90625 L 14.703125 -13.1875 C 13.722656 -13.757812 12.671875 -14.226562 11.546875 -14.59375 C 10.421875 -14.957031 9.472656 -15.140625 8.703125 -15.140625 C 7.316406 -15.140625 6.625 -14.679688 6.625 -13.765625 C 6.625 -13.179688 6.960938 -12.707031 7.640625 -12.34375 C 8.328125 -11.988281 9.15625 -11.679688 10.125 -11.421875 C 11.101562 -11.160156 12.078125 -10.847656 13.046875 -10.484375 C 14.023438 -10.117188 14.851562 -9.523438 15.53125 -8.703125 C 16.21875 -7.878906 16.5625 -6.835938 16.5625 -5.578125 C 16.5625 -3.773438 15.851562 -2.367188 14.4375 -1.359375 C 13.03125 -0.347656 11.234375 0.15625 9.046875 0.15625 C 7.492188 0.15625 5.953125 -0.109375 4.421875 -0.640625 C 2.898438 -1.179688 1.578125 -1.914062 0.453125 -2.84375 L 2.3125 -6.515625 C 3.257812 -5.691406 4.375 -5.015625 5.65625 -4.484375 C 6.945312 -3.960938 8.09375 -3.703125 9.09375 -3.703125 C 9.863281 -3.703125 10.460938 -3.835938 10.890625 -4.109375 C 11.328125 -4.390625 11.546875 -4.800781 11.546875 -5.34375 C 11.546875 -5.863281 11.296875 -6.296875 10.796875 -6.640625 C 10.304688 -6.992188 9.691406 -7.253906 8.953125 -7.421875 C 8.222656 -7.585938 7.425781 -7.8125 6.5625 -8.09375 C 5.707031 -8.382812 4.914062 -8.703125 4.1875 -9.046875 C 3.457031 -9.390625 2.84375 -9.929688 2.34375 -10.671875 C 1.851562 -11.410156 1.609375 -12.300781 1.609375 -13.34375 C 1.609375 -15.0625 2.289062 -16.429688 3.65625 -17.453125 C 5.03125 -18.484375 6.84375 -19 9.09375 -19 Z M 9.09375 -19 "/></g></g></g><g fill="#000000" fill-opacity="1"><g transform="translate(143.505553, 133.868742)"><g><path d="M 8.15625 -14.625 C 9.59375 -14.625 10.867188 -14.34375 11.984375 -13.78125 C 13.097656 -13.21875 13.972656 -12.414062 14.609375 -11.375 L 11.28125 -9.375 C 10.5625 -10.375 9.582031 -10.875 8.34375 -10.875 C 7.445312 -10.875 6.71875 -10.535156 6.15625 -9.859375 C 5.59375 -9.191406 5.3125 -8.3125 5.3125 -7.21875 C 5.3125 -6.113281 5.585938 -5.222656 6.140625 -4.546875 C 6.703125 -3.878906 7.4375 -3.546875 8.34375 -3.546875 C 9.707031 -3.546875 10.691406 -4.09375 11.296875 -5.1875 L 14.6875 -3.1875 C 14.09375 -2.113281 13.226562 -1.285156 12.09375 -0.703125 C 10.957031 -0.128906 9.628906 0.15625 8.109375 0.15625 C 5.867188 0.15625 4.0625 -0.515625 2.6875 -1.859375 C 1.320312 -3.210938 0.640625 -4.988281 0.640625 -7.1875 C 0.640625 -9.40625 1.332031 -11.195312 2.71875 -12.5625 C 4.113281 -13.9375 5.925781 -14.625 8.15625 -14.625 Z M 8.15625 -14.625 "/></g></g></g><g fill="#000000" fill-opacity="1"><g transform="translate(158.590994, 133.868742)"><g><path d="M 11.484375 -14.6875 C 13.078125 -14.6875 14.359375 -14.179688 15.328125 -13.171875 C 16.296875 -12.160156 16.78125 -10.8125 16.78125 -9.125 L 16.78125 0 L 12.140625 0 L 12.140625 -7.84375 C 12.140625 -8.675781 11.910156 -9.335938 11.453125 -9.828125 C 10.992188 -10.328125 10.367188 -10.578125 9.578125 -10.578125 C 8.679688 -10.578125 7.960938 -10.253906 7.421875 -9.609375 C 6.890625 -8.960938 6.625 -8.140625 6.625 -7.140625 L 6.625 0 L 1.984375 0 L 1.984375 -19.921875 L 6.625 -19.921875 L 6.625 -12.078125 C 7.644531 -13.773438 9.265625 -14.644531 11.484375 -14.6875 Z M 11.484375 -14.6875 "/></g></g></g><g fill="#000000" fill-opacity="1"><g transform="translate(176.790149, 133.868742)"><g><path d="M 8.5625 -14.625 C 10.925781 -14.625 12.832031 -13.945312 14.28125 -12.59375 C 15.726562 -11.25 16.453125 -9.46875 16.453125 -7.25 C 16.453125 -5.03125 15.726562 -3.238281 14.28125 -1.875 C 12.832031 -0.519531 10.925781 0.15625 8.5625 0.15625 C 6.1875 0.15625 4.269531 -0.519531 2.8125 -1.875 C 1.363281 -3.238281 0.640625 -5.03125 0.640625 -7.25 C 0.640625 -9.46875 1.363281 -11.25 2.8125 -12.59375 C 4.269531 -13.945312 6.1875 -14.625 8.5625 -14.625 Z M 8.5625 -10.953125 C 7.59375 -10.953125 6.804688 -10.601562 6.203125 -9.90625 C 5.609375 -9.207031 5.3125 -8.300781 5.3125 -7.1875 C 5.3125 -6.0625 5.609375 -5.15625 6.203125 -4.46875 C 6.804688 -3.78125 7.59375 -3.4375 8.5625 -3.4375 C 9.507812 -3.4375 10.28125 -3.78125 10.875 -4.46875 C 11.476562 -5.15625 11.78125 -6.0625 11.78125 -7.1875 C 11.78125 -8.300781 11.476562 -9.207031 10.875 -9.90625 C 10.28125 -10.601562 9.507812 -10.953125 8.5625 -10.953125 Z M 8.5625 -10.953125 "/></g></g></g><g fill="#000000" fill-opacity="1"><g transform="translate(193.888759, 133.868742)"><g><path d="M 8.5625 -14.625 C 10.925781 -14.625 12.832031 -13.945312 14.28125 -12.59375 C 15.726562 -11.25 16.453125 -9.46875 16.453125 -7.25 C 16.453125 -5.03125 15.726562 -3.238281 14.28125 -1.875 C 12.832031 -0.519531 10.925781 0.15625 8.5625 0.15625 C 6.1875 0.15625 4.269531 -0.519531 2.8125 -1.875 C 1.363281 -3.238281 0.640625 -5.03125 0.640625 -7.25 C 0.640625 -9.46875 1.363281 -11.25 2.8125 -12.59375 C 4.269531 -13.945312 6.1875 -14.625 8.5625 -14.625 Z M 8.5625 -10.953125 C 7.59375 -10.953125 6.804688 -10.601562 6.203125 -9.90625 C 5.609375 -9.207031 5.3125 -8.300781 5.3125 -7.1875 C 5.3125 -6.0625 5.609375 -5.15625 6.203125 -4.46875 C 6.804688 -3.78125 7.59375 -3.4375 8.5625 -3.4375 C 9.507812 -3.4375 10.28125 -3.78125 10.875 -4.46875 C 11.476562 -5.15625 11.78125 -6.0625 11.78125 -7.1875 C 11.78125 -8.300781 11.476562 -9.207031 10.875 -9.90625 C 10.28125 -10.601562 9.507812 -10.953125 8.5625 -10.953125 Z M 8.5625 -10.953125 "/></g></g></g><g fill="#000000" fill-opacity="1"><g transform="translate(210.98737, 133.868742)"><g><path d="M 6.625 0 L 1.984375 0 L 1.984375 -19.921875 L 6.625 -19.921875 Z M 6.625 0 "/></g></g></g><g fill="#000000" fill-opacity="1"><g transform="translate(219.603774, 133.868742)"><g/></g></g><g fill="#000000" fill-opacity="1"><g transform="translate(225.831225, 133.868742)"><g><path d="M 8.5625 -14.625 C 10.925781 -14.625 12.832031 -13.945312 14.28125 -12.59375 C 15.726562 -11.25 16.453125 -9.46875 16.453125 -7.25 C 16.453125 -5.03125 15.726562 -3.238281 14.28125 -1.875 C 12.832031 -0.519531 10.925781 0.15625 8.5625 0.15625 C 6.1875 0.15625 4.269531 -0.519531 2.8125 -1.875 C 1.363281 -3.238281 0.640625 -5.03125 0.640625 -7.25 C 0.640625 -9.46875 1.363281 -11.25 2.8125 -12.59375 C 4.269531 -13.945312 6.1875 -14.625 8.5625 -14.625 Z M 8.5625 -10.953125 C 7.59375 -10.953125 6.804688 -10.601562 6.203125 -9.90625 C 5.609375 -9.207031 5.3125 -8.300781 5.3125 -7.1875 C 5.3125 -6.0625 5.609375 -5.15625 6.203125 -4.46875 C 6.804688 -3.78125 7.59375 -3.4375 8.5625 -3.4375 C 9.507812 -3.4375 10.28125 -3.78125 10.875 -4.46875 C 11.476562 -5.15625 11.78125 -6.0625 11.78125 -7.1875 C 11.78125 -8.300781 11.476562 -9.207031 10.875 -9.90625 C 10.28125 -10.601562 9.507812 -10.953125 8.5625 -10.953125 Z M 8.5625 -10.953125 "/></g></g></g><g fill="#000000" fill-opacity="1"><g transform="translate(242.929836, 133.868742)"><g><path d="M 8.96875 -16.453125 C 8.476562 -16.472656 8.078125 -16.34375 7.765625 -16.0625 C 7.453125 -15.789062 7.296875 -15.394531 7.296875 -14.875 L 7.296875 -13.828125 L 10.578125 -13.828125 L 10.578125 -10.765625 L 7.296875 -10.765625 L 7.296875 0 L 2.71875 0 L 2.71875 -10.765625 L 0.75 -10.765625 L 0.75 -13.828125 L 2.71875 -13.828125 L 2.71875 -15.171875 C 2.71875 -16.722656 3.234375 -17.9375 4.265625 -18.8125 C 5.304688 -19.695312 6.628906 -20.140625 8.234375 -20.140625 C 9.773438 -20.140625 11.128906 -19.796875 12.296875 -19.109375 L 10.65625 -15.859375 C 10.125 -16.253906 9.5625 -16.453125 8.96875 -16.453125 Z M 8.96875 -16.453125 "/></g></g></g><g fill="#000000" fill-opacity="1"><g transform="translate(126.21905, 171.177813)"><g><path d="M 22.515625 0 L 18.3125 0 L 18.28125 -12.21875 L 13.765625 -1.875 L 10.65625 -1.875 L 6.140625 -12.21875 L 6.140625 0 L 1.875 0 L 1.875 -18.8125 L 7.109375 -18.8125 L 12.21875 -7.625 L 17.3125 -18.8125 L 22.515625 -18.8125 Z M 22.515625 0 "/></g></g></g><g fill="#000000" fill-opacity="1"><g transform="translate(150.645629, 171.177813)"><g><path d="M 8.34375 -14.6875 C 10.332031 -14.6875 11.875 -14.222656 12.96875 -13.296875 C 14.070312 -12.378906 14.632812 -11.097656 14.65625 -9.453125 L 14.65625 0 L 10.125 0 L 10.125 -1.671875 C 9.175781 -0.410156 7.695312 0.21875 5.6875 0.21875 C 4.164062 0.21875 2.957031 -0.203125 2.0625 -1.046875 C 1.164062 -1.890625 0.71875 -2.984375 0.71875 -4.328125 C 0.71875 -5.703125 1.195312 -6.769531 2.15625 -7.53125 C 3.113281 -8.289062 4.488281 -8.679688 6.28125 -8.703125 L 10.09375 -8.703125 L 10.09375 -8.90625 C 10.09375 -9.625 9.851562 -10.179688 9.375 -10.578125 C 8.90625 -10.984375 8.207031 -11.1875 7.28125 -11.1875 C 5.96875 -11.1875 4.523438 -10.785156 2.953125 -9.984375 L 1.640625 -13.046875 C 3.984375 -14.140625 6.21875 -14.6875 8.34375 -14.6875 Z M 7.109375 -2.921875 C 7.847656 -2.921875 8.492188 -3.101562 9.046875 -3.46875 C 9.597656 -3.84375 9.945312 -4.320312 10.09375 -4.90625 L 10.09375 -6.203125 L 7.171875 -6.203125 C 5.773438 -6.203125 5.078125 -5.679688 5.078125 -4.640625 C 5.078125 -4.109375 5.253906 -3.6875 5.609375 -3.375 C 5.960938 -3.070312 6.460938 -2.921875 7.109375 -2.921875 Z M 7.109375 -2.921875 "/></g></g></g><g fill="#000000" fill-opacity="1"><g transform="translate(166.751086, 171.177813)"><g><path d="M 8.15625 -14.625 C 9.59375 -14.625 10.867188 -14.34375 11.984375 -13.78125 C 13.097656 -13.21875 13.972656 -12.414062 14.609375 -11.375 L 11.28125 -9.375 C 10.5625 -10.375 9.582031 -10.875 8.34375 -10.875 C 7.445312 -10.875 6.71875 -10.535156 6.15625 -9.859375 C 5.59375 -9.191406 5.3125 -8.3125 5.3125 -7.21875 C 5.3125 -6.113281 5.585938 -5.222656 6.140625 -4.546875 C 6.703125 -3.878906 7.4375 -3.546875 8.34375 -3.546875 C 9.707031 -3.546875 10.691406 -4.09375 11.296875 -5.1875 L 14.6875 -3.1875 C 14.09375 -2.113281 13.226562 -1.285156 12.09375 -0.703125 C 10.957031 -0.128906 9.628906 0.15625 8.109375 0.15625 C 5.867188 0.15625 4.0625 -0.515625 2.6875 -1.859375 C 1.320312 -3.210938 0.640625 -4.988281 0.640625 -7.1875 C 0.640625 -9.40625 1.332031 -11.195312 2.71875 -12.5625 C 4.113281 -13.9375 5.925781 -14.625 8.15625 -14.625 Z M 8.15625 -14.625 "/></g></g></g><g fill="#000000" fill-opacity="1"><g transform="translate(181.836527, 171.177813)"><g><path d="M 11.484375 -14.6875 C 13.078125 -14.6875 14.359375 -14.179688 15.328125 -13.171875 C 16.296875 -12.160156 16.78125 -10.8125 16.78125 -9.125 L 16.78125 0 L 12.140625 0 L 12.140625 -7.84375 C 12.140625 -8.675781 11.910156 -9.335938 11.453125 -9.828125 C 10.992188 -10.328125 10.367188 -10.578125 9.578125 -10.578125 C 8.679688 -10.578125 7.960938 -10.253906 7.421875 -9.609375 C 6.890625 -8.960938 6.625 -8.140625 6.625 -7.140625 L 6.625 0 L 1.984375 0 L 1.984375 -19.921875 L 6.625 -19.921875 L 6.625 -12.078125 C 7.644531 -13.773438 9.265625 -14.644531 11.484375 -14.6875 Z M 11.484375 -14.6875 "/></g></g></g><g fill="#000000" fill-opacity="1"><g transform="translate(200.035682, 171.177813)"><g><path d="M 2.421875 -20.390625 C 2.878906 -20.847656 3.46875 -21.078125 4.1875 -21.078125 C 4.90625 -21.078125 5.488281 -20.847656 5.9375 -20.390625 C 6.394531 -19.929688 6.625 -19.34375 6.625 -18.625 C 6.625 -17.914062 6.394531 -17.328125 5.9375 -16.859375 C 5.488281 -16.390625 4.90625 -16.15625 4.1875 -16.15625 C 3.46875 -16.15625 2.878906 -16.390625 2.421875 -16.859375 C 1.972656 -17.328125 1.75 -17.914062 1.75 -18.625 C 1.75 -19.34375 1.972656 -19.929688 2.421875 -20.390625 Z M 6.46875 0 L 1.859375 0 L 1.859375 -14.46875 L 6.46875 -14.46875 Z M 6.46875 0 "/></g></g></g><g fill="#000000" fill-opacity="1"><g transform="translate(208.383665, 171.177813)"><g><path d="M 11.328125 -14.6875 C 12.921875 -14.6875 14.195312 -14.179688 15.15625 -13.171875 C 16.125 -12.160156 16.609375 -10.8125 16.609375 -9.125 L 16.609375 0 L 12 0 L 12 -7.84375 C 12 -8.675781 11.769531 -9.335938 11.3125 -9.828125 C 10.851562 -10.328125 10.234375 -10.578125 9.453125 -10.578125 C 8.628906 -10.578125 7.953125 -10.304688 7.421875 -9.765625 C 6.890625 -9.234375 6.582031 -8.53125 6.5 -7.65625 L 6.5 0 L 1.859375 0 L 1.859375 -14.46875 L 6.5 -14.46875 L 6.5 -12.109375 C 7.519531 -13.785156 9.128906 -14.644531 11.328125 -14.6875 Z M 11.328125 -14.6875 "/></g></g></g><g fill="#000000" fill-opacity="1"><g transform="translate(226.448596, 171.177813)"><g><path d="M 8.1875 -14.625 C 10.695312 -14.625 12.582031 -13.851562 13.84375 -12.3125 C 15.101562 -10.78125 15.648438 -8.671875 15.484375 -5.984375 L 5.3125 -5.984375 C 5.539062 -5.128906 5.953125 -4.46875 6.546875 -4 C 7.140625 -3.53125 7.863281 -3.296875 8.71875 -3.296875 C 10.039062 -3.296875 11.195312 -3.789062 12.1875 -4.78125 L 14.625 -2.390625 C 13.070312 -0.691406 10.972656 0.15625 8.328125 0.15625 C 5.984375 0.15625 4.113281 -0.507812 2.71875 -1.84375 C 1.332031 -3.1875 0.640625 -4.96875 0.640625 -7.1875 C 0.640625 -9.425781 1.332031 -11.222656 2.71875 -12.578125 C 4.113281 -13.941406 5.9375 -14.625 8.1875 -14.625 Z M 5.234375 -8.484375 L 11.03125 -8.484375 C 11.03125 -9.359375 10.773438 -10.0625 10.265625 -10.59375 C 9.753906 -11.132812 9.078125 -11.40625 8.234375 -11.40625 C 7.453125 -11.40625 6.789062 -11.140625 6.25 -10.609375 C 5.71875 -10.085938 5.378906 -9.378906 5.234375 -8.484375 Z M 5.234375 -8.484375 "/></g></g></g><g fill="#000000" fill-opacity="1"><g transform="translate(242.607721, 171.177813)"><g/></g></g><g fill="#000000" fill-opacity="1"><g transform="translate(248.835172, 171.177813)"><g><path d="M 6.65625 -4 L 14.625 -4 L 14.625 0 L 1.875 0 L 1.875 -18.796875 L 6.65625 -18.796875 Z M 6.65625 -4 "/></g></g></g><g fill="#000000" fill-opacity="1"><g transform="translate(263.866919, 171.177813)"><g><path d="M 8.1875 -14.625 C 10.695312 -14.625 12.582031 -13.851562 13.84375 -12.3125 C 15.101562 -10.78125 15.648438 -8.671875 15.484375 -5.984375 L 5.3125 -5.984375 C 5.539062 -5.128906 5.953125 -4.46875 6.546875 -4 C 7.140625 -3.53125 7.863281 -3.296875 8.71875 -3.296875 C 10.039062 -3.296875 11.195312 -3.789062 12.1875 -4.78125 L 14.625 -2.390625 C 13.070312 -0.691406 10.972656 0.15625 8.328125 0.15625 C 5.984375 0.15625 4.113281 -0.507812 2.71875 -1.84375 C 1.332031 -3.1875 0.640625 -4.96875 0.640625 -7.1875 C 0.640625 -9.425781 1.332031 -11.222656 2.71875 -12.578125 C 4.113281 -13.941406 5.9375 -14.625 8.1875 -14.625 Z M 5.234375 -8.484375 L 11.03125 -8.484375 C 11.03125 -9.359375 10.773438 -10.0625 10.265625 -10.59375 C 9.753906 -11.132812 9.078125 -11.40625 8.234375 -11.40625 C 7.453125 -11.40625 6.789062 -11.140625 6.25 -10.609375 C 5.71875 -10.085938 5.378906 -9.378906 5.234375 -8.484375 Z M 5.234375 -8.484375 "/></g></g></g><g fill="#000000" fill-opacity="1"><g transform="translate(280.026044, 171.177813)"><g><path d="M 8.34375 -14.6875 C 10.332031 -14.6875 11.875 -14.222656 12.96875 -13.296875 C 14.070312 -12.378906 14.632812 -11.097656 14.65625 -9.453125 L 14.65625 0 L 10.125 0 L 10.125 -1.671875 C 9.175781 -0.410156 7.695312 0.21875 5.6875 0.21875 C 4.164062 0.21875 2.957031 -0.203125 2.0625 -1.046875 C 1.164062 -1.890625 0.71875 -2.984375 0.71875 -4.328125 C 0.71875 -5.703125 1.195312 -6.769531 2.15625 -7.53125 C 3.113281 -8.289062 4.488281 -8.679688 6.28125 -8.703125 L 10.09375 -8.703125 L 10.09375 -8.90625 C 10.09375 -9.625 9.851562 -10.179688 9.375 -10.578125 C 8.90625 -10.984375 8.207031 -11.1875 7.28125 -11.1875 C 5.96875 -11.1875 4.523438 -10.785156 2.953125 -9.984375 L 1.640625 -13.046875 C 3.984375 -14.140625 6.21875 -14.6875 8.34375 -14.6875 Z M 7.109375 -2.921875 C 7.847656 -2.921875 8.492188 -3.101562 9.046875 -3.46875 C 9.597656 -3.84375 9.945312 -4.320312 10.09375 -4.90625 L 10.09375 -6.203125 L 7.171875 -6.203125 C 5.773438 -6.203125 5.078125 -5.679688 5.078125 -4.640625 C 5.078125 -4.109375 5.253906 -3.6875 5.609375 -3.375 C 5.960938 -3.070312 6.460938 -2.921875 7.109375 -2.921875 Z M 7.109375 -2.921875 "/></g></g></g><g fill="#000000" fill-opacity="1"><g transform="translate(296.1315, 171.177813)"><g><path d="M 6.5 -14.46875 L 6.5 -12.03125 C 7.519531 -13.757812 9.082031 -14.644531 11.1875 -14.6875 L 11.1875 -10.5 C 9.863281 -10.625 8.78125 -10.40625 7.9375 -9.84375 C 7.101562 -9.28125 6.625 -8.476562 6.5 -7.4375 L 6.5 0 L 1.859375 0 L 1.859375 -14.46875 Z M 6.5 -14.46875 "/></g></g></g><g fill="#000000" fill-opacity="1"><g transform="translate(307.593196, 171.177813)"><g><path d="M 11.328125 -14.6875 C 12.921875 -14.6875 14.195312 -14.179688 15.15625 -13.171875 C 16.125 -12.160156 16.609375 -10.8125 16.609375 -9.125 L 16.609375 0 L 12 0 L 12 -7.84375 C 12 -8.675781 11.769531 -9.335938 11.3125 -9.828125 C 10.851562 -10.328125 10.234375 -10.578125 9.453125 -10.578125 C 8.628906 -10.578125 7.953125 -10.304688 7.421875 -9.765625 C 6.890625 -9.234375 6.582031 -8.53125 6.5 -7.65625 L 6.5 0 L 1.859375 0 L 1.859375 -14.46875 L 6.5 -14.46875 L 6.5 -12.109375 C 7.519531 -13.785156 9.128906 -14.644531 11.328125 -14.6875 Z M 11.328125 -14.6875 "/></g></g></g><g fill="#000000" fill-opacity="1"><g transform="translate(325.658127, 171.177813)"><g><path d="M 2.421875 -20.390625 C 2.878906 -20.847656 3.46875 -21.078125 4.1875 -21.078125 C 4.90625 -21.078125 5.488281 -20.847656 5.9375 -20.390625 C 6.394531 -19.929688 6.625 -19.34375 6.625 -18.625 C 6.625 -17.914062 6.394531 -17.328125 5.9375 -16.859375 C 5.488281 -16.390625 4.90625 -16.15625 4.1875 -16.15625 C 3.46875 -16.15625 2.878906 -16.390625 2.421875 -16.859375 C 1.972656 -17.328125 1.75 -17.914062 1.75 -18.625 C 1.75 -19.34375 1.972656 -19.929688 2.421875 -20.390625 Z M 6.46875 0 L 1.859375 0 L 1.859375 -14.46875 L 6.46875 -14.46875 Z M 6.46875 0 "/></g></g></g><g fill="#000000" fill-opacity="1"><g transform="translate(334.00611, 171.177813)"><g><path d="M 11.328125 -14.6875 C 12.921875 -14.6875 14.195312 -14.179688 15.15625 -13.171875 C 16.125 -12.160156 16.609375 -10.8125 16.609375 -9.125 L 16.609375 0 L 12 0 L 12 -7.84375 C 12 -8.675781 11.769531 -9.335938 11.3125 -9.828125 C 10.851562 -10.328125 10.234375 -10.578125 9.453125 -10.578125 C 8.628906 -10.578125 7.953125 -10.304688 7.421875 -9.765625 C 6.890625 -9.234375 6.582031 -8.53125 6.5 -7.65625 L 6.5 0 L 1.859375 0 L 1.859375 -14.46875 L 6.5 -14.46875 L 6.5 -12.109375 C 7.519531 -13.785156 9.128906 -14.644531 11.328125 -14.6875 Z M 11.328125 -14.6875 "/></g></g></g><g fill="#000000" fill-opacity="1"><g transform="translate(352.071041, 171.177813)"><g><path d="M 15.671875 -14.46875 L 15.671875 -1.3125 C 15.671875 0.726562 14.953125 2.351562 13.515625 3.5625 C 12.078125 4.78125 10.1875 5.390625 7.84375 5.390625 C 5.4375 5.390625 3.285156 4.753906 1.390625 3.484375 L 3 0.34375 C 4.394531 1.3125 5.890625 1.796875 7.484375 1.796875 C 8.597656 1.796875 9.472656 1.523438 10.109375 0.984375 C 10.742188 0.453125 11.0625 -0.269531 11.0625 -1.1875 L 11.0625 -2.71875 C 10.070312 -1.425781 8.6875 -0.78125 6.90625 -0.78125 C 5.0625 -0.78125 3.5625 -1.421875 2.40625 -2.703125 C 1.25 -3.992188 0.671875 -5.6875 0.671875 -7.78125 C 0.671875 -9.820312 1.234375 -11.472656 2.359375 -12.734375 C 3.484375 -13.992188 4.960938 -14.625 6.796875 -14.625 C 8.640625 -14.644531 10.0625 -14.003906 11.0625 -12.703125 L 11.0625 -14.46875 Z M 8.046875 -4.140625 C 8.941406 -4.140625 9.664062 -4.460938 10.21875 -5.109375 C 10.78125 -5.765625 11.0625 -6.613281 11.0625 -7.65625 C 11.0625 -8.707031 10.78125 -9.554688 10.21875 -10.203125 C 9.664062 -10.859375 8.941406 -11.1875 8.046875 -11.1875 C 7.140625 -11.1875 6.40625 -10.859375 5.84375 -10.203125 C 5.28125 -9.554688 5 -8.707031 5 -7.65625 C 5 -6.613281 5.28125 -5.765625 5.84375 -5.109375 C 6.40625 -4.460938 7.140625 -4.140625 8.046875 -4.140625 Z M 8.046875 -4.140625 "/></g></g></g></svg>