<svg xmlns="http://www.w3.org/2000/svg" xmlns:xlink="http://www.w3.org/1999/xlink" width="496" zoomAndPan="magnify" viewBox="0 0 372 187.499995" height="250" preserveAspectRatio="xMidYMid meet" version="1.0"><defs><g/><clipPath id="b616b03bfa"><path d="M 19.195312 34.324219 L 115.429688 34.324219 L 115.429688 130.179688 L 19.195312 130.179688 Z M 19.195312 34.324219 " clip-rule="nonzero"/></clipPath></defs><g clip-path="url(#b616b03bfa)"><path fill="#370909" d="M 19.195312 34.324219 L 115.421875 34.324219 L 115.421875 130.179688 L 19.195312 130.179688 Z M 19.195312 34.324219 " fill-opacity="1" fill-rule="nonzero"/></g><g fill="#ffffff" fill-opacity="1"><g transform="translate(29.254163, 85.081853)"><g><path d="M 17.6875 0 L 15.734375 -5.625 L 7.359375 -5.625 L 5.40625 0 L 0.796875 0 L 8.8125 -22 L 14.25 -22 L 22.25 0 Z M 11.53125 -18.609375 L 11.4375 -18.265625 C 11.332031 -17.890625 11.207031 -17.460938 11.0625 -16.984375 C 10.914062 -16.503906 10.019531 -13.867188 8.375 -9.078125 L 14.703125 -9.078125 L 12.53125 -15.40625 L 11.859375 -17.53125 Z M 11.53125 -18.609375 "/></g></g></g><g fill="#ffffff" fill-opacity="1"><g transform="translate(52.342874, 85.081853)"><g><path d="M 2.234375 -19.9375 L 2.234375 -23.171875 L 6.625 -23.171875 L 6.625 -19.9375 Z M 2.234375 0 L 2.234375 -16.890625 L 6.625 -16.890625 L 6.625 0 Z M 2.234375 0 "/></g></g></g><g fill="#ffffff" fill-opacity="1"><g transform="translate(61.225549, 85.081853)"><g><path d="M 20.40625 0 L 20.40625 -13.328125 C 20.40625 -13.628906 20.40625 -13.929688 20.40625 -14.234375 C 20.414062 -14.535156 20.46875 -15.832031 20.5625 -18.125 C 19.820312 -15.320312 19.273438 -13.367188 18.921875 -12.265625 L 14.953125 0 L 11.671875 0 L 7.71875 -12.265625 L 6.046875 -18.125 C 6.171875 -15.707031 6.234375 -14.109375 6.234375 -13.328125 L 6.234375 0 L 2.140625 0 L 2.140625 -22 L 8.296875 -22 L 12.234375 -9.6875 L 12.578125 -8.5 L 13.328125 -5.5625 L 14.3125 -9.078125 L 18.359375 -22 L 24.484375 -22 L 24.484375 0 Z M 20.40625 0 "/></g></g></g><g fill="#ffffff" fill-opacity="1"><g transform="translate(87.857963, 85.081853)"><g><path d="M 2.140625 0 L 2.140625 -22 L 6.75 -22 L 6.75 -3.5625 L 18.546875 -3.5625 L 18.546875 0 Z M 2.140625 0 "/></g></g></g><g fill="#ffffff" fill-opacity="1"><g transform="translate(29.254163, 97.585723)"><g><path d="M 5.265625 -1.40625 C 6.441406 -1.40625 7.257812 -1.992188 7.71875 -3.171875 L 9.421875 -2.53125 C 9.054688 -1.632812 8.519531 -0.96875 7.8125 -0.53125 C 7.101562 -0.09375 6.253906 0.125 5.265625 0.125 C 3.765625 0.125 2.601562 -0.296875 1.78125 -1.140625 C 0.96875 -1.992188 0.5625 -3.179688 0.5625 -4.703125 C 0.5625 -6.234375 0.953125 -7.410156 1.734375 -8.234375 C 2.523438 -9.054688 3.671875 -9.46875 5.171875 -9.46875 C 6.273438 -9.46875 7.171875 -9.25 7.859375 -8.8125 C 8.546875 -8.375 9.023438 -7.726562 9.296875 -6.875 L 7.578125 -6.40625 C 7.429688 -6.875 7.144531 -7.242188 6.71875 -7.515625 C 6.289062 -7.796875 5.789062 -7.9375 5.21875 -7.9375 C 4.332031 -7.9375 3.660156 -7.660156 3.203125 -7.109375 C 2.742188 -6.566406 2.515625 -5.765625 2.515625 -4.703125 C 2.515625 -3.628906 2.75 -2.8125 3.21875 -2.25 C 3.695312 -1.6875 4.378906 -1.40625 5.265625 -1.40625 Z M 5.265625 -1.40625 "/></g></g></g><g fill="#ffffff" fill-opacity="1"><g transform="translate(39.044517, 97.585723)"><g><path d="M 2.609375 0.125 C 1.910156 0.125 1.363281 -0.0625 0.96875 -0.4375 C 0.582031 -0.8125 0.390625 -1.34375 0.390625 -2.03125 C 0.390625 -2.769531 0.628906 -3.332031 1.109375 -3.71875 C 1.597656 -4.101562 2.300781 -4.300781 3.21875 -4.3125 L 4.765625 -4.34375 L 4.765625 -4.703125 C 4.765625 -5.171875 4.679688 -5.519531 4.515625 -5.75 C 4.359375 -5.976562 4.09375 -6.09375 3.71875 -6.09375 C 3.375 -6.09375 3.117188 -6.015625 2.953125 -5.859375 C 2.796875 -5.703125 2.695312 -5.441406 2.65625 -5.078125 L 0.71875 -5.171875 C 0.84375 -5.867188 1.160156 -6.394531 1.671875 -6.75 C 2.191406 -7.113281 2.898438 -7.296875 3.796875 -7.296875 C 4.703125 -7.296875 5.398438 -7.070312 5.890625 -6.625 C 6.378906 -6.175781 6.625 -5.546875 6.625 -4.734375 L 6.625 -2.125 C 6.625 -1.71875 6.671875 -1.4375 6.765625 -1.28125 C 6.859375 -1.132812 7.007812 -1.0625 7.21875 -1.0625 C 7.363281 -1.0625 7.5 -1.070312 7.625 -1.09375 L 7.625 -0.09375 C 7.519531 -0.0625 7.421875 -0.0351562 7.328125 -0.015625 C 7.242188 0.00390625 7.15625 0.0195312 7.0625 0.03125 C 6.976562 0.0390625 6.882812 0.0507812 6.78125 0.0625 C 6.6875 0.0703125 6.570312 0.078125 6.4375 0.078125 C 5.96875 0.078125 5.617188 -0.0351562 5.390625 -0.265625 C 5.171875 -0.492188 5.039062 -0.832031 5 -1.28125 L 4.953125 -1.28125 C 4.429688 -0.34375 3.648438 0.125 2.609375 0.125 Z M 4.765625 -3.3125 L 3.8125 -3.296875 C 3.382812 -3.285156 3.078125 -3.238281 2.890625 -3.15625 C 2.710938 -3.082031 2.578125 -2.960938 2.484375 -2.796875 C 2.390625 -2.640625 2.34375 -2.429688 2.34375 -2.171875 C 2.34375 -1.828125 2.421875 -1.570312 2.578125 -1.40625 C 2.734375 -1.25 2.941406 -1.171875 3.203125 -1.171875 C 3.492188 -1.171875 3.757812 -1.25 4 -1.40625 C 4.238281 -1.5625 4.425781 -1.78125 4.5625 -2.0625 C 4.695312 -2.34375 4.765625 -2.640625 4.765625 -2.953125 Z M 4.765625 -3.3125 "/></g></g></g><g fill="#ffffff" fill-opacity="1"><g transform="translate(46.584216, 97.585723)"><g><path d="M 5.171875 0 L 5.171875 -4.015625 C 5.171875 -5.273438 4.804688 -5.90625 4.078125 -5.90625 C 3.703125 -5.90625 3.394531 -5.710938 3.15625 -5.328125 C 2.925781 -4.941406 2.8125 -4.445312 2.8125 -3.84375 L 2.8125 0 L 0.953125 0 L 0.953125 -5.5625 C 0.953125 -5.945312 0.941406 -6.257812 0.921875 -6.5 C 0.910156 -6.75 0.898438 -6.972656 0.890625 -7.171875 L 2.671875 -7.171875 C 2.679688 -7.085938 2.695312 -6.863281 2.71875 -6.5 C 2.738281 -6.132812 2.75 -5.878906 2.75 -5.734375 L 2.78125 -5.734375 C 3.007812 -6.285156 3.296875 -6.679688 3.640625 -6.921875 C 3.984375 -7.171875 4.394531 -7.296875 4.875 -7.296875 C 5.96875 -7.296875 6.628906 -6.773438 6.859375 -5.734375 L 6.90625 -5.734375 C 7.144531 -6.296875 7.429688 -6.695312 7.765625 -6.9375 C 8.109375 -7.175781 8.546875 -7.296875 9.078125 -7.296875 C 9.773438 -7.296875 10.304688 -7.054688 10.671875 -6.578125 C 11.035156 -6.109375 11.21875 -5.429688 11.21875 -4.546875 L 11.21875 0 L 9.375 0 L 9.375 -4.015625 C 9.375 -5.273438 9.007812 -5.90625 8.28125 -5.90625 C 7.914062 -5.90625 7.617188 -5.726562 7.390625 -5.375 C 7.160156 -5.03125 7.035156 -4.546875 7.015625 -3.921875 L 7.015625 0 Z M 5.171875 0 "/></g></g></g><g fill="#ffffff" fill-opacity="1"><g transform="translate(58.638463, 97.585723)"><g><path d="M 7.734375 -3.609375 C 7.734375 -2.421875 7.492188 -1.5 7.015625 -0.84375 C 6.535156 -0.195312 5.859375 0.125 4.984375 0.125 C 4.472656 0.125 4.03125 0.0195312 3.65625 -0.1875 C 3.289062 -0.40625 3.007812 -0.722656 2.8125 -1.140625 L 2.765625 -1.140625 C 2.796875 -1.003906 2.8125 -0.601562 2.8125 0.0625 L 2.8125 2.8125 L 0.953125 2.8125 L 0.953125 -5.515625 C 0.953125 -6.191406 0.929688 -6.742188 0.890625 -7.171875 L 2.703125 -7.171875 C 2.722656 -7.085938 2.738281 -6.925781 2.75 -6.6875 C 2.769531 -6.457031 2.78125 -6.226562 2.78125 -6 L 2.8125 -6 C 3.226562 -6.875 3.988281 -7.3125 5.09375 -7.3125 C 5.925781 -7.3125 6.570312 -6.988281 7.03125 -6.34375 C 7.5 -5.707031 7.734375 -4.796875 7.734375 -3.609375 Z M 5.78125 -3.609375 C 5.78125 -5.222656 5.289062 -6.03125 4.3125 -6.03125 C 3.8125 -6.03125 3.429688 -5.8125 3.171875 -5.375 C 2.910156 -4.945312 2.78125 -4.34375 2.78125 -3.5625 C 2.78125 -2.789062 2.910156 -2.191406 3.171875 -1.765625 C 3.429688 -1.347656 3.804688 -1.140625 4.296875 -1.140625 C 5.285156 -1.140625 5.78125 -1.960938 5.78125 -3.609375 Z M 5.78125 -3.609375 "/></g></g></g><g fill="#ffffff" fill-opacity="1"><g transform="translate(66.919555, 97.585723)"><g><path d="M 2.703125 -7.171875 L 2.703125 -3.140625 C 2.703125 -1.890625 3.125 -1.265625 3.96875 -1.265625 C 4.425781 -1.265625 4.789062 -1.457031 5.0625 -1.84375 C 5.34375 -2.226562 5.484375 -2.722656 5.484375 -3.328125 L 5.484375 -7.171875 L 7.34375 -7.171875 L 7.34375 -1.609375 C 7.34375 -0.992188 7.359375 -0.457031 7.390625 0 L 5.609375 0 C 5.554688 -0.632812 5.53125 -1.109375 5.53125 -1.421875 L 5.5 -1.421875 C 5.25 -0.878906 4.929688 -0.484375 4.546875 -0.234375 C 4.171875 0.00390625 3.722656 0.125 3.203125 0.125 C 2.441406 0.125 1.859375 -0.101562 1.453125 -0.5625 C 1.046875 -1.03125 0.84375 -1.710938 0.84375 -2.609375 L 0.84375 -7.171875 Z M 2.703125 -7.171875 "/></g></g></g><g fill="#ffffff" fill-opacity="1"><g transform="translate(75.200646, 97.585723)"><g><path d="M 6.984375 -2.09375 C 6.984375 -1.394531 6.695312 -0.847656 6.125 -0.453125 C 5.5625 -0.0664062 4.78125 0.125 3.78125 0.125 C 2.789062 0.125 2.035156 -0.0234375 1.515625 -0.328125 C 0.992188 -0.640625 0.648438 -1.125 0.484375 -1.78125 L 2.109375 -2.03125 C 2.203125 -1.6875 2.363281 -1.441406 2.59375 -1.296875 C 2.820312 -1.160156 3.21875 -1.09375 3.78125 -1.09375 C 4.300781 -1.09375 4.679688 -1.160156 4.921875 -1.296875 C 5.160156 -1.429688 5.28125 -1.640625 5.28125 -1.921875 C 5.28125 -2.148438 5.179688 -2.332031 4.984375 -2.46875 C 4.796875 -2.601562 4.472656 -2.71875 4.015625 -2.8125 C 2.960938 -3.019531 2.253906 -3.210938 1.890625 -3.390625 C 1.523438 -3.566406 1.242188 -3.796875 1.046875 -4.078125 C 0.859375 -4.367188 0.765625 -4.71875 0.765625 -5.125 C 0.765625 -5.8125 1.023438 -6.34375 1.546875 -6.71875 C 2.078125 -7.101562 2.828125 -7.296875 3.796875 -7.296875 C 4.648438 -7.296875 5.332031 -7.128906 5.84375 -6.796875 C 6.363281 -6.472656 6.691406 -6 6.828125 -5.375 L 5.171875 -5.203125 C 5.117188 -5.492188 4.988281 -5.707031 4.78125 -5.84375 C 4.570312 -5.988281 4.242188 -6.0625 3.796875 -6.0625 C 3.347656 -6.0625 3.015625 -6.003906 2.796875 -5.890625 C 2.578125 -5.785156 2.46875 -5.597656 2.46875 -5.328125 C 2.46875 -5.117188 2.550781 -4.953125 2.71875 -4.828125 C 2.894531 -4.710938 3.179688 -4.613281 3.578125 -4.53125 C 4.140625 -4.414062 4.640625 -4.296875 5.078125 -4.171875 C 5.515625 -4.054688 5.863281 -3.914062 6.125 -3.75 C 6.382812 -3.582031 6.59375 -3.363281 6.75 -3.09375 C 6.90625 -2.832031 6.984375 -2.5 6.984375 -2.09375 Z M 6.984375 -2.09375 "/></g></g></g><g fill="#ffffff" fill-opacity="1"><g transform="translate(30.382882, 102.813646)"><g><path d="M 1.546875 0 L 1.546875 -0.890625 L 0.640625 -0.890625 L 0.640625 0 L 0.203125 0 L 0.203125 -2.078125 L 0.640625 -2.078125 L 0.640625 -1.25 L 1.546875 -1.25 L 1.546875 -2.078125 L 1.984375 -2.078125 L 1.984375 0 Z M 1.546875 0 "/></g></g><g transform="translate(32.577306, 102.813646)"><g><path d="M 0.609375 -1.59375 L 0.609375 -0.703125 C 0.609375 -0.421875 0.703125 -0.28125 0.890625 -0.28125 C 0.984375 -0.28125 1.0625 -0.320312 1.125 -0.40625 C 1.1875 -0.5 1.21875 -0.613281 1.21875 -0.75 L 1.21875 -1.59375 L 1.640625 -1.59375 L 1.640625 -0.359375 C 1.640625 -0.222656 1.644531 -0.101562 1.65625 0 L 1.25 0 C 1.238281 -0.144531 1.234375 -0.25 1.234375 -0.3125 C 1.171875 -0.195312 1.097656 -0.109375 1.015625 -0.046875 C 0.929688 0.00390625 0.832031 0.03125 0.71875 0.03125 C 0.539062 0.03125 0.40625 -0.0195312 0.3125 -0.125 C 0.226562 -0.226562 0.1875 -0.378906 0.1875 -0.578125 L 0.1875 -1.59375 Z M 0.609375 -1.59375 "/></g></g><g transform="translate(34.433442, 102.813646)"><g><path d="M 1.15625 0 L 1.15625 -0.890625 C 1.15625 -1.171875 1.070312 -1.3125 0.90625 -1.3125 C 0.820312 -1.3125 0.753906 -1.269531 0.703125 -1.1875 C 0.648438 -1.101562 0.625 -0.992188 0.625 -0.859375 L 0.625 0 L 0.21875 0 L 0.21875 -1.25 C 0.21875 -1.332031 0.210938 -1.398438 0.203125 -1.453125 C 0.203125 -1.503906 0.203125 -1.550781 0.203125 -1.59375 L 0.59375 -1.59375 C 0.59375 -1.582031 0.59375 -1.535156 0.59375 -1.453125 C 0.601562 -1.367188 0.609375 -1.3125 0.609375 -1.28125 L 0.625 -1.28125 C 0.675781 -1.40625 0.738281 -1.492188 0.8125 -1.546875 C 0.882812 -1.597656 0.976562 -1.625 1.09375 -1.625 C 1.332031 -1.625 1.476562 -1.507812 1.53125 -1.28125 L 1.546875 -1.28125 C 1.597656 -1.40625 1.660156 -1.492188 1.734375 -1.546875 C 1.816406 -1.597656 1.914062 -1.625 2.03125 -1.625 C 2.1875 -1.625 2.300781 -1.570312 2.375 -1.46875 C 2.457031 -1.363281 2.5 -1.210938 2.5 -1.015625 L 2.5 0 L 2.09375 0 L 2.09375 -0.890625 C 2.09375 -1.171875 2.015625 -1.3125 1.859375 -1.3125 C 1.773438 -1.3125 1.707031 -1.269531 1.65625 -1.1875 C 1.601562 -1.113281 1.570312 -1.007812 1.5625 -0.875 L 1.5625 0 Z M 1.15625 0 "/></g></g><g transform="translate(37.135299, 102.813646)"><g><path d="M 0.578125 0.03125 C 0.421875 0.03125 0.300781 -0.0078125 0.21875 -0.09375 C 0.132812 -0.175781 0.09375 -0.296875 0.09375 -0.453125 C 0.09375 -0.617188 0.144531 -0.742188 0.25 -0.828125 C 0.351562 -0.921875 0.507812 -0.96875 0.71875 -0.96875 L 1.0625 -0.96875 L 1.0625 -1.046875 C 1.0625 -1.148438 1.039062 -1.226562 1 -1.28125 C 0.96875 -1.332031 0.910156 -1.359375 0.828125 -1.359375 C 0.753906 -1.359375 0.695312 -1.335938 0.65625 -1.296875 C 0.625 -1.265625 0.601562 -1.210938 0.59375 -1.140625 L 0.15625 -1.15625 C 0.1875 -1.3125 0.257812 -1.425781 0.375 -1.5 C 0.488281 -1.582031 0.644531 -1.625 0.84375 -1.625 C 1.050781 -1.625 1.207031 -1.570312 1.3125 -1.46875 C 1.425781 -1.375 1.484375 -1.238281 1.484375 -1.0625 L 1.484375 -0.46875 C 1.484375 -0.382812 1.492188 -0.320312 1.515625 -0.28125 C 1.535156 -0.25 1.566406 -0.234375 1.609375 -0.234375 C 1.640625 -0.234375 1.671875 -0.238281 1.703125 -0.25 L 1.703125 -0.015625 C 1.679688 -0.015625 1.660156 -0.0078125 1.640625 0 C 1.617188 0 1.597656 0 1.578125 0 C 1.554688 0.0078125 1.535156 0.015625 1.515625 0.015625 C 1.492188 0.015625 1.46875 0.015625 1.4375 0.015625 C 1.332031 0.015625 1.253906 -0.0078125 1.203125 -0.0625 C 1.148438 -0.113281 1.125 -0.1875 1.125 -0.28125 L 1.109375 -0.28125 C 0.992188 -0.0703125 0.816406 0.03125 0.578125 0.03125 Z M 1.0625 -0.734375 L 0.859375 -0.734375 C 0.753906 -0.734375 0.679688 -0.722656 0.640625 -0.703125 C 0.609375 -0.691406 0.578125 -0.664062 0.546875 -0.625 C 0.523438 -0.59375 0.515625 -0.546875 0.515625 -0.484375 C 0.515625 -0.410156 0.53125 -0.351562 0.5625 -0.3125 C 0.601562 -0.28125 0.65625 -0.265625 0.71875 -0.265625 C 0.78125 -0.265625 0.835938 -0.28125 0.890625 -0.3125 C 0.941406 -0.34375 0.984375 -0.390625 1.015625 -0.453125 C 1.046875 -0.523438 1.0625 -0.59375 1.0625 -0.65625 Z M 1.0625 -0.734375 "/></g></g><g transform="translate(38.825258, 102.813646)"><g><path d="M 1.25 0 L 1.25 -0.890625 C 1.25 -1.171875 1.15625 -1.3125 0.96875 -1.3125 C 0.863281 -1.3125 0.78125 -1.269531 0.71875 -1.1875 C 0.65625 -1.101562 0.625 -0.992188 0.625 -0.859375 L 0.625 0 L 0.21875 0 L 0.21875 -1.25 C 0.21875 -1.332031 0.210938 -1.398438 0.203125 -1.453125 C 0.203125 -1.503906 0.203125 -1.550781 0.203125 -1.59375 L 0.59375 -1.59375 C 0.59375 -1.582031 0.59375 -1.535156 0.59375 -1.453125 C 0.601562 -1.367188 0.609375 -1.3125 0.609375 -1.28125 L 0.625 -1.28125 C 0.675781 -1.40625 0.742188 -1.492188 0.828125 -1.546875 C 0.910156 -1.597656 1.015625 -1.625 1.140625 -1.625 C 1.304688 -1.625 1.429688 -1.570312 1.515625 -1.46875 C 1.609375 -1.363281 1.65625 -1.210938 1.65625 -1.015625 L 1.65625 0 Z M 1.25 0 "/></g></g><g transform="translate(40.681394, 102.813646)"><g/></g><g transform="translate(41.525631, 102.813646)"><g><path d="M 0.203125 0 L 0.203125 -2.078125 L 0.640625 -2.078125 L 0.640625 0 Z M 0.203125 0 "/></g></g><g transform="translate(42.369869, 102.813646)"><g><path d="M 1.25 0 L 1.25 -0.890625 C 1.25 -1.171875 1.15625 -1.3125 0.96875 -1.3125 C 0.863281 -1.3125 0.78125 -1.269531 0.71875 -1.1875 C 0.65625 -1.101562 0.625 -0.992188 0.625 -0.859375 L 0.625 0 L 0.21875 0 L 0.21875 -1.25 C 0.21875 -1.332031 0.210938 -1.398438 0.203125 -1.453125 C 0.203125 -1.503906 0.203125 -1.550781 0.203125 -1.59375 L 0.59375 -1.59375 C 0.59375 -1.582031 0.59375 -1.535156 0.59375 -1.453125 C 0.601562 -1.367188 0.609375 -1.3125 0.609375 -1.28125 L 0.625 -1.28125 C 0.675781 -1.40625 0.742188 -1.492188 0.828125 -1.546875 C 0.910156 -1.597656 1.015625 -1.625 1.140625 -1.625 C 1.304688 -1.625 1.429688 -1.570312 1.515625 -1.46875 C 1.609375 -1.363281 1.65625 -1.210938 1.65625 -1.015625 L 1.65625 0 Z M 1.25 0 "/></g></g><g transform="translate(44.226005, 102.813646)"><g><path d="M 0.625 0.03125 C 0.5 0.03125 0.398438 0 0.328125 -0.0625 C 0.265625 -0.132812 0.234375 -0.238281 0.234375 -0.375 L 0.234375 -1.3125 L 0.03125 -1.3125 L 0.03125 -1.59375 L 0.265625 -1.59375 L 0.390625 -1.984375 L 0.65625 -1.984375 L 0.65625 -1.59375 L 0.953125 -1.59375 L 0.953125 -1.3125 L 0.65625 -1.3125 L 0.65625 -0.484375 C 0.65625 -0.410156 0.664062 -0.351562 0.6875 -0.3125 C 0.71875 -0.28125 0.765625 -0.265625 0.828125 -0.265625 C 0.859375 -0.265625 0.90625 -0.269531 0.96875 -0.28125 L 0.96875 -0.03125 C 0.863281 0.0078125 0.75 0.03125 0.625 0.03125 Z M 0.625 0.03125 "/></g></g><g transform="translate(45.237903, 102.813646)"><g><path d="M 0.875 0.03125 C 0.625 0.03125 0.4375 -0.0351562 0.3125 -0.171875 C 0.1875 -0.316406 0.125 -0.53125 0.125 -0.8125 C 0.125 -1.070312 0.1875 -1.269531 0.3125 -1.40625 C 0.445312 -1.550781 0.632812 -1.625 0.875 -1.625 C 1.101562 -1.625 1.273438 -1.546875 1.390625 -1.390625 C 1.515625 -1.242188 1.578125 -1.023438 1.578125 -0.734375 L 1.578125 -0.71875 L 0.5625 -0.71875 C 0.5625 -0.5625 0.585938 -0.441406 0.640625 -0.359375 C 0.703125 -0.285156 0.785156 -0.25 0.890625 -0.25 C 1.035156 -0.25 1.128906 -0.3125 1.171875 -0.4375 L 1.5625 -0.40625 C 1.445312 -0.113281 1.21875 0.03125 0.875 0.03125 Z M 0.875 -1.375 C 0.769531 -1.375 0.691406 -1.335938 0.640625 -1.265625 C 0.585938 -1.203125 0.5625 -1.109375 0.5625 -0.984375 L 1.171875 -0.984375 C 1.171875 -1.109375 1.140625 -1.203125 1.078125 -1.265625 C 1.023438 -1.335938 0.957031 -1.375 0.875 -1.375 Z M 0.875 -1.375 "/></g></g><g transform="translate(46.927862, 102.813646)"><g><path d="M 0.21875 0 L 0.21875 -2.203125 L 0.625 -2.203125 L 0.625 0 Z M 0.21875 0 "/></g></g><g transform="translate(47.7721, 102.813646)"><g><path d="M 0.21875 0 L 0.21875 -2.203125 L 0.625 -2.203125 L 0.625 0 Z M 0.21875 0 "/></g></g><g transform="translate(48.616337, 102.813646)"><g><path d="M 0.21875 -1.890625 L 0.21875 -2.203125 L 0.625 -2.203125 L 0.625 -1.890625 Z M 0.21875 0 L 0.21875 -1.59375 L 0.625 -1.59375 L 0.625 0 Z M 0.21875 0 "/></g></g><g transform="translate(49.460575, 102.813646)"><g><path d="M 0.875 0.640625 C 0.6875 0.640625 0.53125 0.601562 0.40625 0.53125 C 0.289062 0.457031 0.21875 0.351562 0.1875 0.21875 L 0.609375 0.15625 C 0.617188 0.226562 0.648438 0.28125 0.703125 0.3125 C 0.753906 0.351562 0.816406 0.375 0.890625 0.375 C 1.003906 0.375 1.085938 0.335938 1.140625 0.265625 C 1.203125 0.191406 1.234375 0.0820312 1.234375 -0.0625 L 1.234375 -0.296875 C 1.140625 -0.0976562 0.96875 0 0.71875 0 C 0.53125 0 0.382812 -0.0664062 0.28125 -0.203125 C 0.175781 -0.347656 0.125 -0.550781 0.125 -0.8125 C 0.125 -1.070312 0.175781 -1.269531 0.28125 -1.40625 C 0.382812 -1.550781 0.539062 -1.625 0.75 -1.625 C 0.976562 -1.625 1.140625 -1.53125 1.234375 -1.34375 C 1.234375 -1.375 1.234375 -1.421875 1.234375 -1.484375 C 1.242188 -1.546875 1.25 -1.582031 1.25 -1.59375 L 1.65625 -1.59375 C 1.644531 -1.488281 1.640625 -1.367188 1.640625 -1.234375 L 1.640625 -0.046875 C 1.640625 0.179688 1.570312 0.351562 1.4375 0.46875 C 1.3125 0.582031 1.125 0.640625 0.875 0.640625 Z M 1.234375 -0.828125 C 1.234375 -0.984375 1.203125 -1.109375 1.140625 -1.203125 C 1.078125 -1.296875 0.992188 -1.34375 0.890625 -1.34375 C 0.671875 -1.34375 0.5625 -1.164062 0.5625 -0.8125 C 0.5625 -0.46875 0.671875 -0.296875 0.890625 -0.296875 C 0.992188 -0.296875 1.078125 -0.335938 1.140625 -0.421875 C 1.203125 -0.515625 1.234375 -0.648438 1.234375 -0.828125 Z M 1.234375 -0.828125 "/></g></g><g transform="translate(51.316711, 102.813646)"><g><path d="M 0.875 0.03125 C 0.625 0.03125 0.4375 -0.0351562 0.3125 -0.171875 C 0.1875 -0.316406 0.125 -0.53125 0.125 -0.8125 C 0.125 -1.070312 0.1875 -1.269531 0.3125 -1.40625 C 0.445312 -1.550781 0.632812 -1.625 0.875 -1.625 C 1.101562 -1.625 1.273438 -1.546875 1.390625 -1.390625 C 1.515625 -1.242188 1.578125 -1.023438 1.578125 -0.734375 L 1.578125 -0.71875 L 0.5625 -0.71875 C 0.5625 -0.5625 0.585938 -0.441406 0.640625 -0.359375 C 0.703125 -0.285156 0.785156 -0.25 0.890625 -0.25 C 1.035156 -0.25 1.128906 -0.3125 1.171875 -0.4375 L 1.5625 -0.40625 C 1.445312 -0.113281 1.21875 0.03125 0.875 0.03125 Z M 0.875 -1.375 C 0.769531 -1.375 0.691406 -1.335938 0.640625 -1.265625 C 0.585938 -1.203125 0.5625 -1.109375 0.5625 -0.984375 L 1.171875 -0.984375 C 1.171875 -1.109375 1.140625 -1.203125 1.078125 -1.265625 C 1.023438 -1.335938 0.957031 -1.375 0.875 -1.375 Z M 0.875 -1.375 "/></g></g><g transform="translate(53.00667, 102.813646)"><g><path d="M 1.25 0 L 1.25 -0.890625 C 1.25 -1.171875 1.15625 -1.3125 0.96875 -1.3125 C 0.863281 -1.3125 0.78125 -1.269531 0.71875 -1.1875 C 0.65625 -1.101562 0.625 -0.992188 0.625 -0.859375 L 0.625 0 L 0.21875 0 L 0.21875 -1.25 C 0.21875 -1.332031 0.210938 -1.398438 0.203125 -1.453125 C 0.203125 -1.503906 0.203125 -1.550781 0.203125 -1.59375 L 0.59375 -1.59375 C 0.59375 -1.582031 0.59375 -1.535156 0.59375 -1.453125 C 0.601562 -1.367188 0.609375 -1.3125 0.609375 -1.28125 L 0.625 -1.28125 C 0.675781 -1.40625 0.742188 -1.492188 0.828125 -1.546875 C 0.910156 -1.597656 1.015625 -1.625 1.140625 -1.625 C 1.304688 -1.625 1.429688 -1.570312 1.515625 -1.46875 C 1.609375 -1.363281 1.65625 -1.210938 1.65625 -1.015625 L 1.65625 0 Z M 1.25 0 "/></g></g><g transform="translate(54.862805, 102.813646)"><g><path d="M 0.875 0.03125 C 0.632812 0.03125 0.445312 -0.0390625 0.3125 -0.1875 C 0.1875 -0.332031 0.125 -0.535156 0.125 -0.796875 C 0.125 -1.054688 0.1875 -1.257812 0.3125 -1.40625 C 0.445312 -1.550781 0.640625 -1.625 0.890625 -1.625 C 1.078125 -1.625 1.226562 -1.578125 1.34375 -1.484375 C 1.46875 -1.390625 1.546875 -1.257812 1.578125 -1.09375 L 1.171875 -1.078125 C 1.160156 -1.160156 1.128906 -1.222656 1.078125 -1.265625 C 1.023438 -1.316406 0.957031 -1.34375 0.875 -1.34375 C 0.664062 -1.34375 0.5625 -1.164062 0.5625 -0.8125 C 0.5625 -0.4375 0.664062 -0.25 0.875 -0.25 C 0.957031 -0.25 1.023438 -0.273438 1.078125 -0.328125 C 1.128906 -0.378906 1.160156 -0.453125 1.171875 -0.546875 L 1.59375 -0.53125 C 1.582031 -0.425781 1.546875 -0.328125 1.484375 -0.234375 C 1.421875 -0.148438 1.335938 -0.0820312 1.234375 -0.03125 C 1.128906 0.0078125 1.007812 0.03125 0.875 0.03125 Z M 0.875 0.03125 "/></g></g><g transform="translate(56.552764, 102.813646)"><g><path d="M 0.875 0.03125 C 0.625 0.03125 0.4375 -0.0351562 0.3125 -0.171875 C 0.1875 -0.316406 0.125 -0.53125 0.125 -0.8125 C 0.125 -1.070312 0.1875 -1.269531 0.3125 -1.40625 C 0.445312 -1.550781 0.632812 -1.625 0.875 -1.625 C 1.101562 -1.625 1.273438 -1.546875 1.390625 -1.390625 C 1.515625 -1.242188 1.578125 -1.023438 1.578125 -0.734375 L 1.578125 -0.71875 L 0.5625 -0.71875 C 0.5625 -0.5625 0.585938 -0.441406 0.640625 -0.359375 C 0.703125 -0.285156 0.785156 -0.25 0.890625 -0.25 C 1.035156 -0.25 1.128906 -0.3125 1.171875 -0.4375 L 1.5625 -0.40625 C 1.445312 -0.113281 1.21875 0.03125 0.875 0.03125 Z M 0.875 -1.375 C 0.769531 -1.375 0.691406 -1.335938 0.640625 -1.265625 C 0.585938 -1.203125 0.5625 -1.109375 0.5625 -0.984375 L 1.171875 -0.984375 C 1.171875 -1.109375 1.140625 -1.203125 1.078125 -1.265625 C 1.023438 -1.335938 0.957031 -1.375 0.875 -1.375 Z M 0.875 -1.375 "/></g></g></g><g fill="#ffffff" fill-opacity="1"><g transform="translate(30.382882, 105.852308)"><g><path d="M 1.9375 0 L 1.9375 -1.265625 C 1.9375 -1.296875 1.9375 -1.320312 1.9375 -1.34375 C 1.9375 -1.375 1.941406 -1.5 1.953125 -1.71875 C 1.878906 -1.445312 1.828125 -1.257812 1.796875 -1.15625 L 1.421875 0 L 1.109375 0 L 0.734375 -1.15625 L 0.578125 -1.71875 C 0.585938 -1.488281 0.59375 -1.335938 0.59375 -1.265625 L 0.59375 0 L 0.203125 0 L 0.203125 -2.078125 L 0.78125 -2.078125 L 1.15625 -0.921875 L 1.1875 -0.8125 L 1.265625 -0.53125 L 1.359375 -0.859375 L 1.734375 -2.078125 L 2.328125 -2.078125 L 2.328125 0 Z M 1.9375 0 "/></g></g><g transform="translate(32.914111, 105.852308)"><g><path d="M 0.875 0.03125 C 0.625 0.03125 0.4375 -0.0351562 0.3125 -0.171875 C 0.1875 -0.316406 0.125 -0.53125 0.125 -0.8125 C 0.125 -1.070312 0.1875 -1.269531 0.3125 -1.40625 C 0.445312 -1.550781 0.632812 -1.625 0.875 -1.625 C 1.101562 -1.625 1.273438 -1.546875 1.390625 -1.390625 C 1.515625 -1.242188 1.578125 -1.023438 1.578125 -0.734375 L 1.578125 -0.71875 L 0.5625 -0.71875 C 0.5625 -0.5625 0.585938 -0.441406 0.640625 -0.359375 C 0.703125 -0.285156 0.785156 -0.25 0.890625 -0.25 C 1.035156 -0.25 1.128906 -0.3125 1.171875 -0.4375 L 1.5625 -0.40625 C 1.445312 -0.113281 1.21875 0.03125 0.875 0.03125 Z M 0.875 -1.375 C 0.769531 -1.375 0.691406 -1.335938 0.640625 -1.265625 C 0.585938 -1.203125 0.5625 -1.109375 0.5625 -0.984375 L 1.171875 -0.984375 C 1.171875 -1.109375 1.140625 -1.203125 1.078125 -1.265625 C 1.023438 -1.335938 0.957031 -1.375 0.875 -1.375 Z M 0.875 -1.375 "/></g></g><g transform="translate(34.60407, 105.852308)"><g><path d="M 0.875 0.03125 C 0.625 0.03125 0.4375 -0.0351562 0.3125 -0.171875 C 0.1875 -0.316406 0.125 -0.53125 0.125 -0.8125 C 0.125 -1.070312 0.1875 -1.269531 0.3125 -1.40625 C 0.445312 -1.550781 0.632812 -1.625 0.875 -1.625 C 1.101562 -1.625 1.273438 -1.546875 1.390625 -1.390625 C 1.515625 -1.242188 1.578125 -1.023438 1.578125 -0.734375 L 1.578125 -0.71875 L 0.5625 -0.71875 C 0.5625 -0.5625 0.585938 -0.441406 0.640625 -0.359375 C 0.703125 -0.285156 0.785156 -0.25 0.890625 -0.25 C 1.035156 -0.25 1.128906 -0.3125 1.171875 -0.4375 L 1.5625 -0.40625 C 1.445312 -0.113281 1.21875 0.03125 0.875 0.03125 Z M 0.875 -1.375 C 0.769531 -1.375 0.691406 -1.335938 0.640625 -1.265625 C 0.585938 -1.203125 0.5625 -1.109375 0.5625 -0.984375 L 1.171875 -0.984375 C 1.171875 -1.109375 1.140625 -1.203125 1.078125 -1.265625 C 1.023438 -1.335938 0.957031 -1.375 0.875 -1.375 Z M 0.875 -1.375 "/></g></g><g transform="translate(36.294029, 105.852308)"><g><path d="M 0.625 0.03125 C 0.5 0.03125 0.398438 0 0.328125 -0.0625 C 0.265625 -0.132812 0.234375 -0.238281 0.234375 -0.375 L 0.234375 -1.3125 L 0.03125 -1.3125 L 0.03125 -1.59375 L 0.265625 -1.59375 L 0.390625 -1.984375 L 0.65625 -1.984375 L 0.65625 -1.59375 L 0.953125 -1.59375 L 0.953125 -1.3125 L 0.65625 -1.3125 L 0.65625 -0.484375 C 0.65625 -0.410156 0.664062 -0.351562 0.6875 -0.3125 C 0.71875 -0.28125 0.765625 -0.265625 0.828125 -0.265625 C 0.859375 -0.265625 0.90625 -0.269531 0.96875 -0.28125 L 0.96875 -0.03125 C 0.863281 0.0078125 0.75 0.03125 0.625 0.03125 Z M 0.625 0.03125 "/></g></g><g transform="translate(37.305927, 105.852308)"><g><path d="M 1.5625 -0.46875 C 1.5625 -0.3125 1.5 -0.1875 1.375 -0.09375 C 1.25 -0.0078125 1.070312 0.03125 0.84375 0.03125 C 0.625 0.03125 0.457031 0 0.34375 -0.0625 C 0.226562 -0.132812 0.148438 -0.25 0.109375 -0.40625 L 0.46875 -0.453125 C 0.488281 -0.378906 0.523438 -0.328125 0.578125 -0.296875 C 0.628906 -0.265625 0.71875 -0.25 0.84375 -0.25 C 0.957031 -0.25 1.039062 -0.257812 1.09375 -0.28125 C 1.144531 -0.3125 1.171875 -0.359375 1.171875 -0.421875 C 1.171875 -0.472656 1.148438 -0.515625 1.109375 -0.546875 C 1.066406 -0.578125 0.992188 -0.601562 0.890625 -0.625 C 0.660156 -0.675781 0.503906 -0.71875 0.421875 -0.75 C 0.335938 -0.789062 0.273438 -0.84375 0.234375 -0.90625 C 0.191406 -0.976562 0.171875 -1.054688 0.171875 -1.140625 C 0.171875 -1.296875 0.226562 -1.414062 0.34375 -1.5 C 0.46875 -1.582031 0.632812 -1.625 0.84375 -1.625 C 1.039062 -1.625 1.195312 -1.585938 1.3125 -1.515625 C 1.425781 -1.441406 1.5 -1.335938 1.53125 -1.203125 L 1.15625 -1.15625 C 1.144531 -1.226562 1.113281 -1.28125 1.0625 -1.3125 C 1.019531 -1.34375 0.945312 -1.359375 0.84375 -1.359375 C 0.75 -1.359375 0.675781 -1.34375 0.625 -1.3125 C 0.570312 -1.289062 0.546875 -1.25 0.546875 -1.1875 C 0.546875 -1.144531 0.566406 -1.109375 0.609375 -1.078125 C 0.648438 -1.054688 0.710938 -1.035156 0.796875 -1.015625 C 0.921875 -0.984375 1.03125 -0.953125 1.125 -0.921875 C 1.226562 -0.898438 1.304688 -0.867188 1.359375 -0.828125 C 1.421875 -0.796875 1.46875 -0.75 1.5 -0.6875 C 1.539062 -0.632812 1.5625 -0.5625 1.5625 -0.46875 Z M 1.5625 -0.46875 "/></g></g><g transform="translate(38.995886, 105.852308)"><g/></g><g transform="translate(39.840124, 105.852308)"><g><path d="M 1.671875 0 L 1.484375 -0.53125 L 0.703125 -0.53125 L 0.515625 0 L 0.078125 0 L 0.84375 -2.078125 L 1.34375 -2.078125 L 2.109375 0 Z M 1.09375 -1.765625 L 1.078125 -1.734375 C 1.066406 -1.691406 1.054688 -1.648438 1.046875 -1.609375 C 1.035156 -1.566406 0.953125 -1.316406 0.796875 -0.859375 L 1.390625 -0.859375 L 1.1875 -1.453125 L 1.125 -1.65625 Z M 1.09375 -1.765625 "/></g></g><g transform="translate(42.034548, 105.852308)"><g><path d="M 0.21875 0 L 0.21875 -1.21875 C 0.21875 -1.3125 0.210938 -1.382812 0.203125 -1.4375 C 0.203125 -1.5 0.203125 -1.550781 0.203125 -1.59375 L 0.59375 -1.59375 C 0.59375 -1.582031 0.59375 -1.53125 0.59375 -1.4375 C 0.601562 -1.34375 0.609375 -1.285156 0.609375 -1.265625 L 0.625 -1.265625 C 0.664062 -1.367188 0.703125 -1.441406 0.734375 -1.484375 C 0.765625 -1.535156 0.800781 -1.570312 0.84375 -1.59375 C 0.882812 -1.613281 0.9375 -1.625 1 -1.625 C 1.050781 -1.625 1.097656 -1.617188 1.140625 -1.609375 L 1.140625 -1.265625 C 1.066406 -1.273438 1.003906 -1.28125 0.953125 -1.28125 C 0.847656 -1.28125 0.765625 -1.238281 0.703125 -1.15625 C 0.648438 -1.070312 0.625 -0.945312 0.625 -0.78125 L 0.625 0 Z M 0.21875 0 "/></g></g><g transform="translate(43.217074, 105.852308)"><g><path d="M 0.625 0.03125 C 0.5 0.03125 0.398438 0 0.328125 -0.0625 C 0.265625 -0.132812 0.234375 -0.238281 0.234375 -0.375 L 0.234375 -1.3125 L 0.03125 -1.3125 L 0.03125 -1.59375 L 0.265625 -1.59375 L 0.390625 -1.984375 L 0.65625 -1.984375 L 0.65625 -1.59375 L 0.953125 -1.59375 L 0.953125 -1.3125 L 0.65625 -1.3125 L 0.65625 -0.484375 C 0.65625 -0.410156 0.664062 -0.351562 0.6875 -0.3125 C 0.71875 -0.28125 0.765625 -0.265625 0.828125 -0.265625 C 0.859375 -0.265625 0.90625 -0.269531 0.96875 -0.28125 L 0.96875 -0.03125 C 0.863281 0.0078125 0.75 0.03125 0.625 0.03125 Z M 0.625 0.03125 "/></g></g><g transform="translate(44.228972, 105.852308)"><g><path d="M 0.21875 -1.890625 L 0.21875 -2.203125 L 0.625 -2.203125 L 0.625 -1.890625 Z M 0.21875 0 L 0.21875 -1.59375 L 0.625 -1.59375 L 0.625 0 Z M 0.21875 0 "/></g></g><g transform="translate(45.07321, 105.852308)"><g><path d="M 0.703125 -1.3125 L 0.703125 0 L 0.28125 0 L 0.28125 -1.3125 L 0.046875 -1.3125 L 0.046875 -1.59375 L 0.28125 -1.59375 L 0.28125 -1.765625 C 0.28125 -1.910156 0.316406 -2.019531 0.390625 -2.09375 C 0.472656 -2.164062 0.59375 -2.203125 0.75 -2.203125 C 0.832031 -2.203125 0.921875 -2.191406 1.015625 -2.171875 L 1.015625 -1.90625 C 0.972656 -1.914062 0.929688 -1.921875 0.890625 -1.921875 C 0.816406 -1.921875 0.765625 -1.90625 0.734375 -1.875 C 0.710938 -1.84375 0.703125 -1.796875 0.703125 -1.734375 L 0.703125 -1.59375 L 1.015625 -1.59375 L 1.015625 -1.3125 Z M 0.703125 -1.3125 "/></g></g><g transform="translate(46.085108, 105.852308)"><g><path d="M 0.21875 -1.890625 L 0.21875 -2.203125 L 0.625 -2.203125 L 0.625 -1.890625 Z M 0.21875 0 L 0.21875 -1.59375 L 0.625 -1.59375 L 0.625 0 Z M 0.21875 0 "/></g></g><g transform="translate(46.929346, 105.852308)"><g><path d="M 0.875 0.03125 C 0.632812 0.03125 0.445312 -0.0390625 0.3125 -0.1875 C 0.1875 -0.332031 0.125 -0.535156 0.125 -0.796875 C 0.125 -1.054688 0.1875 -1.257812 0.3125 -1.40625 C 0.445312 -1.550781 0.640625 -1.625 0.890625 -1.625 C 1.078125 -1.625 1.226562 -1.578125 1.34375 -1.484375 C 1.46875 -1.390625 1.546875 -1.257812 1.578125 -1.09375 L 1.171875 -1.078125 C 1.160156 -1.160156 1.128906 -1.222656 1.078125 -1.265625 C 1.023438 -1.316406 0.957031 -1.34375 0.875 -1.34375 C 0.664062 -1.34375 0.5625 -1.164062 0.5625 -0.8125 C 0.5625 -0.4375 0.664062 -0.25 0.875 -0.25 C 0.957031 -0.25 1.023438 -0.273438 1.078125 -0.328125 C 1.128906 -0.378906 1.160156 -0.453125 1.171875 -0.546875 L 1.59375 -0.53125 C 1.582031 -0.425781 1.546875 -0.328125 1.484375 -0.234375 C 1.421875 -0.148438 1.335938 -0.0820312 1.234375 -0.03125 C 1.128906 0.0078125 1.007812 0.03125 0.875 0.03125 Z M 0.875 0.03125 "/></g></g><g transform="translate(48.619305, 105.852308)"><g><path d="M 0.21875 -1.890625 L 0.21875 -2.203125 L 0.625 -2.203125 L 0.625 -1.890625 Z M 0.21875 0 L 0.21875 -1.59375 L 0.625 -1.59375 L 0.625 0 Z M 0.21875 0 "/></g></g><g transform="translate(49.463542, 105.852308)"><g><path d="M 0.578125 0.03125 C 0.421875 0.03125 0.300781 -0.0078125 0.21875 -0.09375 C 0.132812 -0.175781 0.09375 -0.296875 0.09375 -0.453125 C 0.09375 -0.617188 0.144531 -0.742188 0.25 -0.828125 C 0.351562 -0.921875 0.507812 -0.96875 0.71875 -0.96875 L 1.0625 -0.96875 L 1.0625 -1.046875 C 1.0625 -1.148438 1.039062 -1.226562 1 -1.28125 C 0.96875 -1.332031 0.910156 -1.359375 0.828125 -1.359375 C 0.753906 -1.359375 0.695312 -1.335938 0.65625 -1.296875 C 0.625 -1.265625 0.601562 -1.210938 0.59375 -1.140625 L 0.15625 -1.15625 C 0.1875 -1.3125 0.257812 -1.425781 0.375 -1.5 C 0.488281 -1.582031 0.644531 -1.625 0.84375 -1.625 C 1.050781 -1.625 1.207031 -1.570312 1.3125 -1.46875 C 1.425781 -1.375 1.484375 -1.238281 1.484375 -1.0625 L 1.484375 -0.46875 C 1.484375 -0.382812 1.492188 -0.320312 1.515625 -0.28125 C 1.535156 -0.25 1.566406 -0.234375 1.609375 -0.234375 C 1.640625 -0.234375 1.671875 -0.238281 1.703125 -0.25 L 1.703125 -0.015625 C 1.679688 -0.015625 1.660156 -0.0078125 1.640625 0 C 1.617188 0 1.597656 0 1.578125 0 C 1.554688 0.0078125 1.535156 0.015625 1.515625 0.015625 C 1.492188 0.015625 1.46875 0.015625 1.4375 0.015625 C 1.332031 0.015625 1.253906 -0.0078125 1.203125 -0.0625 C 1.148438 -0.113281 1.125 -0.1875 1.125 -0.28125 L 1.109375 -0.28125 C 0.992188 -0.0703125 0.816406 0.03125 0.578125 0.03125 Z M 1.0625 -0.734375 L 0.859375 -0.734375 C 0.753906 -0.734375 0.679688 -0.722656 0.640625 -0.703125 C 0.609375 -0.691406 0.578125 -0.664062 0.546875 -0.625 C 0.523438 -0.59375 0.515625 -0.546875 0.515625 -0.484375 C 0.515625 -0.410156 0.53125 -0.351562 0.5625 -0.3125 C 0.601562 -0.28125 0.65625 -0.265625 0.71875 -0.265625 C 0.78125 -0.265625 0.835938 -0.28125 0.890625 -0.3125 C 0.941406 -0.34375 0.984375 -0.390625 1.015625 -0.453125 C 1.046875 -0.523438 1.0625 -0.59375 1.0625 -0.65625 Z M 1.0625 -0.734375 "/></g></g><g transform="translate(51.153501, 105.852308)"><g><path d="M 0.21875 0 L 0.21875 -2.203125 L 0.625 -2.203125 L 0.625 0 Z M 0.21875 0 "/></g></g></g><g fill="#ffffff" fill-opacity="1"><g transform="translate(30.382882, 108.89097)"><g><path d="M 0.203125 0 L 0.203125 -2.078125 L 0.640625 -2.078125 L 0.640625 -0.34375 L 1.765625 -0.34375 L 1.765625 0 Z M 0.203125 0 "/></g></g><g transform="translate(32.239018, 108.89097)"><g><path d="M 0.875 0.03125 C 0.625 0.03125 0.4375 -0.0351562 0.3125 -0.171875 C 0.1875 -0.316406 0.125 -0.53125 0.125 -0.8125 C 0.125 -1.070312 0.1875 -1.269531 0.3125 -1.40625 C 0.445312 -1.550781 0.632812 -1.625 0.875 -1.625 C 1.101562 -1.625 1.273438 -1.546875 1.390625 -1.390625 C 1.515625 -1.242188 1.578125 -1.023438 1.578125 -0.734375 L 1.578125 -0.71875 L 0.5625 -0.71875 C 0.5625 -0.5625 0.585938 -0.441406 0.640625 -0.359375 C 0.703125 -0.285156 0.785156 -0.25 0.890625 -0.25 C 1.035156 -0.25 1.128906 -0.3125 1.171875 -0.4375 L 1.5625 -0.40625 C 1.445312 -0.113281 1.21875 0.03125 0.875 0.03125 Z M 0.875 -1.375 C 0.769531 -1.375 0.691406 -1.335938 0.640625 -1.265625 C 0.585938 -1.203125 0.5625 -1.109375 0.5625 -0.984375 L 1.171875 -0.984375 C 1.171875 -1.109375 1.140625 -1.203125 1.078125 -1.265625 C 1.023438 -1.335938 0.957031 -1.375 0.875 -1.375 Z M 0.875 -1.375 "/></g></g><g transform="translate(33.928977, 108.89097)"><g><path d="M 0.578125 0.03125 C 0.421875 0.03125 0.300781 -0.0078125 0.21875 -0.09375 C 0.132812 -0.175781 0.09375 -0.296875 0.09375 -0.453125 C 0.09375 -0.617188 0.144531 -0.742188 0.25 -0.828125 C 0.351562 -0.921875 0.507812 -0.96875 0.71875 -0.96875 L 1.0625 -0.96875 L 1.0625 -1.046875 C 1.0625 -1.148438 1.039062 -1.226562 1 -1.28125 C 0.96875 -1.332031 0.910156 -1.359375 0.828125 -1.359375 C 0.753906 -1.359375 0.695312 -1.335938 0.65625 -1.296875 C 0.625 -1.265625 0.601562 -1.210938 0.59375 -1.140625 L 0.15625 -1.15625 C 0.1875 -1.3125 0.257812 -1.425781 0.375 -1.5 C 0.488281 -1.582031 0.644531 -1.625 0.84375 -1.625 C 1.050781 -1.625 1.207031 -1.570312 1.3125 -1.46875 C 1.425781 -1.375 1.484375 -1.238281 1.484375 -1.0625 L 1.484375 -0.46875 C 1.484375 -0.382812 1.492188 -0.320312 1.515625 -0.28125 C 1.535156 -0.25 1.566406 -0.234375 1.609375 -0.234375 C 1.640625 -0.234375 1.671875 -0.238281 1.703125 -0.25 L 1.703125 -0.015625 C 1.679688 -0.015625 1.660156 -0.0078125 1.640625 0 C 1.617188 0 1.597656 0 1.578125 0 C 1.554688 0.0078125 1.535156 0.015625 1.515625 0.015625 C 1.492188 0.015625 1.46875 0.015625 1.4375 0.015625 C 1.332031 0.015625 1.253906 -0.0078125 1.203125 -0.0625 C 1.148438 -0.113281 1.125 -0.1875 1.125 -0.28125 L 1.109375 -0.28125 C 0.992188 -0.0703125 0.816406 0.03125 0.578125 0.03125 Z M 1.0625 -0.734375 L 0.859375 -0.734375 C 0.753906 -0.734375 0.679688 -0.722656 0.640625 -0.703125 C 0.609375 -0.691406 0.578125 -0.664062 0.546875 -0.625 C 0.523438 -0.59375 0.515625 -0.546875 0.515625 -0.484375 C 0.515625 -0.410156 0.53125 -0.351562 0.5625 -0.3125 C 0.601562 -0.28125 0.65625 -0.265625 0.71875 -0.265625 C 0.78125 -0.265625 0.835938 -0.28125 0.890625 -0.3125 C 0.941406 -0.34375 0.984375 -0.390625 1.015625 -0.453125 C 1.046875 -0.523438 1.0625 -0.59375 1.0625 -0.65625 Z M 1.0625 -0.734375 "/></g></g><g transform="translate(35.618936, 108.89097)"><g><path d="M 0.21875 0 L 0.21875 -1.21875 C 0.21875 -1.3125 0.210938 -1.382812 0.203125 -1.4375 C 0.203125 -1.5 0.203125 -1.550781 0.203125 -1.59375 L 0.59375 -1.59375 C 0.59375 -1.582031 0.59375 -1.53125 0.59375 -1.4375 C 0.601562 -1.34375 0.609375 -1.285156 0.609375 -1.265625 L 0.625 -1.265625 C 0.664062 -1.367188 0.703125 -1.441406 0.734375 -1.484375 C 0.765625 -1.535156 0.800781 -1.570312 0.84375 -1.59375 C 0.882812 -1.613281 0.9375 -1.625 1 -1.625 C 1.050781 -1.625 1.097656 -1.617188 1.140625 -1.609375 L 1.140625 -1.265625 C 1.066406 -1.273438 1.003906 -1.28125 0.953125 -1.28125 C 0.847656 -1.28125 0.765625 -1.238281 0.703125 -1.15625 C 0.648438 -1.070312 0.625 -0.945312 0.625 -0.78125 L 0.625 0 Z M 0.21875 0 "/></g></g><g transform="translate(36.801462, 108.89097)"><g><path d="M 1.25 0 L 1.25 -0.890625 C 1.25 -1.171875 1.15625 -1.3125 0.96875 -1.3125 C 0.863281 -1.3125 0.78125 -1.269531 0.71875 -1.1875 C 0.65625 -1.101562 0.625 -0.992188 0.625 -0.859375 L 0.625 0 L 0.21875 0 L 0.21875 -1.25 C 0.21875 -1.332031 0.210938 -1.398438 0.203125 -1.453125 C 0.203125 -1.503906 0.203125 -1.550781 0.203125 -1.59375 L 0.59375 -1.59375 C 0.59375 -1.582031 0.59375 -1.535156 0.59375 -1.453125 C 0.601562 -1.367188 0.609375 -1.3125 0.609375 -1.28125 L 0.625 -1.28125 C 0.675781 -1.40625 0.742188 -1.492188 0.828125 -1.546875 C 0.910156 -1.597656 1.015625 -1.625 1.140625 -1.625 C 1.304688 -1.625 1.429688 -1.570312 1.515625 -1.46875 C 1.609375 -1.363281 1.65625 -1.210938 1.65625 -1.015625 L 1.65625 0 Z M 1.25 0 "/></g></g><g transform="translate(38.657598, 108.89097)"><g><path d="M 0.21875 -1.890625 L 0.21875 -2.203125 L 0.625 -2.203125 L 0.625 -1.890625 Z M 0.21875 0 L 0.21875 -1.59375 L 0.625 -1.59375 L 0.625 0 Z M 0.21875 0 "/></g></g><g transform="translate(39.501835, 108.89097)"><g><path d="M 1.25 0 L 1.25 -0.890625 C 1.25 -1.171875 1.15625 -1.3125 0.96875 -1.3125 C 0.863281 -1.3125 0.78125 -1.269531 0.71875 -1.1875 C 0.65625 -1.101562 0.625 -0.992188 0.625 -0.859375 L 0.625 0 L 0.21875 0 L 0.21875 -1.25 C 0.21875 -1.332031 0.210938 -1.398438 0.203125 -1.453125 C 0.203125 -1.503906 0.203125 -1.550781 0.203125 -1.59375 L 0.59375 -1.59375 C 0.59375 -1.582031 0.59375 -1.535156 0.59375 -1.453125 C 0.601562 -1.367188 0.609375 -1.3125 0.609375 -1.28125 L 0.625 -1.28125 C 0.675781 -1.40625 0.742188 -1.492188 0.828125 -1.546875 C 0.910156 -1.597656 1.015625 -1.625 1.140625 -1.625 C 1.304688 -1.625 1.429688 -1.570312 1.515625 -1.46875 C 1.609375 -1.363281 1.65625 -1.210938 1.65625 -1.015625 L 1.65625 0 Z M 1.25 0 "/></g></g><g transform="translate(41.357971, 108.89097)"><g><path d="M 0.875 0.640625 C 0.6875 0.640625 0.53125 0.601562 0.40625 0.53125 C 0.289062 0.457031 0.21875 0.351562 0.1875 0.21875 L 0.609375 0.15625 C 0.617188 0.226562 0.648438 0.28125 0.703125 0.3125 C 0.753906 0.351562 0.816406 0.375 0.890625 0.375 C 1.003906 0.375 1.085938 0.335938 1.140625 0.265625 C 1.203125 0.191406 1.234375 0.0820312 1.234375 -0.0625 L 1.234375 -0.296875 C 1.140625 -0.0976562 0.96875 0 0.71875 0 C 0.53125 0 0.382812 -0.0664062 0.28125 -0.203125 C 0.175781 -0.347656 0.125 -0.550781 0.125 -0.8125 C 0.125 -1.070312 0.175781 -1.269531 0.28125 -1.40625 C 0.382812 -1.550781 0.539062 -1.625 0.75 -1.625 C 0.976562 -1.625 1.140625 -1.53125 1.234375 -1.34375 C 1.234375 -1.375 1.234375 -1.421875 1.234375 -1.484375 C 1.242188 -1.546875 1.25 -1.582031 1.25 -1.59375 L 1.65625 -1.59375 C 1.644531 -1.488281 1.640625 -1.367188 1.640625 -1.234375 L 1.640625 -0.046875 C 1.640625 0.179688 1.570312 0.351562 1.4375 0.46875 C 1.3125 0.582031 1.125 0.640625 0.875 0.640625 Z M 1.234375 -0.828125 C 1.234375 -0.984375 1.203125 -1.109375 1.140625 -1.203125 C 1.078125 -1.296875 0.992188 -1.34375 0.890625 -1.34375 C 0.671875 -1.34375 0.5625 -1.164062 0.5625 -0.8125 C 0.5625 -0.46875 0.671875 -0.296875 0.890625 -0.296875 C 0.992188 -0.296875 1.078125 -0.335938 1.140625 -0.421875 C 1.203125 -0.515625 1.234375 -0.648438 1.234375 -0.828125 Z M 1.234375 -0.828125 "/></g></g><g transform="translate(43.214107, 108.89097)"><g/></g><g transform="translate(44.058344, 108.89097)"><g><path d="M 0.21875 -1.890625 L 0.21875 -2.203125 L 0.625 -2.203125 L 0.625 -1.890625 Z M 0.21875 0 L 0.21875 -1.59375 L 0.625 -1.59375 L 0.625 0 Z M 0.21875 0 "/></g></g><g transform="translate(44.902582, 108.89097)"><g><path d="M 1.25 0 L 1.25 -0.890625 C 1.25 -1.171875 1.15625 -1.3125 0.96875 -1.3125 C 0.863281 -1.3125 0.78125 -1.269531 0.71875 -1.1875 C 0.65625 -1.101562 0.625 -0.992188 0.625 -0.859375 L 0.625 0 L 0.21875 0 L 0.21875 -1.25 C 0.21875 -1.332031 0.210938 -1.398438 0.203125 -1.453125 C 0.203125 -1.503906 0.203125 -1.550781 0.203125 -1.59375 L 0.59375 -1.59375 C 0.59375 -1.582031 0.59375 -1.535156 0.59375 -1.453125 C 0.601562 -1.367188 0.609375 -1.3125 0.609375 -1.28125 L 0.625 -1.28125 C 0.675781 -1.40625 0.742188 -1.492188 0.828125 -1.546875 C 0.910156 -1.597656 1.015625 -1.625 1.140625 -1.625 C 1.304688 -1.625 1.429688 -1.570312 1.515625 -1.46875 C 1.609375 -1.363281 1.65625 -1.210938 1.65625 -1.015625 L 1.65625 0 Z M 1.25 0 "/></g></g><g transform="translate(46.758718, 108.89097)"><g><path d="M 0.625 0.03125 C 0.5 0.03125 0.398438 0 0.328125 -0.0625 C 0.265625 -0.132812 0.234375 -0.238281 0.234375 -0.375 L 0.234375 -1.3125 L 0.03125 -1.3125 L 0.03125 -1.59375 L 0.265625 -1.59375 L 0.390625 -1.984375 L 0.65625 -1.984375 L 0.65625 -1.59375 L 0.953125 -1.59375 L 0.953125 -1.3125 L 0.65625 -1.3125 L 0.65625 -0.484375 C 0.65625 -0.410156 0.664062 -0.351562 0.6875 -0.3125 C 0.71875 -0.28125 0.765625 -0.265625 0.828125 -0.265625 C 0.859375 -0.265625 0.90625 -0.269531 0.96875 -0.28125 L 0.96875 -0.03125 C 0.863281 0.0078125 0.75 0.03125 0.625 0.03125 Z M 0.625 0.03125 "/></g></g><g transform="translate(47.770616, 108.89097)"><g><path d="M 0.875 0.03125 C 0.625 0.03125 0.4375 -0.0351562 0.3125 -0.171875 C 0.1875 -0.316406 0.125 -0.53125 0.125 -0.8125 C 0.125 -1.070312 0.1875 -1.269531 0.3125 -1.40625 C 0.445312 -1.550781 0.632812 -1.625 0.875 -1.625 C 1.101562 -1.625 1.273438 -1.546875 1.390625 -1.390625 C 1.515625 -1.242188 1.578125 -1.023438 1.578125 -0.734375 L 1.578125 -0.71875 L 0.5625 -0.71875 C 0.5625 -0.5625 0.585938 -0.441406 0.640625 -0.359375 C 0.703125 -0.285156 0.785156 -0.25 0.890625 -0.25 C 1.035156 -0.25 1.128906 -0.3125 1.171875 -0.4375 L 1.5625 -0.40625 C 1.445312 -0.113281 1.21875 0.03125 0.875 0.03125 Z M 0.875 -1.375 C 0.769531 -1.375 0.691406 -1.335938 0.640625 -1.265625 C 0.585938 -1.203125 0.5625 -1.109375 0.5625 -0.984375 L 1.171875 -0.984375 C 1.171875 -1.109375 1.140625 -1.203125 1.078125 -1.265625 C 1.023438 -1.335938 0.957031 -1.375 0.875 -1.375 Z M 0.875 -1.375 "/></g></g><g transform="translate(49.460575, 108.89097)"><g><path d="M 0.21875 0 L 0.21875 -2.203125 L 0.625 -2.203125 L 0.625 0 Z M 0.21875 0 "/></g></g><g transform="translate(50.304812, 108.89097)"><g><path d="M 0.21875 0 L 0.21875 -2.203125 L 0.625 -2.203125 L 0.625 0 Z M 0.21875 0 "/></g></g><g transform="translate(51.14905, 108.89097)"><g><path d="M 0.21875 -1.890625 L 0.21875 -2.203125 L 0.625 -2.203125 L 0.625 -1.890625 Z M 0.21875 0 L 0.21875 -1.59375 L 0.625 -1.59375 L 0.625 0 Z M 0.21875 0 "/></g></g><g transform="translate(51.993288, 108.89097)"><g><path d="M 0.875 0.640625 C 0.6875 0.640625 0.53125 0.601562 0.40625 0.53125 C 0.289062 0.457031 0.21875 0.351562 0.1875 0.21875 L 0.609375 0.15625 C 0.617188 0.226562 0.648438 0.28125 0.703125 0.3125 C 0.753906 0.351562 0.816406 0.375 0.890625 0.375 C 1.003906 0.375 1.085938 0.335938 1.140625 0.265625 C 1.203125 0.191406 1.234375 0.0820312 1.234375 -0.0625 L 1.234375 -0.296875 C 1.140625 -0.0976562 0.96875 0 0.71875 0 C 0.53125 0 0.382812 -0.0664062 0.28125 -0.203125 C 0.175781 -0.347656 0.125 -0.550781 0.125 -0.8125 C 0.125 -1.070312 0.175781 -1.269531 0.28125 -1.40625 C 0.382812 -1.550781 0.539062 -1.625 0.75 -1.625 C 0.976562 -1.625 1.140625 -1.53125 1.234375 -1.34375 C 1.234375 -1.375 1.234375 -1.421875 1.234375 -1.484375 C 1.242188 -1.546875 1.25 -1.582031 1.25 -1.59375 L 1.65625 -1.59375 C 1.644531 -1.488281 1.640625 -1.367188 1.640625 -1.234375 L 1.640625 -0.046875 C 1.640625 0.179688 1.570312 0.351562 1.4375 0.46875 C 1.3125 0.582031 1.125 0.640625 0.875 0.640625 Z M 1.234375 -0.828125 C 1.234375 -0.984375 1.203125 -1.109375 1.140625 -1.203125 C 1.078125 -1.296875 0.992188 -1.34375 0.890625 -1.34375 C 0.671875 -1.34375 0.5625 -1.164062 0.5625 -0.8125 C 0.5625 -0.46875 0.671875 -0.296875 0.890625 -0.296875 C 0.992188 -0.296875 1.078125 -0.335938 1.140625 -0.421875 C 1.203125 -0.515625 1.234375 -0.648438 1.234375 -0.828125 Z M 1.234375 -0.828125 "/></g></g><g transform="translate(53.849423, 108.89097)"><g><path d="M 0.875 0.03125 C 0.625 0.03125 0.4375 -0.0351562 0.3125 -0.171875 C 0.1875 -0.316406 0.125 -0.53125 0.125 -0.8125 C 0.125 -1.070312 0.1875 -1.269531 0.3125 -1.40625 C 0.445312 -1.550781 0.632812 -1.625 0.875 -1.625 C 1.101562 -1.625 1.273438 -1.546875 1.390625 -1.390625 C 1.515625 -1.242188 1.578125 -1.023438 1.578125 -0.734375 L 1.578125 -0.71875 L 0.5625 -0.71875 C 0.5625 -0.5625 0.585938 -0.441406 0.640625 -0.359375 C 0.703125 -0.285156 0.785156 -0.25 0.890625 -0.25 C 1.035156 -0.25 1.128906 -0.3125 1.171875 -0.4375 L 1.5625 -0.40625 C 1.445312 -0.113281 1.21875 0.03125 0.875 0.03125 Z M 0.875 -1.375 C 0.769531 -1.375 0.691406 -1.335938 0.640625 -1.265625 C 0.585938 -1.203125 0.5625 -1.109375 0.5625 -0.984375 L 1.171875 -0.984375 C 1.171875 -1.109375 1.140625 -1.203125 1.078125 -1.265625 C 1.023438 -1.335938 0.957031 -1.375 0.875 -1.375 Z M 0.875 -1.375 "/></g></g><g transform="translate(55.539382, 108.89097)"><g><path d="M 1.25 0 L 1.25 -0.890625 C 1.25 -1.171875 1.15625 -1.3125 0.96875 -1.3125 C 0.863281 -1.3125 0.78125 -1.269531 0.71875 -1.1875 C 0.65625 -1.101562 0.625 -0.992188 0.625 -0.859375 L 0.625 0 L 0.21875 0 L 0.21875 -1.25 C 0.21875 -1.332031 0.210938 -1.398438 0.203125 -1.453125 C 0.203125 -1.503906 0.203125 -1.550781 0.203125 -1.59375 L 0.59375 -1.59375 C 0.59375 -1.582031 0.59375 -1.535156 0.59375 -1.453125 C 0.601562 -1.367188 0.609375 -1.3125 0.609375 -1.28125 L 0.625 -1.28125 C 0.675781 -1.40625 0.742188 -1.492188 0.828125 -1.546875 C 0.910156 -1.597656 1.015625 -1.625 1.140625 -1.625 C 1.304688 -1.625 1.429688 -1.570312 1.515625 -1.46875 C 1.609375 -1.363281 1.65625 -1.210938 1.65625 -1.015625 L 1.65625 0 Z M 1.25 0 "/></g></g><g transform="translate(57.395518, 108.89097)"><g><path d="M 0.875 0.03125 C 0.632812 0.03125 0.445312 -0.0390625 0.3125 -0.1875 C 0.1875 -0.332031 0.125 -0.535156 0.125 -0.796875 C 0.125 -1.054688 0.1875 -1.257812 0.3125 -1.40625 C 0.445312 -1.550781 0.640625 -1.625 0.890625 -1.625 C 1.078125 -1.625 1.226562 -1.578125 1.34375 -1.484375 C 1.46875 -1.390625 1.546875 -1.257812 1.578125 -1.09375 L 1.171875 -1.078125 C 1.160156 -1.160156 1.128906 -1.222656 1.078125 -1.265625 C 1.023438 -1.316406 0.957031 -1.34375 0.875 -1.34375 C 0.664062 -1.34375 0.5625 -1.164062 0.5625 -0.8125 C 0.5625 -0.4375 0.664062 -0.25 0.875 -0.25 C 0.957031 -0.25 1.023438 -0.273438 1.078125 -0.328125 C 1.128906 -0.378906 1.160156 -0.453125 1.171875 -0.546875 L 1.59375 -0.53125 C 1.582031 -0.425781 1.546875 -0.328125 1.484375 -0.234375 C 1.421875 -0.148438 1.335938 -0.0820312 1.234375 -0.03125 C 1.128906 0.0078125 1.007812 0.03125 0.875 0.03125 Z M 0.875 0.03125 "/></g></g><g transform="translate(59.085477, 108.89097)"><g><path d="M 0.875 0.03125 C 0.625 0.03125 0.4375 -0.0351562 0.3125 -0.171875 C 0.1875 -0.316406 0.125 -0.53125 0.125 -0.8125 C 0.125 -1.070312 0.1875 -1.269531 0.3125 -1.40625 C 0.445312 -1.550781 0.632812 -1.625 0.875 -1.625 C 1.101562 -1.625 1.273438 -1.546875 1.390625 -1.390625 C 1.515625 -1.242188 1.578125 -1.023438 1.578125 -0.734375 L 1.578125 -0.71875 L 0.5625 -0.71875 C 0.5625 -0.5625 0.585938 -0.441406 0.640625 -0.359375 C 0.703125 -0.285156 0.785156 -0.25 0.890625 -0.25 C 1.035156 -0.25 1.128906 -0.3125 1.171875 -0.4375 L 1.5625 -0.40625 C 1.445312 -0.113281 1.21875 0.03125 0.875 0.03125 Z M 0.875 -1.375 C 0.769531 -1.375 0.691406 -1.335938 0.640625 -1.265625 C 0.585938 -1.203125 0.5625 -1.109375 0.5625 -0.984375 L 1.171875 -0.984375 C 1.171875 -1.109375 1.140625 -1.203125 1.078125 -1.265625 C 1.023438 -1.335938 0.957031 -1.375 0.875 -1.375 Z M 0.875 -1.375 "/></g></g></g><g fill="#000000" fill-opacity="1"><g transform="translate(119.582166, 75.995064)"><g><path d="M 5.59375 -11.6875 C 7.320312 -11.6875 8.835938 -11.253906 10.140625 -10.390625 L 9.046875 -8.09375 C 8.441406 -8.445312 7.789062 -8.738281 7.09375 -8.96875 C 6.40625 -9.195312 5.820312 -9.3125 5.34375 -9.3125 C 4.5 -9.3125 4.078125 -9.03125 4.078125 -8.46875 C 4.078125 -8.101562 4.285156 -7.8125 4.703125 -7.59375 C 5.117188 -7.375 5.625 -7.179688 6.21875 -7.015625 C 6.820312 -6.859375 7.421875 -6.664062 8.015625 -6.4375 C 8.617188 -6.21875 9.128906 -5.851562 9.546875 -5.34375 C 9.972656 -4.84375 10.1875 -4.207031 10.1875 -3.4375 C 10.1875 -2.320312 9.75 -1.453125 8.875 -0.828125 C 8.007812 -0.210938 6.90625 0.09375 5.5625 0.09375 C 4.601562 0.09375 3.65625 -0.0664062 2.71875 -0.390625 C 1.78125 -0.722656 0.96875 -1.175781 0.28125 -1.75 L 1.421875 -4.015625 C 2.003906 -3.503906 2.691406 -3.085938 3.484375 -2.765625 C 4.273438 -2.441406 4.976562 -2.28125 5.59375 -2.28125 C 6.0625 -2.28125 6.425781 -2.363281 6.6875 -2.53125 C 6.957031 -2.695312 7.09375 -2.945312 7.09375 -3.28125 C 7.09375 -3.601562 6.941406 -3.867188 6.640625 -4.078125 C 6.335938 -4.296875 5.957031 -4.457031 5.5 -4.5625 C 5.050781 -4.664062 4.5625 -4.804688 4.03125 -4.984375 C 3.507812 -5.160156 3.019531 -5.351562 2.5625 -5.5625 C 2.113281 -5.769531 1.738281 -6.101562 1.4375 -6.5625 C 1.132812 -7.019531 0.984375 -7.566406 0.984375 -8.203125 C 0.984375 -9.253906 1.40625 -10.097656 2.25 -10.734375 C 3.09375 -11.367188 4.207031 -11.6875 5.59375 -11.6875 Z M 5.59375 -11.6875 "/></g></g></g><g fill="#000000" fill-opacity="1"><g transform="translate(130.211224, 75.995064)"><g><path d="M 5.015625 -9 C 5.898438 -9 6.6875 -8.820312 7.375 -8.46875 C 8.0625 -8.125 8.59375 -7.632812 8.96875 -7 L 6.9375 -5.765625 C 6.488281 -6.378906 5.882812 -6.6875 5.125 -6.6875 C 4.582031 -6.6875 4.132812 -6.476562 3.78125 -6.0625 C 3.4375 -5.644531 3.265625 -5.101562 3.265625 -4.4375 C 3.265625 -3.757812 3.4375 -3.210938 3.78125 -2.796875 C 4.125 -2.378906 4.570312 -2.171875 5.125 -2.171875 C 5.96875 -2.171875 6.578125 -2.507812 6.953125 -3.1875 L 9.03125 -1.96875 C 8.664062 -1.300781 8.132812 -0.789062 7.4375 -0.4375 C 6.738281 -0.0820312 5.921875 0.09375 4.984375 0.09375 C 3.609375 0.09375 2.5 -0.316406 1.65625 -1.140625 C 0.8125 -1.972656 0.390625 -3.066406 0.390625 -4.421875 C 0.390625 -5.785156 0.816406 -6.890625 1.671875 -7.734375 C 2.523438 -8.578125 3.640625 -9 5.015625 -9 Z M 5.015625 -9 "/></g></g></g><g fill="#000000" fill-opacity="1"><g transform="translate(139.486902, 75.995064)"><g><path d="M 7.0625 -9.03125 C 8.039062 -9.03125 8.828125 -8.71875 9.421875 -8.09375 C 10.015625 -7.46875 10.3125 -6.640625 10.3125 -5.609375 L 10.3125 0 L 7.453125 0 L 7.453125 -4.8125 C 7.453125 -5.332031 7.3125 -5.742188 7.03125 -6.046875 C 6.75 -6.347656 6.367188 -6.5 5.890625 -6.5 C 5.335938 -6.5 4.894531 -6.300781 4.5625 -5.90625 C 4.238281 -5.507812 4.078125 -5.003906 4.078125 -4.390625 L 4.078125 0 L 1.21875 0 L 1.21875 -12.25 L 4.078125 -12.25 L 4.078125 -7.421875 C 4.703125 -8.472656 5.695312 -9.007812 7.0625 -9.03125 Z M 7.0625 -9.03125 "/></g></g></g><g fill="#000000" fill-opacity="1"><g transform="translate(150.677127, 75.995064)"><g><path d="M 5.265625 -9 C 6.710938 -9 7.878906 -8.582031 8.765625 -7.75 C 9.660156 -6.914062 10.109375 -5.816406 10.109375 -4.453125 C 10.109375 -3.085938 9.660156 -1.988281 8.765625 -1.15625 C 7.878906 -0.320312 6.710938 0.09375 5.265625 0.09375 C 3.796875 0.09375 2.613281 -0.320312 1.71875 -1.15625 C 0.832031 -1.988281 0.390625 -3.085938 0.390625 -4.453125 C 0.390625 -5.816406 0.832031 -6.914062 1.71875 -7.75 C 2.613281 -8.582031 3.796875 -9 5.265625 -9 Z M 5.265625 -6.734375 C 4.671875 -6.734375 4.1875 -6.515625 3.8125 -6.078125 C 3.445312 -5.648438 3.265625 -5.097656 3.265625 -4.421875 C 3.265625 -3.722656 3.445312 -3.160156 3.8125 -2.734375 C 4.1875 -2.316406 4.671875 -2.109375 5.265625 -2.109375 C 5.847656 -2.109375 6.320312 -2.316406 6.6875 -2.734375 C 7.0625 -3.160156 7.25 -3.722656 7.25 -4.421875 C 7.25 -5.097656 7.0625 -5.648438 6.6875 -6.078125 C 6.320312 -6.515625 5.847656 -6.734375 5.265625 -6.734375 Z M 5.265625 -6.734375 "/></g></g></g><g fill="#000000" fill-opacity="1"><g transform="translate(161.190655, 75.995064)"><g><path d="M 5.265625 -9 C 6.710938 -9 7.878906 -8.582031 8.765625 -7.75 C 9.660156 -6.914062 10.109375 -5.816406 10.109375 -4.453125 C 10.109375 -3.085938 9.660156 -1.988281 8.765625 -1.15625 C 7.878906 -0.320312 6.710938 0.09375 5.265625 0.09375 C 3.796875 0.09375 2.613281 -0.320312 1.71875 -1.15625 C 0.832031 -1.988281 0.390625 -3.085938 0.390625 -4.453125 C 0.390625 -5.816406 0.832031 -6.914062 1.71875 -7.75 C 2.613281 -8.582031 3.796875 -9 5.265625 -9 Z M 5.265625 -6.734375 C 4.671875 -6.734375 4.1875 -6.515625 3.8125 -6.078125 C 3.445312 -5.648438 3.265625 -5.097656 3.265625 -4.421875 C 3.265625 -3.722656 3.445312 -3.160156 3.8125 -2.734375 C 4.1875 -2.316406 4.671875 -2.109375 5.265625 -2.109375 C 5.847656 -2.109375 6.320312 -2.316406 6.6875 -2.734375 C 7.0625 -3.160156 7.25 -3.722656 7.25 -4.421875 C 7.25 -5.097656 7.0625 -5.648438 6.6875 -6.078125 C 6.320312 -6.515625 5.847656 -6.734375 5.265625 -6.734375 Z M 5.265625 -6.734375 "/></g></g></g><g fill="#000000" fill-opacity="1"><g transform="translate(171.704183, 75.995064)"><g><path d="M 4.078125 0 L 1.21875 0 L 1.21875 -12.25 L 4.078125 -12.25 Z M 4.078125 0 "/></g></g></g><g fill="#000000" fill-opacity="1"><g transform="translate(177.002204, 75.995064)"><g/></g></g><g fill="#000000" fill-opacity="1"><g transform="translate(180.831315, 75.995064)"><g><path d="M 5.265625 -9 C 6.710938 -9 7.878906 -8.582031 8.765625 -7.75 C 9.660156 -6.914062 10.109375 -5.816406 10.109375 -4.453125 C 10.109375 -3.085938 9.660156 -1.988281 8.765625 -1.15625 C 7.878906 -0.320312 6.710938 0.09375 5.265625 0.09375 C 3.796875 0.09375 2.613281 -0.320312 1.71875 -1.15625 C 0.832031 -1.988281 0.390625 -3.085938 0.390625 -4.453125 C 0.390625 -5.816406 0.832031 -6.914062 1.71875 -7.75 C 2.613281 -8.582031 3.796875 -9 5.265625 -9 Z M 5.265625 -6.734375 C 4.671875 -6.734375 4.1875 -6.515625 3.8125 -6.078125 C 3.445312 -5.648438 3.265625 -5.097656 3.265625 -4.421875 C 3.265625 -3.722656 3.445312 -3.160156 3.8125 -2.734375 C 4.1875 -2.316406 4.671875 -2.109375 5.265625 -2.109375 C 5.847656 -2.109375 6.320312 -2.316406 6.6875 -2.734375 C 7.0625 -3.160156 7.25 -3.722656 7.25 -4.421875 C 7.25 -5.097656 7.0625 -5.648438 6.6875 -6.078125 C 6.320312 -6.515625 5.847656 -6.734375 5.265625 -6.734375 Z M 5.265625 -6.734375 "/></g></g></g><g fill="#000000" fill-opacity="1"><g transform="translate(191.344843, 75.995064)"><g><path d="M 5.515625 -10.109375 C 5.210938 -10.117188 4.960938 -10.039062 4.765625 -9.875 C 4.578125 -9.707031 4.484375 -9.460938 4.484375 -9.140625 L 4.484375 -8.5 L 6.5 -8.5 L 6.5 -6.609375 L 4.484375 -6.609375 L 4.484375 0 L 1.671875 0 L 1.671875 -6.609375 L 0.46875 -6.609375 L 0.46875 -8.5 L 1.671875 -8.5 L 1.671875 -9.328125 C 1.671875 -10.285156 1.988281 -11.03125 2.625 -11.5625 C 3.257812 -12.101562 4.070312 -12.375 5.0625 -12.375 C 6.007812 -12.375 6.84375 -12.164062 7.5625 -11.75 L 6.546875 -9.75 C 6.222656 -9.988281 5.878906 -10.109375 5.515625 -10.109375 Z M 5.515625 -10.109375 "/></g></g></g><g fill="#000000" fill-opacity="1"><g transform="translate(119.582166, 98.935521)"><g><path d="M 13.84375 0 L 11.25 0 L 11.234375 -7.5 L 8.46875 -1.15625 L 6.546875 -1.15625 L 3.78125 -7.5 L 3.78125 0 L 1.15625 0 L 1.15625 -11.5625 L 4.375 -11.5625 L 7.5 -4.6875 L 10.640625 -11.5625 L 13.84375 -11.5625 Z M 13.84375 0 "/></g></g></g><g fill="#000000" fill-opacity="1"><g transform="translate(134.601486, 98.935521)"><g><path d="M 5.125 -9.03125 C 6.351562 -9.03125 7.304688 -8.742188 7.984375 -8.171875 C 8.660156 -7.609375 9.003906 -6.820312 9.015625 -5.8125 L 9.015625 0 L 6.21875 0 L 6.21875 -1.015625 C 5.632812 -0.253906 4.726562 0.125 3.5 0.125 C 2.5625 0.125 1.816406 -0.128906 1.265625 -0.640625 C 0.722656 -1.160156 0.453125 -1.832031 0.453125 -2.65625 C 0.453125 -3.5 0.742188 -4.15625 1.328125 -4.625 C 1.921875 -5.09375 2.765625 -5.332031 3.859375 -5.34375 L 6.203125 -5.34375 L 6.203125 -5.484375 C 6.203125 -5.921875 6.054688 -6.257812 5.765625 -6.5 C 5.472656 -6.75 5.039062 -6.875 4.46875 -6.875 C 3.664062 -6.875 2.78125 -6.628906 1.8125 -6.140625 L 1 -8.015625 C 2.445312 -8.691406 3.820312 -9.03125 5.125 -9.03125 Z M 4.375 -1.796875 C 4.820312 -1.796875 5.21875 -1.90625 5.5625 -2.125 C 5.90625 -2.351562 6.117188 -2.648438 6.203125 -3.015625 L 6.203125 -3.8125 L 4.40625 -3.8125 C 3.550781 -3.8125 3.125 -3.492188 3.125 -2.859375 C 3.125 -2.523438 3.234375 -2.265625 3.453125 -2.078125 C 3.671875 -1.890625 3.976562 -1.796875 4.375 -1.796875 Z M 4.375 -1.796875 "/></g></g></g><g fill="#000000" fill-opacity="1"><g transform="translate(144.504347, 98.935521)"><g><path d="M 5.015625 -9 C 5.898438 -9 6.6875 -8.820312 7.375 -8.46875 C 8.0625 -8.125 8.59375 -7.632812 8.96875 -7 L 6.9375 -5.765625 C 6.488281 -6.378906 5.882812 -6.6875 5.125 -6.6875 C 4.582031 -6.6875 4.132812 -6.476562 3.78125 -6.0625 C 3.4375 -5.644531 3.265625 -5.101562 3.265625 -4.4375 C 3.265625 -3.757812 3.4375 -3.210938 3.78125 -2.796875 C 4.125 -2.378906 4.570312 -2.171875 5.125 -2.171875 C 5.96875 -2.171875 6.578125 -2.507812 6.953125 -3.1875 L 9.03125 -1.96875 C 8.664062 -1.300781 8.132812 -0.789062 7.4375 -0.4375 C 6.738281 -0.0820312 5.921875 0.09375 4.984375 0.09375 C 3.609375 0.09375 2.5 -0.316406 1.65625 -1.140625 C 0.8125 -1.972656 0.390625 -3.066406 0.390625 -4.421875 C 0.390625 -5.785156 0.816406 -6.890625 1.671875 -7.734375 C 2.523438 -8.578125 3.640625 -9 5.015625 -9 Z M 5.015625 -9 "/></g></g></g><g fill="#000000" fill-opacity="1"><g transform="translate(153.780025, 98.935521)"><g><path d="M 7.0625 -9.03125 C 8.039062 -9.03125 8.828125 -8.71875 9.421875 -8.09375 C 10.015625 -7.46875 10.3125 -6.640625 10.3125 -5.609375 L 10.3125 0 L 7.453125 0 L 7.453125 -4.8125 C 7.453125 -5.332031 7.3125 -5.742188 7.03125 -6.046875 C 6.75 -6.347656 6.367188 -6.5 5.890625 -6.5 C 5.335938 -6.5 4.894531 -6.300781 4.5625 -5.90625 C 4.238281 -5.507812 4.078125 -5.003906 4.078125 -4.390625 L 4.078125 0 L 1.21875 0 L 1.21875 -12.25 L 4.078125 -12.25 L 4.078125 -7.421875 C 4.703125 -8.472656 5.695312 -9.007812 7.0625 -9.03125 Z M 7.0625 -9.03125 "/></g></g></g><g fill="#000000" fill-opacity="1"><g transform="translate(164.970251, 98.935521)"><g><path d="M 1.484375 -12.53125 C 1.765625 -12.8125 2.125 -12.953125 2.5625 -12.953125 C 3.007812 -12.953125 3.375 -12.8125 3.65625 -12.53125 C 3.9375 -12.25 4.078125 -11.890625 4.078125 -11.453125 C 4.078125 -11.015625 3.9375 -10.648438 3.65625 -10.359375 C 3.375 -10.078125 3.007812 -9.9375 2.5625 -9.9375 C 2.125 -9.9375 1.765625 -10.078125 1.484375 -10.359375 C 1.210938 -10.648438 1.078125 -11.015625 1.078125 -11.453125 C 1.078125 -11.890625 1.210938 -12.25 1.484375 -12.53125 Z M 3.96875 0 L 1.140625 0 L 1.140625 -8.890625 L 3.96875 -8.890625 Z M 3.96875 0 "/></g></g></g><g fill="#000000" fill-opacity="1"><g transform="translate(170.103227, 98.935521)"><g><path d="M 6.96875 -9.03125 C 7.945312 -9.03125 8.734375 -8.71875 9.328125 -8.09375 C 9.921875 -7.46875 10.21875 -6.640625 10.21875 -5.609375 L 10.21875 0 L 7.375 0 L 7.375 -4.8125 C 7.375 -5.332031 7.234375 -5.742188 6.953125 -6.046875 C 6.671875 -6.347656 6.289062 -6.5 5.8125 -6.5 C 5.300781 -6.5 4.882812 -6.332031 4.5625 -6 C 4.238281 -5.675781 4.050781 -5.242188 4 -4.703125 L 4 0 L 1.140625 0 L 1.140625 -8.890625 L 4 -8.890625 L 4 -7.4375 C 4.625 -8.476562 5.613281 -9.007812 6.96875 -9.03125 Z M 6.96875 -9.03125 "/></g></g></g><g fill="#000000" fill-opacity="1"><g transform="translate(181.210922, 98.935521)"><g><path d="M 5.03125 -9 C 6.570312 -9 7.726562 -8.523438 8.5 -7.578125 C 9.28125 -6.628906 9.617188 -5.328125 9.515625 -3.671875 L 3.265625 -3.671875 C 3.410156 -3.148438 3.664062 -2.742188 4.03125 -2.453125 C 4.394531 -2.171875 4.835938 -2.03125 5.359375 -2.03125 C 6.171875 -2.03125 6.878906 -2.332031 7.484375 -2.9375 L 9 -1.46875 C 8.039062 -0.425781 6.742188 0.09375 5.109375 0.09375 C 3.671875 0.09375 2.523438 -0.316406 1.671875 -1.140625 C 0.816406 -1.960938 0.390625 -3.054688 0.390625 -4.421875 C 0.390625 -5.796875 0.816406 -6.898438 1.671875 -7.734375 C 2.523438 -8.578125 3.644531 -9 5.03125 -9 Z M 3.21875 -5.21875 L 6.78125 -5.21875 C 6.78125 -5.75 6.625 -6.179688 6.3125 -6.515625 C 6 -6.847656 5.582031 -7.015625 5.0625 -7.015625 C 4.582031 -7.015625 4.175781 -6.847656 3.84375 -6.515625 C 3.507812 -6.191406 3.300781 -5.757812 3.21875 -5.21875 Z M 3.21875 -5.21875 "/></g></g></g><g fill="#000000" fill-opacity="1"><g transform="translate(191.146782, 98.935521)"><g/></g></g><g fill="#000000" fill-opacity="1"><g transform="translate(194.975893, 98.935521)"><g><path d="M 4.09375 -2.453125 L 9 -2.453125 L 9 0 L 1.15625 0 L 1.15625 -11.546875 L 4.09375 -11.546875 Z M 4.09375 -2.453125 "/></g></g></g><g fill="#000000" fill-opacity="1"><g transform="translate(204.218556, 98.935521)"><g><path d="M 5.03125 -9 C 6.570312 -9 7.726562 -8.523438 8.5 -7.578125 C 9.28125 -6.628906 9.617188 -5.328125 9.515625 -3.671875 L 3.265625 -3.671875 C 3.410156 -3.148438 3.664062 -2.742188 4.03125 -2.453125 C 4.394531 -2.171875 4.835938 -2.03125 5.359375 -2.03125 C 6.171875 -2.03125 6.878906 -2.332031 7.484375 -2.9375 L 9 -1.46875 C 8.039062 -0.425781 6.742188 0.09375 5.109375 0.09375 C 3.671875 0.09375 2.523438 -0.316406 1.671875 -1.140625 C 0.816406 -1.960938 0.390625 -3.054688 0.390625 -4.421875 C 0.390625 -5.796875 0.816406 -6.898438 1.671875 -7.734375 C 2.523438 -8.578125 3.644531 -9 5.03125 -9 Z M 3.21875 -5.21875 L 6.78125 -5.21875 C 6.78125 -5.75 6.625 -6.179688 6.3125 -6.515625 C 6 -6.847656 5.582031 -7.015625 5.0625 -7.015625 C 4.582031 -7.015625 4.175781 -6.847656 3.84375 -6.515625 C 3.507812 -6.191406 3.300781 -5.757812 3.21875 -5.21875 Z M 3.21875 -5.21875 "/></g></g></g><g fill="#000000" fill-opacity="1"><g transform="translate(214.154416, 98.935521)"><g><path d="M 5.125 -9.03125 C 6.351562 -9.03125 7.304688 -8.742188 7.984375 -8.171875 C 8.660156 -7.609375 9.003906 -6.820312 9.015625 -5.8125 L 9.015625 0 L 6.21875 0 L 6.21875 -1.015625 C 5.632812 -0.253906 4.726562 0.125 3.5 0.125 C 2.5625 0.125 1.816406 -0.128906 1.265625 -0.640625 C 0.722656 -1.160156 0.453125 -1.832031 0.453125 -2.65625 C 0.453125 -3.5 0.742188 -4.15625 1.328125 -4.625 C 1.921875 -5.09375 2.765625 -5.332031 3.859375 -5.34375 L 6.203125 -5.34375 L 6.203125 -5.484375 C 6.203125 -5.921875 6.054688 -6.257812 5.765625 -6.5 C 5.472656 -6.75 5.039062 -6.875 4.46875 -6.875 C 3.664062 -6.875 2.78125 -6.628906 1.8125 -6.140625 L 1 -8.015625 C 2.445312 -8.691406 3.820312 -9.03125 5.125 -9.03125 Z M 4.375 -1.796875 C 4.820312 -1.796875 5.21875 -1.90625 5.5625 -2.125 C 5.90625 -2.351562 6.117188 -2.648438 6.203125 -3.015625 L 6.203125 -3.8125 L 4.40625 -3.8125 C 3.550781 -3.8125 3.125 -3.492188 3.125 -2.859375 C 3.125 -2.523438 3.234375 -2.265625 3.453125 -2.078125 C 3.671875 -1.890625 3.976562 -1.796875 4.375 -1.796875 Z M 4.375 -1.796875 "/></g></g></g><g fill="#000000" fill-opacity="1"><g transform="translate(224.057277, 98.935521)"><g><path d="M 4 -8.890625 L 4 -7.390625 C 4.625 -8.460938 5.582031 -9.007812 6.875 -9.03125 L 6.875 -6.453125 C 6.0625 -6.523438 5.394531 -6.390625 4.875 -6.046875 C 4.363281 -5.703125 4.070312 -5.210938 4 -4.578125 L 4 0 L 1.140625 0 L 1.140625 -8.890625 Z M 4 -8.890625 "/></g></g></g><g fill="#000000" fill-opacity="1"><g transform="translate(231.1048, 98.935521)"><g><path d="M 6.96875 -9.03125 C 7.945312 -9.03125 8.734375 -8.71875 9.328125 -8.09375 C 9.921875 -7.46875 10.21875 -6.640625 10.21875 -5.609375 L 10.21875 0 L 7.375 0 L 7.375 -4.8125 C 7.375 -5.332031 7.234375 -5.742188 6.953125 -6.046875 C 6.671875 -6.347656 6.289062 -6.5 5.8125 -6.5 C 5.300781 -6.5 4.882812 -6.332031 4.5625 -6 C 4.238281 -5.675781 4.050781 -5.242188 4 -4.703125 L 4 0 L 1.140625 0 L 1.140625 -8.890625 L 4 -8.890625 L 4 -7.4375 C 4.625 -8.476562 5.613281 -9.007812 6.96875 -9.03125 Z M 6.96875 -9.03125 "/></g></g></g><g fill="#000000" fill-opacity="1"><g transform="translate(242.212495, 98.935521)"><g><path d="M 1.484375 -12.53125 C 1.765625 -12.8125 2.125 -12.953125 2.5625 -12.953125 C 3.007812 -12.953125 3.375 -12.8125 3.65625 -12.53125 C 3.9375 -12.25 4.078125 -11.890625 4.078125 -11.453125 C 4.078125 -11.015625 3.9375 -10.648438 3.65625 -10.359375 C 3.375 -10.078125 3.007812 -9.9375 2.5625 -9.9375 C 2.125 -9.9375 1.765625 -10.078125 1.484375 -10.359375 C 1.210938 -10.648438 1.078125 -11.015625 1.078125 -11.453125 C 1.078125 -11.890625 1.210938 -12.25 1.484375 -12.53125 Z M 3.96875 0 L 1.140625 0 L 1.140625 -8.890625 L 3.96875 -8.890625 Z M 3.96875 0 "/></g></g></g><g fill="#000000" fill-opacity="1"><g transform="translate(247.345471, 98.935521)"><g><path d="M 6.96875 -9.03125 C 7.945312 -9.03125 8.734375 -8.71875 9.328125 -8.09375 C 9.921875 -7.46875 10.21875 -6.640625 10.21875 -5.609375 L 10.21875 0 L 7.375 0 L 7.375 -4.8125 C 7.375 -5.332031 7.234375 -5.742188 6.953125 -6.046875 C 6.671875 -6.347656 6.289062 -6.5 5.8125 -6.5 C 5.300781 -6.5 4.882812 -6.332031 4.5625 -6 C 4.238281 -5.675781 4.050781 -5.242188 4 -4.703125 L 4 0 L 1.140625 0 L 1.140625 -8.890625 L 4 -8.890625 L 4 -7.4375 C 4.625 -8.476562 5.613281 -9.007812 6.96875 -9.03125 Z M 6.96875 -9.03125 "/></g></g></g><g fill="#000000" fill-opacity="1"><g transform="translate(258.453166, 98.935521)"><g><path d="M 9.640625 -8.890625 L 9.640625 -0.8125 C 9.640625 0.445312 9.195312 1.445312 8.3125 2.1875 C 7.425781 2.9375 6.257812 3.3125 4.8125 3.3125 C 3.34375 3.3125 2.023438 2.921875 0.859375 2.140625 L 1.84375 0.21875 C 2.707031 0.8125 3.628906 1.109375 4.609375 1.109375 C 5.285156 1.109375 5.816406 0.941406 6.203125 0.609375 C 6.597656 0.273438 6.796875 -0.164062 6.796875 -0.71875 L 6.796875 -1.671875 C 6.191406 -0.878906 5.335938 -0.484375 4.234375 -0.484375 C 3.109375 -0.484375 2.1875 -0.878906 1.46875 -1.671875 C 0.757812 -2.460938 0.40625 -3.5 0.40625 -4.78125 C 0.40625 -6.039062 0.75 -7.054688 1.4375 -7.828125 C 2.132812 -8.609375 3.046875 -9 4.171875 -9 C 5.304688 -9.007812 6.179688 -8.609375 6.796875 -7.796875 L 6.796875 -8.890625 Z M 4.953125 -2.546875 C 5.503906 -2.546875 5.945312 -2.742188 6.28125 -3.140625 C 6.625 -3.546875 6.796875 -4.066406 6.796875 -4.703125 C 6.796875 -5.347656 6.625 -5.867188 6.28125 -6.265625 C 5.945312 -6.671875 5.503906 -6.875 4.953125 -6.875 C 4.390625 -6.875 3.929688 -6.671875 3.578125 -6.265625 C 3.234375 -5.867188 3.0625 -5.347656 3.0625 -4.703125 C 3.0625 -4.066406 3.234375 -3.546875 3.578125 -3.140625 C 3.929688 -2.742188 4.390625 -2.546875 4.953125 -2.546875 Z M 4.953125 -2.546875 "/></g></g></g></svg>