<svg xmlns="http://www.w3.org/2000/svg" xmlns:xlink="http://www.w3.org/1999/xlink" width="1080" zoomAndPan="magnify" viewBox="0 0 810 809.999993" height="1080" preserveAspectRatio="xMidYMid meet" version="1.0"><defs><g/><clipPath id="6ae6eedc61"><path d="M 0 192.269531 L 268.972656 192.269531 L 268.972656 460.175781 L 0 460.175781 Z M 0 192.269531 " clip-rule="nonzero"/></clipPath></defs><g clip-path="url(#6ae6eedc61)"><path fill="#370909" d="M 0 192.269531 L 268.949219 192.269531 L 268.949219 460.175781 L 0 460.175781 Z M 0 192.269531 " fill-opacity="1" fill-rule="nonzero"/></g><g fill="#ffffff" fill-opacity="1"><g transform="translate(28.114862, 334.133039)"><g><path d="M 49.4375 0 L 43.984375 -15.703125 L 20.546875 -15.703125 L 15.09375 0 L 2.21875 0 L 24.65625 -61.484375 L 39.84375 -61.484375 L 62.1875 0 Z M 32.25 -52.015625 L 31.984375 -51.0625 C 31.691406 -50.007812 31.34375 -48.8125 30.9375 -47.46875 C 30.53125 -46.132812 28.03125 -38.78125 23.4375 -25.40625 L 41.109375 -25.40625 L 35.046875 -43.078125 L 33.171875 -49.015625 Z M 32.25 -52.015625 "/></g></g></g><g fill="#ffffff" fill-opacity="1"><g transform="translate(92.645481, 334.133039)"><g><path d="M 6.234375 -55.734375 L 6.234375 -64.765625 L 18.5 -64.765625 L 18.5 -55.734375 Z M 6.234375 0 L 6.234375 -47.21875 L 18.5 -47.21875 L 18.5 0 Z M 6.234375 0 "/></g></g></g><g fill="#ffffff" fill-opacity="1"><g transform="translate(117.471663, 334.133039)"><g><path d="M 57.03125 0 L 57.03125 -37.265625 C 57.03125 -38.109375 57.035156 -38.953125 57.046875 -39.796875 C 57.066406 -40.640625 57.207031 -44.265625 57.46875 -50.671875 C 55.40625 -42.835938 53.878906 -37.378906 52.890625 -34.296875 L 41.8125 0 L 32.640625 0 L 21.5625 -34.296875 L 16.890625 -50.671875 C 17.234375 -43.921875 17.40625 -39.453125 17.40625 -37.265625 L 17.40625 0 L 5.984375 0 L 5.984375 -61.484375 L 23.21875 -61.484375 L 34.21875 -27.09375 L 35.171875 -23.78125 L 37.265625 -15.53125 L 40.015625 -25.40625 L 51.328125 -61.484375 L 68.46875 -61.484375 L 68.46875 0 Z M 57.03125 0 "/></g></g></g><g fill="#ffffff" fill-opacity="1"><g transform="translate(191.906576, 334.133039)"><g><path d="M 5.984375 0 L 5.984375 -61.484375 L 18.859375 -61.484375 L 18.859375 -9.953125 L 51.84375 -9.953125 L 51.84375 0 Z M 5.984375 0 "/></g></g></g><g fill="#ffffff" fill-opacity="1"><g transform="translate(28.114862, 369.080119)"><g><path d="M 14.703125 -3.921875 C 17.992188 -3.921875 20.285156 -5.570312 21.578125 -8.875 L 26.328125 -7.09375 C 25.304688 -4.570312 23.804688 -2.695312 21.828125 -1.46875 C 19.847656 -0.238281 17.472656 0.375 14.703125 0.375 C 10.515625 0.375 7.273438 -0.8125 4.984375 -3.1875 C 2.691406 -5.5625 1.546875 -8.882812 1.546875 -13.15625 C 1.546875 -17.4375 2.648438 -20.722656 4.859375 -23.015625 C 7.066406 -25.304688 10.269531 -26.453125 14.46875 -26.453125 C 17.53125 -26.453125 20.019531 -25.835938 21.9375 -24.609375 C 23.863281 -23.390625 25.21875 -21.585938 26 -19.203125 L 21.1875 -17.890625 C 20.78125 -19.203125 19.976562 -20.242188 18.78125 -21.015625 C 17.59375 -21.785156 16.191406 -22.171875 14.578125 -22.171875 C 12.109375 -22.171875 10.234375 -21.40625 8.953125 -19.875 C 7.679688 -18.34375 7.046875 -16.101562 7.046875 -13.15625 C 7.046875 -10.15625 7.703125 -7.863281 9.015625 -6.28125 C 10.328125 -4.707031 12.222656 -3.921875 14.703125 -3.921875 Z M 14.703125 -3.921875 "/></g></g></g><g fill="#ffffff" fill-opacity="1"><g transform="translate(55.477919, 369.080119)"><g><path d="M 7.265625 0.375 C 5.328125 0.375 3.816406 -0.148438 2.734375 -1.203125 C 1.648438 -2.265625 1.109375 -3.75 1.109375 -5.65625 C 1.109375 -7.726562 1.78125 -9.304688 3.125 -10.390625 C 4.476562 -11.484375 6.441406 -12.039062 9.015625 -12.0625 L 13.328125 -12.140625 L 13.328125 -13.15625 C 13.328125 -14.457031 13.097656 -15.425781 12.640625 -16.0625 C 12.179688 -16.695312 11.429688 -17.015625 10.390625 -17.015625 C 9.429688 -17.015625 8.726562 -16.796875 8.28125 -16.359375 C 7.832031 -15.921875 7.550781 -15.195312 7.4375 -14.1875 L 2.015625 -14.453125 C 2.347656 -16.398438 3.238281 -17.875 4.6875 -18.875 C 6.132812 -19.882812 8.113281 -20.390625 10.625 -20.390625 C 13.144531 -20.390625 15.085938 -19.765625 16.453125 -18.515625 C 17.828125 -17.273438 18.515625 -15.503906 18.515625 -13.203125 L 18.515625 -5.921875 C 18.515625 -4.796875 18.640625 -4.019531 18.890625 -3.59375 C 19.148438 -3.164062 19.578125 -2.953125 20.171875 -2.953125 C 20.566406 -2.953125 20.945312 -2.992188 21.3125 -3.078125 L 21.3125 -0.265625 C 21 -0.179688 20.71875 -0.109375 20.46875 -0.046875 C 20.226562 0.00390625 19.984375 0.046875 19.734375 0.078125 C 19.492188 0.117188 19.234375 0.148438 18.953125 0.171875 C 18.671875 0.203125 18.347656 0.21875 17.984375 0.21875 C 16.671875 0.21875 15.703125 -0.0976562 15.078125 -0.734375 C 14.460938 -1.378906 14.09375 -2.328125 13.96875 -3.578125 L 13.859375 -3.578125 C 12.398438 -0.941406 10.203125 0.375 7.265625 0.375 Z M 13.328125 -9.265625 L 10.65625 -9.234375 C 9.445312 -9.179688 8.585938 -9.046875 8.078125 -8.828125 C 7.578125 -8.617188 7.191406 -8.289062 6.921875 -7.84375 C 6.660156 -7.394531 6.53125 -6.800781 6.53125 -6.0625 C 6.53125 -5.113281 6.75 -4.40625 7.1875 -3.9375 C 7.625 -3.476562 8.207031 -3.25 8.9375 -3.25 C 9.75 -3.25 10.488281 -3.472656 11.15625 -3.921875 C 11.832031 -4.367188 12.363281 -4.984375 12.75 -5.765625 C 13.132812 -6.546875 13.328125 -7.375 13.328125 -8.25 Z M 13.328125 -9.265625 "/></g></g></g><g fill="#ffffff" fill-opacity="1"><g transform="translate(76.550622, 369.080119)"><g><path d="M 14.4375 0 L 14.4375 -11.234375 C 14.4375 -14.742188 13.421875 -16.5 11.390625 -16.5 C 10.347656 -16.5 9.492188 -15.960938 8.828125 -14.890625 C 8.171875 -13.816406 7.84375 -12.429688 7.84375 -10.734375 L 7.84375 0 L 2.640625 0 L 2.640625 -15.546875 C 2.640625 -16.617188 2.625 -17.492188 2.59375 -18.171875 C 2.5625 -18.859375 2.53125 -19.472656 2.5 -20.015625 L 7.453125 -20.015625 C 7.492188 -19.785156 7.546875 -19.160156 7.609375 -18.140625 C 7.671875 -17.117188 7.703125 -16.421875 7.703125 -16.046875 L 7.765625 -16.046875 C 8.410156 -17.566406 9.207031 -18.671875 10.15625 -19.359375 C 11.113281 -20.054688 12.257812 -20.40625 13.59375 -20.40625 C 16.65625 -20.40625 18.515625 -18.953125 19.171875 -16.046875 L 19.28125 -16.046875 C 19.957031 -17.597656 20.769531 -18.710938 21.71875 -19.390625 C 22.664062 -20.066406 23.875 -20.40625 25.34375 -20.40625 C 27.289062 -20.40625 28.773438 -19.738281 29.796875 -18.40625 C 30.828125 -17.082031 31.34375 -15.179688 31.34375 -12.703125 L 31.34375 0 L 26.171875 0 L 26.171875 -11.234375 C 26.171875 -14.742188 25.160156 -16.5 23.140625 -16.5 C 22.128906 -16.5 21.300781 -16.007812 20.65625 -15.03125 C 20.007812 -14.050781 19.65625 -12.695312 19.59375 -10.96875 L 19.59375 0 Z M 14.4375 0 "/></g></g></g><g fill="#ffffff" fill-opacity="1"><g transform="translate(110.241034, 369.080119)"><g><path d="M 21.59375 -10.109375 C 21.59375 -6.765625 20.921875 -4.179688 19.578125 -2.359375 C 18.242188 -0.535156 16.351562 0.375 13.90625 0.375 C 12.5 0.375 11.273438 0.0664062 10.234375 -0.546875 C 9.191406 -1.160156 8.394531 -2.039062 7.84375 -3.1875 L 7.734375 -3.1875 C 7.804688 -2.8125 7.84375 -1.6875 7.84375 0.1875 L 7.84375 7.859375 L 2.640625 7.859375 L 2.640625 -15.40625 C 2.640625 -17.300781 2.59375 -18.835938 2.5 -20.015625 L 7.546875 -20.015625 C 7.609375 -19.796875 7.660156 -19.359375 7.703125 -18.703125 C 7.742188 -18.046875 7.765625 -17.398438 7.765625 -16.765625 L 7.84375 -16.765625 C 9.019531 -19.210938 11.15625 -20.4375 14.25 -20.4375 C 16.582031 -20.4375 18.390625 -19.539062 19.671875 -17.75 C 20.953125 -15.957031 21.59375 -13.410156 21.59375 -10.109375 Z M 16.171875 -10.109375 C 16.171875 -14.597656 14.796875 -16.84375 12.046875 -16.84375 C 10.660156 -16.84375 9.597656 -16.234375 8.859375 -15.015625 C 8.128906 -13.804688 7.765625 -12.117188 7.765625 -9.953125 C 7.765625 -7.796875 8.128906 -6.128906 8.859375 -4.953125 C 9.597656 -3.773438 10.644531 -3.1875 12 -3.1875 C 14.78125 -3.1875 16.171875 -5.492188 16.171875 -10.109375 Z M 16.171875 -10.109375 "/></g></g></g><g fill="#ffffff" fill-opacity="1"><g transform="translate(133.385854, 369.080119)"><g><path d="M 7.546875 -20.015625 L 7.546875 -8.78125 C 7.546875 -5.269531 8.726562 -3.515625 11.09375 -3.515625 C 12.351562 -3.515625 13.367188 -4.050781 14.140625 -5.125 C 14.910156 -6.207031 15.296875 -7.59375 15.296875 -9.28125 L 15.296875 -20.015625 L 20.5 -20.015625 L 20.5 -4.484375 C 20.5 -2.773438 20.546875 -1.28125 20.640625 0 L 15.6875 0 C 15.539062 -1.78125 15.46875 -3.109375 15.46875 -3.984375 L 15.375 -3.984375 C 14.6875 -2.460938 13.804688 -1.351562 12.734375 -0.65625 C 11.671875 0.03125 10.40625 0.375 8.9375 0.375 C 6.8125 0.375 5.179688 -0.273438 4.046875 -1.578125 C 2.910156 -2.878906 2.34375 -4.789062 2.34375 -7.3125 L 2.34375 -20.015625 Z M 7.546875 -20.015625 "/></g></g></g><g fill="#ffffff" fill-opacity="1"><g transform="translate(156.530674, 369.080119)"><g><path d="M 19.515625 -5.84375 C 19.515625 -3.90625 18.722656 -2.382812 17.140625 -1.28125 C 15.554688 -0.175781 13.363281 0.375 10.5625 0.375 C 7.8125 0.375 5.703125 -0.0546875 4.234375 -0.921875 C 2.773438 -1.796875 1.804688 -3.15625 1.328125 -5 L 5.90625 -5.6875 C 6.164062 -4.726562 6.613281 -4.050781 7.25 -3.65625 C 7.882812 -3.269531 8.988281 -3.078125 10.5625 -3.078125 C 12.019531 -3.078125 13.082031 -3.257812 13.75 -3.625 C 14.414062 -4 14.75 -4.578125 14.75 -5.359375 C 14.75 -6.003906 14.476562 -6.515625 13.9375 -6.890625 C 13.40625 -7.265625 12.5 -7.582031 11.21875 -7.84375 C 8.28125 -8.425781 6.296875 -8.96875 5.265625 -9.46875 C 4.242188 -9.96875 3.460938 -10.613281 2.921875 -11.40625 C 2.390625 -12.195312 2.125 -13.175781 2.125 -14.34375 C 2.125 -16.25 2.859375 -17.734375 4.328125 -18.796875 C 5.804688 -19.867188 7.894531 -20.40625 10.59375 -20.40625 C 12.976562 -20.40625 14.894531 -19.941406 16.34375 -19.015625 C 17.789062 -18.085938 18.695312 -16.75 19.0625 -15 L 14.453125 -14.53125 C 14.304688 -15.34375 13.941406 -15.945312 13.359375 -16.34375 C 12.773438 -16.75 11.851562 -16.953125 10.59375 -16.953125 C 9.363281 -16.953125 8.441406 -16.789062 7.828125 -16.46875 C 7.210938 -16.15625 6.90625 -15.628906 6.90625 -14.890625 C 6.90625 -14.316406 7.140625 -13.859375 7.609375 -13.515625 C 8.085938 -13.171875 8.890625 -12.890625 10.015625 -12.671875 C 11.578125 -12.347656 12.960938 -12.015625 14.171875 -11.671875 C 15.390625 -11.335938 16.363281 -10.9375 17.09375 -10.46875 C 17.832031 -10 18.421875 -9.394531 18.859375 -8.65625 C 19.296875 -7.925781 19.515625 -6.988281 19.515625 -5.84375 Z M 19.515625 -5.84375 "/></g></g></g><g fill="#ffffff" fill-opacity="1"><g transform="translate(31.269516, 383.691613)"><g><path d="M 4.34375 0 L 4.34375 -2.5 L 1.796875 -2.5 L 1.796875 0 L 0.5625 0 L 0.5625 -5.84375 L 1.796875 -5.84375 L 1.796875 -3.515625 L 4.34375 -3.515625 L 4.34375 -5.84375 L 5.5625 -5.84375 L 5.5625 0 Z M 4.34375 0 "/></g></g><g transform="translate(37.402711, 383.691613)"><g><path d="M 1.6875 -4.484375 L 1.6875 -1.96875 C 1.6875 -1.175781 1.953125 -0.78125 2.484375 -0.78125 C 2.765625 -0.78125 2.992188 -0.898438 3.171875 -1.140625 C 3.347656 -1.390625 3.4375 -1.703125 3.4375 -2.078125 L 3.4375 -4.484375 L 4.59375 -4.484375 L 4.59375 -1 C 4.59375 -0.625 4.601562 -0.289062 4.625 0 L 3.515625 0 C 3.484375 -0.394531 3.46875 -0.691406 3.46875 -0.890625 L 3.453125 -0.890625 C 3.296875 -0.546875 3.097656 -0.296875 2.859375 -0.140625 C 2.617188 0.00390625 2.332031 0.078125 2 0.078125 C 1.53125 0.078125 1.164062 -0.0664062 0.90625 -0.359375 C 0.65625 -0.648438 0.53125 -1.078125 0.53125 -1.640625 L 0.53125 -4.484375 Z M 1.6875 -4.484375 "/></g></g><g transform="translate(42.590424, 383.691613)"><g><path d="M 3.234375 0 L 3.234375 -2.515625 C 3.234375 -3.304688 3.007812 -3.703125 2.5625 -3.703125 C 2.320312 -3.703125 2.128906 -3.582031 1.984375 -3.34375 C 1.835938 -3.101562 1.765625 -2.789062 1.765625 -2.40625 L 1.765625 0 L 0.59375 0 L 0.59375 -3.484375 C 0.59375 -3.722656 0.585938 -3.921875 0.578125 -4.078125 C 0.578125 -4.234375 0.570312 -4.367188 0.5625 -4.484375 L 1.671875 -4.484375 C 1.679688 -4.429688 1.691406 -4.289062 1.703125 -4.0625 C 1.722656 -3.84375 1.734375 -3.6875 1.734375 -3.59375 L 1.75 -3.59375 C 1.882812 -3.9375 2.0625 -4.1875 2.28125 -4.34375 C 2.5 -4.5 2.753906 -4.578125 3.046875 -4.578125 C 3.734375 -4.578125 4.148438 -4.25 4.296875 -3.59375 L 4.328125 -3.59375 C 4.472656 -3.945312 4.648438 -4.195312 4.859375 -4.34375 C 5.078125 -4.5 5.351562 -4.578125 5.6875 -4.578125 C 6.125 -4.578125 6.457031 -4.425781 6.6875 -4.125 C 6.914062 -3.832031 7.03125 -3.40625 7.03125 -2.84375 L 7.03125 0 L 5.875 0 L 5.875 -2.515625 C 5.875 -3.304688 5.644531 -3.703125 5.1875 -3.703125 C 4.96875 -3.703125 4.785156 -3.59375 4.640625 -3.375 C 4.492188 -3.15625 4.410156 -2.851562 4.390625 -2.46875 L 4.390625 0 Z M 3.234375 0 "/></g></g><g transform="translate(50.141843, 383.691613)"><g><path d="M 1.625 0.078125 C 1.195312 0.078125 0.859375 -0.0351562 0.609375 -0.265625 C 0.367188 -0.503906 0.25 -0.835938 0.25 -1.265625 C 0.25 -1.734375 0.398438 -2.085938 0.703125 -2.328125 C 1.003906 -2.578125 1.441406 -2.703125 2.015625 -2.703125 L 2.984375 -2.71875 L 2.984375 -2.953125 C 2.984375 -3.242188 2.929688 -3.457031 2.828125 -3.59375 C 2.734375 -3.738281 2.566406 -3.8125 2.328125 -3.8125 C 2.117188 -3.8125 1.960938 -3.765625 1.859375 -3.671875 C 1.753906 -3.578125 1.691406 -3.414062 1.671875 -3.1875 L 0.453125 -3.234375 C 0.523438 -3.671875 0.722656 -4.003906 1.046875 -4.234375 C 1.378906 -4.460938 1.820312 -4.578125 2.375 -4.578125 C 2.945312 -4.578125 3.382812 -4.4375 3.6875 -4.15625 C 4 -3.875 4.15625 -3.476562 4.15625 -2.96875 L 4.15625 -1.328125 C 4.15625 -1.078125 4.179688 -0.90625 4.234375 -0.8125 C 4.296875 -0.71875 4.394531 -0.671875 4.53125 -0.671875 C 4.613281 -0.671875 4.695312 -0.675781 4.78125 -0.6875 L 4.78125 -0.0625 C 4.707031 -0.0390625 4.644531 -0.0195312 4.59375 0 C 4.539062 0.0078125 4.484375 0.015625 4.421875 0.015625 C 4.367188 0.0234375 4.3125 0.03125 4.25 0.03125 C 4.1875 0.0390625 4.113281 0.046875 4.03125 0.046875 C 3.738281 0.046875 3.519531 -0.0195312 3.375 -0.15625 C 3.238281 -0.300781 3.160156 -0.515625 3.140625 -0.796875 L 3.109375 -0.796875 C 2.785156 -0.210938 2.289062 0.078125 1.625 0.078125 Z M 2.984375 -2.078125 L 2.390625 -2.078125 C 2.117188 -2.054688 1.925781 -2.019531 1.8125 -1.96875 C 1.695312 -1.925781 1.609375 -1.851562 1.546875 -1.75 C 1.492188 -1.65625 1.46875 -1.523438 1.46875 -1.359375 C 1.46875 -1.148438 1.515625 -0.992188 1.609375 -0.890625 C 1.710938 -0.785156 1.84375 -0.734375 2 -0.734375 C 2.1875 -0.734375 2.351562 -0.78125 2.5 -0.875 C 2.65625 -0.976562 2.773438 -1.117188 2.859375 -1.296875 C 2.941406 -1.472656 2.984375 -1.65625 2.984375 -1.84375 Z M 2.984375 -2.078125 "/></g></g><g transform="translate(54.865109, 383.691613)"><g><path d="M 3.5 0 L 3.5 -2.515625 C 3.5 -3.304688 3.234375 -3.703125 2.703125 -3.703125 C 2.421875 -3.703125 2.191406 -3.578125 2.015625 -3.328125 C 1.847656 -3.085938 1.765625 -2.78125 1.765625 -2.40625 L 1.765625 0 L 0.59375 0 L 0.59375 -3.484375 C 0.59375 -3.722656 0.585938 -3.921875 0.578125 -4.078125 C 0.578125 -4.234375 0.570312 -4.367188 0.5625 -4.484375 L 1.671875 -4.484375 C 1.679688 -4.429688 1.691406 -4.289062 1.703125 -4.0625 C 1.722656 -3.84375 1.734375 -3.6875 1.734375 -3.59375 L 1.75 -3.59375 C 1.90625 -3.9375 2.097656 -4.1875 2.328125 -4.34375 C 2.566406 -4.5 2.851562 -4.578125 3.1875 -4.578125 C 3.664062 -4.578125 4.03125 -4.429688 4.28125 -4.140625 C 4.539062 -3.847656 4.671875 -3.414062 4.671875 -2.84375 L 4.671875 0 Z M 3.5 0 "/></g></g><g transform="translate(60.052822, 383.691613)"><g/></g><g transform="translate(62.412381, 383.691613)"><g><path d="M 0.5625 0 L 0.5625 -5.84375 L 1.796875 -5.84375 L 1.796875 0 Z M 0.5625 0 "/></g></g><g transform="translate(64.77194, 383.691613)"><g><path d="M 3.5 0 L 3.5 -2.515625 C 3.5 -3.304688 3.234375 -3.703125 2.703125 -3.703125 C 2.421875 -3.703125 2.191406 -3.578125 2.015625 -3.328125 C 1.847656 -3.085938 1.765625 -2.78125 1.765625 -2.40625 L 1.765625 0 L 0.59375 0 L 0.59375 -3.484375 C 0.59375 -3.722656 0.585938 -3.921875 0.578125 -4.078125 C 0.578125 -4.234375 0.570312 -4.367188 0.5625 -4.484375 L 1.671875 -4.484375 C 1.679688 -4.429688 1.691406 -4.289062 1.703125 -4.0625 C 1.722656 -3.84375 1.734375 -3.6875 1.734375 -3.59375 L 1.75 -3.59375 C 1.90625 -3.9375 2.097656 -4.1875 2.328125 -4.34375 C 2.566406 -4.5 2.851562 -4.578125 3.1875 -4.578125 C 3.664062 -4.578125 4.03125 -4.429688 4.28125 -4.140625 C 4.539062 -3.847656 4.671875 -3.414062 4.671875 -2.84375 L 4.671875 0 Z M 3.5 0 "/></g></g><g transform="translate(69.959653, 383.691613)"><g><path d="M 1.75 0.078125 C 1.40625 0.078125 1.140625 -0.015625 0.953125 -0.203125 C 0.765625 -0.390625 0.671875 -0.671875 0.671875 -1.046875 L 0.671875 -3.703125 L 0.109375 -3.703125 L 0.109375 -4.484375 L 0.734375 -4.484375 L 1.09375 -5.546875 L 1.828125 -5.546875 L 1.828125 -4.484375 L 2.671875 -4.484375 L 2.671875 -3.703125 L 1.828125 -3.703125 L 1.828125 -1.375 C 1.828125 -1.15625 1.867188 -0.992188 1.953125 -0.890625 C 2.035156 -0.785156 2.164062 -0.734375 2.34375 -0.734375 C 2.425781 -0.734375 2.554688 -0.75 2.734375 -0.78125 L 2.734375 -0.0625 C 2.441406 0.03125 2.113281 0.078125 1.75 0.078125 Z M 1.75 0.078125 "/></g></g><g transform="translate(72.787807, 383.691613)"><g><path d="M 2.4375 0.078125 C 1.757812 0.078125 1.238281 -0.117188 0.875 -0.515625 C 0.507812 -0.910156 0.328125 -1.492188 0.328125 -2.265625 C 0.328125 -3.003906 0.507812 -3.570312 0.875 -3.96875 C 1.25 -4.375 1.773438 -4.578125 2.453125 -4.578125 C 3.097656 -4.578125 3.585938 -4.363281 3.921875 -3.9375 C 4.265625 -3.507812 4.4375 -2.878906 4.4375 -2.046875 L 4.4375 -2.015625 L 1.5625 -2.015625 C 1.5625 -1.578125 1.640625 -1.25 1.796875 -1.03125 C 1.960938 -0.8125 2.191406 -0.703125 2.484375 -0.703125 C 2.898438 -0.703125 3.160156 -0.878906 3.265625 -1.234375 L 4.375 -1.140625 C 4.050781 -0.328125 3.40625 0.078125 2.4375 0.078125 Z M 2.4375 -3.84375 C 2.15625 -3.84375 1.941406 -3.742188 1.796875 -3.546875 C 1.648438 -3.359375 1.570312 -3.09375 1.5625 -2.75 L 3.3125 -2.75 C 3.289062 -3.113281 3.203125 -3.382812 3.046875 -3.5625 C 2.890625 -3.75 2.6875 -3.84375 2.4375 -3.84375 Z M 2.4375 -3.84375 "/></g></g><g transform="translate(77.511072, 383.691613)"><g><path d="M 0.59375 0 L 0.59375 -6.15625 L 1.765625 -6.15625 L 1.765625 0 Z M 0.59375 0 "/></g></g><g transform="translate(79.870631, 383.691613)"><g><path d="M 0.59375 0 L 0.59375 -6.15625 L 1.765625 -6.15625 L 1.765625 0 Z M 0.59375 0 "/></g></g><g transform="translate(82.230191, 383.691613)"><g><path d="M 0.59375 -5.296875 L 0.59375 -6.15625 L 1.765625 -6.15625 L 1.765625 -5.296875 Z M 0.59375 0 L 0.59375 -4.484375 L 1.765625 -4.484375 L 1.765625 0 Z M 0.59375 0 "/></g></g><g transform="translate(84.58975, 383.691613)"><g><path d="M 2.46875 1.796875 C 1.925781 1.796875 1.488281 1.691406 1.15625 1.484375 C 0.820312 1.273438 0.613281 0.976562 0.53125 0.59375 L 1.703125 0.453125 C 1.742188 0.628906 1.832031 0.769531 1.96875 0.875 C 2.101562 0.976562 2.28125 1.03125 2.5 1.03125 C 2.832031 1.03125 3.070312 0.929688 3.21875 0.734375 C 3.363281 0.535156 3.4375 0.238281 3.4375 -0.15625 L 3.4375 -0.390625 L 3.453125 -0.828125 L 3.4375 -0.828125 C 3.1875 -0.285156 2.707031 -0.015625 2 -0.015625 C 1.476562 -0.015625 1.070312 -0.207031 0.78125 -0.59375 C 0.488281 -0.988281 0.34375 -1.550781 0.34375 -2.28125 C 0.34375 -3.007812 0.488281 -3.570312 0.78125 -3.96875 C 1.082031 -4.375 1.515625 -4.578125 2.078125 -4.578125 C 2.734375 -4.578125 3.1875 -4.304688 3.4375 -3.765625 L 3.46875 -3.765625 C 3.46875 -3.859375 3.472656 -3.988281 3.484375 -4.15625 C 3.492188 -4.320312 3.503906 -4.429688 3.515625 -4.484375 L 4.625 -4.484375 C 4.601562 -4.191406 4.59375 -3.847656 4.59375 -3.453125 L 4.59375 -0.140625 C 4.59375 0.503906 4.410156 0.988281 4.046875 1.3125 C 3.691406 1.632812 3.164062 1.796875 2.46875 1.796875 Z M 3.453125 -2.3125 C 3.453125 -2.769531 3.367188 -3.128906 3.203125 -3.390625 C 3.035156 -3.648438 2.800781 -3.78125 2.5 -3.78125 C 1.875 -3.78125 1.5625 -3.28125 1.5625 -2.28125 C 1.5625 -1.300781 1.867188 -0.8125 2.484375 -0.8125 C 2.796875 -0.8125 3.035156 -0.941406 3.203125 -1.203125 C 3.367188 -1.460938 3.453125 -1.832031 3.453125 -2.3125 Z M 3.453125 -2.3125 "/></g></g><g transform="translate(89.777463, 383.691613)"><g><path d="M 2.4375 0.078125 C 1.757812 0.078125 1.238281 -0.117188 0.875 -0.515625 C 0.507812 -0.910156 0.328125 -1.492188 0.328125 -2.265625 C 0.328125 -3.003906 0.507812 -3.570312 0.875 -3.96875 C 1.25 -4.375 1.773438 -4.578125 2.453125 -4.578125 C 3.097656 -4.578125 3.585938 -4.363281 3.921875 -3.9375 C 4.265625 -3.507812 4.4375 -2.878906 4.4375 -2.046875 L 4.4375 -2.015625 L 1.5625 -2.015625 C 1.5625 -1.578125 1.640625 -1.25 1.796875 -1.03125 C 1.960938 -0.8125 2.191406 -0.703125 2.484375 -0.703125 C 2.898438 -0.703125 3.160156 -0.878906 3.265625 -1.234375 L 4.375 -1.140625 C 4.050781 -0.328125 3.40625 0.078125 2.4375 0.078125 Z M 2.4375 -3.84375 C 2.15625 -3.84375 1.941406 -3.742188 1.796875 -3.546875 C 1.648438 -3.359375 1.570312 -3.09375 1.5625 -2.75 L 3.3125 -2.75 C 3.289062 -3.113281 3.203125 -3.382812 3.046875 -3.5625 C 2.890625 -3.75 2.6875 -3.84375 2.4375 -3.84375 Z M 2.4375 -3.84375 "/></g></g><g transform="translate(94.500728, 383.691613)"><g><path d="M 3.5 0 L 3.5 -2.515625 C 3.5 -3.304688 3.234375 -3.703125 2.703125 -3.703125 C 2.421875 -3.703125 2.191406 -3.578125 2.015625 -3.328125 C 1.847656 -3.085938 1.765625 -2.78125 1.765625 -2.40625 L 1.765625 0 L 0.59375 0 L 0.59375 -3.484375 C 0.59375 -3.722656 0.585938 -3.921875 0.578125 -4.078125 C 0.578125 -4.234375 0.570312 -4.367188 0.5625 -4.484375 L 1.671875 -4.484375 C 1.679688 -4.429688 1.691406 -4.289062 1.703125 -4.0625 C 1.722656 -3.84375 1.734375 -3.6875 1.734375 -3.59375 L 1.75 -3.59375 C 1.90625 -3.9375 2.097656 -4.1875 2.328125 -4.34375 C 2.566406 -4.5 2.851562 -4.578125 3.1875 -4.578125 C 3.664062 -4.578125 4.03125 -4.429688 4.28125 -4.140625 C 4.539062 -3.847656 4.671875 -3.414062 4.671875 -2.84375 L 4.671875 0 Z M 3.5 0 "/></g></g><g transform="translate(99.688441, 383.691613)"><g><path d="M 2.46875 0.078125 C 1.78125 0.078125 1.25 -0.125 0.875 -0.53125 C 0.507812 -0.9375 0.328125 -1.5 0.328125 -2.21875 C 0.328125 -2.957031 0.515625 -3.535156 0.890625 -3.953125 C 1.265625 -4.367188 1.796875 -4.578125 2.484375 -4.578125 C 3.015625 -4.578125 3.453125 -4.441406 3.796875 -4.171875 C 4.140625 -3.910156 4.351562 -3.546875 4.4375 -3.078125 L 3.265625 -3.015625 C 3.234375 -3.242188 3.148438 -3.425781 3.015625 -3.5625 C 2.890625 -3.695312 2.703125 -3.765625 2.453125 -3.765625 C 1.859375 -3.765625 1.5625 -3.265625 1.5625 -2.265625 C 1.5625 -1.234375 1.863281 -0.71875 2.46875 -0.71875 C 2.695312 -0.71875 2.882812 -0.785156 3.03125 -0.921875 C 3.175781 -1.066406 3.269531 -1.273438 3.3125 -1.546875 L 4.484375 -1.5 C 4.441406 -1.1875 4.328125 -0.910156 4.140625 -0.671875 C 3.960938 -0.429688 3.726562 -0.242188 3.4375 -0.109375 C 3.15625 0.015625 2.832031 0.078125 2.46875 0.078125 Z M 2.46875 0.078125 "/></g></g><g transform="translate(104.411707, 383.691613)"><g><path d="M 2.4375 0.078125 C 1.757812 0.078125 1.238281 -0.117188 0.875 -0.515625 C 0.507812 -0.910156 0.328125 -1.492188 0.328125 -2.265625 C 0.328125 -3.003906 0.507812 -3.570312 0.875 -3.96875 C 1.25 -4.375 1.773438 -4.578125 2.453125 -4.578125 C 3.097656 -4.578125 3.585938 -4.363281 3.921875 -3.9375 C 4.265625 -3.507812 4.4375 -2.878906 4.4375 -2.046875 L 4.4375 -2.015625 L 1.5625 -2.015625 C 1.5625 -1.578125 1.640625 -1.25 1.796875 -1.03125 C 1.960938 -0.8125 2.191406 -0.703125 2.484375 -0.703125 C 2.898438 -0.703125 3.160156 -0.878906 3.265625 -1.234375 L 4.375 -1.140625 C 4.050781 -0.328125 3.40625 0.078125 2.4375 0.078125 Z M 2.4375 -3.84375 C 2.15625 -3.84375 1.941406 -3.742188 1.796875 -3.546875 C 1.648438 -3.359375 1.570312 -3.09375 1.5625 -2.75 L 3.3125 -2.75 C 3.289062 -3.113281 3.203125 -3.382812 3.046875 -3.5625 C 2.890625 -3.75 2.6875 -3.84375 2.4375 -3.84375 Z M 2.4375 -3.84375 "/></g></g></g><g fill="#ffffff" fill-opacity="1"><g transform="translate(31.269516, 392.184368)"><g><path d="M 5.421875 0 L 5.421875 -3.546875 C 5.421875 -3.628906 5.421875 -3.707031 5.421875 -3.78125 C 5.421875 -3.863281 5.4375 -4.207031 5.46875 -4.8125 C 5.269531 -4.070312 5.125 -3.554688 5.03125 -3.265625 L 3.96875 0 L 3.109375 0 L 2.046875 -3.265625 L 1.609375 -4.8125 C 1.640625 -4.175781 1.65625 -3.753906 1.65625 -3.546875 L 1.65625 0 L 0.5625 0 L 0.5625 -5.84375 L 2.203125 -5.84375 L 3.25 -2.578125 L 3.34375 -2.265625 L 3.546875 -1.484375 L 3.8125 -2.421875 L 4.875 -5.84375 L 6.515625 -5.84375 L 6.515625 0 Z M 5.421875 0 "/></g></g><g transform="translate(38.344047, 392.184368)"><g><path d="M 2.4375 0.078125 C 1.757812 0.078125 1.238281 -0.117188 0.875 -0.515625 C 0.507812 -0.910156 0.328125 -1.492188 0.328125 -2.265625 C 0.328125 -3.003906 0.507812 -3.570312 0.875 -3.96875 C 1.25 -4.375 1.773438 -4.578125 2.453125 -4.578125 C 3.097656 -4.578125 3.585938 -4.363281 3.921875 -3.9375 C 4.265625 -3.507812 4.4375 -2.878906 4.4375 -2.046875 L 4.4375 -2.015625 L 1.5625 -2.015625 C 1.5625 -1.578125 1.640625 -1.25 1.796875 -1.03125 C 1.960938 -0.8125 2.191406 -0.703125 2.484375 -0.703125 C 2.898438 -0.703125 3.160156 -0.878906 3.265625 -1.234375 L 4.375 -1.140625 C 4.050781 -0.328125 3.40625 0.078125 2.4375 0.078125 Z M 2.4375 -3.84375 C 2.15625 -3.84375 1.941406 -3.742188 1.796875 -3.546875 C 1.648438 -3.359375 1.570312 -3.09375 1.5625 -2.75 L 3.3125 -2.75 C 3.289062 -3.113281 3.203125 -3.382812 3.046875 -3.5625 C 2.890625 -3.75 2.6875 -3.84375 2.4375 -3.84375 Z M 2.4375 -3.84375 "/></g></g><g transform="translate(43.067312, 392.184368)"><g><path d="M 2.4375 0.078125 C 1.757812 0.078125 1.238281 -0.117188 0.875 -0.515625 C 0.507812 -0.910156 0.328125 -1.492188 0.328125 -2.265625 C 0.328125 -3.003906 0.507812 -3.570312 0.875 -3.96875 C 1.25 -4.375 1.773438 -4.578125 2.453125 -4.578125 C 3.097656 -4.578125 3.585938 -4.363281 3.921875 -3.9375 C 4.265625 -3.507812 4.4375 -2.878906 4.4375 -2.046875 L 4.4375 -2.015625 L 1.5625 -2.015625 C 1.5625 -1.578125 1.640625 -1.25 1.796875 -1.03125 C 1.960938 -0.8125 2.191406 -0.703125 2.484375 -0.703125 C 2.898438 -0.703125 3.160156 -0.878906 3.265625 -1.234375 L 4.375 -1.140625 C 4.050781 -0.328125 3.40625 0.078125 2.4375 0.078125 Z M 2.4375 -3.84375 C 2.15625 -3.84375 1.941406 -3.742188 1.796875 -3.546875 C 1.648438 -3.359375 1.570312 -3.09375 1.5625 -2.75 L 3.3125 -2.75 C 3.289062 -3.113281 3.203125 -3.382812 3.046875 -3.5625 C 2.890625 -3.75 2.6875 -3.84375 2.4375 -3.84375 Z M 2.4375 -3.84375 "/></g></g><g transform="translate(47.790578, 392.184368)"><g><path d="M 1.75 0.078125 C 1.40625 0.078125 1.140625 -0.015625 0.953125 -0.203125 C 0.765625 -0.390625 0.671875 -0.671875 0.671875 -1.046875 L 0.671875 -3.703125 L 0.109375 -3.703125 L 0.109375 -4.484375 L 0.734375 -4.484375 L 1.09375 -5.546875 L 1.828125 -5.546875 L 1.828125 -4.484375 L 2.671875 -4.484375 L 2.671875 -3.703125 L 1.828125 -3.703125 L 1.828125 -1.375 C 1.828125 -1.15625 1.867188 -0.992188 1.953125 -0.890625 C 2.035156 -0.785156 2.164062 -0.734375 2.34375 -0.734375 C 2.425781 -0.734375 2.554688 -0.75 2.734375 -0.78125 L 2.734375 -0.0625 C 2.441406 0.03125 2.113281 0.078125 1.75 0.078125 Z M 1.75 0.078125 "/></g></g><g transform="translate(50.618731, 392.184368)"><g><path d="M 4.375 -1.3125 C 4.375 -0.875 4.195312 -0.53125 3.84375 -0.28125 C 3.488281 -0.0390625 3 0.078125 2.375 0.078125 C 1.75 0.078125 1.269531 -0.015625 0.9375 -0.203125 C 0.613281 -0.398438 0.398438 -0.707031 0.296875 -1.125 L 1.328125 -1.28125 C 1.378906 -1.0625 1.476562 -0.90625 1.625 -0.8125 C 1.769531 -0.726562 2.019531 -0.6875 2.375 -0.6875 C 2.695312 -0.6875 2.929688 -0.726562 3.078125 -0.8125 C 3.234375 -0.894531 3.3125 -1.023438 3.3125 -1.203125 C 3.3125 -1.347656 3.25 -1.460938 3.125 -1.546875 C 3.007812 -1.628906 2.804688 -1.703125 2.515625 -1.765625 C 1.859375 -1.890625 1.414062 -2.007812 1.1875 -2.125 C 0.957031 -2.238281 0.78125 -2.382812 0.65625 -2.5625 C 0.539062 -2.738281 0.484375 -2.957031 0.484375 -3.21875 C 0.484375 -3.644531 0.644531 -3.976562 0.96875 -4.21875 C 1.300781 -4.457031 1.769531 -4.578125 2.375 -4.578125 C 2.90625 -4.578125 3.332031 -4.472656 3.65625 -4.265625 C 3.988281 -4.054688 4.195312 -3.753906 4.28125 -3.359375 L 3.234375 -3.265625 C 3.203125 -3.441406 3.117188 -3.570312 2.984375 -3.65625 C 2.859375 -3.75 2.65625 -3.796875 2.375 -3.796875 C 2.101562 -3.796875 1.894531 -3.757812 1.75 -3.6875 C 1.613281 -3.625 1.546875 -3.507812 1.546875 -3.34375 C 1.546875 -3.207031 1.597656 -3.101562 1.703125 -3.03125 C 1.816406 -2.957031 2 -2.894531 2.25 -2.84375 C 2.59375 -2.769531 2.898438 -2.691406 3.171875 -2.609375 C 3.453125 -2.535156 3.671875 -2.445312 3.828125 -2.34375 C 3.992188 -2.238281 4.125 -2.101562 4.21875 -1.9375 C 4.320312 -1.78125 4.375 -1.570312 4.375 -1.3125 Z M 4.375 -1.3125 "/></g></g><g transform="translate(55.341997, 392.184368)"><g/></g><g transform="translate(57.701556, 392.184368)"><g><path d="M 4.703125 0 L 4.1875 -1.5 L 1.953125 -1.5 L 1.4375 0 L 0.21875 0 L 2.34375 -5.84375 L 3.796875 -5.84375 L 5.921875 0 Z M 3.0625 -4.953125 L 3.046875 -4.859375 C 3.015625 -4.753906 2.976562 -4.640625 2.9375 -4.515625 C 2.90625 -4.390625 2.671875 -3.691406 2.234375 -2.421875 L 3.90625 -2.421875 L 3.328125 -4.09375 L 3.15625 -4.65625 Z M 3.0625 -4.953125 "/></g></g><g transform="translate(63.834751, 392.184368)"><g><path d="M 0.59375 0 L 0.59375 -3.4375 C 0.59375 -3.6875 0.585938 -3.890625 0.578125 -4.046875 C 0.578125 -4.210938 0.570312 -4.359375 0.5625 -4.484375 L 1.671875 -4.484375 C 1.679688 -4.441406 1.691406 -4.289062 1.703125 -4.03125 C 1.722656 -3.78125 1.734375 -3.613281 1.734375 -3.53125 L 1.75 -3.53125 C 1.851562 -3.84375 1.945312 -4.0625 2.03125 -4.1875 C 2.125 -4.320312 2.234375 -4.421875 2.359375 -4.484375 C 2.484375 -4.546875 2.632812 -4.578125 2.8125 -4.578125 C 2.96875 -4.578125 3.085938 -4.554688 3.171875 -4.515625 L 3.171875 -3.546875 C 2.984375 -3.585938 2.820312 -3.609375 2.6875 -3.609375 C 2.394531 -3.609375 2.164062 -3.488281 2 -3.25 C 1.84375 -3.007812 1.765625 -2.660156 1.765625 -2.203125 L 1.765625 0 Z M 0.59375 0 "/></g></g><g transform="translate(67.139793, 392.184368)"><g><path d="M 1.75 0.078125 C 1.40625 0.078125 1.140625 -0.015625 0.953125 -0.203125 C 0.765625 -0.390625 0.671875 -0.671875 0.671875 -1.046875 L 0.671875 -3.703125 L 0.109375 -3.703125 L 0.109375 -4.484375 L 0.734375 -4.484375 L 1.09375 -5.546875 L 1.828125 -5.546875 L 1.828125 -4.484375 L 2.671875 -4.484375 L 2.671875 -3.703125 L 1.828125 -3.703125 L 1.828125 -1.375 C 1.828125 -1.15625 1.867188 -0.992188 1.953125 -0.890625 C 2.035156 -0.785156 2.164062 -0.734375 2.34375 -0.734375 C 2.425781 -0.734375 2.554688 -0.75 2.734375 -0.78125 L 2.734375 -0.0625 C 2.441406 0.03125 2.113281 0.078125 1.75 0.078125 Z M 1.75 0.078125 "/></g></g><g transform="translate(69.967947, 392.184368)"><g><path d="M 0.59375 -5.296875 L 0.59375 -6.15625 L 1.765625 -6.15625 L 1.765625 -5.296875 Z M 0.59375 0 L 0.59375 -4.484375 L 1.765625 -4.484375 L 1.765625 0 Z M 0.59375 0 "/></g></g><g transform="translate(72.327506, 392.184368)"><g><path d="M 1.96875 -3.703125 L 1.96875 0 L 0.796875 0 L 0.796875 -3.703125 L 0.140625 -3.703125 L 0.140625 -4.484375 L 0.796875 -4.484375 L 0.796875 -4.953125 C 0.796875 -5.359375 0.90625 -5.660156 1.125 -5.859375 C 1.34375 -6.054688 1.671875 -6.15625 2.109375 -6.15625 C 2.328125 -6.15625 2.570312 -6.132812 2.84375 -6.09375 L 2.84375 -5.34375 C 2.726562 -5.363281 2.613281 -5.375 2.5 -5.375 C 2.300781 -5.375 2.160156 -5.332031 2.078125 -5.25 C 2.003906 -5.175781 1.96875 -5.039062 1.96875 -4.84375 L 1.96875 -4.484375 L 2.84375 -4.484375 L 2.84375 -3.703125 Z M 1.96875 -3.703125 "/></g></g><g transform="translate(75.15566, 392.184368)"><g><path d="M 0.59375 -5.296875 L 0.59375 -6.15625 L 1.765625 -6.15625 L 1.765625 -5.296875 Z M 0.59375 0 L 0.59375 -4.484375 L 1.765625 -4.484375 L 1.765625 0 Z M 0.59375 0 "/></g></g><g transform="translate(77.515219, 392.184368)"><g><path d="M 2.46875 0.078125 C 1.78125 0.078125 1.25 -0.125 0.875 -0.53125 C 0.507812 -0.9375 0.328125 -1.5 0.328125 -2.21875 C 0.328125 -2.957031 0.515625 -3.535156 0.890625 -3.953125 C 1.265625 -4.367188 1.796875 -4.578125 2.484375 -4.578125 C 3.015625 -4.578125 3.453125 -4.441406 3.796875 -4.171875 C 4.140625 -3.910156 4.351562 -3.546875 4.4375 -3.078125 L 3.265625 -3.015625 C 3.234375 -3.242188 3.148438 -3.425781 3.015625 -3.5625 C 2.890625 -3.695312 2.703125 -3.765625 2.453125 -3.765625 C 1.859375 -3.765625 1.5625 -3.265625 1.5625 -2.265625 C 1.5625 -1.234375 1.863281 -0.71875 2.46875 -0.71875 C 2.695312 -0.71875 2.882812 -0.785156 3.03125 -0.921875 C 3.175781 -1.066406 3.269531 -1.273438 3.3125 -1.546875 L 4.484375 -1.5 C 4.441406 -1.1875 4.328125 -0.910156 4.140625 -0.671875 C 3.960938 -0.429688 3.726562 -0.242188 3.4375 -0.109375 C 3.15625 0.015625 2.832031 0.078125 2.46875 0.078125 Z M 2.46875 0.078125 "/></g></g><g transform="translate(82.238484, 392.184368)"><g><path d="M 0.59375 -5.296875 L 0.59375 -6.15625 L 1.765625 -6.15625 L 1.765625 -5.296875 Z M 0.59375 0 L 0.59375 -4.484375 L 1.765625 -4.484375 L 1.765625 0 Z M 0.59375 0 "/></g></g><g transform="translate(84.598044, 392.184368)"><g><path d="M 1.625 0.078125 C 1.195312 0.078125 0.859375 -0.0351562 0.609375 -0.265625 C 0.367188 -0.503906 0.25 -0.835938 0.25 -1.265625 C 0.25 -1.734375 0.398438 -2.085938 0.703125 -2.328125 C 1.003906 -2.578125 1.441406 -2.703125 2.015625 -2.703125 L 2.984375 -2.71875 L 2.984375 -2.953125 C 2.984375 -3.242188 2.929688 -3.457031 2.828125 -3.59375 C 2.734375 -3.738281 2.566406 -3.8125 2.328125 -3.8125 C 2.117188 -3.8125 1.960938 -3.765625 1.859375 -3.671875 C 1.753906 -3.578125 1.691406 -3.414062 1.671875 -3.1875 L 0.453125 -3.234375 C 0.523438 -3.671875 0.722656 -4.003906 1.046875 -4.234375 C 1.378906 -4.460938 1.820312 -4.578125 2.375 -4.578125 C 2.945312 -4.578125 3.382812 -4.4375 3.6875 -4.15625 C 4 -3.875 4.15625 -3.476562 4.15625 -2.96875 L 4.15625 -1.328125 C 4.15625 -1.078125 4.179688 -0.90625 4.234375 -0.8125 C 4.296875 -0.71875 4.394531 -0.671875 4.53125 -0.671875 C 4.613281 -0.671875 4.695312 -0.675781 4.78125 -0.6875 L 4.78125 -0.0625 C 4.707031 -0.0390625 4.644531 -0.0195312 4.59375 0 C 4.539062 0.0078125 4.484375 0.015625 4.421875 0.015625 C 4.367188 0.0234375 4.3125 0.03125 4.25 0.03125 C 4.1875 0.0390625 4.113281 0.046875 4.03125 0.046875 C 3.738281 0.046875 3.519531 -0.0195312 3.375 -0.15625 C 3.238281 -0.300781 3.160156 -0.515625 3.140625 -0.796875 L 3.109375 -0.796875 C 2.785156 -0.210938 2.289062 0.078125 1.625 0.078125 Z M 2.984375 -2.078125 L 2.390625 -2.078125 C 2.117188 -2.054688 1.925781 -2.019531 1.8125 -1.96875 C 1.695312 -1.925781 1.609375 -1.851562 1.546875 -1.75 C 1.492188 -1.65625 1.46875 -1.523438 1.46875 -1.359375 C 1.46875 -1.148438 1.515625 -0.992188 1.609375 -0.890625 C 1.710938 -0.785156 1.84375 -0.734375 2 -0.734375 C 2.1875 -0.734375 2.351562 -0.78125 2.5 -0.875 C 2.65625 -0.976562 2.773438 -1.117188 2.859375 -1.296875 C 2.941406 -1.472656 2.984375 -1.65625 2.984375 -1.84375 Z M 2.984375 -2.078125 "/></g></g><g transform="translate(89.321309, 392.184368)"><g><path d="M 0.59375 0 L 0.59375 -6.15625 L 1.765625 -6.15625 L 1.765625 0 Z M 0.59375 0 "/></g></g></g><g fill="#ffffff" fill-opacity="1"><g transform="translate(31.269516, 400.677123)"><g><path d="M 0.5625 0 L 0.5625 -5.84375 L 1.796875 -5.84375 L 1.796875 -0.953125 L 4.9375 -0.953125 L 4.9375 0 Z M 0.5625 0 "/></g></g><g transform="translate(36.457229, 400.677123)"><g><path d="M 2.4375 0.078125 C 1.757812 0.078125 1.238281 -0.117188 0.875 -0.515625 C 0.507812 -0.910156 0.328125 -1.492188 0.328125 -2.265625 C 0.328125 -3.003906 0.507812 -3.570312 0.875 -3.96875 C 1.25 -4.375 1.773438 -4.578125 2.453125 -4.578125 C 3.097656 -4.578125 3.585938 -4.363281 3.921875 -3.9375 C 4.265625 -3.507812 4.4375 -2.878906 4.4375 -2.046875 L 4.4375 -2.015625 L 1.5625 -2.015625 C 1.5625 -1.578125 1.640625 -1.25 1.796875 -1.03125 C 1.960938 -0.8125 2.191406 -0.703125 2.484375 -0.703125 C 2.898438 -0.703125 3.160156 -0.878906 3.265625 -1.234375 L 4.375 -1.140625 C 4.050781 -0.328125 3.40625 0.078125 2.4375 0.078125 Z M 2.4375 -3.84375 C 2.15625 -3.84375 1.941406 -3.742188 1.796875 -3.546875 C 1.648438 -3.359375 1.570312 -3.09375 1.5625 -2.75 L 3.3125 -2.75 C 3.289062 -3.113281 3.203125 -3.382812 3.046875 -3.5625 C 2.890625 -3.75 2.6875 -3.84375 2.4375 -3.84375 Z M 2.4375 -3.84375 "/></g></g><g transform="translate(41.180494, 400.677123)"><g><path d="M 1.625 0.078125 C 1.195312 0.078125 0.859375 -0.0351562 0.609375 -0.265625 C 0.367188 -0.503906 0.25 -0.835938 0.25 -1.265625 C 0.25 -1.734375 0.398438 -2.085938 0.703125 -2.328125 C 1.003906 -2.578125 1.441406 -2.703125 2.015625 -2.703125 L 2.984375 -2.71875 L 2.984375 -2.953125 C 2.984375 -3.242188 2.929688 -3.457031 2.828125 -3.59375 C 2.734375 -3.738281 2.566406 -3.8125 2.328125 -3.8125 C 2.117188 -3.8125 1.960938 -3.765625 1.859375 -3.671875 C 1.753906 -3.578125 1.691406 -3.414062 1.671875 -3.1875 L 0.453125 -3.234375 C 0.523438 -3.671875 0.722656 -4.003906 1.046875 -4.234375 C 1.378906 -4.460938 1.820312 -4.578125 2.375 -4.578125 C 2.945312 -4.578125 3.382812 -4.4375 3.6875 -4.15625 C 4 -3.875 4.15625 -3.476562 4.15625 -2.96875 L 4.15625 -1.328125 C 4.15625 -1.078125 4.179688 -0.90625 4.234375 -0.8125 C 4.296875 -0.71875 4.394531 -0.671875 4.53125 -0.671875 C 4.613281 -0.671875 4.695312 -0.675781 4.78125 -0.6875 L 4.78125 -0.0625 C 4.707031 -0.0390625 4.644531 -0.0195312 4.59375 0 C 4.539062 0.0078125 4.484375 0.015625 4.421875 0.015625 C 4.367188 0.0234375 4.3125 0.03125 4.25 0.03125 C 4.1875 0.0390625 4.113281 0.046875 4.03125 0.046875 C 3.738281 0.046875 3.519531 -0.0195312 3.375 -0.15625 C 3.238281 -0.300781 3.160156 -0.515625 3.140625 -0.796875 L 3.109375 -0.796875 C 2.785156 -0.210938 2.289062 0.078125 1.625 0.078125 Z M 2.984375 -2.078125 L 2.390625 -2.078125 C 2.117188 -2.054688 1.925781 -2.019531 1.8125 -1.96875 C 1.695312 -1.925781 1.609375 -1.851562 1.546875 -1.75 C 1.492188 -1.65625 1.46875 -1.523438 1.46875 -1.359375 C 1.46875 -1.148438 1.515625 -0.992188 1.609375 -0.890625 C 1.710938 -0.785156 1.84375 -0.734375 2 -0.734375 C 2.1875 -0.734375 2.351562 -0.78125 2.5 -0.875 C 2.65625 -0.976562 2.773438 -1.117188 2.859375 -1.296875 C 2.941406 -1.472656 2.984375 -1.65625 2.984375 -1.84375 Z M 2.984375 -2.078125 "/></g></g><g transform="translate(45.90376, 400.677123)"><g><path d="M 0.59375 0 L 0.59375 -3.4375 C 0.59375 -3.6875 0.585938 -3.890625 0.578125 -4.046875 C 0.578125 -4.210938 0.570312 -4.359375 0.5625 -4.484375 L 1.671875 -4.484375 C 1.679688 -4.441406 1.691406 -4.289062 1.703125 -4.03125 C 1.722656 -3.78125 1.734375 -3.613281 1.734375 -3.53125 L 1.75 -3.53125 C 1.851562 -3.84375 1.945312 -4.0625 2.03125 -4.1875 C 2.125 -4.320312 2.234375 -4.421875 2.359375 -4.484375 C 2.484375 -4.546875 2.632812 -4.578125 2.8125 -4.578125 C 2.96875 -4.578125 3.085938 -4.554688 3.171875 -4.515625 L 3.171875 -3.546875 C 2.984375 -3.585938 2.820312 -3.609375 2.6875 -3.609375 C 2.394531 -3.609375 2.164062 -3.488281 2 -3.25 C 1.84375 -3.007812 1.765625 -2.660156 1.765625 -2.203125 L 1.765625 0 Z M 0.59375 0 "/></g></g><g transform="translate(49.208801, 400.677123)"><g><path d="M 3.5 0 L 3.5 -2.515625 C 3.5 -3.304688 3.234375 -3.703125 2.703125 -3.703125 C 2.421875 -3.703125 2.191406 -3.578125 2.015625 -3.328125 C 1.847656 -3.085938 1.765625 -2.78125 1.765625 -2.40625 L 1.765625 0 L 0.59375 0 L 0.59375 -3.484375 C 0.59375 -3.722656 0.585938 -3.921875 0.578125 -4.078125 C 0.578125 -4.234375 0.570312 -4.367188 0.5625 -4.484375 L 1.671875 -4.484375 C 1.679688 -4.429688 1.691406 -4.289062 1.703125 -4.0625 C 1.722656 -3.84375 1.734375 -3.6875 1.734375 -3.59375 L 1.75 -3.59375 C 1.90625 -3.9375 2.097656 -4.1875 2.328125 -4.34375 C 2.566406 -4.5 2.851562 -4.578125 3.1875 -4.578125 C 3.664062 -4.578125 4.03125 -4.429688 4.28125 -4.140625 C 4.539062 -3.847656 4.671875 -3.414062 4.671875 -2.84375 L 4.671875 0 Z M 3.5 0 "/></g></g><g transform="translate(54.396514, 400.677123)"><g><path d="M 0.59375 -5.296875 L 0.59375 -6.15625 L 1.765625 -6.15625 L 1.765625 -5.296875 Z M 0.59375 0 L 0.59375 -4.484375 L 1.765625 -4.484375 L 1.765625 0 Z M 0.59375 0 "/></g></g><g transform="translate(56.756074, 400.677123)"><g><path d="M 3.5 0 L 3.5 -2.515625 C 3.5 -3.304688 3.234375 -3.703125 2.703125 -3.703125 C 2.421875 -3.703125 2.191406 -3.578125 2.015625 -3.328125 C 1.847656 -3.085938 1.765625 -2.78125 1.765625 -2.40625 L 1.765625 0 L 0.59375 0 L 0.59375 -3.484375 C 0.59375 -3.722656 0.585938 -3.921875 0.578125 -4.078125 C 0.578125 -4.234375 0.570312 -4.367188 0.5625 -4.484375 L 1.671875 -4.484375 C 1.679688 -4.429688 1.691406 -4.289062 1.703125 -4.0625 C 1.722656 -3.84375 1.734375 -3.6875 1.734375 -3.59375 L 1.75 -3.59375 C 1.90625 -3.9375 2.097656 -4.1875 2.328125 -4.34375 C 2.566406 -4.5 2.851562 -4.578125 3.1875 -4.578125 C 3.664062 -4.578125 4.03125 -4.429688 4.28125 -4.140625 C 4.539062 -3.847656 4.671875 -3.414062 4.671875 -2.84375 L 4.671875 0 Z M 3.5 0 "/></g></g><g transform="translate(61.943787, 400.677123)"><g><path d="M 2.46875 1.796875 C 1.925781 1.796875 1.488281 1.691406 1.15625 1.484375 C 0.820312 1.273438 0.613281 0.976562 0.53125 0.59375 L 1.703125 0.453125 C 1.742188 0.628906 1.832031 0.769531 1.96875 0.875 C 2.101562 0.976562 2.28125 1.03125 2.5 1.03125 C 2.832031 1.03125 3.070312 0.929688 3.21875 0.734375 C 3.363281 0.535156 3.4375 0.238281 3.4375 -0.15625 L 3.4375 -0.390625 L 3.453125 -0.828125 L 3.4375 -0.828125 C 3.1875 -0.285156 2.707031 -0.015625 2 -0.015625 C 1.476562 -0.015625 1.070312 -0.207031 0.78125 -0.59375 C 0.488281 -0.988281 0.34375 -1.550781 0.34375 -2.28125 C 0.34375 -3.007812 0.488281 -3.570312 0.78125 -3.96875 C 1.082031 -4.375 1.515625 -4.578125 2.078125 -4.578125 C 2.734375 -4.578125 3.1875 -4.304688 3.4375 -3.765625 L 3.46875 -3.765625 C 3.46875 -3.859375 3.472656 -3.988281 3.484375 -4.15625 C 3.492188 -4.320312 3.503906 -4.429688 3.515625 -4.484375 L 4.625 -4.484375 C 4.601562 -4.191406 4.59375 -3.847656 4.59375 -3.453125 L 4.59375 -0.140625 C 4.59375 0.503906 4.410156 0.988281 4.046875 1.3125 C 3.691406 1.632812 3.164062 1.796875 2.46875 1.796875 Z M 3.453125 -2.3125 C 3.453125 -2.769531 3.367188 -3.128906 3.203125 -3.390625 C 3.035156 -3.648438 2.800781 -3.78125 2.5 -3.78125 C 1.875 -3.78125 1.5625 -3.28125 1.5625 -2.28125 C 1.5625 -1.300781 1.867188 -0.8125 2.484375 -0.8125 C 2.796875 -0.8125 3.035156 -0.941406 3.203125 -1.203125 C 3.367188 -1.460938 3.453125 -1.832031 3.453125 -2.3125 Z M 3.453125 -2.3125 "/></g></g><g transform="translate(67.131499, 400.677123)"><g/></g><g transform="translate(69.491059, 400.677123)"><g><path d="M 0.59375 -5.296875 L 0.59375 -6.15625 L 1.765625 -6.15625 L 1.765625 -5.296875 Z M 0.59375 0 L 0.59375 -4.484375 L 1.765625 -4.484375 L 1.765625 0 Z M 0.59375 0 "/></g></g><g transform="translate(71.850618, 400.677123)"><g><path d="M 3.5 0 L 3.5 -2.515625 C 3.5 -3.304688 3.234375 -3.703125 2.703125 -3.703125 C 2.421875 -3.703125 2.191406 -3.578125 2.015625 -3.328125 C 1.847656 -3.085938 1.765625 -2.78125 1.765625 -2.40625 L 1.765625 0 L 0.59375 0 L 0.59375 -3.484375 C 0.59375 -3.722656 0.585938 -3.921875 0.578125 -4.078125 C 0.578125 -4.234375 0.570312 -4.367188 0.5625 -4.484375 L 1.671875 -4.484375 C 1.679688 -4.429688 1.691406 -4.289062 1.703125 -4.0625 C 1.722656 -3.84375 1.734375 -3.6875 1.734375 -3.59375 L 1.75 -3.59375 C 1.90625 -3.9375 2.097656 -4.1875 2.328125 -4.34375 C 2.566406 -4.5 2.851562 -4.578125 3.1875 -4.578125 C 3.664062 -4.578125 4.03125 -4.429688 4.28125 -4.140625 C 4.539062 -3.847656 4.671875 -3.414062 4.671875 -2.84375 L 4.671875 0 Z M 3.5 0 "/></g></g><g transform="translate(77.038331, 400.677123)"><g><path d="M 1.75 0.078125 C 1.40625 0.078125 1.140625 -0.015625 0.953125 -0.203125 C 0.765625 -0.390625 0.671875 -0.671875 0.671875 -1.046875 L 0.671875 -3.703125 L 0.109375 -3.703125 L 0.109375 -4.484375 L 0.734375 -4.484375 L 1.09375 -5.546875 L 1.828125 -5.546875 L 1.828125 -4.484375 L 2.671875 -4.484375 L 2.671875 -3.703125 L 1.828125 -3.703125 L 1.828125 -1.375 C 1.828125 -1.15625 1.867188 -0.992188 1.953125 -0.890625 C 2.035156 -0.785156 2.164062 -0.734375 2.34375 -0.734375 C 2.425781 -0.734375 2.554688 -0.75 2.734375 -0.78125 L 2.734375 -0.0625 C 2.441406 0.03125 2.113281 0.078125 1.75 0.078125 Z M 1.75 0.078125 "/></g></g><g transform="translate(79.866485, 400.677123)"><g><path d="M 2.4375 0.078125 C 1.757812 0.078125 1.238281 -0.117188 0.875 -0.515625 C 0.507812 -0.910156 0.328125 -1.492188 0.328125 -2.265625 C 0.328125 -3.003906 0.507812 -3.570312 0.875 -3.96875 C 1.25 -4.375 1.773438 -4.578125 2.453125 -4.578125 C 3.097656 -4.578125 3.585938 -4.363281 3.921875 -3.9375 C 4.265625 -3.507812 4.4375 -2.878906 4.4375 -2.046875 L 4.4375 -2.015625 L 1.5625 -2.015625 C 1.5625 -1.578125 1.640625 -1.25 1.796875 -1.03125 C 1.960938 -0.8125 2.191406 -0.703125 2.484375 -0.703125 C 2.898438 -0.703125 3.160156 -0.878906 3.265625 -1.234375 L 4.375 -1.140625 C 4.050781 -0.328125 3.40625 0.078125 2.4375 0.078125 Z M 2.4375 -3.84375 C 2.15625 -3.84375 1.941406 -3.742188 1.796875 -3.546875 C 1.648438 -3.359375 1.570312 -3.09375 1.5625 -2.75 L 3.3125 -2.75 C 3.289062 -3.113281 3.203125 -3.382812 3.046875 -3.5625 C 2.890625 -3.75 2.6875 -3.84375 2.4375 -3.84375 Z M 2.4375 -3.84375 "/></g></g><g transform="translate(84.58975, 400.677123)"><g><path d="M 0.59375 0 L 0.59375 -6.15625 L 1.765625 -6.15625 L 1.765625 0 Z M 0.59375 0 "/></g></g><g transform="translate(86.949309, 400.677123)"><g><path d="M 0.59375 0 L 0.59375 -6.15625 L 1.765625 -6.15625 L 1.765625 0 Z M 0.59375 0 "/></g></g><g transform="translate(89.308868, 400.677123)"><g><path d="M 0.59375 -5.296875 L 0.59375 -6.15625 L 1.765625 -6.15625 L 1.765625 -5.296875 Z M 0.59375 0 L 0.59375 -4.484375 L 1.765625 -4.484375 L 1.765625 0 Z M 0.59375 0 "/></g></g><g transform="translate(91.668428, 400.677123)"><g><path d="M 2.46875 1.796875 C 1.925781 1.796875 1.488281 1.691406 1.15625 1.484375 C 0.820312 1.273438 0.613281 0.976562 0.53125 0.59375 L 1.703125 0.453125 C 1.742188 0.628906 1.832031 0.769531 1.96875 0.875 C 2.101562 0.976562 2.28125 1.03125 2.5 1.03125 C 2.832031 1.03125 3.070312 0.929688 3.21875 0.734375 C 3.363281 0.535156 3.4375 0.238281 3.4375 -0.15625 L 3.4375 -0.390625 L 3.453125 -0.828125 L 3.4375 -0.828125 C 3.1875 -0.285156 2.707031 -0.015625 2 -0.015625 C 1.476562 -0.015625 1.070312 -0.207031 0.78125 -0.59375 C 0.488281 -0.988281 0.34375 -1.550781 0.34375 -2.28125 C 0.34375 -3.007812 0.488281 -3.570312 0.78125 -3.96875 C 1.082031 -4.375 1.515625 -4.578125 2.078125 -4.578125 C 2.734375 -4.578125 3.1875 -4.304688 3.4375 -3.765625 L 3.46875 -3.765625 C 3.46875 -3.859375 3.472656 -3.988281 3.484375 -4.15625 C 3.492188 -4.320312 3.503906 -4.429688 3.515625 -4.484375 L 4.625 -4.484375 C 4.601562 -4.191406 4.59375 -3.847656 4.59375 -3.453125 L 4.59375 -0.140625 C 4.59375 0.503906 4.410156 0.988281 4.046875 1.3125 C 3.691406 1.632812 3.164062 1.796875 2.46875 1.796875 Z M 3.453125 -2.3125 C 3.453125 -2.769531 3.367188 -3.128906 3.203125 -3.390625 C 3.035156 -3.648438 2.800781 -3.78125 2.5 -3.78125 C 1.875 -3.78125 1.5625 -3.28125 1.5625 -2.28125 C 1.5625 -1.300781 1.867188 -0.8125 2.484375 -0.8125 C 2.796875 -0.8125 3.035156 -0.941406 3.203125 -1.203125 C 3.367188 -1.460938 3.453125 -1.832031 3.453125 -2.3125 Z M 3.453125 -2.3125 "/></g></g><g transform="translate(96.856141, 400.677123)"><g><path d="M 2.4375 0.078125 C 1.757812 0.078125 1.238281 -0.117188 0.875 -0.515625 C 0.507812 -0.910156 0.328125 -1.492188 0.328125 -2.265625 C 0.328125 -3.003906 0.507812 -3.570312 0.875 -3.96875 C 1.25 -4.375 1.773438 -4.578125 2.453125 -4.578125 C 3.097656 -4.578125 3.585938 -4.363281 3.921875 -3.9375 C 4.265625 -3.507812 4.4375 -2.878906 4.4375 -2.046875 L 4.4375 -2.015625 L 1.5625 -2.015625 C 1.5625 -1.578125 1.640625 -1.25 1.796875 -1.03125 C 1.960938 -0.8125 2.191406 -0.703125 2.484375 -0.703125 C 2.898438 -0.703125 3.160156 -0.878906 3.265625 -1.234375 L 4.375 -1.140625 C 4.050781 -0.328125 3.40625 0.078125 2.4375 0.078125 Z M 2.4375 -3.84375 C 2.15625 -3.84375 1.941406 -3.742188 1.796875 -3.546875 C 1.648438 -3.359375 1.570312 -3.09375 1.5625 -2.75 L 3.3125 -2.75 C 3.289062 -3.113281 3.203125 -3.382812 3.046875 -3.5625 C 2.890625 -3.75 2.6875 -3.84375 2.4375 -3.84375 Z M 2.4375 -3.84375 "/></g></g><g transform="translate(101.579406, 400.677123)"><g><path d="M 3.5 0 L 3.5 -2.515625 C 3.5 -3.304688 3.234375 -3.703125 2.703125 -3.703125 C 2.421875 -3.703125 2.191406 -3.578125 2.015625 -3.328125 C 1.847656 -3.085938 1.765625 -2.78125 1.765625 -2.40625 L 1.765625 0 L 0.59375 0 L 0.59375 -3.484375 C 0.59375 -3.722656 0.585938 -3.921875 0.578125 -4.078125 C 0.578125 -4.234375 0.570312 -4.367188 0.5625 -4.484375 L 1.671875 -4.484375 C 1.679688 -4.429688 1.691406 -4.289062 1.703125 -4.0625 C 1.722656 -3.84375 1.734375 -3.6875 1.734375 -3.59375 L 1.75 -3.59375 C 1.90625 -3.9375 2.097656 -4.1875 2.328125 -4.34375 C 2.566406 -4.5 2.851562 -4.578125 3.1875 -4.578125 C 3.664062 -4.578125 4.03125 -4.429688 4.28125 -4.140625 C 4.539062 -3.847656 4.671875 -3.414062 4.671875 -2.84375 L 4.671875 0 Z M 3.5 0 "/></g></g><g transform="translate(106.767119, 400.677123)"><g><path d="M 2.46875 0.078125 C 1.78125 0.078125 1.25 -0.125 0.875 -0.53125 C 0.507812 -0.9375 0.328125 -1.5 0.328125 -2.21875 C 0.328125 -2.957031 0.515625 -3.535156 0.890625 -3.953125 C 1.265625 -4.367188 1.796875 -4.578125 2.484375 -4.578125 C 3.015625 -4.578125 3.453125 -4.441406 3.796875 -4.171875 C 4.140625 -3.910156 4.351562 -3.546875 4.4375 -3.078125 L 3.265625 -3.015625 C 3.234375 -3.242188 3.148438 -3.425781 3.015625 -3.5625 C 2.890625 -3.695312 2.703125 -3.765625 2.453125 -3.765625 C 1.859375 -3.765625 1.5625 -3.265625 1.5625 -2.265625 C 1.5625 -1.234375 1.863281 -0.71875 2.46875 -0.71875 C 2.695312 -0.71875 2.882812 -0.785156 3.03125 -0.921875 C 3.175781 -1.066406 3.269531 -1.273438 3.3125 -1.546875 L 4.484375 -1.5 C 4.441406 -1.1875 4.328125 -0.910156 4.140625 -0.671875 C 3.960938 -0.429688 3.726562 -0.242188 3.4375 -0.109375 C 3.15625 0.015625 2.832031 0.078125 2.46875 0.078125 Z M 2.46875 0.078125 "/></g></g><g transform="translate(111.490384, 400.677123)"><g><path d="M 2.4375 0.078125 C 1.757812 0.078125 1.238281 -0.117188 0.875 -0.515625 C 0.507812 -0.910156 0.328125 -1.492188 0.328125 -2.265625 C 0.328125 -3.003906 0.507812 -3.570312 0.875 -3.96875 C 1.25 -4.375 1.773438 -4.578125 2.453125 -4.578125 C 3.097656 -4.578125 3.585938 -4.363281 3.921875 -3.9375 C 4.265625 -3.507812 4.4375 -2.878906 4.4375 -2.046875 L 4.4375 -2.015625 L 1.5625 -2.015625 C 1.5625 -1.578125 1.640625 -1.25 1.796875 -1.03125 C 1.960938 -0.8125 2.191406 -0.703125 2.484375 -0.703125 C 2.898438 -0.703125 3.160156 -0.878906 3.265625 -1.234375 L 4.375 -1.140625 C 4.050781 -0.328125 3.40625 0.078125 2.4375 0.078125 Z M 2.4375 -3.84375 C 2.15625 -3.84375 1.941406 -3.742188 1.796875 -3.546875 C 1.648438 -3.359375 1.570312 -3.09375 1.5625 -2.75 L 3.3125 -2.75 C 3.289062 -3.113281 3.203125 -3.382812 3.046875 -3.5625 C 2.890625 -3.75 2.6875 -3.84375 2.4375 -3.84375 Z M 2.4375 -3.84375 "/></g></g></g><g fill="#000000" fill-opacity="1"><g transform="translate(276.10912, 303.964003)"><g><path d="M 19.90625 -41.578125 C 26.050781 -41.578125 31.453125 -40.050781 36.109375 -37 L 32.171875 -28.828125 C 30.023438 -30.078125 27.71875 -31.101562 25.25 -31.90625 C 22.78125 -32.71875 20.707031 -33.125 19.03125 -33.125 C 16.007812 -33.125 14.5 -32.125 14.5 -30.125 C 14.5 -28.832031 15.242188 -27.796875 16.734375 -27.015625 C 18.222656 -26.234375 20.03125 -25.554688 22.15625 -24.984375 C 24.289062 -24.421875 26.425781 -23.734375 28.5625 -22.921875 C 30.695312 -22.117188 32.507812 -20.816406 34 -19.015625 C 35.488281 -17.222656 36.234375 -14.957031 36.234375 -12.21875 C 36.234375 -8.257812 34.6875 -5.171875 31.59375 -2.953125 C 28.5 -0.742188 24.5625 0.359375 19.78125 0.359375 C 16.375 0.359375 13.007812 -0.226562 9.6875 -1.40625 C 6.363281 -2.582031 3.46875 -4.1875 1 -6.21875 L 5.046875 -14.265625 C 7.117188 -12.460938 9.566406 -10.984375 12.390625 -9.828125 C 15.210938 -8.679688 17.71875 -8.109375 19.90625 -8.109375 C 21.59375 -8.109375 22.90625 -8.410156 23.84375 -9.015625 C 24.78125 -9.617188 25.25 -10.507812 25.25 -11.6875 C 25.25 -12.820312 24.707031 -13.769531 23.625 -14.53125 C 22.550781 -15.289062 21.210938 -15.859375 19.609375 -16.234375 C 18.003906 -16.609375 16.257812 -17.109375 14.375 -17.734375 C 12.5 -18.359375 10.757812 -19.039062 9.15625 -19.78125 C 7.550781 -20.53125 6.207031 -21.71875 5.125 -23.34375 C 4.050781 -24.96875 3.515625 -26.914062 3.515625 -29.1875 C 3.515625 -32.9375 5.007812 -35.9375 8 -38.1875 C 11 -40.445312 14.96875 -41.578125 19.90625 -41.578125 Z M 19.90625 -41.578125 "/></g></g></g><g fill="#000000" fill-opacity="1"><g transform="translate(313.924022, 303.964003)"><g><path d="M 17.84375 -32 C 20.976562 -32 23.769531 -31.378906 26.21875 -30.140625 C 28.664062 -28.910156 30.570312 -27.160156 31.9375 -24.890625 L 24.65625 -20.5 C 23.09375 -22.6875 20.960938 -23.78125 18.265625 -23.78125 C 16.304688 -23.78125 14.707031 -23.046875 13.46875 -21.578125 C 12.238281 -20.109375 11.625 -18.179688 11.625 -15.796875 C 11.625 -13.367188 12.226562 -11.421875 13.4375 -9.953125 C 14.65625 -8.484375 16.265625 -7.75 18.265625 -7.75 C 21.234375 -7.75 23.382812 -8.941406 24.71875 -11.328125 L 32.125 -6.984375 C 30.832031 -4.640625 28.941406 -2.828125 26.453125 -1.546875 C 23.960938 -0.273438 21.054688 0.359375 17.734375 0.359375 C 12.835938 0.359375 8.890625 -1.117188 5.890625 -4.078125 C 2.898438 -7.035156 1.40625 -10.921875 1.40625 -15.734375 C 1.40625 -20.585938 2.921875 -24.507812 5.953125 -27.5 C 8.992188 -30.5 12.957031 -32 17.84375 -32 Z M 17.84375 -32 "/></g></g></g><g fill="#000000" fill-opacity="1"><g transform="translate(346.924017, 303.964003)"><g><path d="M 25.125 -32.125 C 28.613281 -32.125 31.414062 -31.015625 33.53125 -28.796875 C 35.644531 -26.585938 36.703125 -23.644531 36.703125 -19.96875 L 36.703125 0 L 26.546875 0 L 26.546875 -17.140625 C 26.546875 -18.984375 26.046875 -20.441406 25.046875 -21.515625 C 24.046875 -22.597656 22.6875 -23.140625 20.96875 -23.140625 C 19.007812 -23.140625 17.441406 -22.429688 16.265625 -21.015625 C 15.085938 -19.609375 14.5 -17.8125 14.5 -15.625 L 14.5 0 L 4.34375 0 L 4.34375 -43.5625 L 14.5 -43.5625 L 14.5 -26.421875 C 16.726562 -30.140625 20.269531 -32.039062 25.125 -32.125 Z M 25.125 -32.125 "/></g></g></g><g fill="#000000" fill-opacity="1"><g transform="translate(386.73538, 303.964003)"><g><path d="M 18.734375 -32 C 23.898438 -32 28.066406 -30.519531 31.234375 -27.5625 C 34.410156 -24.613281 36 -20.710938 36 -15.859375 C 36 -11.003906 34.410156 -7.085938 31.234375 -4.109375 C 28.066406 -1.128906 23.898438 0.359375 18.734375 0.359375 C 13.523438 0.359375 9.332031 -1.128906 6.15625 -4.109375 C 2.988281 -7.085938 1.40625 -11.003906 1.40625 -15.859375 C 1.40625 -20.710938 2.988281 -24.613281 6.15625 -27.5625 C 9.332031 -30.519531 13.523438 -32 18.734375 -32 Z M 18.734375 -23.953125 C 16.617188 -23.953125 14.90625 -23.1875 13.59375 -21.65625 C 12.28125 -20.132812 11.625 -18.160156 11.625 -15.734375 C 11.625 -13.265625 12.28125 -11.273438 13.59375 -9.765625 C 14.90625 -8.265625 16.617188 -7.515625 18.734375 -7.515625 C 20.804688 -7.515625 22.5 -8.265625 23.8125 -9.765625 C 25.125 -11.273438 25.78125 -13.265625 25.78125 -15.734375 C 25.78125 -18.160156 25.125 -20.132812 23.8125 -21.65625 C 22.5 -23.1875 20.804688 -23.953125 18.734375 -23.953125 Z M 18.734375 -23.953125 "/></g></g></g><g fill="#000000" fill-opacity="1"><g transform="translate(424.139261, 303.964003)"><g><path d="M 18.734375 -32 C 23.898438 -32 28.066406 -30.519531 31.234375 -27.5625 C 34.410156 -24.613281 36 -20.710938 36 -15.859375 C 36 -11.003906 34.410156 -7.085938 31.234375 -4.109375 C 28.066406 -1.128906 23.898438 0.359375 18.734375 0.359375 C 13.523438 0.359375 9.332031 -1.128906 6.15625 -4.109375 C 2.988281 -7.085938 1.40625 -11.003906 1.40625 -15.859375 C 1.40625 -20.710938 2.988281 -24.613281 6.15625 -27.5625 C 9.332031 -30.519531 13.523438 -32 18.734375 -32 Z M 18.734375 -23.953125 C 16.617188 -23.953125 14.90625 -23.1875 13.59375 -21.65625 C 12.28125 -20.132812 11.625 -18.160156 11.625 -15.734375 C 11.625 -13.265625 12.28125 -11.273438 13.59375 -9.765625 C 14.90625 -8.265625 16.617188 -7.515625 18.734375 -7.515625 C 20.804688 -7.515625 22.5 -8.265625 23.8125 -9.765625 C 25.125 -11.273438 25.78125 -13.265625 25.78125 -15.734375 C 25.78125 -18.160156 25.125 -20.132812 23.8125 -21.65625 C 22.5 -23.1875 20.804688 -23.953125 18.734375 -23.953125 Z M 18.734375 -23.953125 "/></g></g></g><g fill="#000000" fill-opacity="1"><g transform="translate(461.543142, 303.964003)"><g><path d="M 14.5 0 L 4.34375 0 L 4.34375 -43.5625 L 14.5 -43.5625 Z M 14.5 0 "/></g></g></g><g fill="#000000" fill-opacity="1"><g transform="translate(480.391863, 303.964003)"><g/></g></g><g fill="#000000" fill-opacity="1"><g transform="translate(494.014657, 303.964003)"><g><path d="M 18.734375 -32 C 23.898438 -32 28.066406 -30.519531 31.234375 -27.5625 C 34.410156 -24.613281 36 -20.710938 36 -15.859375 C 36 -11.003906 34.410156 -7.085938 31.234375 -4.109375 C 28.066406 -1.128906 23.898438 0.359375 18.734375 0.359375 C 13.523438 0.359375 9.332031 -1.128906 6.15625 -4.109375 C 2.988281 -7.085938 1.40625 -11.003906 1.40625 -15.859375 C 1.40625 -20.710938 2.988281 -24.613281 6.15625 -27.5625 C 9.332031 -30.519531 13.523438 -32 18.734375 -32 Z M 18.734375 -23.953125 C 16.617188 -23.953125 14.90625 -23.1875 13.59375 -21.65625 C 12.28125 -20.132812 11.625 -18.160156 11.625 -15.734375 C 11.625 -13.265625 12.28125 -11.273438 13.59375 -9.765625 C 14.90625 -8.265625 16.617188 -7.515625 18.734375 -7.515625 C 20.804688 -7.515625 22.5 -8.265625 23.8125 -9.765625 C 25.125 -11.273438 25.78125 -13.265625 25.78125 -15.734375 C 25.78125 -18.160156 25.125 -20.132812 23.8125 -21.65625 C 22.5 -23.1875 20.804688 -23.953125 18.734375 -23.953125 Z M 18.734375 -23.953125 "/></g></g></g><g fill="#000000" fill-opacity="1"><g transform="translate(531.418538, 303.964003)"><g><path d="M 19.609375 -36 C 18.554688 -36.03125 17.6875 -35.742188 17 -35.140625 C 16.3125 -34.535156 15.96875 -33.664062 15.96875 -32.53125 L 15.96875 -30.234375 L 23.140625 -30.234375 L 23.140625 -23.546875 L 15.96875 -23.546875 L 15.96875 0 L 5.9375 0 L 5.9375 -23.546875 L 1.640625 -23.546875 L 1.640625 -30.234375 L 5.9375 -30.234375 L 5.9375 -33.171875 C 5.9375 -36.578125 7.066406 -39.238281 9.328125 -41.15625 C 11.597656 -43.070312 14.5 -44.03125 18.03125 -44.03125 C 21.394531 -44.03125 24.347656 -43.289062 26.890625 -41.8125 L 23.3125 -34.703125 C 22.132812 -35.566406 20.898438 -36 19.609375 -36 Z M 19.609375 -36 "/></g></g></g><g fill="#000000" fill-opacity="1"><g transform="translate(276.10912, 385.579058)"><g><path d="M 49.265625 0 L 40.046875 0 L 39.984375 -26.71875 L 30.125 -4.109375 L 23.3125 -4.109375 L 13.453125 -26.71875 L 13.453125 0 L 4.109375 0 L 4.109375 -41.15625 L 15.5625 -41.15625 L 26.71875 -16.671875 L 37.875 -41.15625 L 49.265625 -41.15625 Z M 49.265625 0 "/></g></g></g><g fill="#000000" fill-opacity="1"><g transform="translate(329.54322, 385.579058)"><g><path d="M 18.265625 -32.125 C 22.609375 -32.125 25.984375 -31.113281 28.390625 -29.09375 C 30.796875 -27.082031 32.019531 -24.273438 32.0625 -20.671875 L 32.0625 0 L 22.140625 0 L 22.140625 -3.640625 C 20.066406 -0.898438 16.835938 0.46875 12.453125 0.46875 C 9.117188 0.46875 6.472656 -0.445312 4.515625 -2.28125 C 2.554688 -4.125 1.578125 -6.515625 1.578125 -9.453125 C 1.578125 -12.460938 2.625 -14.800781 4.71875 -16.46875 C 6.820312 -18.132812 9.828125 -18.988281 13.734375 -19.03125 L 22.078125 -19.03125 L 22.078125 -19.5 C 22.078125 -21.0625 21.554688 -22.28125 20.515625 -23.15625 C 19.484375 -24.039062 17.945312 -24.484375 15.90625 -24.484375 C 13.050781 -24.484375 9.898438 -23.601562 6.453125 -21.84375 L 3.578125 -28.53125 C 8.710938 -30.925781 13.609375 -32.125 18.265625 -32.125 Z M 15.5625 -6.40625 C 17.164062 -6.40625 18.570312 -6.804688 19.78125 -7.609375 C 21 -8.410156 21.765625 -9.457031 22.078125 -10.75 L 22.078125 -13.5625 L 15.671875 -13.5625 C 12.617188 -13.5625 11.09375 -12.425781 11.09375 -10.15625 C 11.09375 -8.976562 11.484375 -8.054688 12.265625 -7.390625 C 13.054688 -6.734375 14.15625 -6.40625 15.5625 -6.40625 Z M 15.5625 -6.40625 "/></g></g></g><g fill="#000000" fill-opacity="1"><g transform="translate(364.774536, 385.579058)"><g><path d="M 17.84375 -32 C 20.976562 -32 23.769531 -31.378906 26.21875 -30.140625 C 28.664062 -28.910156 30.570312 -27.160156 31.9375 -24.890625 L 24.65625 -20.5 C 23.09375 -22.6875 20.960938 -23.78125 18.265625 -23.78125 C 16.304688 -23.78125 14.707031 -23.046875 13.46875 -21.578125 C 12.238281 -20.109375 11.625 -18.179688 11.625 -15.796875 C 11.625 -13.367188 12.226562 -11.421875 13.4375 -9.953125 C 14.65625 -8.484375 16.265625 -7.75 18.265625 -7.75 C 21.234375 -7.75 23.382812 -8.941406 24.71875 -11.328125 L 32.125 -6.984375 C 30.832031 -4.640625 28.941406 -2.828125 26.453125 -1.546875 C 23.960938 -0.273438 21.054688 0.359375 17.734375 0.359375 C 12.835938 0.359375 8.890625 -1.117188 5.890625 -4.078125 C 2.898438 -7.035156 1.40625 -10.921875 1.40625 -15.734375 C 1.40625 -20.585938 2.921875 -24.507812 5.953125 -27.5 C 8.992188 -30.5 12.957031 -32 17.84375 -32 Z M 17.84375 -32 "/></g></g></g><g fill="#000000" fill-opacity="1"><g transform="translate(397.774531, 385.579058)"><g><path d="M 25.125 -32.125 C 28.613281 -32.125 31.414062 -31.015625 33.53125 -28.796875 C 35.644531 -26.585938 36.703125 -23.644531 36.703125 -19.96875 L 36.703125 0 L 26.546875 0 L 26.546875 -17.140625 C 26.546875 -18.984375 26.046875 -20.441406 25.046875 -21.515625 C 24.046875 -22.597656 22.6875 -23.140625 20.96875 -23.140625 C 19.007812 -23.140625 17.441406 -22.429688 16.265625 -21.015625 C 15.085938 -19.609375 14.5 -17.8125 14.5 -15.625 L 14.5 0 L 4.34375 0 L 4.34375 -43.5625 L 14.5 -43.5625 L 14.5 -26.421875 C 16.726562 -30.140625 20.269531 -32.039062 25.125 -32.125 Z M 25.125 -32.125 "/></g></g></g><g fill="#000000" fill-opacity="1"><g transform="translate(437.585894, 385.579058)"><g><path d="M 5.3125 -44.59375 C 6.3125 -45.59375 7.59375 -46.09375 9.15625 -46.09375 C 10.726562 -46.09375 12.007812 -45.59375 13 -44.59375 C 14 -43.59375 14.5 -42.3125 14.5 -40.75 C 14.5 -39.1875 14 -37.894531 13 -36.875 C 12.007812 -35.851562 10.726562 -35.34375 9.15625 -35.34375 C 7.59375 -35.34375 6.3125 -35.851562 5.3125 -36.875 C 4.3125 -37.894531 3.8125 -39.1875 3.8125 -40.75 C 3.8125 -42.3125 4.3125 -43.59375 5.3125 -44.59375 Z M 14.15625 0 L 4.046875 0 L 4.046875 -31.65625 L 14.15625 -31.65625 Z M 14.15625 0 "/></g></g></g><g fill="#000000" fill-opacity="1"><g transform="translate(455.847435, 385.579058)"><g><path d="M 24.78125 -32.125 C 28.257812 -32.125 31.054688 -31.015625 33.171875 -28.796875 C 35.285156 -26.585938 36.34375 -23.644531 36.34375 -19.96875 L 36.34375 0 L 26.25 0 L 26.25 -17.140625 C 26.25 -18.984375 25.75 -20.441406 24.75 -21.515625 C 23.75 -22.597656 22.390625 -23.140625 20.671875 -23.140625 C 18.867188 -23.140625 17.390625 -22.550781 16.234375 -21.375 C 15.078125 -20.195312 14.398438 -18.648438 14.203125 -16.734375 L 14.203125 0 L 4.046875 0 L 4.046875 -31.65625 L 14.203125 -31.65625 L 14.203125 -26.484375 C 16.441406 -30.160156 19.96875 -32.039062 24.78125 -32.125 Z M 24.78125 -32.125 "/></g></g></g><g fill="#000000" fill-opacity="1"><g transform="translate(495.365179, 385.579058)"><g><path d="M 17.90625 -32 C 23.382812 -32 27.503906 -30.316406 30.265625 -26.953125 C 33.023438 -23.585938 34.226562 -18.96875 33.875 -13.09375 L 11.625 -13.09375 C 12.132812 -11.21875 13.035156 -9.769531 14.328125 -8.75 C 15.617188 -7.726562 17.203125 -7.21875 19.078125 -7.21875 C 21.972656 -7.21875 24.5 -8.296875 26.65625 -10.453125 L 32 -5.21875 C 28.59375 -1.5 23.992188 0.359375 18.203125 0.359375 C 13.078125 0.359375 8.992188 -1.109375 5.953125 -4.046875 C 2.921875 -6.984375 1.40625 -10.878906 1.40625 -15.734375 C 1.40625 -20.628906 2.921875 -24.5625 5.953125 -27.53125 C 8.992188 -30.507812 12.976562 -32 17.90625 -32 Z M 11.453125 -18.5625 L 24.140625 -18.5625 C 24.140625 -20.476562 23.578125 -22.019531 22.453125 -23.1875 C 21.335938 -24.363281 19.863281 -24.953125 18.03125 -24.953125 C 16.300781 -24.953125 14.847656 -24.375 13.671875 -23.21875 C 12.503906 -22.0625 11.765625 -20.507812 11.453125 -18.5625 Z M 11.453125 -18.5625 "/></g></g></g><g fill="#000000" fill-opacity="1"><g transform="translate(530.713898, 385.579058)"><g/></g></g><g fill="#000000" fill-opacity="1"><g transform="translate(544.336691, 385.579058)"><g><path d="M 14.5625 -8.75 L 32 -8.75 L 32 0 L 4.109375 0 L 4.109375 -41.109375 L 14.5625 -41.109375 Z M 14.5625 -8.75 "/></g></g></g><g fill="#000000" fill-opacity="1"><g transform="translate(577.219227, 385.579058)"><g><path d="M 17.90625 -32 C 23.382812 -32 27.503906 -30.316406 30.265625 -26.953125 C 33.023438 -23.585938 34.226562 -18.96875 33.875 -13.09375 L 11.625 -13.09375 C 12.132812 -11.21875 13.035156 -9.769531 14.328125 -8.75 C 15.617188 -7.726562 17.203125 -7.21875 19.078125 -7.21875 C 21.972656 -7.21875 24.5 -8.296875 26.65625 -10.453125 L 32 -5.21875 C 28.59375 -1.5 23.992188 0.359375 18.203125 0.359375 C 13.078125 0.359375 8.992188 -1.109375 5.953125 -4.046875 C 2.921875 -6.984375 1.40625 -10.878906 1.40625 -15.734375 C 1.40625 -20.628906 2.921875 -24.5625 5.953125 -27.53125 C 8.992188 -30.507812 12.976562 -32 17.90625 -32 Z M 11.453125 -18.5625 L 24.140625 -18.5625 C 24.140625 -20.476562 23.578125 -22.019531 22.453125 -23.1875 C 21.335938 -24.363281 19.863281 -24.953125 18.03125 -24.953125 C 16.300781 -24.953125 14.847656 -24.375 13.671875 -23.21875 C 12.503906 -22.0625 11.765625 -20.507812 11.453125 -18.5625 Z M 11.453125 -18.5625 "/></g></g></g><g fill="#000000" fill-opacity="1"><g transform="translate(612.567946, 385.579058)"><g><path d="M 18.265625 -32.125 C 22.609375 -32.125 25.984375 -31.113281 28.390625 -29.09375 C 30.796875 -27.082031 32.019531 -24.273438 32.0625 -20.671875 L 32.0625 0 L 22.140625 0 L 22.140625 -3.640625 C 20.066406 -0.898438 16.835938 0.46875 12.453125 0.46875 C 9.117188 0.46875 6.472656 -0.445312 4.515625 -2.28125 C 2.554688 -4.125 1.578125 -6.515625 1.578125 -9.453125 C 1.578125 -12.460938 2.625 -14.800781 4.71875 -16.46875 C 6.820312 -18.132812 9.828125 -18.988281 13.734375 -19.03125 L 22.078125 -19.03125 L 22.078125 -19.5 C 22.078125 -21.0625 21.554688 -22.28125 20.515625 -23.15625 C 19.484375 -24.039062 17.945312 -24.484375 15.90625 -24.484375 C 13.050781 -24.484375 9.898438 -23.601562 6.453125 -21.84375 L 3.578125 -28.53125 C 8.710938 -30.925781 13.609375 -32.125 18.265625 -32.125 Z M 15.5625 -6.40625 C 17.164062 -6.40625 18.570312 -6.804688 19.78125 -7.609375 C 21 -8.410156 21.765625 -9.457031 22.078125 -10.75 L 22.078125 -13.5625 L 15.671875 -13.5625 C 12.617188 -13.5625 11.09375 -12.425781 11.09375 -10.15625 C 11.09375 -8.976562 11.484375 -8.054688 12.265625 -7.390625 C 13.054688 -6.734375 14.15625 -6.40625 15.5625 -6.40625 Z M 15.5625 -6.40625 "/></g></g></g><g fill="#000000" fill-opacity="1"><g transform="translate(647.799263, 385.579058)"><g><path d="M 14.203125 -31.65625 L 14.203125 -26.3125 C 16.441406 -30.101562 19.867188 -32.039062 24.484375 -32.125 L 24.484375 -22.953125 C 21.585938 -23.234375 19.21875 -22.753906 17.375 -21.515625 C 15.539062 -20.285156 14.484375 -18.535156 14.203125 -16.265625 L 14.203125 0 L 4.046875 0 L 4.046875 -31.65625 Z M 14.203125 -31.65625 "/></g></g></g><g fill="#000000" fill-opacity="1"><g transform="translate(672.872172, 385.579058)"><g><path d="M 24.78125 -32.125 C 28.257812 -32.125 31.054688 -31.015625 33.171875 -28.796875 C 35.285156 -26.585938 36.34375 -23.644531 36.34375 -19.96875 L 36.34375 0 L 26.25 0 L 26.25 -17.140625 C 26.25 -18.984375 25.75 -20.441406 24.75 -21.515625 C 23.75 -22.597656 22.390625 -23.140625 20.671875 -23.140625 C 18.867188 -23.140625 17.390625 -22.550781 16.234375 -21.375 C 15.078125 -20.195312 14.398438 -18.648438 14.203125 -16.734375 L 14.203125 0 L 4.046875 0 L 4.046875 -31.65625 L 14.203125 -31.65625 L 14.203125 -26.484375 C 16.441406 -30.160156 19.96875 -32.039062 24.78125 -32.125 Z M 24.78125 -32.125 "/></g></g></g><g fill="#000000" fill-opacity="1"><g transform="translate(712.389916, 385.579058)"><g><path d="M 5.3125 -44.59375 C 6.3125 -45.59375 7.59375 -46.09375 9.15625 -46.09375 C 10.726562 -46.09375 12.007812 -45.59375 13 -44.59375 C 14 -43.59375 14.5 -42.3125 14.5 -40.75 C 14.5 -39.1875 14 -37.894531 13 -36.875 C 12.007812 -35.851562 10.726562 -35.34375 9.15625 -35.34375 C 7.59375 -35.34375 6.3125 -35.851562 5.3125 -36.875 C 4.3125 -37.894531 3.8125 -39.1875 3.8125 -40.75 C 3.8125 -42.3125 4.3125 -43.59375 5.3125 -44.59375 Z M 14.15625 0 L 4.046875 0 L 4.046875 -31.65625 L 14.15625 -31.65625 Z M 14.15625 0 "/></g></g></g><g fill="#000000" fill-opacity="1"><g transform="translate(730.651457, 385.579058)"><g><path d="M 24.78125 -32.125 C 28.257812 -32.125 31.054688 -31.015625 33.171875 -28.796875 C 35.285156 -26.585938 36.34375 -23.644531 36.34375 -19.96875 L 36.34375 0 L 26.25 0 L 26.25 -17.140625 C 26.25 -18.984375 25.75 -20.441406 24.75 -21.515625 C 23.75 -22.597656 22.390625 -23.140625 20.671875 -23.140625 C 18.867188 -23.140625 17.390625 -22.550781 16.234375 -21.375 C 15.078125 -20.195312 14.398438 -18.648438 14.203125 -16.734375 L 14.203125 0 L 4.046875 0 L 4.046875 -31.65625 L 14.203125 -31.65625 L 14.203125 -26.484375 C 16.441406 -30.160156 19.96875 -32.039062 24.78125 -32.125 Z M 24.78125 -32.125 "/></g></g></g><g fill="#000000" fill-opacity="1"><g transform="translate(770.169201, 385.579058)"><g><path d="M 34.296875 -31.65625 L 34.296875 -2.875 C 34.296875 1.582031 32.71875 5.140625 29.5625 7.796875 C 26.414062 10.460938 22.273438 11.796875 17.140625 11.796875 C 11.898438 11.796875 7.203125 10.410156 3.046875 7.640625 L 6.578125 0.765625 C 9.628906 2.878906 12.894531 3.9375 16.375 3.9375 C 18.800781 3.9375 20.707031 3.347656 22.09375 2.171875 C 23.488281 0.992188 24.1875 -0.585938 24.1875 -2.578125 L 24.1875 -5.9375 C 22.039062 -3.113281 19.007812 -1.703125 15.09375 -1.703125 C 11.0625 -1.703125 7.78125 -3.109375 5.25 -5.921875 C 2.726562 -8.742188 1.46875 -12.445312 1.46875 -17.03125 C 1.46875 -21.488281 2.695312 -25.097656 5.15625 -27.859375 C 7.625 -30.617188 10.859375 -32 14.859375 -32 C 18.890625 -32.039062 22 -30.632812 24.1875 -27.78125 L 24.1875 -31.65625 Z M 17.609375 -9.046875 C 19.566406 -9.046875 21.148438 -9.757812 22.359375 -11.1875 C 23.578125 -12.613281 24.1875 -14.460938 24.1875 -16.734375 C 24.1875 -19.046875 23.578125 -20.914062 22.359375 -22.34375 C 21.148438 -23.769531 19.566406 -24.484375 17.609375 -24.484375 C 15.617188 -24.484375 14.003906 -23.769531 12.765625 -22.34375 C 11.535156 -20.914062 10.921875 -19.046875 10.921875 -16.734375 C 10.921875 -14.460938 11.535156 -12.613281 12.765625 -11.1875 C 14.003906 -9.757812 15.617188 -9.046875 17.609375 -9.046875 Z M 17.609375 -9.046875 "/></g></g></g></svg>